<svg xmlns="http://www.w3.org/2000/svg" width="483.532" height="246.427" viewBox="0 0 483.532 246.427">
  <g id="Grupo_224039" data-name="Grupo 224039" transform="translate(4916.5 10915.974)">
    <path id="Trazado_264111" data-name="Trazado 264111" d="M-62.169-4.614h-4.088v3.562h4.785V0H-67.6V-9.953h6.057v1.06h-4.71v3.22h4.088ZM-58.676,0h-1.347V-10.664h1.347Zm7.1-7.4v8a2.456,2.456,0,0,1-.588,1.76,2.146,2.146,0,0,1-1.634.619,2.23,2.23,0,0,1-.386-.031,3.054,3.054,0,0,1-.373-.092l.1-1.06a1.418,1.418,0,0,0,.273.058,2.282,2.282,0,0,0,.294.024.893.893,0,0,0,.708-.3A1.471,1.471,0,0,0-52.92.608v-8Zm-.041-1.921h-1.347v-1.347h1.347ZM-44.806-1.1a2.524,2.524,0,0,1-.9.919,2.435,2.435,0,0,1-1.261.325,2.376,2.376,0,0,1-1.887-.772,3.587,3.587,0,0,1-.677-2.406V-7.4h1.347v4.375a2.754,2.754,0,0,0,.349,1.627,1.3,1.3,0,0,0,1.087.444,2.195,2.195,0,0,0,1.186-.294,1.833,1.833,0,0,0,.708-.834V-7.4h1.347V0h-1.21Zm3.021-2.461a4.936,4.936,0,0,1,.762-2.878,2.45,2.45,0,0,1,2.129-1.094,2.6,2.6,0,0,1,1.237.284,2.489,2.489,0,0,1,.9.817L-36.6-7.4h1.073V.041a2.822,2.822,0,0,1-.827,2.184,3.4,3.4,0,0,1-2.386.762,5,5,0,0,1-1.152-.147,4.5,4.5,0,0,1-1.09-.4l.205-1.046a3.894,3.894,0,0,0,.94.332,4.827,4.827,0,0,0,1.083.126A1.961,1.961,0,0,0-37.317,1.4,1.855,1.855,0,0,0-36.87.041V-.8a2.385,2.385,0,0,1-.868.7,2.7,2.7,0,0,1-1.169.239,2.529,2.529,0,0,1-2.116-.981,4.089,4.089,0,0,1-.762-2.581Zm1.347.144a3.143,3.143,0,0,0,.458,1.791,1.59,1.59,0,0,0,1.415.677,1.78,1.78,0,0,0,1.019-.277,2.1,2.1,0,0,0,.677-.783v-3.4a2.089,2.089,0,0,0-.677-.749,1.775,1.775,0,0,0-1-.277,1.533,1.533,0,0,0-1.425.8,4.128,4.128,0,0,0-.461,2.078Zm6.535-.349a4.072,4.072,0,0,1,.889-2.7A2.98,2.98,0,0,1-30.6-7.533a3.009,3.009,0,0,1,2.43,1.06,4.059,4.059,0,0,1,.892,2.707v.15a4.052,4.052,0,0,1-.889,2.707A3,3,0,0,1-30.587.144,3.006,3.006,0,0,1-33.011-.913a4.045,4.045,0,0,1-.892-2.7Zm1.347.15a3.508,3.508,0,0,0,.5,1.941,1.641,1.641,0,0,0,1.473.766,1.636,1.636,0,0,0,1.463-.766,3.49,3.49,0,0,0,.5-1.941v-.15a3.479,3.479,0,0,0-.5-1.935A1.647,1.647,0,0,0-30.6-6.474a1.624,1.624,0,0,0-1.459.772,3.516,3.516,0,0,0-.5,1.935Zm16.707.2a4.077,4.077,0,0,1-.766,2.581,2.531,2.531,0,0,1-2.112.981,2.935,2.935,0,0,1-1.2-.229,2.294,2.294,0,0,1-.878-.687V2.844h-1.347V-7.4h1.032l.212.957a2.443,2.443,0,0,1,.9-.813,2.694,2.694,0,0,1,1.258-.28,2.458,2.458,0,0,1,2.136,1.09,4.933,4.933,0,0,1,.762,2.881ZM-17.2-3.562a3.908,3.908,0,0,0-.5-2.068,1.606,1.606,0,0,0-1.459-.81,1.8,1.8,0,0,0-.991.263,1.968,1.968,0,0,0-.663.721V-1.88a1.912,1.912,0,0,0,.663.714,1.86,1.86,0,0,0,1,.256,1.657,1.657,0,0,0,1.449-.7A3.077,3.077,0,0,0-17.2-3.418Zm6.5-2.646-.69-.041a1.542,1.542,0,0,0-.9.253,1.623,1.623,0,0,0-.564.711V0h-1.347V-7.4h1.2l.1,1.148a2.6,2.6,0,0,1,.779-.943,1.815,1.815,0,0,1,1.094-.342,1.664,1.664,0,0,1,.287.024,1.9,1.9,0,0,1,.226.051Zm.813,2.44a4.072,4.072,0,0,1,.889-2.7A2.98,2.98,0,0,1-6.58-7.533a3.009,3.009,0,0,1,2.43,1.06,4.059,4.059,0,0,1,.892,2.707v.15A4.052,4.052,0,0,1-4.146-.909,3,3,0,0,1-6.566.144,3.006,3.006,0,0,1-8.989-.913a4.045,4.045,0,0,1-.892-2.7Zm1.347.15a3.508,3.508,0,0,0,.5,1.941,1.641,1.641,0,0,0,1.473.766A1.636,1.636,0,0,0-5.1-1.675a3.49,3.49,0,0,0,.5-1.941v-.15a3.479,3.479,0,0,0-.5-1.935A1.647,1.647,0,0,0-6.58-6.474,1.624,1.624,0,0,0-8.039-5.7a3.516,3.516,0,0,0-.5,1.935ZM.653-2.181l.116.52H.81l.13-.52L2.642-7.4H4.016L1.3,0H.277L-2.478-7.4H-1.1ZM8.248.144A3.327,3.327,0,0,1,5.66-.878a3.815,3.815,0,0,1-.933-2.676v-.3a3.838,3.838,0,0,1,.919-2.635A2.883,2.883,0,0,1,7.892-7.533a2.684,2.684,0,0,1,2.225.923,3.8,3.8,0,0,1,.742,2.454v.711H6.128l-.014.034a2.871,2.871,0,0,0,.523,1.8,1.893,1.893,0,0,0,1.61.7,3.29,3.29,0,0,0,1.066-.14,7.094,7.094,0,0,0,.937-.427l.335.95a3.9,3.9,0,0,1-.9.468A4.156,4.156,0,0,1,8.248.144ZM7.892-6.474a1.464,1.464,0,0,0-1.166.543,2.571,2.571,0,0,0-.564,1.391l.014.034H9.512v-.109a2.154,2.154,0,0,0-.4-1.333A1.433,1.433,0,0,0,7.892-6.474ZM13.573-7.4l.1,1.1a2.686,2.686,0,0,1,.926-.913,2.471,2.471,0,0,1,1.268-.325,2.414,2.414,0,0,1,1.853.7,3.076,3.076,0,0,1,.656,2.164V0H17.025V-4.642a2,2,0,0,0-.386-1.388,1.547,1.547,0,0,0-1.179-.41,2.088,2.088,0,0,0-1.056.25,1.813,1.813,0,0,0-.687.7V0H12.37V-7.4ZM21.783,0H20.436V-7.4h1.347Zm0-9.29H20.436v-1.374h1.347ZM27.06.144A3.327,3.327,0,0,1,24.473-.878a3.815,3.815,0,0,1-.933-2.676v-.3a3.838,3.838,0,0,1,.919-2.635A2.883,2.883,0,0,1,26.7-7.533a2.684,2.684,0,0,1,2.225.923,3.8,3.8,0,0,1,.742,2.454v.711h-4.73l-.014.034a2.871,2.871,0,0,0,.523,1.8,1.893,1.893,0,0,0,1.61.7,3.29,3.29,0,0,0,1.066-.14,7.094,7.094,0,0,0,.937-.427l.335.95a3.9,3.9,0,0,1-.9.468A4.156,4.156,0,0,1,27.06.144ZM26.7-6.474a1.464,1.464,0,0,0-1.166.543,2.571,2.571,0,0,0-.564,1.391l.014.034h3.336v-.109a2.154,2.154,0,0,0-.4-1.333A1.433,1.433,0,0,0,26.7-6.474ZM32.385-7.4l.1,1.1a2.686,2.686,0,0,1,.926-.913,2.471,2.471,0,0,1,1.268-.325,2.414,2.414,0,0,1,1.853.7,3.076,3.076,0,0,1,.656,2.164V0H35.837V-4.642a2,2,0,0,0-.386-1.388,1.547,1.547,0,0,0-1.179-.41,2.088,2.088,0,0,0-1.056.25,1.813,1.813,0,0,0-.687.7V0H31.182V-7.4Zm8.47-1.784V-7.4h1.4v1h-1.4v4.491a1.006,1.006,0,0,0,.215.731.779.779,0,0,0,.571.212A1.348,1.348,0,0,0,41.9-.991a1.569,1.569,0,0,0,.25-.068l.185.923a1.265,1.265,0,0,1-.451.2A2.242,2.242,0,0,1,41.3.144a1.747,1.747,0,0,1-1.3-.5,2.143,2.143,0,0,1-.489-1.555V-6.4H38.339v-1h1.169V-9.181ZM46.809.144A3.327,3.327,0,0,1,44.222-.878a3.815,3.815,0,0,1-.933-2.676v-.3a3.838,3.838,0,0,1,.919-2.635,2.883,2.883,0,0,1,2.246-1.042,2.684,2.684,0,0,1,2.225.923,3.8,3.8,0,0,1,.742,2.454v.711H44.69l-.014.034a2.871,2.871,0,0,0,.523,1.8,1.893,1.893,0,0,0,1.61.7,3.29,3.29,0,0,0,1.066-.14,7.094,7.094,0,0,0,.937-.427l.335.95a3.9,3.9,0,0,1-.9.468A4.156,4.156,0,0,1,46.809.144Zm-.355-6.617a1.464,1.464,0,0,0-1.166.543,2.571,2.571,0,0,0-.564,1.391l.014.034h3.336v-.109a2.154,2.154,0,0,0-.4-1.333A1.433,1.433,0,0,0,46.454-6.474ZM54.1-3.562a4.936,4.936,0,0,1,.762-2.878A2.456,2.456,0,0,1,57-7.533a2.649,2.649,0,0,1,1.152.239,2.361,2.361,0,0,1,.858.7v-4.067h1.347V0H59.326l-.205-.937a2.4,2.4,0,0,1-.9.807,2.675,2.675,0,0,1-1.237.273,2.538,2.538,0,0,1-2.119-.981A4.077,4.077,0,0,1,54.1-3.418Zm1.347.144a3.14,3.14,0,0,0,.458,1.794A1.6,1.6,0,0,0,57.33-.95a1.784,1.784,0,0,0,1.012-.273,2.042,2.042,0,0,0,.67-.766V-5.441a2.074,2.074,0,0,0-.673-.728,1.779,1.779,0,0,0-.995-.27,1.539,1.539,0,0,0-1.432.8,4.128,4.128,0,0,0-.461,2.078ZM65.574.144A3.327,3.327,0,0,1,62.986-.878a3.815,3.815,0,0,1-.933-2.676v-.3a3.838,3.838,0,0,1,.919-2.635,2.883,2.883,0,0,1,2.246-1.042,2.684,2.684,0,0,1,2.225.923,3.8,3.8,0,0,1,.742,2.454v.711h-4.73l-.014.034a2.871,2.871,0,0,0,.523,1.8,1.893,1.893,0,0,0,1.61.7,3.29,3.29,0,0,0,1.066-.14,7.094,7.094,0,0,0,.937-.427l.335.95a3.9,3.9,0,0,1-.9.468A4.156,4.156,0,0,1,65.574.144Zm-.355-6.617a1.464,1.464,0,0,0-1.166.543,2.571,2.571,0,0,0-.564,1.391L63.5-4.5h3.336v-.109a2.154,2.154,0,0,0-.4-1.333A1.433,1.433,0,0,0,65.218-6.474ZM-71.665,17h-1.347V6.336h1.347Zm6.617,0q-.068-.335-.106-.591a4.34,4.34,0,0,1-.044-.516,3.14,3.14,0,0,1-.981.892,2.509,2.509,0,0,1-1.3.359,2.418,2.418,0,0,1-1.76-.591,2.175,2.175,0,0,1-.6-1.63,1.91,1.91,0,0,1,.858-1.658,4.007,4.007,0,0,1,2.328-.6H-65.2v-.731a1.357,1.357,0,0,0-.4-1.029,1.557,1.557,0,0,0-1.121-.379,1.627,1.627,0,0,0-1.06.328.985.985,0,0,0-.4.786l-1.278.014-.014-.041a1.77,1.77,0,0,1,.755-1.477,3.131,3.131,0,0,1,2.075-.67,3.054,3.054,0,0,1,2.023.639,2.264,2.264,0,0,1,.766,1.842V15.51a6.933,6.933,0,0,0,.041.766,3.937,3.937,0,0,0,.15.725Zm-2.235-.984a2.4,2.4,0,0,0,1.319-.376,1.787,1.787,0,0,0,.766-.861v-1.2h-1.511a1.96,1.96,0,0,0-1.3.41,1.227,1.227,0,0,0-.489.964,1.014,1.014,0,0,0,.308.779A1.288,1.288,0,0,0-67.283,16.016Zm11.806.075a1.584,1.584,0,0,0,1.087-.414,1.307,1.307,0,0,0,.465-1.015h1.217l.021.041a2.124,2.124,0,0,1-.82,1.7,2.9,2.9,0,0,1-1.969.742,2.9,2.9,0,0,1-2.406-1.06,4.09,4.09,0,0,1-.848-2.639v-.287a4.072,4.072,0,0,1,.851-2.628,2.9,2.9,0,0,1,2.4-1.063,2.791,2.791,0,0,1,2.027.766,2.428,2.428,0,0,1,.762,1.88l-.014.041h-1.224A1.632,1.632,0,0,0-54.366,11a1.451,1.451,0,0,0-1.111-.475,1.555,1.555,0,0,0-1.446.769,3.6,3.6,0,0,0-.455,1.863v.287a3.668,3.668,0,0,0,.448,1.88A1.554,1.554,0,0,0-55.477,16.091Zm8.935.909q-.068-.335-.106-.591a4.34,4.34,0,0,1-.044-.516,3.14,3.14,0,0,1-.981.892,2.509,2.509,0,0,1-1.3.359,2.418,2.418,0,0,1-1.76-.591,2.175,2.175,0,0,1-.6-1.63,1.91,1.91,0,0,1,.858-1.658,4.007,4.007,0,0,1,2.328-.6h1.463v-.731a1.357,1.357,0,0,0-.4-1.029,1.557,1.557,0,0,0-1.121-.379,1.627,1.627,0,0,0-1.06.328.985.985,0,0,0-.4.786l-1.278.014-.014-.041a1.77,1.77,0,0,1,.755-1.477,3.131,3.131,0,0,1,2.075-.67,3.054,3.054,0,0,1,2.023.639,2.264,2.264,0,0,1,.766,1.842V15.51a6.933,6.933,0,0,0,.041.766,3.937,3.937,0,0,0,.15.725Zm-2.235-.984a2.4,2.4,0,0,0,1.319-.376,1.787,1.787,0,0,0,.766-.861v-1.2H-48.2a1.96,1.96,0,0,0-1.3.41,1.227,1.227,0,0,0-.489.964,1.014,1.014,0,0,0,.308.779A1.288,1.288,0,0,0-48.778,16.016Zm6.843.984h-1.347V6.336h1.347Zm1.764-3.562a4.936,4.936,0,0,1,.762-2.878,2.456,2.456,0,0,1,2.136-1.094,2.649,2.649,0,0,1,1.152.239,2.361,2.361,0,0,1,.858.7V6.336h1.347V17h-1.032l-.205-.937a2.4,2.4,0,0,1-.9.807,2.675,2.675,0,0,1-1.237.273,2.538,2.538,0,0,1-2.119-.981,4.077,4.077,0,0,1-.766-2.581Zm1.347.144a3.14,3.14,0,0,0,.458,1.794,1.6,1.6,0,0,0,1.422.673,1.784,1.784,0,0,0,1.012-.273,2.042,2.042,0,0,0,.67-.766V11.559a2.073,2.073,0,0,0-.673-.728,1.779,1.779,0,0,0-.995-.27,1.539,1.539,0,0,0-1.432.8,4.128,4.128,0,0,0-.461,2.078ZM-28.7,17.144a3.327,3.327,0,0,1-2.587-1.022,3.815,3.815,0,0,1-.933-2.676v-.3a3.838,3.838,0,0,1,.919-2.635,2.883,2.883,0,0,1,2.246-1.042,2.684,2.684,0,0,1,2.225.923,3.8,3.8,0,0,1,.742,2.454v.711h-4.73l-.014.034a2.871,2.871,0,0,0,.523,1.8,1.893,1.893,0,0,0,1.61.7,3.29,3.29,0,0,0,1.066-.14,7.094,7.094,0,0,0,.937-.427l.335.95a3.9,3.9,0,0,1-.9.468A4.156,4.156,0,0,1-28.7,17.144Zm-.355-6.617a1.464,1.464,0,0,0-1.166.543,2.571,2.571,0,0,0-.564,1.391l.014.034h3.336v-.109a2.154,2.154,0,0,0-.4-1.333A1.433,1.433,0,0,0-29.056,10.526Zm7.978.267-.69-.041a1.542,1.542,0,0,0-.9.253,1.623,1.623,0,0,0-.564.711V17h-1.347V9.6h1.2l.1,1.148a2.6,2.6,0,0,1,.779-.943,1.815,1.815,0,0,1,1.094-.342,1.664,1.664,0,0,1,.287.024,1.9,1.9,0,0,1,.226.051ZM-15.131,17q-.068-.335-.106-.591a4.34,4.34,0,0,1-.044-.516,3.14,3.14,0,0,1-.981.892,2.509,2.509,0,0,1-1.3.359,2.418,2.418,0,0,1-1.76-.591,2.175,2.175,0,0,1-.6-1.63,1.91,1.91,0,0,1,.858-1.658,4.007,4.007,0,0,1,2.328-.6h1.463v-.731a1.357,1.357,0,0,0-.4-1.029,1.557,1.557,0,0,0-1.121-.379,1.627,1.627,0,0,0-1.06.328.985.985,0,0,0-.4.786l-1.278.014-.014-.041a1.77,1.77,0,0,1,.755-1.477,3.131,3.131,0,0,1,2.075-.67,3.054,3.054,0,0,1,2.023.639,2.264,2.264,0,0,1,.766,1.842V15.51a6.933,6.933,0,0,0,.041.766,3.937,3.937,0,0,0,.15.725Zm-2.235-.984a2.4,2.4,0,0,0,1.319-.376,1.787,1.787,0,0,0,.766-.861v-1.2h-1.511a1.96,1.96,0,0,0-1.3.41,1.227,1.227,0,0,0-.489.964,1.014,1.014,0,0,0,.308.779A1.288,1.288,0,0,0-17.367,16.016Zm12.072,1.128a3.327,3.327,0,0,1-2.587-1.022,3.815,3.815,0,0,1-.933-2.676v-.3A3.838,3.838,0,0,1-7.9,10.509,2.883,2.883,0,0,1-5.65,9.467a2.684,2.684,0,0,1,2.225.923,3.8,3.8,0,0,1,.742,2.454v.711h-4.73l-.014.034a2.871,2.871,0,0,0,.523,1.8,1.893,1.893,0,0,0,1.61.7,3.29,3.29,0,0,0,1.066-.14,7.094,7.094,0,0,0,.937-.427l.335.95a3.9,3.9,0,0,1-.9.468A4.156,4.156,0,0,1-5.294,17.144Zm-.355-6.617a1.464,1.464,0,0,0-1.166.543,2.571,2.571,0,0,0-.564,1.391l.014.034H-4.03v-.109a2.154,2.154,0,0,0-.4-1.333A1.433,1.433,0,0,0-5.65,10.526ZM.031,9.6l.1,1.1a2.686,2.686,0,0,1,.926-.913,2.471,2.471,0,0,1,1.268-.325,2.414,2.414,0,0,1,1.853.7,3.076,3.076,0,0,1,.656,2.164V17H3.483V12.358A2,2,0,0,0,3.1,10.971a1.547,1.547,0,0,0-1.179-.41,2.088,2.088,0,0,0-1.056.25,1.813,1.813,0,0,0-.687.7V17H-1.172V9.6Zm13.439,7.54a3.327,3.327,0,0,1-2.587-1.022,3.815,3.815,0,0,1-.933-2.676v-.3a3.838,3.838,0,0,1,.919-2.635,2.883,2.883,0,0,1,2.246-1.042,2.684,2.684,0,0,1,2.225.923,3.8,3.8,0,0,1,.742,2.454v.711h-4.73l-.014.034a2.871,2.871,0,0,0,.523,1.8,1.893,1.893,0,0,0,1.61.7,3.29,3.29,0,0,0,1.066-.14,7.094,7.094,0,0,0,.937-.427l.335.95a3.9,3.9,0,0,1-.9.468A4.156,4.156,0,0,1,13.47,17.144Zm-.355-6.617a1.464,1.464,0,0,0-1.166.543,2.571,2.571,0,0,0-.564,1.391l.014.034h3.336v-.109a2.154,2.154,0,0,0-.4-1.333A1.433,1.433,0,0,0,13.115,10.526ZM19.048,17H17.7V6.336h1.347ZM30.9,13.582a4.077,4.077,0,0,1-.766,2.581,2.531,2.531,0,0,1-2.112.981,2.935,2.935,0,0,1-1.2-.229,2.294,2.294,0,0,1-.878-.687v3.616H24.6V9.6h1.032l.212.957a2.443,2.443,0,0,1,.9-.813A2.694,2.694,0,0,1,28,9.467a2.458,2.458,0,0,1,2.136,1.09,4.933,4.933,0,0,1,.762,2.881Zm-1.347-.144a3.908,3.908,0,0,0-.5-2.068,1.606,1.606,0,0,0-1.459-.81,1.8,1.8,0,0,0-.991.263,1.968,1.968,0,0,0-.663.721V15.12a1.912,1.912,0,0,0,.663.714,1.86,1.86,0,0,0,1,.256,1.657,1.657,0,0,0,1.449-.7,3.077,3.077,0,0,0,.492-1.808Zm6.5-2.646-.69-.041a1.542,1.542,0,0,0-.9.253,1.623,1.623,0,0,0-.564.711V17H32.556V9.6h1.2l.1,1.148a2.6,2.6,0,0,1,.779-.943,1.815,1.815,0,0,1,1.094-.342,1.664,1.664,0,0,1,.287.024,1.9,1.9,0,0,1,.226.051Zm.813,2.44a4.072,4.072,0,0,1,.889-2.7,3.293,3.293,0,0,1,4.843,0,4.059,4.059,0,0,1,.892,2.707v.15a4.052,4.052,0,0,1-.889,2.707,3.308,3.308,0,0,1-4.843,0,4.045,4.045,0,0,1-.892-2.7Zm1.347.15a3.508,3.508,0,0,0,.5,1.941,1.79,1.79,0,0,0,2.936,0,3.49,3.49,0,0,0,.5-1.941v-.15a3.479,3.479,0,0,0-.5-1.935,1.647,1.647,0,0,0-1.473-.772,1.624,1.624,0,0,0-1.459.772,3.516,3.516,0,0,0-.5,1.935Zm9.864,2.707a1.584,1.584,0,0,0,1.087-.414,1.307,1.307,0,0,0,.465-1.015h1.217l.021.041a2.124,2.124,0,0,1-.82,1.7,3.134,3.134,0,0,1-4.375-.318,4.09,4.09,0,0,1-.848-2.639v-.287a4.072,4.072,0,0,1,.851-2.628,2.9,2.9,0,0,1,2.4-1.063,2.791,2.791,0,0,1,2.027.766,2.428,2.428,0,0,1,.762,1.88l-.014.041H49.632A1.632,1.632,0,0,0,49.191,11a1.451,1.451,0,0,0-1.111-.475,1.555,1.555,0,0,0-1.446.769,3.6,3.6,0,0,0-.455,1.863v.287a3.668,3.668,0,0,0,.448,1.88A1.554,1.554,0,0,0,48.081,16.091Zm7.595,1.053a3.327,3.327,0,0,1-2.587-1.022,3.815,3.815,0,0,1-.933-2.676v-.3a3.838,3.838,0,0,1,.919-2.635A2.883,2.883,0,0,1,55.32,9.467a2.684,2.684,0,0,1,2.225.923,3.8,3.8,0,0,1,.742,2.454v.711h-4.73l-.014.034a2.871,2.871,0,0,0,.523,1.8,1.893,1.893,0,0,0,1.61.7,3.29,3.29,0,0,0,1.066-.14,7.094,7.094,0,0,0,.937-.427l.335.95a3.9,3.9,0,0,1-.9.468A4.156,4.156,0,0,1,55.675,17.144Zm-.355-6.617a1.464,1.464,0,0,0-1.166.543,2.571,2.571,0,0,0-.564,1.391l.014.034H56.94v-.109a2.154,2.154,0,0,0-.4-1.333A1.433,1.433,0,0,0,55.32,10.526ZM64.1,15.011a.9.9,0,0,0-.338-.725,3.266,3.266,0,0,0-1.282-.492,5.378,5.378,0,0,1-2.006-.786,1.588,1.588,0,0,1-.7-1.354,1.95,1.95,0,0,1,.769-1.545,3.394,3.394,0,0,1,4.03.041,1.959,1.959,0,0,1,.745,1.593l-.014.041H64.015a1.165,1.165,0,0,0-.42-.868,1.5,1.5,0,0,0-1.063-.39,1.532,1.532,0,0,0-1.063.321,1,1,0,0,0-.352.766.811.811,0,0,0,.3.677,3.367,3.367,0,0,0,1.254.438,5.3,5.3,0,0,1,2.064.813,1.638,1.638,0,0,1,.7,1.374,1.947,1.947,0,0,1-.8,1.606,3.285,3.285,0,0,1-2.082.622,3.251,3.251,0,0,1-2.229-.718,2.048,2.048,0,0,1-.772-1.675l.014-.041h1.285a1.246,1.246,0,0,0,.533,1.049,2.063,2.063,0,0,0,1.169.332,1.841,1.841,0,0,0,1.125-.3A.93.93,0,0,0,64.1,15.011ZM66.8,13.233a4.072,4.072,0,0,1,.889-2.7,3.293,3.293,0,0,1,4.843,0,4.059,4.059,0,0,1,.892,2.707v.15a4.052,4.052,0,0,1-.889,2.707,3.308,3.308,0,0,1-4.843,0,4.045,4.045,0,0,1-.892-2.7Zm1.347.15a3.508,3.508,0,0,0,.5,1.941,1.79,1.79,0,0,0,2.936,0,3.49,3.49,0,0,0,.5-1.941v-.15a3.479,3.479,0,0,0-.5-1.935,1.647,1.647,0,0,0-1.473-.772,1.624,1.624,0,0,0-1.459.772,3.516,3.516,0,0,0-.5,1.935ZM-55.429,30.438a4.936,4.936,0,0,1,.762-2.878,2.456,2.456,0,0,1,2.136-1.094,2.649,2.649,0,0,1,1.152.239,2.361,2.361,0,0,1,.858.7V23.336h1.347V34h-1.032l-.205-.937a2.4,2.4,0,0,1-.9.807,2.675,2.675,0,0,1-1.237.273,2.538,2.538,0,0,1-2.119-.981,4.077,4.077,0,0,1-.766-2.581Zm1.347.144a3.14,3.14,0,0,0,.458,1.794,1.6,1.6,0,0,0,1.422.673,1.784,1.784,0,0,0,1.012-.273,2.042,2.042,0,0,0,.67-.766V28.559a2.074,2.074,0,0,0-.673-.728,1.779,1.779,0,0,0-.995-.27,1.539,1.539,0,0,0-1.432.8,4.128,4.128,0,0,0-.461,2.078Zm10.124,3.562a3.327,3.327,0,0,1-2.587-1.022,3.815,3.815,0,0,1-.933-2.676v-.3a3.838,3.838,0,0,1,.919-2.635,2.883,2.883,0,0,1,2.246-1.042,2.684,2.684,0,0,1,2.225.923,3.8,3.8,0,0,1,.742,2.454v.711h-4.73l-.014.034a2.871,2.871,0,0,0,.523,1.8,1.893,1.893,0,0,0,1.61.7,3.29,3.29,0,0,0,1.066-.14,7.094,7.094,0,0,0,.937-.427l.335.95a3.9,3.9,0,0,1-.9.468A4.156,4.156,0,0,1-43.958,34.144Zm-.355-6.617a1.464,1.464,0,0,0-1.166.543,2.571,2.571,0,0,0-.564,1.391l.014.034h3.336v-.109a2.154,2.154,0,0,0-.4-1.333A1.433,1.433,0,0,0-44.314,27.526Zm10.9,5.564a1.584,1.584,0,0,0,1.087-.414,1.307,1.307,0,0,0,.465-1.015h1.217l.021.041a2.124,2.124,0,0,1-.82,1.7,2.9,2.9,0,0,1-1.969.742,2.9,2.9,0,0,1-2.406-1.06,4.09,4.09,0,0,1-.848-2.639v-.287a4.072,4.072,0,0,1,.851-2.628,2.9,2.9,0,0,1,2.4-1.063,2.791,2.791,0,0,1,2.027.766,2.428,2.428,0,0,1,.762,1.88l-.014.041h-1.224A1.632,1.632,0,0,0-32.307,28a1.451,1.451,0,0,0-1.111-.475,1.555,1.555,0,0,0-1.446.769,3.6,3.6,0,0,0-.455,1.863v.287a3.668,3.668,0,0,0,.448,1.88A1.554,1.554,0,0,0-33.417,33.091Zm4.074-2.857a4.072,4.072,0,0,1,.889-2.7,2.98,2.98,0,0,1,2.413-1.063,3.009,3.009,0,0,1,2.43,1.06,4.059,4.059,0,0,1,.892,2.707v.15a4.052,4.052,0,0,1-.889,2.707,3,3,0,0,1-2.42,1.053,3.006,3.006,0,0,1-2.423-1.056,4.045,4.045,0,0,1-.892-2.7Zm1.347.15a3.508,3.508,0,0,0,.5,1.941,1.641,1.641,0,0,0,1.473.766,1.636,1.636,0,0,0,1.463-.766,3.49,3.49,0,0,0,.5-1.941v-.15a3.479,3.479,0,0,0-.5-1.935,1.647,1.647,0,0,0-1.473-.772A1.624,1.624,0,0,0-27.5,28.3a3.516,3.516,0,0,0-.5,1.935Zm8.128-3.78.1,1.1a2.686,2.686,0,0,1,.926-.913,2.471,2.471,0,0,1,1.268-.325,2.414,2.414,0,0,1,1.853.7,3.076,3.076,0,0,1,.656,2.164V34h-1.347V29.358a2,2,0,0,0-.386-1.388,1.547,1.547,0,0,0-1.179-.41,2.088,2.088,0,0,0-1.056.25,1.813,1.813,0,0,0-.687.7V34h-1.347V26.6Zm9.693,6.487a1.584,1.584,0,0,0,1.087-.414,1.307,1.307,0,0,0,.465-1.015h1.217l.021.041a2.124,2.124,0,0,1-.82,1.7,2.9,2.9,0,0,1-1.969.742,2.9,2.9,0,0,1-2.406-1.06,4.09,4.09,0,0,1-.848-2.639v-.287a4.072,4.072,0,0,1,.851-2.628,2.9,2.9,0,0,1,2.4-1.063,2.791,2.791,0,0,1,2.027.766,2.428,2.428,0,0,1,.762,1.88l-.014.041H-8.624A1.632,1.632,0,0,0-9.064,28a1.451,1.451,0,0,0-1.111-.475,1.555,1.555,0,0,0-1.446.769,3.6,3.6,0,0,0-.455,1.863v.287a3.668,3.668,0,0,0,.448,1.88A1.554,1.554,0,0,0-10.175,33.091Zm7.595,1.053a3.327,3.327,0,0,1-2.587-1.022A3.815,3.815,0,0,1-6.1,30.445v-.3a3.838,3.838,0,0,1,.919-2.635,2.883,2.883,0,0,1,2.246-1.042,2.684,2.684,0,0,1,2.225.923,3.8,3.8,0,0,1,.742,2.454v.711H-4.7l-.014.034a2.871,2.871,0,0,0,.523,1.8,1.893,1.893,0,0,0,1.61.7,3.29,3.29,0,0,0,1.066-.14,7.094,7.094,0,0,0,.937-.427l.335.95a3.9,3.9,0,0,1-.9.468A4.156,4.156,0,0,1-2.581,34.144Zm-.355-6.617A1.464,1.464,0,0,0-4.1,28.07a2.571,2.571,0,0,0-.564,1.391l.014.034h3.336v-.109a2.154,2.154,0,0,0-.4-1.333A1.433,1.433,0,0,0-2.936,27.526ZM2.745,26.6l.1,1.1a2.686,2.686,0,0,1,.926-.913,2.471,2.471,0,0,1,1.268-.325,2.414,2.414,0,0,1,1.853.7,3.076,3.076,0,0,1,.656,2.164V34H6.2V29.358a2,2,0,0,0-.386-1.388,1.547,1.547,0,0,0-1.179-.41,2.088,2.088,0,0,0-1.056.25,1.813,1.813,0,0,0-.687.7V34H1.542V26.6Zm8.47-1.784V26.6h1.4v1h-1.4v4.491a1.006,1.006,0,0,0,.215.731.778.778,0,0,0,.571.212,1.347,1.347,0,0,0,.256-.027,1.569,1.569,0,0,0,.25-.068l.185.923a1.265,1.265,0,0,1-.451.2,2.242,2.242,0,0,1-.581.079,1.747,1.747,0,0,1-1.3-.5,2.143,2.143,0,0,1-.489-1.555V27.6H8.7v-1H9.868V24.819Zm6.248,2.974-.69-.041a1.542,1.542,0,0,0-.9.253,1.623,1.623,0,0,0-.564.711V34H13.962V26.6h1.2l.1,1.148a2.6,2.6,0,0,1,.779-.943,1.815,1.815,0,0,1,1.094-.342,1.664,1.664,0,0,1,.287.024,1.9,1.9,0,0,1,.226.051ZM23.41,34q-.068-.335-.106-.591a4.34,4.34,0,0,1-.044-.516,3.14,3.14,0,0,1-.981.892,2.509,2.509,0,0,1-1.3.359,2.418,2.418,0,0,1-1.76-.591,2.175,2.175,0,0,1-.6-1.63,1.91,1.91,0,0,1,.858-1.658,4.007,4.007,0,0,1,2.328-.6h1.463v-.731a1.357,1.357,0,0,0-.4-1.029,1.557,1.557,0,0,0-1.121-.379,1.627,1.627,0,0,0-1.06.328.985.985,0,0,0-.4.786L19,28.654l-.014-.041a1.77,1.77,0,0,1,.755-1.477,3.131,3.131,0,0,1,2.075-.67,3.054,3.054,0,0,1,2.023.639,2.264,2.264,0,0,1,.766,1.842V32.51a6.933,6.933,0,0,0,.041.766A3.937,3.937,0,0,0,24.8,34Zm-2.235-.984a2.4,2.4,0,0,0,1.319-.376,1.787,1.787,0,0,0,.766-.861v-1.2H21.749a1.96,1.96,0,0,0-1.3.41,1.227,1.227,0,0,0-.489.964,1.014,1.014,0,0,0,.308.779A1.288,1.288,0,0,0,21.174,33.016Zm8.326.075a1.584,1.584,0,0,0,1.087-.414,1.307,1.307,0,0,0,.465-1.015h1.217l.021.041a2.124,2.124,0,0,1-.82,1.7,3.134,3.134,0,0,1-4.375-.318,4.09,4.09,0,0,1-.848-2.639v-.287A4.072,4.072,0,0,1,27.1,27.53a2.9,2.9,0,0,1,2.4-1.063,2.791,2.791,0,0,1,2.027.766,2.428,2.428,0,0,1,.762,1.88l-.014.041H31.052A1.632,1.632,0,0,0,30.611,28a1.451,1.451,0,0,0-1.111-.475,1.555,1.555,0,0,0-1.446.769,3.6,3.6,0,0,0-.455,1.863v.287a3.668,3.668,0,0,0,.448,1.88A1.554,1.554,0,0,0,29.5,33.091ZM35.345,34H34V26.6h1.347Zm0-9.29H34V23.336h1.347ZM37.1,30.233a4.072,4.072,0,0,1,.889-2.7,3.293,3.293,0,0,1,4.843,0,4.059,4.059,0,0,1,.892,2.707v.15a4.052,4.052,0,0,1-.889,2.707,3.308,3.308,0,0,1-4.843,0,4.045,4.045,0,0,1-.892-2.7Zm1.347.15a3.508,3.508,0,0,0,.5,1.941,1.79,1.79,0,0,0,2.936,0,3.49,3.49,0,0,0,.5-1.941v-.15a3.479,3.479,0,0,0-.5-1.935,1.647,1.647,0,0,0-1.473-.772,1.624,1.624,0,0,0-1.459.772,3.516,3.516,0,0,0-.5,1.935Zm2.618-6.918h1.572l.014.041-1.839,1.777H39.8Zm5.51,3.138.1,1.1a2.686,2.686,0,0,1,.926-.913,2.471,2.471,0,0,1,1.268-.325,2.414,2.414,0,0,1,1.853.7,3.076,3.076,0,0,1,.656,2.164V34H50.029V29.358a2,2,0,0,0-.386-1.388,1.547,1.547,0,0,0-1.179-.41,2.088,2.088,0,0,0-1.056.25,1.813,1.813,0,0,0-.687.7V34H45.374V26.6ZM54.8,34H53.454V32.619H54.8Z" transform="translate(-4506.396 -10905.31)" fill="#12263f"/>
    <path id="Trazado_264112" data-name="Trazado 264112" d="M-50.682-2.639a1.3,1.3,0,0,0-.492-1.053,4.832,4.832,0,0,0-1.757-.731,5.453,5.453,0,0,1-2.334-1.1A2.354,2.354,0,0,1-56.1-7.369a2.481,2.481,0,0,1,.889-1.952,3.427,3.427,0,0,1,2.338-.776,3.474,3.474,0,0,1,2.505.892,2.7,2.7,0,0,1,.906,2.082l-.021.041h-1.285a1.837,1.837,0,0,0-.591-1.4,2.127,2.127,0,0,0-1.514-.554,1.956,1.956,0,0,0-1.408.455,1.581,1.581,0,0,0-.472,1.193,1.352,1.352,0,0,0,.53,1.09,4.754,4.754,0,0,0,1.753.755,5.731,5.731,0,0,1,2.334,1.1,2.272,2.272,0,0,1,.8,1.791,2.492,2.492,0,0,1-.954,2.006,3.736,3.736,0,0,1-2.464.79A4.2,4.2,0,0,1-55.3-.663a2.459,2.459,0,0,1-1.07-2.16l.014-.041h1.285a1.673,1.673,0,0,0,.711,1.446,2.691,2.691,0,0,0,1.606.509A2.221,2.221,0,0,0-51.246-1.4,1.57,1.57,0,0,0-50.682-2.639ZM-43.142,0q-.068-.335-.106-.591a4.34,4.34,0,0,1-.044-.516,3.14,3.14,0,0,1-.981.892,2.509,2.509,0,0,1-1.3.359,2.418,2.418,0,0,1-1.76-.591,2.175,2.175,0,0,1-.6-1.63,1.91,1.91,0,0,1,.858-1.658,4.007,4.007,0,0,1,2.328-.6h1.463v-.731a1.357,1.357,0,0,0-.4-1.029,1.557,1.557,0,0,0-1.121-.379,1.627,1.627,0,0,0-1.06.328.985.985,0,0,0-.4.786l-1.278.014-.014-.041a1.77,1.77,0,0,1,.755-1.477,3.131,3.131,0,0,1,2.075-.67,3.054,3.054,0,0,1,2.023.639,2.264,2.264,0,0,1,.766,1.842V-1.49a6.933,6.933,0,0,0,.041.766,3.937,3.937,0,0,0,.15.725Zm-2.235-.984a2.4,2.4,0,0,0,1.319-.376,1.787,1.787,0,0,0,.766-.861v-1.2H-44.8a1.96,1.96,0,0,0-1.3.41,1.227,1.227,0,0,0-.489.964,1.014,1.014,0,0,0,.308.779A1.288,1.288,0,0,0-45.377-.984Zm8.326.075a1.584,1.584,0,0,0,1.087-.414A1.307,1.307,0,0,0-35.5-2.338h1.217l.021.041a2.124,2.124,0,0,1-.82,1.7,2.9,2.9,0,0,1-1.969.742,2.9,2.9,0,0,1-2.406-1.06A4.09,4.09,0,0,1-40.3-3.555v-.287a4.072,4.072,0,0,1,.851-2.628,2.9,2.9,0,0,1,2.4-1.063,2.791,2.791,0,0,1,2.027.766,2.428,2.428,0,0,1,.762,1.88l-.014.041H-35.5A1.632,1.632,0,0,0-35.94-6a1.451,1.451,0,0,0-1.111-.475A1.555,1.555,0,0,0-38.5-5.7a3.6,3.6,0,0,0-.455,1.863v.287a3.668,3.668,0,0,0,.448,1.88A1.554,1.554,0,0,0-37.051-.909ZM-28.116,0q-.068-.335-.106-.591a4.34,4.34,0,0,1-.044-.516,3.14,3.14,0,0,1-.981.892,2.509,2.509,0,0,1-1.3.359,2.418,2.418,0,0,1-1.76-.591,2.175,2.175,0,0,1-.6-1.63,1.91,1.91,0,0,1,.858-1.658,4.007,4.007,0,0,1,2.328-.6h1.463v-.731a1.357,1.357,0,0,0-.4-1.029,1.557,1.557,0,0,0-1.121-.379,1.627,1.627,0,0,0-1.06.328.985.985,0,0,0-.4.786l-1.278.014-.014-.041a1.77,1.77,0,0,1,.755-1.477,3.131,3.131,0,0,1,2.075-.67,3.054,3.054,0,0,1,2.023.639,2.264,2.264,0,0,1,.766,1.842V-1.49a6.933,6.933,0,0,0,.041.766,3.937,3.937,0,0,0,.15.725Zm-2.235-.984a2.4,2.4,0,0,0,1.319-.376,1.787,1.787,0,0,0,.766-.861v-1.2h-1.511a1.96,1.96,0,0,0-1.3.41,1.227,1.227,0,0,0-.489.964,1.014,1.014,0,0,0,.308.779A1.288,1.288,0,0,0-30.352-.984Zm8.887-5.223-.69-.041a1.542,1.542,0,0,0-.9.253,1.623,1.623,0,0,0-.564.711V0h-1.347V-7.4h1.2l.1,1.148a2.6,2.6,0,0,1,.779-.943,1.815,1.815,0,0,1,1.094-.342,1.664,1.664,0,0,1,.287.024,1.9,1.9,0,0,1,.226.051ZM-15.128,0h-1.347V-10.664h1.347Zm6.617,0q-.068-.335-.106-.591a4.34,4.34,0,0,1-.044-.516,3.14,3.14,0,0,1-.981.892,2.509,2.509,0,0,1-1.3.359A2.418,2.418,0,0,1-12.7-.448a2.175,2.175,0,0,1-.6-1.63,1.91,1.91,0,0,1,.858-1.658,4.007,4.007,0,0,1,2.328-.6h1.463v-.731a1.357,1.357,0,0,0-.4-1.029,1.557,1.557,0,0,0-1.121-.379,1.627,1.627,0,0,0-1.06.328.985.985,0,0,0-.4.786l-1.278.014-.014-.041a1.77,1.77,0,0,1,.755-1.477,3.131,3.131,0,0,1,2.075-.67,3.054,3.054,0,0,1,2.023.639,2.264,2.264,0,0,1,.766,1.842V-1.49a6.933,6.933,0,0,0,.041.766A3.937,3.937,0,0,0-7.123,0Zm-2.235-.984A2.4,2.4,0,0,0-9.427-1.36a1.787,1.787,0,0,0,.766-.861v-1.2h-1.511a1.96,1.96,0,0,0-1.3.41,1.227,1.227,0,0,0-.489.964,1.014,1.014,0,0,0,.308.779A1.288,1.288,0,0,0-10.746-.984ZM-.677-7.4l.1.971a2.512,2.512,0,0,1,.919-.817,2.763,2.763,0,0,1,1.3-.291A2.288,2.288,0,0,1,2.9-7.191a2.068,2.068,0,0,1,.8,1.025,2.767,2.767,0,0,1,.926-1,2.423,2.423,0,0,1,1.336-.366,2.214,2.214,0,0,1,1.784.776A3.545,3.545,0,0,1,8.4-4.423V0H7.055V-4.437a2.459,2.459,0,0,0-.376-1.548,1.371,1.371,0,0,0-1.121-.455,1.427,1.427,0,0,0-1.118.479,2.083,2.083,0,0,0-.5,1.21V0H2.584V-4.437A2.425,2.425,0,0,0,2.2-5.958a1.34,1.34,0,0,0-1.111-.482,1.85,1.85,0,0,0-1.012.253,1.634,1.634,0,0,0-.608.711V0H-1.88V-7.4ZM11.813,0H10.466V-7.4h1.347Zm0-9.29H10.466v-1.374h1.347ZM17.09.144A3.327,3.327,0,0,1,14.5-.878a3.815,3.815,0,0,1-.933-2.676v-.3a3.838,3.838,0,0,1,.919-2.635,2.883,2.883,0,0,1,2.246-1.042,2.684,2.684,0,0,1,2.225.923A3.8,3.8,0,0,1,19.7-4.156v.711h-4.73l-.014.034a2.871,2.871,0,0,0,.523,1.8,1.893,1.893,0,0,0,1.61.7,3.29,3.29,0,0,0,1.066-.14,7.094,7.094,0,0,0,.937-.427l.335.95a3.9,3.9,0,0,1-.9.468A4.156,4.156,0,0,1,17.09.144Zm-.355-6.617a1.464,1.464,0,0,0-1.166.543A2.571,2.571,0,0,0,15-4.539l.014.034h3.336v-.109a2.154,2.154,0,0,0-.4-1.333A1.433,1.433,0,0,0,16.734-6.474ZM22.668,0H21.321V-10.664h1.347Zm5.243-3.562a4.936,4.936,0,0,1,.762-2.878A2.456,2.456,0,0,1,30.81-7.533a2.649,2.649,0,0,1,1.152.239,2.361,2.361,0,0,1,.858.7v-4.067h1.347V0H33.134l-.205-.937a2.4,2.4,0,0,1-.9.807A2.675,2.675,0,0,1,30.8.144a2.538,2.538,0,0,1-2.119-.981,4.077,4.077,0,0,1-.766-2.581Zm1.347.144a3.14,3.14,0,0,0,.458,1.794,1.6,1.6,0,0,0,1.422.673,1.784,1.784,0,0,0,1.012-.273,2.042,2.042,0,0,0,.67-.766V-5.441a2.074,2.074,0,0,0-.673-.728,1.779,1.779,0,0,0-.995-.27,1.539,1.539,0,0,0-1.432.8,4.128,4.128,0,0,0-.461,2.078ZM39.382.144A3.327,3.327,0,0,1,36.794-.878a3.815,3.815,0,0,1-.933-2.676v-.3a3.838,3.838,0,0,1,.919-2.635,2.883,2.883,0,0,1,2.246-1.042,2.684,2.684,0,0,1,2.225.923,3.8,3.8,0,0,1,.742,2.454v.711h-4.73l-.014.034a2.871,2.871,0,0,0,.523,1.8,1.893,1.893,0,0,0,1.61.7,3.29,3.29,0,0,0,1.066-.14,7.094,7.094,0,0,0,.937-.427l.335.95a3.9,3.9,0,0,1-.9.468A4.156,4.156,0,0,1,39.382.144Zm-.355-6.617a1.464,1.464,0,0,0-1.166.543A2.571,2.571,0,0,0,37.3-4.539l.014.034h3.336v-.109a2.154,2.154,0,0,0-.4-1.333A1.433,1.433,0,0,0,39.026-6.474ZM48.439,0H47.093V-10.664h1.347Zm6.617,0q-.068-.335-.106-.591a4.34,4.34,0,0,1-.044-.516,3.14,3.14,0,0,1-.981.892,2.509,2.509,0,0,1-1.3.359,2.418,2.418,0,0,1-1.76-.591,2.175,2.175,0,0,1-.6-1.63,1.91,1.91,0,0,1,.858-1.658,4.007,4.007,0,0,1,2.328-.6h1.463v-.731a1.357,1.357,0,0,0-.4-1.029,1.557,1.557,0,0,0-1.121-.379,1.627,1.627,0,0,0-1.06.328.985.985,0,0,0-.4.786l-1.278.014-.014-.041a1.77,1.77,0,0,1,.755-1.477,3.131,3.131,0,0,1,2.075-.67,3.054,3.054,0,0,1,2.023.639,2.264,2.264,0,0,1,.766,1.842V-1.49a6.933,6.933,0,0,0,.041.766,3.937,3.937,0,0,0,.15.725ZM52.821-.984a2.4,2.4,0,0,0,1.319-.376,1.787,1.787,0,0,0,.766-.861v-1.2H53.4a1.96,1.96,0,0,0-1.3.41,1.227,1.227,0,0,0-.489.964,1.014,1.014,0,0,0,.308.779A1.288,1.288,0,0,0,52.821-.984Zm-109.8,17.075a1.584,1.584,0,0,0,1.087-.414,1.307,1.307,0,0,0,.465-1.015h1.217l.021.041a2.124,2.124,0,0,1-.82,1.7,2.9,2.9,0,0,1-1.969.742,2.9,2.9,0,0,1-2.406-1.06,4.09,4.09,0,0,1-.848-2.639v-.287a4.072,4.072,0,0,1,.851-2.628,2.9,2.9,0,0,1,2.4-1.063,2.791,2.791,0,0,1,2.027.766,2.428,2.428,0,0,1,.762,1.88l-.014.041h-1.224A1.632,1.632,0,0,0-55.867,11a1.451,1.451,0,0,0-1.111-.475,1.555,1.555,0,0,0-1.446.769,3.6,3.6,0,0,0-.455,1.863v.287a3.668,3.668,0,0,0,.448,1.88A1.554,1.554,0,0,0-56.978,16.091Zm8.935.909q-.068-.335-.106-.591a4.34,4.34,0,0,1-.044-.516,3.14,3.14,0,0,1-.981.892,2.509,2.509,0,0,1-1.3.359,2.418,2.418,0,0,1-1.76-.591,2.175,2.175,0,0,1-.6-1.63,1.91,1.91,0,0,1,.858-1.658,4.007,4.007,0,0,1,2.328-.6h1.463v-.731a1.357,1.357,0,0,0-.4-1.029,1.557,1.557,0,0,0-1.121-.379,1.627,1.627,0,0,0-1.06.328.985.985,0,0,0-.4.786l-1.278.014-.014-.041a1.77,1.77,0,0,1,.755-1.477,3.131,3.131,0,0,1,2.075-.67,3.054,3.054,0,0,1,2.023.639,2.264,2.264,0,0,1,.766,1.842V15.51a6.933,6.933,0,0,0,.041.766,3.937,3.937,0,0,0,.15.725Zm-2.235-.984a2.4,2.4,0,0,0,1.319-.376,1.787,1.787,0,0,0,.766-.861v-1.2H-49.7a1.96,1.96,0,0,0-1.3.41,1.227,1.227,0,0,0-.489.964,1.014,1.014,0,0,0,.308.779A1.288,1.288,0,0,0-50.278,16.016Zm6.843.984h-1.347V6.336h1.347Zm1.764-3.562a4.936,4.936,0,0,1,.762-2.878,2.456,2.456,0,0,1,2.136-1.094,2.649,2.649,0,0,1,1.152.239,2.361,2.361,0,0,1,.858.7V6.336h1.347V17h-1.032l-.205-.937a2.4,2.4,0,0,1-.9.807,2.675,2.675,0,0,1-1.237.273,2.538,2.538,0,0,1-2.119-.981,4.077,4.077,0,0,1-.766-2.581Zm1.347.144a3.14,3.14,0,0,0,.458,1.794,1.6,1.6,0,0,0,1.422.673,1.784,1.784,0,0,0,1.012-.273,2.042,2.042,0,0,0,.67-.766V11.559a2.073,2.073,0,0,0-.673-.728,1.779,1.779,0,0,0-.995-.27,1.539,1.539,0,0,0-1.432.8,4.128,4.128,0,0,0-.461,2.078ZM-30.2,17.144a3.327,3.327,0,0,1-2.587-1.022,3.815,3.815,0,0,1-.933-2.676v-.3a3.838,3.838,0,0,1,.919-2.635,2.883,2.883,0,0,1,2.246-1.042,2.684,2.684,0,0,1,2.225.923,3.8,3.8,0,0,1,.742,2.454v.711h-4.73l-.014.034a2.871,2.871,0,0,0,.523,1.8,1.893,1.893,0,0,0,1.61.7,3.29,3.29,0,0,0,1.066-.14,7.094,7.094,0,0,0,.937-.427l.335.95a3.9,3.9,0,0,1-.9.468A4.156,4.156,0,0,1-30.2,17.144Zm-.355-6.617a1.464,1.464,0,0,0-1.166.543,2.571,2.571,0,0,0-.564,1.391l.014.034h3.336v-.109a2.154,2.154,0,0,0-.4-1.333A1.433,1.433,0,0,0-30.557,10.526Zm7.978.267-.69-.041a1.542,1.542,0,0,0-.9.253,1.623,1.623,0,0,0-.564.711V17h-1.347V9.6h1.2l.1,1.148A2.6,2.6,0,0,1-24,9.809a1.815,1.815,0,0,1,1.094-.342,1.664,1.664,0,0,1,.287.024,1.9,1.9,0,0,1,.226.051ZM-16.632,17q-.068-.335-.106-.591a4.34,4.34,0,0,1-.044-.516,3.14,3.14,0,0,1-.981.892,2.509,2.509,0,0,1-1.3.359,2.418,2.418,0,0,1-1.76-.591,2.175,2.175,0,0,1-.6-1.63,1.91,1.91,0,0,1,.858-1.658,4.007,4.007,0,0,1,2.328-.6h1.463v-.731a1.357,1.357,0,0,0-.4-1.029,1.557,1.557,0,0,0-1.121-.379,1.627,1.627,0,0,0-1.06.328.985.985,0,0,0-.4.786l-1.278.014-.014-.041a1.77,1.77,0,0,1,.755-1.477,3.131,3.131,0,0,1,2.075-.67,3.054,3.054,0,0,1,2.023.639,2.264,2.264,0,0,1,.766,1.842V15.51a6.933,6.933,0,0,0,.041.766,3.937,3.937,0,0,0,.15.725Zm-2.235-.984a2.4,2.4,0,0,0,1.319-.376,1.787,1.787,0,0,0,.766-.861v-1.2h-1.511a1.96,1.96,0,0,0-1.3.41,1.227,1.227,0,0,0-.489.964,1.014,1.014,0,0,0,.308.779A1.288,1.288,0,0,0-18.867,16.016ZM-3.7,13.582a4.077,4.077,0,0,1-.766,2.581,2.531,2.531,0,0,1-2.112.981,2.935,2.935,0,0,1-1.2-.229,2.294,2.294,0,0,1-.878-.687v3.616H-10V9.6h1.032l.212.957a2.443,2.443,0,0,1,.9-.813A2.694,2.694,0,0,1-6.6,9.467a2.458,2.458,0,0,1,2.136,1.09A4.933,4.933,0,0,1-3.7,13.438Zm-1.347-.144a3.908,3.908,0,0,0-.5-2.068A1.606,1.606,0,0,0-7,10.561a1.8,1.8,0,0,0-.991.263,1.968,1.968,0,0,0-.663.721V15.12a1.912,1.912,0,0,0,.663.714,1.86,1.86,0,0,0,1,.256,1.657,1.657,0,0,0,1.449-.7,3.077,3.077,0,0,0,.492-1.808Zm7.7,2.461a2.524,2.524,0,0,1-.9.919,2.435,2.435,0,0,1-1.261.325,2.376,2.376,0,0,1-1.887-.772,3.587,3.587,0,0,1-.677-2.406V9.6H-.725v4.375a2.754,2.754,0,0,0,.349,1.627,1.3,1.3,0,0,0,1.087.444A2.195,2.195,0,0,0,1.9,15.756a1.833,1.833,0,0,0,.708-.834V9.6H3.951V17H2.741ZM7.116,9.6l.1,1.1a2.686,2.686,0,0,1,.926-.913,2.471,2.471,0,0,1,1.268-.325,2.414,2.414,0,0,1,1.853.7,3.076,3.076,0,0,1,.656,2.164V17H10.568V12.358a2,2,0,0,0-.386-1.388A1.547,1.547,0,0,0,9,10.561a2.088,2.088,0,0,0-1.056.25,1.813,1.813,0,0,0-.687.7V17H5.913V9.6Zm8.47-1.784V9.6h1.4v1h-1.4v4.491a1.006,1.006,0,0,0,.215.731.779.779,0,0,0,.571.212,1.348,1.348,0,0,0,.256-.027,1.569,1.569,0,0,0,.25-.068l.185.923a1.265,1.265,0,0,1-.451.2,2.242,2.242,0,0,1-.581.079,1.747,1.747,0,0,1-1.3-.5,2.143,2.143,0,0,1-.489-1.555V10.6H13.07v-1h1.169V7.819Zm5.954,9.324a3.327,3.327,0,0,1-2.587-1.022,3.815,3.815,0,0,1-.933-2.676v-.3a3.838,3.838,0,0,1,.919-2.635,2.883,2.883,0,0,1,2.246-1.042,2.684,2.684,0,0,1,2.225.923,3.8,3.8,0,0,1,.742,2.454v.711h-4.73l-.014.034a2.871,2.871,0,0,0,.523,1.8,1.893,1.893,0,0,0,1.61.7,3.29,3.29,0,0,0,1.066-.14,7.094,7.094,0,0,0,.937-.427l.335.95a3.9,3.9,0,0,1-.9.468A4.156,4.156,0,0,1,21.54,17.144Zm-.355-6.617a1.464,1.464,0,0,0-1.166.543,2.571,2.571,0,0,0-.564,1.391l.014.034H22.8v-.109a2.154,2.154,0,0,0-.4-1.333A1.433,1.433,0,0,0,21.185,10.526ZM30.208,17q-.068-.335-.106-.591a4.34,4.34,0,0,1-.044-.516,3.14,3.14,0,0,1-.981.892,2.509,2.509,0,0,1-1.3.359,2.418,2.418,0,0,1-1.76-.591,2.175,2.175,0,0,1-.6-1.63,1.91,1.91,0,0,1,.858-1.658,4.007,4.007,0,0,1,2.328-.6h1.463v-.731a1.357,1.357,0,0,0-.4-1.029,1.557,1.557,0,0,0-1.121-.379,1.627,1.627,0,0,0-1.06.328.985.985,0,0,0-.4.786l-1.278.014-.014-.041a1.77,1.77,0,0,1,.755-1.477,3.131,3.131,0,0,1,2.075-.67,3.054,3.054,0,0,1,2.023.639,2.264,2.264,0,0,1,.766,1.842V15.51a6.933,6.933,0,0,0,.041.766A3.937,3.937,0,0,0,31.6,17Zm-2.235-.984a2.4,2.4,0,0,0,1.319-.376,1.787,1.787,0,0,0,.766-.861v-1.2H28.547a1.96,1.96,0,0,0-1.3.41,1.227,1.227,0,0,0-.489.964,1.014,1.014,0,0,0,.308.779A1.288,1.288,0,0,0,27.973,16.016Zm5.079-2.577a4.936,4.936,0,0,1,.762-2.878A2.456,2.456,0,0,1,35.95,9.467a2.649,2.649,0,0,1,1.152.239,2.361,2.361,0,0,1,.858.7V6.336h1.347V17H38.274l-.205-.937a2.4,2.4,0,0,1-.9.807,2.675,2.675,0,0,1-1.237.273,2.538,2.538,0,0,1-2.119-.981,4.077,4.077,0,0,1-.766-2.581Zm1.347.144a3.14,3.14,0,0,0,.458,1.794,1.6,1.6,0,0,0,1.422.673,1.784,1.784,0,0,0,1.012-.273,2.042,2.042,0,0,0,.67-.766V11.559a2.073,2.073,0,0,0-.673-.728,1.779,1.779,0,0,0-.995-.27,1.539,1.539,0,0,0-1.432.8,4.128,4.128,0,0,0-.461,2.078Zm6.6-.349a4.072,4.072,0,0,1,.889-2.7,3.293,3.293,0,0,1,4.843,0,4.059,4.059,0,0,1,.892,2.707v.15a4.052,4.052,0,0,1-.889,2.707,3.308,3.308,0,0,1-4.843,0,4.045,4.045,0,0,1-.892-2.7Zm1.347.15a3.508,3.508,0,0,0,.5,1.941,1.79,1.79,0,0,0,2.936,0,3.49,3.49,0,0,0,.5-1.941v-.15a3.479,3.479,0,0,0-.5-1.935,1.647,1.647,0,0,0-1.473-.772,1.624,1.624,0,0,0-1.459.772,3.516,3.516,0,0,0-.5,1.935Zm10.425-2.591-.69-.041a1.542,1.542,0,0,0-.9.253,1.623,1.623,0,0,0-.564.711V17H49.273V9.6h1.2l.1,1.148a2.6,2.6,0,0,1,.779-.943,1.815,1.815,0,0,1,1.094-.342,1.664,1.664,0,0,1,.287.024,1.9,1.9,0,0,1,.226.051ZM58.721,17q-.068-.335-.106-.591a4.34,4.34,0,0,1-.044-.516,3.14,3.14,0,0,1-.981.892,2.509,2.509,0,0,1-1.3.359,2.418,2.418,0,0,1-1.76-.591,2.175,2.175,0,0,1-.6-1.63,1.91,1.91,0,0,1,.858-1.658,4.007,4.007,0,0,1,2.328-.6H58.57v-.731a1.357,1.357,0,0,0-.4-1.029,1.557,1.557,0,0,0-1.121-.379,1.627,1.627,0,0,0-1.06.328.985.985,0,0,0-.4.786l-1.278.014-.014-.041a1.77,1.77,0,0,1,.755-1.477,3.131,3.131,0,0,1,2.075-.67,3.054,3.054,0,0,1,2.023.639,2.264,2.264,0,0,1,.766,1.842V15.51a6.933,6.933,0,0,0,.041.766,3.937,3.937,0,0,0,.15.725Zm-2.235-.984A2.4,2.4,0,0,0,57.8,15.64a1.787,1.787,0,0,0,.766-.861v-1.2H57.06a1.96,1.96,0,0,0-1.3.41,1.227,1.227,0,0,0-.489.964,1.014,1.014,0,0,0,.308.779A1.288,1.288,0,0,0,56.485,16.016ZM-47.735,31.259l.239.93h.041l1.818-5.585h1.5l-3.11,8.531a3.835,3.835,0,0,1-.8,1.3,1.849,1.849,0,0,1-1.412.554,2.942,2.942,0,0,1-.417-.038q-.253-.038-.39-.072l.137-1.06a1.8,1.8,0,0,1,.243.014q.284.021.359.021a.831.831,0,0,0,.7-.383,3.975,3.975,0,0,0,.458-.848l.321-.772L-50.8,26.6h1.5Zm9.974-6.439V26.6h1.4v1h-1.4v4.491a1.006,1.006,0,0,0,.215.731.778.778,0,0,0,.571.212,1.347,1.347,0,0,0,.256-.027,1.569,1.569,0,0,0,.25-.068l.185.923a1.265,1.265,0,0,1-.451.2,2.242,2.242,0,0,1-.581.079,1.747,1.747,0,0,1-1.3-.5,2.143,2.143,0,0,1-.489-1.555V27.6h-1.169v-1h1.169V24.819Zm6.248,2.974-.69-.041a1.542,1.542,0,0,0-.9.253,1.623,1.623,0,0,0-.564.711V34h-1.347V26.6h1.2l.1,1.148a2.6,2.6,0,0,1,.779-.943,1.815,1.815,0,0,1,1.094-.342,1.664,1.664,0,0,1,.287.024,1.9,1.9,0,0,1,.226.051ZM-25.566,34q-.068-.335-.106-.591a4.34,4.34,0,0,1-.044-.516,3.14,3.14,0,0,1-.981.892,2.509,2.509,0,0,1-1.3.359,2.418,2.418,0,0,1-1.76-.591,2.175,2.175,0,0,1-.6-1.63,1.91,1.91,0,0,1,.858-1.658,4.007,4.007,0,0,1,2.328-.6h1.463v-.731a1.357,1.357,0,0,0-.4-1.029,1.557,1.557,0,0,0-1.121-.379,1.627,1.627,0,0,0-1.06.328.985.985,0,0,0-.4.786l-1.278.014-.014-.041a1.77,1.77,0,0,1,.755-1.477,3.131,3.131,0,0,1,2.075-.67,3.054,3.054,0,0,1,2.023.639,2.264,2.264,0,0,1,.766,1.842V32.51a6.933,6.933,0,0,0,.041.766,3.937,3.937,0,0,0,.15.725Zm-2.235-.984a2.4,2.4,0,0,0,1.319-.376,1.787,1.787,0,0,0,.766-.861v-1.2h-1.511a1.96,1.96,0,0,0-1.3.41,1.227,1.227,0,0,0-.489.964,1.014,1.014,0,0,0,.308.779A1.288,1.288,0,0,0-27.8,33.016Zm6.59-6.412.1,1.1a2.686,2.686,0,0,1,.926-.913,2.471,2.471,0,0,1,1.268-.325,2.414,2.414,0,0,1,1.853.7,3.076,3.076,0,0,1,.656,2.164V34H-17.76V29.358a2,2,0,0,0-.386-1.388,1.547,1.547,0,0,0-1.179-.41,2.088,2.088,0,0,0-1.056.25,1.813,1.813,0,0,0-.687.7V34h-1.347V26.6Zm11.054,5.407a.9.9,0,0,0-.338-.725,3.266,3.266,0,0,0-1.282-.492,5.378,5.378,0,0,1-2.006-.786,1.588,1.588,0,0,1-.7-1.354,1.95,1.95,0,0,1,.769-1.545,3,3,0,0,1,1.993-.643,2.976,2.976,0,0,1,2.037.684,1.959,1.959,0,0,1,.745,1.593l-.014.041H-10.24a1.165,1.165,0,0,0-.42-.868,1.5,1.5,0,0,0-1.063-.39,1.532,1.532,0,0,0-1.063.321,1,1,0,0,0-.352.766.811.811,0,0,0,.3.677,3.367,3.367,0,0,0,1.254.438,5.3,5.3,0,0,1,2.064.813,1.638,1.638,0,0,1,.7,1.374,1.947,1.947,0,0,1-.8,1.606,3.285,3.285,0,0,1-2.082.622,3.251,3.251,0,0,1-2.229-.718,2.048,2.048,0,0,1-.772-1.675l.014-.041h1.285a1.246,1.246,0,0,0,.533,1.049,2.063,2.063,0,0,0,1.169.332,1.841,1.841,0,0,0,1.125-.3A.93.93,0,0,0-10.158,32.011Zm9.324-1.429A4.077,4.077,0,0,1-1.6,33.163a2.531,2.531,0,0,1-2.112.981,2.935,2.935,0,0,1-1.2-.229,2.294,2.294,0,0,1-.878-.687v3.616H-7.137V26.6H-6.1l.212.957a2.443,2.443,0,0,1,.9-.813,2.694,2.694,0,0,1,1.258-.28A2.458,2.458,0,0,1-1.6,27.557a4.933,4.933,0,0,1,.762,2.881Zm-1.347-.144a3.908,3.908,0,0,0-.5-2.068,1.606,1.606,0,0,0-1.459-.81,1.8,1.8,0,0,0-.991.263,1.968,1.968,0,0,0-.663.721V32.12a1.912,1.912,0,0,0,.663.714,1.86,1.86,0,0,0,1,.256,1.657,1.657,0,0,0,1.449-.7,3.077,3.077,0,0,0,.492-1.808Zm2.687-.205a4.072,4.072,0,0,1,.889-2.7,2.98,2.98,0,0,1,2.413-1.063,3.009,3.009,0,0,1,2.43,1.06,4.059,4.059,0,0,1,.892,2.707v.15a4.052,4.052,0,0,1-.889,2.707,3,3,0,0,1-2.42,1.053A3.006,3.006,0,0,1,1.4,33.087a4.045,4.045,0,0,1-.892-2.7Zm1.347.15a3.508,3.508,0,0,0,.5,1.941,1.641,1.641,0,0,0,1.473.766,1.636,1.636,0,0,0,1.463-.766,3.49,3.49,0,0,0,.5-1.941v-.15a3.479,3.479,0,0,0-.5-1.935,1.647,1.647,0,0,0-1.473-.772,1.624,1.624,0,0,0-1.459.772,3.516,3.516,0,0,0-.5,1.935Zm10.425-2.591-.69-.041a1.542,1.542,0,0,0-.9.253,1.623,1.623,0,0,0-.564.711V34H8.777V26.6h1.2l.1,1.148a2.6,2.6,0,0,1,.779-.943,1.815,1.815,0,0,1,1.094-.342,1.664,1.664,0,0,1,.287.024,1.9,1.9,0,0,1,.226.051Zm3.35-2.974V26.6h1.4v1h-1.4v4.491a1.006,1.006,0,0,0,.215.731.778.778,0,0,0,.571.212,1.347,1.347,0,0,0,.256-.027,1.569,1.569,0,0,0,.25-.068l.185.923a1.265,1.265,0,0,1-.451.2,2.242,2.242,0,0,1-.581.079,1.747,1.747,0,0,1-1.3-.5,2.143,2.143,0,0,1-.489-1.555V27.6H13.111v-1H14.28V24.819ZM22.921,34q-.068-.335-.106-.591a4.34,4.34,0,0,1-.044-.516,3.14,3.14,0,0,1-.981.892,2.509,2.509,0,0,1-1.3.359,2.418,2.418,0,0,1-1.76-.591,2.175,2.175,0,0,1-.6-1.63,1.91,1.91,0,0,1,.858-1.658,4.007,4.007,0,0,1,2.328-.6h1.463v-.731a1.357,1.357,0,0,0-.4-1.029,1.557,1.557,0,0,0-1.121-.379,1.627,1.627,0,0,0-1.06.328.985.985,0,0,0-.4.786l-1.278.014-.014-.041a1.77,1.77,0,0,1,.755-1.477,3.131,3.131,0,0,1,2.075-.67,3.054,3.054,0,0,1,2.023.639,2.264,2.264,0,0,1,.766,1.842V32.51a6.933,6.933,0,0,0,.041.766,3.937,3.937,0,0,0,.15.725Zm-2.235-.984A2.4,2.4,0,0,0,22,32.64a1.787,1.787,0,0,0,.766-.861v-1.2H21.26a1.96,1.96,0,0,0-1.3.41,1.227,1.227,0,0,0-.489.964,1.014,1.014,0,0,0,.308.779A1.288,1.288,0,0,0,20.686,33.016ZM27.528,34H26.182V23.336h1.347Zm6.617,0q-.068-.335-.106-.591A4.34,4.34,0,0,1,34,32.893a3.14,3.14,0,0,1-.981.892,2.509,2.509,0,0,1-1.3.359,2.418,2.418,0,0,1-1.76-.591,2.175,2.175,0,0,1-.6-1.63,1.91,1.91,0,0,1,.858-1.658,4.007,4.007,0,0,1,2.328-.6H34v-.731a1.357,1.357,0,0,0-.4-1.029,1.557,1.557,0,0,0-1.121-.379,1.627,1.627,0,0,0-1.06.328.985.985,0,0,0-.4.786l-1.278.014-.014-.041a1.77,1.77,0,0,1,.755-1.477,3.131,3.131,0,0,1,2.075-.67,3.054,3.054,0,0,1,2.023.639,2.264,2.264,0,0,1,.766,1.842V32.51a6.933,6.933,0,0,0,.041.766,3.937,3.937,0,0,0,.15.725Zm-2.235-.984a2.4,2.4,0,0,0,1.319-.376A1.787,1.787,0,0,0,34,31.778v-1.2H32.484a1.96,1.96,0,0,0-1.3.41,1.227,1.227,0,0,0-.489.964,1.014,1.014,0,0,0,.308.779A1.288,1.288,0,0,0,31.91,33.016ZM45.322,34q-.068-.335-.106-.591a4.34,4.34,0,0,1-.044-.516,3.14,3.14,0,0,1-.981.892,2.509,2.509,0,0,1-1.3.359,2.418,2.418,0,0,1-1.76-.591,2.175,2.175,0,0,1-.6-1.63,1.91,1.91,0,0,1,.858-1.658,4.007,4.007,0,0,1,2.328-.6h1.463v-.731a1.357,1.357,0,0,0-.4-1.029,1.557,1.557,0,0,0-1.121-.379,1.627,1.627,0,0,0-1.06.328.985.985,0,0,0-.4.786l-1.278.014-.014-.041a1.77,1.77,0,0,1,.755-1.477,3.131,3.131,0,0,1,2.075-.67,3.054,3.054,0,0,1,2.023.639,2.264,2.264,0,0,1,.766,1.842V32.51a6.933,6.933,0,0,0,.041.766,3.937,3.937,0,0,0,.15.725Zm-2.235-.984a2.4,2.4,0,0,0,1.319-.376,1.787,1.787,0,0,0,.766-.861v-1.2H43.661a1.96,1.96,0,0,0-1.3.41,1.227,1.227,0,0,0-.489.964,1.014,1.014,0,0,0,.308.779A1.288,1.288,0,0,0,43.087,33.016ZM-31.685,51h-1.347V40.336h1.347Zm6.617,0q-.068-.335-.106-.591a4.34,4.34,0,0,1-.044-.516,3.14,3.14,0,0,1-.981.892,2.509,2.509,0,0,1-1.3.359,2.418,2.418,0,0,1-1.76-.591,2.175,2.175,0,0,1-.6-1.63,1.91,1.91,0,0,1,.858-1.658,4.007,4.007,0,0,1,2.328-.6h1.463v-.731a1.357,1.357,0,0,0-.4-1.029,1.557,1.557,0,0,0-1.121-.379,1.627,1.627,0,0,0-1.06.328.985.985,0,0,0-.4.786l-1.278.014-.014-.041a1.77,1.77,0,0,1,.755-1.477,3.131,3.131,0,0,1,2.075-.67,3.054,3.054,0,0,1,2.023.639,2.264,2.264,0,0,1,.766,1.842V49.51a6.933,6.933,0,0,0,.041.766,3.937,3.937,0,0,0,.15.725Zm-2.235-.984a2.4,2.4,0,0,0,1.319-.376,1.787,1.787,0,0,0,.766-.861v-1.2h-1.511a1.96,1.96,0,0,0-1.3.41,1.227,1.227,0,0,0-.489.964,1.014,1.014,0,0,0,.308.779A1.288,1.288,0,0,0-27.3,50.016Zm9.687-1a.9.9,0,0,0-.338-.725,3.266,3.266,0,0,0-1.282-.492,5.378,5.378,0,0,1-2.006-.786,1.588,1.588,0,0,1-.7-1.354,1.95,1.95,0,0,1,.769-1.545,3,3,0,0,1,1.993-.643,2.976,2.976,0,0,1,2.037.684,1.959,1.959,0,0,1,.745,1.593l-.014.041H-17.7a1.165,1.165,0,0,0-.42-.868,1.5,1.5,0,0,0-1.063-.39,1.532,1.532,0,0,0-1.063.321,1,1,0,0,0-.352.766.811.811,0,0,0,.3.677,3.367,3.367,0,0,0,1.254.438,5.3,5.3,0,0,1,2.064.813,1.638,1.638,0,0,1,.7,1.374,1.947,1.947,0,0,1-.8,1.606,3.285,3.285,0,0,1-2.082.622,3.251,3.251,0,0,1-2.229-.718,2.048,2.048,0,0,1-.772-1.675l.014-.041h1.285a1.246,1.246,0,0,0,.533,1.049,2.063,2.063,0,0,0,1.169.332,1.841,1.841,0,0,0,1.125-.3A.93.93,0,0,0-17.616,49.011ZM-4.8,47.582a4.064,4.064,0,0,1-.769,2.581,2.541,2.541,0,0,1-2.116.981,2.681,2.681,0,0,1-1.282-.291,2.379,2.379,0,0,1-.9-.858l-.219,1h-1.032V40.336h1.347v4.143a2.337,2.337,0,0,1,.865-.752,2.651,2.651,0,0,1,1.207-.26,2.458,2.458,0,0,1,2.133,1.094A4.92,4.92,0,0,1-4.8,47.438Zm-1.347-.144a4.083,4.083,0,0,0-.468-2.075,1.542,1.542,0,0,0-1.425-.8,1.762,1.762,0,0,0-1.049.3,2.145,2.145,0,0,0-.68.817v3.206a2.2,2.2,0,0,0,.68.854,1.753,1.753,0,0,0,1.063.308,1.6,1.6,0,0,0,1.415-.677,3.108,3.108,0,0,0,.465-1.791ZM1.388,51q-.068-.335-.106-.591a4.34,4.34,0,0,1-.044-.516,3.14,3.14,0,0,1-.981.892,2.509,2.509,0,0,1-1.3.359,2.418,2.418,0,0,1-1.76-.591,2.175,2.175,0,0,1-.6-1.63,1.91,1.91,0,0,1,.858-1.658,4.007,4.007,0,0,1,2.328-.6H1.237v-.731a1.357,1.357,0,0,0-.4-1.029A1.557,1.557,0,0,0-.28,44.526a1.627,1.627,0,0,0-1.06.328.985.985,0,0,0-.4.786l-1.278.014-.014-.041a1.77,1.77,0,0,1,.755-1.477,3.131,3.131,0,0,1,2.075-.67,3.054,3.054,0,0,1,2.023.639,2.264,2.264,0,0,1,.766,1.842V49.51a6.933,6.933,0,0,0,.041.766,3.937,3.937,0,0,0,.15.725Zm-2.235-.984A2.4,2.4,0,0,0,.472,49.64a1.787,1.787,0,0,0,.766-.861v-1.2H-.273a1.96,1.96,0,0,0-1.3.41,1.227,1.227,0,0,0-.489.964,1.014,1.014,0,0,0,.308.779A1.288,1.288,0,0,0-.848,50.016Zm7.1-8.2V43.6h1.4v1h-1.4v4.491a1.006,1.006,0,0,0,.215.731.778.778,0,0,0,.571.212,1.347,1.347,0,0,0,.256-.027,1.569,1.569,0,0,0,.25-.068l.185.923a1.265,1.265,0,0,1-.451.2,2.242,2.242,0,0,1-.581.079,1.747,1.747,0,0,1-1.3-.5,2.143,2.143,0,0,1-.489-1.555V44.6H3.739v-1H4.908V41.819Zm5.954,9.324a3.327,3.327,0,0,1-2.587-1.022,3.815,3.815,0,0,1-.933-2.676v-.3a3.838,3.838,0,0,1,.919-2.635,2.883,2.883,0,0,1,2.246-1.042,2.684,2.684,0,0,1,2.225.923,3.8,3.8,0,0,1,.742,2.454v.711H10.09l-.014.034a2.871,2.871,0,0,0,.523,1.8,1.893,1.893,0,0,0,1.61.7,3.29,3.29,0,0,0,1.066-.14,7.094,7.094,0,0,0,.937-.427l.335.95a3.9,3.9,0,0,1-.9.468A4.156,4.156,0,0,1,12.209,51.144Zm-.355-6.617a1.464,1.464,0,0,0-1.166.543,2.571,2.571,0,0,0-.564,1.391l.014.034h3.336v-.109a2.154,2.154,0,0,0-.4-1.333A1.433,1.433,0,0,0,11.854,44.526ZM20.877,51q-.068-.335-.106-.591a4.34,4.34,0,0,1-.044-.516,3.14,3.14,0,0,1-.981.892,2.509,2.509,0,0,1-1.3.359,2.418,2.418,0,0,1-1.76-.591,2.175,2.175,0,0,1-.6-1.63,1.91,1.91,0,0,1,.858-1.658,4.007,4.007,0,0,1,2.328-.6h1.463v-.731a1.357,1.357,0,0,0-.4-1.029,1.557,1.557,0,0,0-1.121-.379,1.627,1.627,0,0,0-1.06.328.985.985,0,0,0-.4.786l-1.278.014-.014-.041a1.77,1.77,0,0,1,.755-1.477,3.131,3.131,0,0,1,2.075-.67,3.054,3.054,0,0,1,2.023.639,2.264,2.264,0,0,1,.766,1.842V49.51a6.933,6.933,0,0,0,.041.766,3.937,3.937,0,0,0,.15.725Zm-2.235-.984a2.4,2.4,0,0,0,1.319-.376,1.787,1.787,0,0,0,.766-.861v-1.2H19.216a1.96,1.96,0,0,0-1.3.41,1.227,1.227,0,0,0-.489.964,1.014,1.014,0,0,0,.308.779A1.288,1.288,0,0,0,18.642,50.016Zm9.687-1a.9.9,0,0,0-.338-.725,3.266,3.266,0,0,0-1.282-.492,5.378,5.378,0,0,1-2.006-.786,1.588,1.588,0,0,1-.7-1.354,1.95,1.95,0,0,1,.769-1.545,3,3,0,0,1,1.993-.643,2.976,2.976,0,0,1,2.037.684,1.959,1.959,0,0,1,.745,1.593l-.014.041H28.246a1.165,1.165,0,0,0-.42-.868,1.5,1.5,0,0,0-1.063-.39,1.532,1.532,0,0,0-1.063.321,1,1,0,0,0-.352.766.811.811,0,0,0,.3.677,3.367,3.367,0,0,0,1.254.438,5.3,5.3,0,0,1,2.064.813,1.638,1.638,0,0,1,.7,1.374,1.947,1.947,0,0,1-.8,1.606,3.285,3.285,0,0,1-2.082.622,3.251,3.251,0,0,1-2.229-.718,2.048,2.048,0,0,1-.772-1.675l.014-.041h1.285a1.246,1.246,0,0,0,.533,1.049,2.063,2.063,0,0,0,1.169.332,1.841,1.841,0,0,0,1.125-.3A.93.93,0,0,0,28.328,49.011ZM32.819,51H31.473V49.619h1.347Z" transform="translate(-4518.975 -10720.69)" fill="#12263f"/>
    <path id="Trazado_264113" data-name="Trazado 264113" d="M-55.662-4.614H-59.75v3.562h4.785V0H-61.1V-9.953h6.057v1.06h-4.71v3.22h4.088ZM-52.168,0h-1.347V-10.664h1.347Zm7.1-7.4v8a2.456,2.456,0,0,1-.588,1.76,2.146,2.146,0,0,1-1.634.619,2.23,2.23,0,0,1-.386-.031,3.054,3.054,0,0,1-.373-.092l.1-1.06a1.418,1.418,0,0,0,.273.058,2.282,2.282,0,0,0,.294.024.893.893,0,0,0,.708-.3,1.471,1.471,0,0,0,.263-.978v-8Zm-.041-1.921h-1.347v-1.347h1.347ZM-38.3-1.1a2.524,2.524,0,0,1-.9.919,2.435,2.435,0,0,1-1.261.325,2.376,2.376,0,0,1-1.887-.772,3.587,3.587,0,0,1-.677-2.406V-7.4h1.347v4.375a2.754,2.754,0,0,0,.349,1.627A1.3,1.3,0,0,0-40.24-.95a2.195,2.195,0,0,0,1.186-.294,1.833,1.833,0,0,0,.708-.834V-7.4H-37V0h-1.21Zm3.021-2.461a4.936,4.936,0,0,1,.762-2.878,2.45,2.45,0,0,1,2.129-1.094,2.6,2.6,0,0,1,1.237.284,2.489,2.489,0,0,1,.9.817l.164-.964h1.073V.041a2.822,2.822,0,0,1-.827,2.184,3.4,3.4,0,0,1-2.386.762A5,5,0,0,1-33.38,2.84a4.5,4.5,0,0,1-1.09-.4l.205-1.046a3.894,3.894,0,0,0,.94.332,4.827,4.827,0,0,0,1.083.126A1.961,1.961,0,0,0-30.81,1.4,1.855,1.855,0,0,0-30.362.041V-.8a2.385,2.385,0,0,1-.868.7A2.7,2.7,0,0,1-32.4.144a2.529,2.529,0,0,1-2.116-.981,4.089,4.089,0,0,1-.762-2.581Zm1.347.144a3.143,3.143,0,0,0,.458,1.791,1.59,1.59,0,0,0,1.415.677,1.78,1.78,0,0,0,1.019-.277,2.1,2.1,0,0,0,.677-.783v-3.4a2.089,2.089,0,0,0-.677-.749,1.775,1.775,0,0,0-1-.277,1.533,1.533,0,0,0-1.425.8,4.128,4.128,0,0,0-.461,2.078Zm6.535-.349a4.072,4.072,0,0,1,.889-2.7,2.98,2.98,0,0,1,2.413-1.063,3.009,3.009,0,0,1,2.43,1.06,4.059,4.059,0,0,1,.892,2.707v.15A4.052,4.052,0,0,1-21.66-.909,3,3,0,0,1-24.08.144,3.006,3.006,0,0,1-26.5-.913a4.045,4.045,0,0,1-.892-2.7Zm1.347.15a3.508,3.508,0,0,0,.5,1.941,1.641,1.641,0,0,0,1.473.766,1.636,1.636,0,0,0,1.463-.766,3.49,3.49,0,0,0,.5-1.941v-.15a3.479,3.479,0,0,0-.5-1.935,1.647,1.647,0,0,0-1.473-.772,1.624,1.624,0,0,0-1.459.772,3.516,3.516,0,0,0-.5,1.935ZM-12.7-.909a1.584,1.584,0,0,0,1.087-.414,1.307,1.307,0,0,0,.465-1.015h1.217l.021.041a2.124,2.124,0,0,1-.82,1.7A2.9,2.9,0,0,1-12.7.144a2.9,2.9,0,0,1-2.406-1.06,4.09,4.09,0,0,1-.848-2.639v-.287a4.072,4.072,0,0,1,.851-2.628,2.9,2.9,0,0,1,2.4-1.063,2.791,2.791,0,0,1,2.027.766,2.428,2.428,0,0,1,.762,1.88l-.014.041h-1.224A1.632,1.632,0,0,0-11.594-6,1.451,1.451,0,0,0-12.7-6.474,1.555,1.555,0,0,0-14.15-5.7,3.6,3.6,0,0,0-14.6-3.842v.287a3.668,3.668,0,0,0,.448,1.88A1.554,1.554,0,0,0-12.7-.909ZM-8.63-3.767a4.072,4.072,0,0,1,.889-2.7A2.98,2.98,0,0,1-5.329-7.533,3.009,3.009,0,0,1-2.9-6.474a4.059,4.059,0,0,1,.892,2.707v.15A4.052,4.052,0,0,1-2.9-.909,3,3,0,0,1-5.315.144,3.006,3.006,0,0,1-7.738-.913a4.045,4.045,0,0,1-.892-2.7Zm1.347.15a3.508,3.508,0,0,0,.5,1.941,1.641,1.641,0,0,0,1.473.766,1.636,1.636,0,0,0,1.463-.766,3.49,3.49,0,0,0,.5-1.941v-.15a3.479,3.479,0,0,0-.5-1.935,1.647,1.647,0,0,0-1.473-.772A1.624,1.624,0,0,0-6.788-5.7a3.516,3.516,0,0,0-.5,1.935ZM.844-7.4l.1,1.1a2.686,2.686,0,0,1,.926-.913,2.471,2.471,0,0,1,1.268-.325,2.414,2.414,0,0,1,1.853.7,3.076,3.076,0,0,1,.656,2.164V0H4.3V-4.642A2,2,0,0,0,3.91-6.029a1.547,1.547,0,0,0-1.179-.41,2.088,2.088,0,0,0-1.056.25,1.813,1.813,0,0,0-.687.7V0H-.359V-7.4ZM10.538-.909a1.584,1.584,0,0,0,1.087-.414,1.307,1.307,0,0,0,.465-1.015h1.217l.021.041a2.124,2.124,0,0,1-.82,1.7,2.9,2.9,0,0,1-1.969.742A2.9,2.9,0,0,1,8.131-.916a4.09,4.09,0,0,1-.848-2.639v-.287A4.072,4.072,0,0,1,8.135-6.47a2.9,2.9,0,0,1,2.4-1.063,2.791,2.791,0,0,1,2.027.766,2.428,2.428,0,0,1,.762,1.88l-.014.041H12.089A1.632,1.632,0,0,0,11.648-6a1.451,1.451,0,0,0-1.111-.475A1.555,1.555,0,0,0,9.092-5.7a3.6,3.6,0,0,0-.455,1.863v.287a3.668,3.668,0,0,0,.448,1.88A1.554,1.554,0,0,0,10.538-.909ZM18.132.144A3.327,3.327,0,0,1,15.545-.878a3.815,3.815,0,0,1-.933-2.676v-.3a3.838,3.838,0,0,1,.919-2.635,2.883,2.883,0,0,1,2.246-1.042A2.684,2.684,0,0,1,20-6.61a3.8,3.8,0,0,1,.742,2.454v.711h-4.73L16-3.411a2.871,2.871,0,0,0,.523,1.8,1.893,1.893,0,0,0,1.61.7,3.29,3.29,0,0,0,1.066-.14,7.094,7.094,0,0,0,.937-.427l.335.95a3.9,3.9,0,0,1-.9.468A4.156,4.156,0,0,1,18.132.144Zm-.355-6.617a1.464,1.464,0,0,0-1.166.543,2.571,2.571,0,0,0-.564,1.391l.014.034H19.4v-.109A2.154,2.154,0,0,0,19-5.947,1.433,1.433,0,0,0,17.777-6.474ZM23.458-7.4l.1,1.1a2.686,2.686,0,0,1,.926-.913,2.471,2.471,0,0,1,1.268-.325,2.414,2.414,0,0,1,1.853.7,3.076,3.076,0,0,1,.656,2.164V0H26.91V-4.642a2,2,0,0,0-.386-1.388,1.547,1.547,0,0,0-1.179-.41,2.088,2.088,0,0,0-1.056.25,1.813,1.813,0,0,0-.687.7V0H22.254V-7.4Zm8.47-1.784V-7.4h1.4v1h-1.4v4.491a1.006,1.006,0,0,0,.215.731.779.779,0,0,0,.571.212,1.348,1.348,0,0,0,.256-.027,1.569,1.569,0,0,0,.25-.068l.185.923a1.265,1.265,0,0,1-.451.2,2.242,2.242,0,0,1-.581.079,1.747,1.747,0,0,1-1.3-.5,2.143,2.143,0,0,1-.489-1.555V-6.4H29.412v-1h1.169V-9.181Zm6.248,2.974-.69-.041a1.542,1.542,0,0,0-.9.253,1.623,1.623,0,0,0-.564.711V0H34.675V-7.4h1.2l.1,1.148a2.6,2.6,0,0,1,.779-.943,1.815,1.815,0,0,1,1.094-.342,1.664,1.664,0,0,1,.287.024,1.9,1.9,0,0,1,.226.051ZM44.123,0q-.068-.335-.106-.591a4.34,4.34,0,0,1-.044-.516,3.14,3.14,0,0,1-.981.892,2.509,2.509,0,0,1-1.3.359,2.418,2.418,0,0,1-1.76-.591,2.175,2.175,0,0,1-.6-1.63,1.91,1.91,0,0,1,.858-1.658,4.007,4.007,0,0,1,2.328-.6h1.463v-.731a1.357,1.357,0,0,0-.4-1.029,1.557,1.557,0,0,0-1.121-.379,1.627,1.627,0,0,0-1.06.328.985.985,0,0,0-.4.786l-1.278.014L39.7-5.387a1.77,1.77,0,0,1,.755-1.477,3.131,3.131,0,0,1,2.075-.67,3.054,3.054,0,0,1,2.023.639,2.264,2.264,0,0,1,.766,1.842V-1.49a6.933,6.933,0,0,0,.041.766A3.937,3.937,0,0,0,45.51,0ZM41.887-.984a2.4,2.4,0,0,0,1.319-.376,1.787,1.787,0,0,0,.766-.861v-1.2H42.461a1.96,1.96,0,0,0-1.3.41,1.227,1.227,0,0,0-.489.964,1.014,1.014,0,0,0,.308.779A1.288,1.288,0,0,0,41.887-.984Zm5.079-2.577a4.936,4.936,0,0,1,.762-2.878,2.456,2.456,0,0,1,2.136-1.094,2.649,2.649,0,0,1,1.152.239,2.361,2.361,0,0,1,.858.7v-4.067h1.347V0H52.189l-.205-.937a2.4,2.4,0,0,1-.9.807,2.675,2.675,0,0,1-1.237.273,2.538,2.538,0,0,1-2.119-.981,4.077,4.077,0,0,1-.766-2.581Zm1.347.144a3.14,3.14,0,0,0,.458,1.794,1.6,1.6,0,0,0,1.422.673A1.784,1.784,0,0,0,51.2-1.224a2.042,2.042,0,0,0,.67-.766V-5.441a2.074,2.074,0,0,0-.673-.728,1.779,1.779,0,0,0-.995-.27,1.539,1.539,0,0,0-1.432.8,4.128,4.128,0,0,0-.461,2.078Zm6.6-.349a4.072,4.072,0,0,1,.889-2.7,2.98,2.98,0,0,1,2.413-1.063,3.009,3.009,0,0,1,2.43,1.06,4.059,4.059,0,0,1,.892,2.707v.15a4.052,4.052,0,0,1-.889,2.707A3,3,0,0,1,58.232.144,3.006,3.006,0,0,1,55.809-.913a4.045,4.045,0,0,1-.892-2.7Zm1.347.15a3.508,3.508,0,0,0,.5,1.941,1.641,1.641,0,0,0,1.473.766,1.636,1.636,0,0,0,1.463-.766,3.49,3.49,0,0,0,.5-1.941v-.15a3.479,3.479,0,0,0-.5-1.935,1.647,1.647,0,0,0-1.473-.772,1.624,1.624,0,0,0-1.459.772,3.516,3.516,0,0,0-.5,1.935ZM-55.552,10.595a2.729,2.729,0,0,1,.94-.831,2.579,2.579,0,0,1,1.234-.3,2.389,2.389,0,0,1,1.842.711,3.128,3.128,0,0,1,.66,2.188V17h-1.347V12.352A1.98,1.98,0,0,0-52.616,11a1.5,1.5,0,0,0-1.172-.437,2.2,2.2,0,0,0-1.046.236,1.9,1.9,0,0,0-.718.66V17H-56.9V6.336h1.347ZM-44.4,17q-.068-.335-.106-.591a4.34,4.34,0,0,1-.044-.516,3.14,3.14,0,0,1-.981.892,2.509,2.509,0,0,1-1.3.359,2.418,2.418,0,0,1-1.76-.591,2.175,2.175,0,0,1-.6-1.63,1.91,1.91,0,0,1,.858-1.658,4.007,4.007,0,0,1,2.328-.6h1.463v-.731a1.357,1.357,0,0,0-.4-1.029,1.557,1.557,0,0,0-1.121-.379,1.627,1.627,0,0,0-1.06.328.985.985,0,0,0-.4.786l-1.278.014-.014-.041a1.77,1.77,0,0,1,.755-1.477,3.131,3.131,0,0,1,2.075-.67,3.054,3.054,0,0,1,2.023.639,2.264,2.264,0,0,1,.766,1.842V15.51a6.933,6.933,0,0,0,.041.766,3.937,3.937,0,0,0,.15.725Zm-2.235-.984a2.4,2.4,0,0,0,1.319-.376,1.787,1.787,0,0,0,.766-.861v-1.2h-1.511a1.96,1.96,0,0,0-1.3.41,1.227,1.227,0,0,0-.489.964,1.014,1.014,0,0,0,.308.779A1.288,1.288,0,0,0-46.631,16.016Zm9.687-1a.9.9,0,0,0-.338-.725,3.266,3.266,0,0,0-1.282-.492,5.378,5.378,0,0,1-2.006-.786,1.588,1.588,0,0,1-.7-1.354,1.95,1.95,0,0,1,.769-1.545,3,3,0,0,1,1.993-.643,2.976,2.976,0,0,1,2.037.684,1.959,1.959,0,0,1,.745,1.593l-.014.041h-1.285a1.165,1.165,0,0,0-.42-.868,1.5,1.5,0,0,0-1.063-.39,1.532,1.532,0,0,0-1.063.321,1,1,0,0,0-.352.766.811.811,0,0,0,.3.677,3.367,3.367,0,0,0,1.254.438,5.3,5.3,0,0,1,2.064.813,1.638,1.638,0,0,1,.7,1.374,1.947,1.947,0,0,1-.8,1.606,3.285,3.285,0,0,1-2.082.622,3.251,3.251,0,0,1-2.229-.718,2.048,2.048,0,0,1-.772-1.675l.014-.041h1.285a1.246,1.246,0,0,0,.533,1.049,2.063,2.063,0,0,0,1.169.332,1.841,1.841,0,0,0,1.125-.3A.93.93,0,0,0-36.945,15.011Zm4.737-7.191V9.6h1.4v1h-1.4v4.491a1.006,1.006,0,0,0,.215.731.779.779,0,0,0,.571.212,1.348,1.348,0,0,0,.256-.027,1.569,1.569,0,0,0,.25-.068l.185.923a1.265,1.265,0,0,1-.451.2,2.242,2.242,0,0,1-.581.079,1.747,1.747,0,0,1-1.3-.5,2.143,2.143,0,0,1-.489-1.555V10.6h-1.169v-1h1.169V7.819ZM-24.914,17q-.068-.335-.106-.591a4.34,4.34,0,0,1-.044-.516,3.14,3.14,0,0,1-.981.892,2.509,2.509,0,0,1-1.3.359,2.418,2.418,0,0,1-1.76-.591,2.175,2.175,0,0,1-.6-1.63,1.91,1.91,0,0,1,.858-1.658,4.007,4.007,0,0,1,2.328-.6h1.463v-.731a1.357,1.357,0,0,0-.4-1.029,1.557,1.557,0,0,0-1.121-.379,1.627,1.627,0,0,0-1.06.328.985.985,0,0,0-.4.786l-1.278.014-.014-.041a1.77,1.77,0,0,1,.755-1.477,3.131,3.131,0,0,1,2.075-.67,3.054,3.054,0,0,1,2.023.639,2.264,2.264,0,0,1,.766,1.842V15.51a6.933,6.933,0,0,0,.041.766,3.937,3.937,0,0,0,.15.725Zm-2.235-.984a2.4,2.4,0,0,0,1.319-.376,1.787,1.787,0,0,0,.766-.861v-1.2h-1.511a1.96,1.96,0,0,0-1.3.41,1.227,1.227,0,0,0-.489.964,1.014,1.014,0,0,0,.308.779A1.288,1.288,0,0,0-27.149,16.016ZM-16.827,17h-1.347V6.336h1.347Zm6.617,0q-.068-.335-.106-.591a4.34,4.34,0,0,1-.044-.516,3.14,3.14,0,0,1-.981.892,2.509,2.509,0,0,1-1.3.359,2.418,2.418,0,0,1-1.76-.591,2.175,2.175,0,0,1-.6-1.63,1.91,1.91,0,0,1,.858-1.658,4.007,4.007,0,0,1,2.328-.6h1.463v-.731a1.357,1.357,0,0,0-.4-1.029,1.557,1.557,0,0,0-1.121-.379,1.627,1.627,0,0,0-1.06.328.985.985,0,0,0-.4.786l-1.278.014-.014-.041a1.77,1.77,0,0,1,.755-1.477,3.131,3.131,0,0,1,2.075-.67,3.054,3.054,0,0,1,2.023.639,2.264,2.264,0,0,1,.766,1.842V15.51a6.933,6.933,0,0,0,.041.766,3.937,3.937,0,0,0,.15.725Zm-2.235-.984a2.4,2.4,0,0,0,1.319-.376,1.787,1.787,0,0,0,.766-.861v-1.2h-1.511a1.96,1.96,0,0,0-1.3.41,1.227,1.227,0,0,0-.489.964,1.014,1.014,0,0,0,.308.779A1.288,1.288,0,0,0-12.445,16.016Zm8.552-2.782A4.072,4.072,0,0,1-3,10.53,2.98,2.98,0,0,1-.591,9.467a3.009,3.009,0,0,1,2.43,1.06,4.059,4.059,0,0,1,.892,2.707v.15a4.052,4.052,0,0,1-.889,2.707,3,3,0,0,1-2.42,1.053A3.006,3.006,0,0,1-3,16.087a4.045,4.045,0,0,1-.892-2.7Zm1.347.15a3.508,3.508,0,0,0,.5,1.941,1.641,1.641,0,0,0,1.473.766,1.636,1.636,0,0,0,1.463-.766,3.49,3.49,0,0,0,.5-1.941v-.15a3.479,3.479,0,0,0-.5-1.935,1.647,1.647,0,0,0-1.473-.772,1.624,1.624,0,0,0-1.459.772,3.516,3.516,0,0,0-.5,1.935Zm13.241.2a4.064,4.064,0,0,1-.769,2.581,2.541,2.541,0,0,1-2.116.981,2.681,2.681,0,0,1-1.282-.291,2.379,2.379,0,0,1-.9-.858l-.219,1H4.378V6.336H5.725v4.143a2.337,2.337,0,0,1,.865-.752A2.651,2.651,0,0,1,7.8,9.467a2.458,2.458,0,0,1,2.133,1.094,4.92,4.92,0,0,1,.766,2.878Zm-1.347-.144a4.083,4.083,0,0,0-.468-2.075,1.542,1.542,0,0,0-1.425-.8,1.763,1.763,0,0,0-1.049.3,2.145,2.145,0,0,0-.68.817v3.206a2.2,2.2,0,0,0,.68.854,1.753,1.753,0,0,0,1.063.308,1.6,1.6,0,0,0,1.415-.677,3.108,3.108,0,0,0,.465-1.791Zm4.7-5.619V9.6h1.4v1h-1.4v4.491a1.006,1.006,0,0,0,.215.731.779.779,0,0,0,.571.212,1.348,1.348,0,0,0,.256-.027,1.569,1.569,0,0,0,.25-.068l.185.923a1.265,1.265,0,0,1-.451.2,2.242,2.242,0,0,1-.581.079,1.747,1.747,0,0,1-1.3-.5,2.143,2.143,0,0,1-.489-1.555V10.6H11.536v-1H12.7V7.819Zm5.954,9.324a3.327,3.327,0,0,1-2.587-1.022,3.815,3.815,0,0,1-.933-2.676v-.3a3.838,3.838,0,0,1,.919-2.635A2.883,2.883,0,0,1,19.65,9.467a2.684,2.684,0,0,1,2.225.923,3.8,3.8,0,0,1,.742,2.454v.711h-4.73l-.014.034a2.871,2.871,0,0,0,.523,1.8,1.893,1.893,0,0,0,1.61.7,3.29,3.29,0,0,0,1.066-.14,7.094,7.094,0,0,0,.937-.427l.335.95a3.9,3.9,0,0,1-.9.468A4.156,4.156,0,0,1,20.005,17.144Zm-.355-6.617a1.464,1.464,0,0,0-1.166.543,2.571,2.571,0,0,0-.564,1.391l.014.034H21.27v-.109a2.154,2.154,0,0,0-.4-1.333A1.433,1.433,0,0,0,19.65,10.526ZM25.331,9.6l.1,1.1a2.686,2.686,0,0,1,.926-.913,2.471,2.471,0,0,1,1.268-.325,2.414,2.414,0,0,1,1.853.7,3.076,3.076,0,0,1,.656,2.164V17H28.783V12.358a2,2,0,0,0-.386-1.388,1.547,1.547,0,0,0-1.179-.41,2.088,2.088,0,0,0-1.056.25,1.813,1.813,0,0,0-.687.7V17H24.127V9.6Zm9.693,6.487a1.584,1.584,0,0,0,1.087-.414,1.307,1.307,0,0,0,.465-1.015h1.217l.021.041a2.124,2.124,0,0,1-.82,1.7,3.134,3.134,0,0,1-4.375-.318,4.09,4.09,0,0,1-.848-2.639v-.287a4.072,4.072,0,0,1,.851-2.628,2.9,2.9,0,0,1,2.4-1.063,2.791,2.791,0,0,1,2.027.766,2.428,2.428,0,0,1,.762,1.88l-.014.041H36.576A1.632,1.632,0,0,0,36.135,11a1.451,1.451,0,0,0-1.111-.475,1.555,1.555,0,0,0-1.446.769,3.6,3.6,0,0,0-.455,1.863v.287a3.668,3.668,0,0,0,.448,1.88A1.554,1.554,0,0,0,35.024,16.091ZM40.869,17H39.522V9.6h1.347Zm0-9.29H39.522V6.336h1.347Zm1.757,5.523a4.072,4.072,0,0,1,.889-2.7,3.293,3.293,0,0,1,4.843,0,4.059,4.059,0,0,1,.892,2.707v.15a4.052,4.052,0,0,1-.889,2.707,3.308,3.308,0,0,1-4.843,0,4.045,4.045,0,0,1-.892-2.7Zm1.347.15a3.508,3.508,0,0,0,.5,1.941,1.79,1.79,0,0,0,2.936,0,3.49,3.49,0,0,0,.5-1.941v-.15a3.479,3.479,0,0,0-.5-1.935,1.647,1.647,0,0,0-1.473-.772,1.624,1.624,0,0,0-1.459.772,3.516,3.516,0,0,0-.5,1.935ZM46.59,6.466h1.572l.014.041L46.337,8.284H45.326ZM52.1,9.6l.1,1.1a2.686,2.686,0,0,1,.926-.913,2.471,2.471,0,0,1,1.268-.325,2.414,2.414,0,0,1,1.853.7,3.076,3.076,0,0,1,.656,2.164V17H55.552V12.358a2,2,0,0,0-.386-1.388,1.547,1.547,0,0,0-1.179-.41,2.088,2.088,0,0,0-1.056.25,1.813,1.813,0,0,0-.687.7V17H50.9V9.6ZM-31.247,30.438a4.936,4.936,0,0,1,.762-2.878,2.456,2.456,0,0,1,2.136-1.094,2.649,2.649,0,0,1,1.152.239,2.361,2.361,0,0,1,.858.7V23.336h1.347V34h-1.032l-.205-.937a2.4,2.4,0,0,1-.9.807,2.675,2.675,0,0,1-1.237.273,2.538,2.538,0,0,1-2.119-.981,4.077,4.077,0,0,1-.766-2.581Zm1.347.144a3.14,3.14,0,0,0,.458,1.794,1.6,1.6,0,0,0,1.422.673,1.784,1.784,0,0,0,1.012-.273,2.042,2.042,0,0,0,.67-.766V28.559a2.074,2.074,0,0,0-.673-.728,1.779,1.779,0,0,0-.995-.27,1.539,1.539,0,0,0-1.432.8,4.128,4.128,0,0,0-.461,2.078Zm10.124,3.562a3.327,3.327,0,0,1-2.587-1.022,3.815,3.815,0,0,1-.933-2.676v-.3a3.838,3.838,0,0,1,.919-2.635,2.883,2.883,0,0,1,2.246-1.042,2.684,2.684,0,0,1,2.225.923,3.8,3.8,0,0,1,.742,2.454v.711H-21.9l-.014.034a2.871,2.871,0,0,0,.523,1.8,1.893,1.893,0,0,0,1.61.7,3.29,3.29,0,0,0,1.066-.14,7.094,7.094,0,0,0,.937-.427l.335.95a3.9,3.9,0,0,1-.9.468A4.156,4.156,0,0,1-19.776,34.144Zm-.355-6.617a1.464,1.464,0,0,0-1.166.543,2.571,2.571,0,0,0-.564,1.391l.014.034h3.336v-.109a2.154,2.154,0,0,0-.4-1.333A1.433,1.433,0,0,0-20.132,27.526ZM-10.719,34h-1.347V23.336h1.347ZM-4.1,34q-.068-.335-.106-.591a4.34,4.34,0,0,1-.044-.516,3.14,3.14,0,0,1-.981.892,2.509,2.509,0,0,1-1.3.359,2.418,2.418,0,0,1-1.76-.591,2.175,2.175,0,0,1-.6-1.63,1.91,1.91,0,0,1,.858-1.658,4.007,4.007,0,0,1,2.328-.6h1.463v-.731a1.357,1.357,0,0,0-.4-1.029,1.557,1.557,0,0,0-1.121-.379,1.627,1.627,0,0,0-1.06.328.985.985,0,0,0-.4.786l-1.278.014-.014-.041a1.77,1.77,0,0,1,.755-1.477,3.131,3.131,0,0,1,2.075-.67,3.054,3.054,0,0,1,2.023.639,2.264,2.264,0,0,1,.766,1.842V32.51a6.933,6.933,0,0,0,.041.766,3.937,3.937,0,0,0,.15.725Zm-2.235-.984a2.4,2.4,0,0,0,1.319-.376,1.787,1.787,0,0,0,.766-.861v-1.2H-5.763a1.96,1.96,0,0,0-1.3.41,1.227,1.227,0,0,0-.489.964,1.014,1.014,0,0,0,.308.779A1.288,1.288,0,0,0-6.337,33.016ZM3.732,26.6l.1.971a2.512,2.512,0,0,1,.919-.817,2.763,2.763,0,0,1,1.3-.291,2.288,2.288,0,0,1,1.268.342,2.068,2.068,0,0,1,.8,1.025,2.767,2.767,0,0,1,.926-1,2.423,2.423,0,0,1,1.336-.366,2.214,2.214,0,0,1,1.784.776,3.545,3.545,0,0,1,.656,2.334V34H11.464V29.563a2.459,2.459,0,0,0-.376-1.548,1.371,1.371,0,0,0-1.121-.455,1.427,1.427,0,0,0-1.118.479,2.083,2.083,0,0,0-.5,1.21V34H6.993V29.563a2.425,2.425,0,0,0-.386-1.521A1.34,1.34,0,0,0,5.5,27.561a1.85,1.85,0,0,0-1.012.253,1.634,1.634,0,0,0-.608.711V34H2.529V26.6ZM16.222,34H14.875V26.6h1.347Zm0-9.29H14.875V23.336h1.347ZM21.5,34.144a3.327,3.327,0,0,1-2.587-1.022,3.815,3.815,0,0,1-.933-2.676v-.3a3.838,3.838,0,0,1,.919-2.635,2.883,2.883,0,0,1,2.246-1.042,2.684,2.684,0,0,1,2.225.923,3.8,3.8,0,0,1,.742,2.454v.711H19.38l-.014.034a2.871,2.871,0,0,0,.523,1.8,1.893,1.893,0,0,0,1.61.7,3.29,3.29,0,0,0,1.066-.14,7.094,7.094,0,0,0,.937-.427l.335.95a3.9,3.9,0,0,1-.9.468A4.156,4.156,0,0,1,21.5,34.144Zm-.355-6.617a1.464,1.464,0,0,0-1.166.543,2.571,2.571,0,0,0-.564,1.391l.014.034h3.336v-.109a2.154,2.154,0,0,0-.4-1.333A1.433,1.433,0,0,0,21.144,27.526ZM27.077,34H25.73V23.336h1.347Zm3.541,0H29.271V32.619h1.347Z" transform="translate(-4516.975 -10810.69)" fill="#12263f"/>
    <path id="Trazado_183767" data-name="Trazado 183767" d="M15.307,0h89.746c8.454,0,15.307,7.784,15.307,17.386s-6.853,17.386-15.307,17.386H15.307C6.853,34.771,0,26.988,0,17.386S6.853,0,15.307,0Z" transform="translate(-4749.09 -10908.977)" fill="#dff7aa" stroke="#688c17" stroke-width="3"/>
    <path id="Trazado_183767-2" data-name="Trazado 183767" d="M15.307,0h89.746c8.454,0,15.307,7.784,15.307,17.386s-6.853,17.386-15.307,17.386H15.307C6.853,34.771,0,26.988,0,17.386S6.853,0,15.307,0Z" transform="translate(-4749.09 -10814.992)" fill="#dff7aa" stroke="#688c17" stroke-width="3"/>
    <path id="Trazado_183767-3" data-name="Trazado 183767" d="M15.307,0h89.746c8.454,0,15.307,7.784,15.307,17.386s-6.853,17.386-15.307,17.386H15.307C6.853,34.771,0,26.988,0,17.386S6.853,0,15.307,0Z" transform="translate(-4749.09 -10720.994)" fill="#dff7aa" stroke="#688c17" stroke-width="3"/>
    <path id="Trazado_264114" data-name="Trazado 264114" d="M28.932,10.453V15H26.65V3.625h3.938a4.716,4.716,0,0,1,3.043.887,3,3,0,0,1,1.1,2.473A2.494,2.494,0,0,1,34.264,8.5a3.238,3.238,0,0,1-1.355,1.027,2.448,2.448,0,0,1,1.449.992,3.146,3.146,0,0,1,.441,1.719v.836a4.135,4.135,0,0,0,.129,1,1.37,1.37,0,0,0,.441.77V15H33.018a1.263,1.263,0,0,1-.4-.828,7.275,7.275,0,0,1-.09-1.117v-.8a1.808,1.808,0,0,0-.465-1.324,1.763,1.763,0,0,0-1.316-.473Zm0-1.758h1.617a2.139,2.139,0,0,0,1.43-.406,1.506,1.506,0,0,0,.469-1.2,1.655,1.655,0,0,0-.473-1.242,1.909,1.909,0,0,0-1.387-.461H28.932Zm11.406,6.469A3.8,3.8,0,0,1,37.385,14a4.252,4.252,0,0,1-1.062-2.988V10.7a4.628,4.628,0,0,1,1.031-3.109,3.506,3.506,0,0,1,2.836-1.2A3.282,3.282,0,0,1,42.8,7.434a4.122,4.122,0,0,1,.91,2.809v1.18H38.674l-.023.047a2.284,2.284,0,0,0,.527,1.406,1.766,1.766,0,0,0,1.4.539,4.692,4.692,0,0,0,1.3-.156,5.307,5.307,0,0,0,1.105-.477l.617,1.406a4.234,4.234,0,0,1-1.375.7A6.1,6.1,0,0,1,40.338,15.164Zm-.148-7.016a1.267,1.267,0,0,0-1.059.473,2.371,2.371,0,0,0-.449,1.254l.016.039h2.781V9.742a1.974,1.974,0,0,0-.3-1.168A1.127,1.127,0,0,0,40.189,8.148Zm8.383,5.266a1.27,1.27,0,0,0,.945-.355,1.291,1.291,0,0,0,.352-.949h2.078l.016.047A2.645,2.645,0,0,1,51.01,14.3a3.564,3.564,0,0,1-2.437.863,3.6,3.6,0,0,1-2.9-1.2A4.558,4.558,0,0,1,44.65,10.9v-.234A4.588,4.588,0,0,1,45.67,7.6a3.57,3.57,0,0,1,2.887-1.207,3.486,3.486,0,0,1,2.492.891,2.976,2.976,0,0,1,.914,2.344l-.016.047H49.869a1.687,1.687,0,0,0-.348-1.09,1.168,1.168,0,0,0-.965-.434,1.3,1.3,0,0,0-1.254.707,3.878,3.878,0,0,0-.371,1.809V10.9a3.863,3.863,0,0,0,.371,1.82A1.32,1.32,0,0,0,48.572,13.414ZM55.689,15H53.408V6.547h2.281Zm0-10.477H53.408V2.813h2.281Zm9.5,6.484a4.945,4.945,0,0,1-.844,3.023,2.854,2.854,0,0,1-2.437,1.133,2.576,2.576,0,0,1-1.293-.312,2.672,2.672,0,0,1-.934-.914L59.494,15h-1.93V2.813h2.273V7.445a2.582,2.582,0,0,1,.879-.781,2.457,2.457,0,0,1,1.176-.273,2.8,2.8,0,0,1,2.453,1.215,5.577,5.577,0,0,1,.844,3.238Zm-2.273-.164a4.4,4.4,0,0,0-.363-1.957,1.275,1.275,0,0,0-1.238-.723,1.7,1.7,0,0,0-.9.223,1.543,1.543,0,0,0-.578.637V12.6a1.449,1.449,0,0,0,.582.586,1.874,1.874,0,0,0,.91.2,1.3,1.3,0,0,0,1.234-.621,3.618,3.618,0,0,0,.352-1.762ZM68.994,15H66.713V6.547h2.281Zm0-10.477H66.713V2.813h2.281Zm6.32,3.984-.836-.023a1.519,1.519,0,0,0-.836.211,1.337,1.337,0,0,0-.5.594V15H70.869V6.547h2.117l.1,1.25a2.667,2.667,0,0,1,.77-1.035,1.8,1.8,0,0,1,1.406-.344q.145.027.293.066Z" transform="translate(-4738.859 -10901.31)" fill="#12263f"/>
    <path id="Trazado_264115" data-name="Trazado 264115" d="M17.689,5.383h-3.25V15H12.158V5.383h-3.2V3.625h8.734Zm5.016,3.125-.836-.023a1.519,1.519,0,0,0-.836.211,1.337,1.337,0,0,0-.5.594V15H18.26V6.547h2.117l.1,1.25a2.667,2.667,0,0,1,.77-1.035,1.8,1.8,0,0,1,1.406-.344q.145.027.293.066ZM28.877,15a4.8,4.8,0,0,1-.215-.609,4.239,4.239,0,0,1-.129-.656,3.127,3.127,0,0,1-.93,1.023,2.33,2.33,0,0,1-1.375.406,2.855,2.855,0,0,1-2.047-.684,2.449,2.449,0,0,1-.719-1.863,2.229,2.229,0,0,1,.957-1.926,4.78,4.78,0,0,1,2.793-.684h1.281V9.336a1.315,1.315,0,0,0-.32-.945,1.257,1.257,0,0,0-.953-.336,1.239,1.239,0,0,0-.855.27.941.941,0,0,0-.3.738h-2.2l-.016-.047a2.144,2.144,0,0,1,.934-1.848,4.055,4.055,0,0,1,2.582-.777,3.784,3.784,0,0,1,2.465.766,2.667,2.667,0,0,1,.941,2.2v3.492a6.6,6.6,0,0,0,.09,1.117A5.606,5.606,0,0,0,31.15,15Zm-2.086-1.523a1.944,1.944,0,0,0,1.063-.3,1.6,1.6,0,0,0,.641-.687V11.3H27.213a1.519,1.519,0,0,0-1.1.359,1.181,1.181,0,0,0-.371.883.881.881,0,0,0,.277.684A1.1,1.1,0,0,0,26.791,13.477Zm7.781-6.93.1,1.211A3.092,3.092,0,0,1,35.713,6.75,2.7,2.7,0,0,1,37.1,6.391a2.513,2.513,0,0,1,2,.824,3.908,3.908,0,0,1,.719,2.605V15H37.525V9.828a2.024,2.024,0,0,0-.316-1.285,1.166,1.166,0,0,0-.949-.379,1.992,1.992,0,0,0-.895.191,1.746,1.746,0,0,0-.637.527V15H32.447V6.547Zm11.516,6.109a.787.787,0,0,0-.363-.645,3.69,3.69,0,0,0-1.348-.473,5.375,5.375,0,0,1-2.254-.9,1.962,1.962,0,0,1-.77-1.633,2.329,2.329,0,0,1,.922-1.852,3.717,3.717,0,0,1,2.453-.766,4.011,4.011,0,0,1,2.566.766,2.237,2.237,0,0,1,.926,1.906l-.016.047H46a1.106,1.106,0,0,0-.328-.828,1.534,1.534,0,0,0-1.812-.047.85.85,0,0,0-.32.672.759.759,0,0,0,.332.637,3.7,3.7,0,0,0,1.348.441,5.484,5.484,0,0,1,2.316.918A2.014,2.014,0,0,1,48.3,12.57a2.231,2.231,0,0,1-.977,1.867,4.215,4.215,0,0,1-2.578.727,3.918,3.918,0,0,1-2.668-.855,2.392,2.392,0,0,1-.934-1.949l.016-.047h2.086a1.186,1.186,0,0,0,.445.984,1.838,1.838,0,0,0,1.1.3,1.567,1.567,0,0,0,.965-.254A.824.824,0,0,0,46.088,12.656Zm11.3-1.648a4.855,4.855,0,0,1-.867,3.016A2.869,2.869,0,0,1,54.1,15.164a2.707,2.707,0,0,1-1.18-.246,2.423,2.423,0,0,1-.883-.723V18.25H49.768V6.547h2.055l.133,1a2.709,2.709,0,0,1,.9-.855,2.441,2.441,0,0,1,1.23-.3,2.813,2.813,0,0,1,2.438,1.227,5.474,5.474,0,0,1,.867,3.227Zm-2.281-.164a4.09,4.09,0,0,0-.4-1.937,1.3,1.3,0,0,0-1.219-.742,1.722,1.722,0,0,0-.879.211,1.505,1.505,0,0,0-.574.6v3.7a1.4,1.4,0,0,0,.574.547,1.935,1.935,0,0,0,.895.188,1.312,1.312,0,0,0,1.215-.648,3.423,3.423,0,0,0,.387-1.758Zm3.336-.148A4.536,4.536,0,0,1,59.5,7.6a3.676,3.676,0,0,1,2.922-1.207,3.715,3.715,0,0,1,2.938,1.2,4.512,4.512,0,0,1,1.063,3.1v.164a4.519,4.519,0,0,1-1.059,3.105,4.178,4.178,0,0,1-5.859,0,4.519,4.519,0,0,1-1.059-3.105Zm2.273.164a3.677,3.677,0,0,0,.406,1.855,1.561,1.561,0,0,0,2.605,0,3.653,3.653,0,0,0,.41-1.852V10.7a3.616,3.616,0,0,0-.414-1.836,1.4,1.4,0,0,0-1.3-.711,1.384,1.384,0,0,0-1.293.715,3.648,3.648,0,0,0-.41,1.832ZM72.275,8.508l-.836-.023A1.519,1.519,0,0,0,70.6,8.7a1.337,1.337,0,0,0-.5.594V15H67.83V6.547h2.117l.1,1.25a2.667,2.667,0,0,1,.77-1.035,1.8,1.8,0,0,1,1.406-.344q.145.027.293.066ZM76.33,4.477v2.07h1.43v1.6H76.33v4.3a.982.982,0,0,0,.207.7.727.727,0,0,0,.543.211,2.178,2.178,0,0,0,.313-.02,2.632,2.632,0,0,0,.3-.066l.188,1.648a4.618,4.618,0,0,1-.668.176,3.982,3.982,0,0,1-.707.059,2.431,2.431,0,0,1-1.816-.648,2.843,2.843,0,0,1-.637-2.055V8.148H72.822v-1.6h1.234V4.477ZM84.15,15a4.8,4.8,0,0,1-.215-.609,4.238,4.238,0,0,1-.129-.656,3.127,3.127,0,0,1-.93,1.023,2.33,2.33,0,0,1-1.375.406,2.855,2.855,0,0,1-2.047-.684,2.449,2.449,0,0,1-.719-1.863,2.229,2.229,0,0,1,.957-1.926,4.78,4.78,0,0,1,2.793-.684h1.281V9.336a1.315,1.315,0,0,0-.32-.945,1.257,1.257,0,0,0-.953-.336,1.239,1.239,0,0,0-.855.27.941.941,0,0,0-.3.738h-2.2l-.016-.047a2.144,2.144,0,0,1,.934-1.848,4.055,4.055,0,0,1,2.582-.777,3.784,3.784,0,0,1,2.465.766,2.667,2.667,0,0,1,.941,2.2v3.492a6.6,6.6,0,0,0,.09,1.117A5.606,5.606,0,0,0,86.424,15Zm-2.086-1.523a1.944,1.944,0,0,0,1.063-.3,1.6,1.6,0,0,0,.641-.687V11.3H82.486a1.519,1.519,0,0,0-1.1.359,1.181,1.181,0,0,0-.371.883.881.881,0,0,0,.277.684A1.1,1.1,0,0,0,82.064,13.477ZM92.205,8.508l-.836-.023a1.519,1.519,0,0,0-.836.211,1.337,1.337,0,0,0-.5.594V15H87.76V6.547h2.117l.1,1.25a2.667,2.667,0,0,1,.77-1.035,1.8,1.8,0,0,1,1.406-.344q.145.027.293.066Z" transform="translate(-4738.859 -10712.31)" fill="#12263f"/>
    <path id="Trazado_264116" data-name="Trazado 264116" d="M35.951,12.547H32.264L31.5,15H29.115L32.951,3.625h2.336L39.107,15H36.725Zm-3.125-1.789H35.4L34.139,6.75h-.047Zm6.867.086a5.474,5.474,0,0,1,.867-3.227A2.813,2.813,0,0,1,43,6.391a2.4,2.4,0,0,1,1.25.32,2.806,2.806,0,0,1,.922.914l.18-1.078h1.961v8.414a3.142,3.142,0,0,1-1.078,2.551,4.552,4.552,0,0,1-3.008.9,5.73,5.73,0,0,1-1.359-.176,6.313,6.313,0,0,1-1.328-.48l.383-1.7A5.235,5.235,0,0,0,42,16.434a5.362,5.362,0,0,0,1.207.129,2.042,2.042,0,0,0,1.379-.391,1.546,1.546,0,0,0,.441-1.219v-.766a2.552,2.552,0,0,1-.883.727,2.6,2.6,0,0,1-1.164.25,2.869,2.869,0,0,1-2.422-1.141,4.855,4.855,0,0,1-.867-3.016Zm2.281.164a3.473,3.473,0,0,0,.371,1.746,1.3,1.3,0,0,0,1.215.637,1.883,1.883,0,0,0,.887-.191,1.462,1.462,0,0,0,.582-.559V8.977a1.559,1.559,0,0,0-.582-.6,1.706,1.706,0,0,0-.871-.211,1.279,1.279,0,0,0-1.219.742,4.231,4.231,0,0,0-.383,1.938ZM51.459,15H49.178V6.547h2.281Zm0-10.477H49.178V2.813h2.281Zm4.609-.047v2.07H57.5v1.6h-1.43v4.3a.982.982,0,0,0,.207.7.727.727,0,0,0,.543.211,2.178,2.178,0,0,0,.313-.02,2.632,2.632,0,0,0,.3-.066l.188,1.648a4.618,4.618,0,0,1-.668.176,3.982,3.982,0,0,1-.707.059,2.431,2.431,0,0,1-1.816-.648,2.843,2.843,0,0,1-.637-2.055V8.148H52.561v-1.6h1.234V4.477ZM63.889,15a4.8,4.8,0,0,1-.215-.609,4.239,4.239,0,0,1-.129-.656,3.127,3.127,0,0,1-.93,1.023,2.33,2.33,0,0,1-1.375.406,2.855,2.855,0,0,1-2.047-.684,2.449,2.449,0,0,1-.719-1.863,2.229,2.229,0,0,1,.957-1.926,4.78,4.78,0,0,1,2.793-.684h1.281V9.336a1.315,1.315,0,0,0-.32-.945,1.257,1.257,0,0,0-.953-.336,1.239,1.239,0,0,0-.855.27.941.941,0,0,0-.3.738h-2.2l-.016-.047A2.144,2.144,0,0,1,59.8,7.168a4.055,4.055,0,0,1,2.582-.777,3.784,3.784,0,0,1,2.465.766,2.667,2.667,0,0,1,.941,2.2v3.492a6.6,6.6,0,0,0,.09,1.117A5.606,5.606,0,0,0,66.162,15ZM61.8,13.477a1.944,1.944,0,0,0,1.063-.3,1.6,1.6,0,0,0,.641-.687V11.3H62.225a1.519,1.519,0,0,0-1.1.359,1.181,1.181,0,0,0-.371.883.881.881,0,0,0,.277.684A1.1,1.1,0,0,0,61.8,13.477ZM71.943,8.508l-.836-.023a1.519,1.519,0,0,0-.836.211,1.337,1.337,0,0,0-.5.594V15H67.5V6.547h2.117l.1,1.25a2.667,2.667,0,0,1,.77-1.035,1.8,1.8,0,0,1,1.406-.344q.145.027.293.066Z" transform="translate(-4738.859 -10807.31)" fill="#12263f"/>
    <path id="Trazado_183774" data-name="Trazado 183774" d="M0,30.395V0H0" transform="translate(-4622.37 -10892.19) rotate(-90)" fill="none" stroke="#707070" stroke-width="1"/>
    <path id="Trazado_264117" data-name="Trazado 264117" d="M3.5,0A3.5,3.5,0,1,1,0,3.5,3.5,3.5,0,0,1,3.5,0Z" transform="translate(-4588.975 -10888.69) rotate(180)" fill="#707070"/>
    <path id="Trazado_183774-2" data-name="Trazado 183774" d="M0,30.395V0H0" transform="translate(-4622.37 -10703.19) rotate(-90)" fill="none" stroke="#707070" stroke-width="1"/>
    <path id="Trazado_264118" data-name="Trazado 264118" d="M3.5,0A3.5,3.5,0,1,1,0,3.5,3.5,3.5,0,0,1,3.5,0Z" transform="translate(-4588.975 -10699.69) rotate(180)" fill="#707070"/>
    <path id="Trazado_264119" data-name="Trazado 264119" d="M3.5,0A3.5,3.5,0,1,1,0,3.5,3.5,3.5,0,0,1,3.5,0Z" transform="translate(-4758.938 -10888.69) rotate(180)" fill="#707070"/>
    <path id="Trazado_264120" data-name="Trazado 264120" d="M3.5,0A3.5,3.5,0,1,1,0,3.5,3.5,3.5,0,0,1,3.5,0Z" transform="translate(-4758.938 -10699.69) rotate(180)" fill="#707070"/>
    <path id="Trazado_183774-3" data-name="Trazado 183774" d="M0,30.395V0H0" transform="translate(-4622.37 -10798.19) rotate(-90)" fill="none" stroke="#707070" stroke-width="1"/>
    <path id="Trazado_264121" data-name="Trazado 264121" d="M3.5,0A3.5,3.5,0,1,1,0,3.5,3.5,3.5,0,0,1,3.5,0Z" transform="translate(-4588.975 -10794.69) rotate(180)" fill="#707070"/>
    <path id="Trazado_183774-4" data-name="Trazado 183774" d="M0,30.395V0H0" transform="translate(-4792.333 -10798.19) rotate(-90)" fill="none" stroke="#707070" stroke-width="1"/>
    <path id="Trazado_264122" data-name="Trazado 264122" d="M3.5,0A3.5,3.5,0,1,1,0,3.5,3.5,3.5,0,0,1,3.5,0Z" transform="translate(-4758.938 -10794.69) rotate(180)" fill="#707070"/>
    <path id="Trazado_183767-4" data-name="Trazado 183767" d="M15.6,0h91.466c8.616,0,15.6,7.866,15.6,17.568s-6.985,17.568-15.6,17.568H15.6C6.985,35.137,0,27.271,0,17.568S6.985,0,15.6,0Z" transform="translate(-4915 -10815.358)" fill="#a0d925" stroke="#81af1d" stroke-width="3"/>
    <path id="Trazado_264123" data-name="Trazado 264123" d="M8.429,12.359V17H5.863V4.2h4.9A5.04,5.04,0,0,1,14.23,5.328,3.772,3.772,0,0,1,15.5,8.29a3.745,3.745,0,0,1-1.266,2.953,5.066,5.066,0,0,1-3.472,1.116Zm0-1.978h2.329A2.135,2.135,0,0,0,12.384,9.8a2.079,2.079,0,0,0,.554-1.49,2.176,2.176,0,0,0-.549-1.525,2.1,2.1,0,0,0-1.63-.6H8.429Zm14.537,5.212a3.229,3.229,0,0,1-1.116,1.178,2.959,2.959,0,0,1-1.573.413,2.892,2.892,0,0,1-2.351-1.02A4.89,4.89,0,0,1,17.078,13V7.49h2.558v5.528a3.07,3.07,0,0,0,.338,1.709,1.216,1.216,0,0,0,1.05.461,2.557,2.557,0,0,0,1.055-.2,1.778,1.778,0,0,0,.721-.584V7.49h2.566V17H23.239Zm6.68-8.1.114,1.362a3.478,3.478,0,0,1,1.169-1.134,3.034,3.034,0,0,1,1.556-.4,2.828,2.828,0,0,1,2.25.927,4.4,4.4,0,0,1,.809,2.931V17H32.968V11.182a2.277,2.277,0,0,0-.356-1.446,1.312,1.312,0,0,0-1.068-.426,2.241,2.241,0,0,0-1.006.215,1.964,1.964,0,0,0-.716.593V17H27.255V7.49Zm10.89-2.329V7.49h1.608v1.8H40.536v4.843a1.105,1.105,0,0,0,.233.791.818.818,0,0,0,.611.237,2.45,2.45,0,0,0,.352-.022,2.961,2.961,0,0,0,.343-.075l.211,1.854a5.2,5.2,0,0,1-.751.2,4.48,4.48,0,0,1-.8.066,2.735,2.735,0,0,1-2.043-.729,3.2,3.2,0,0,1-.716-2.312V9.292H36.589V7.49h1.389V5.161Zm7.313,12.023a4.279,4.279,0,0,1-3.322-1.305,4.784,4.784,0,0,1-1.2-3.362v-.352a5.207,5.207,0,0,1,1.16-3.5,3.944,3.944,0,0,1,3.19-1.354,3.692,3.692,0,0,1,2.94,1.173,4.637,4.637,0,0,1,1.024,3.16v1.327H45.976l-.026.053a2.569,2.569,0,0,0,.593,1.582,1.987,1.987,0,0,0,1.578.606,5.279,5.279,0,0,0,1.463-.176,5.971,5.971,0,0,0,1.244-.536l.694,1.582a4.764,4.764,0,0,1-1.547.782A6.86,6.86,0,0,1,47.848,17.185Zm-.167-7.893a1.425,1.425,0,0,0-1.191.532,2.667,2.667,0,0,0-.505,1.411l.018.044h3.129v-.193a2.221,2.221,0,0,0-.343-1.314A1.268,1.268,0,0,0,47.681,9.292Zm5.063,2.865A5.1,5.1,0,0,1,53.93,8.672a4.136,4.136,0,0,1,3.287-1.358,4.18,4.18,0,0,1,3.3,1.354,5.076,5.076,0,0,1,1.2,3.489v.185a5.084,5.084,0,0,1-1.191,3.494,4.7,4.7,0,0,1-6.592,0,5.084,5.084,0,0,1-1.191-3.494Zm2.558.185a4.137,4.137,0,0,0,.457,2.087,1.756,1.756,0,0,0,2.931,0,4.11,4.11,0,0,0,.461-2.083v-.185a4.068,4.068,0,0,0-.466-2.065,1.576,1.576,0,0,0-1.468-.8,1.557,1.557,0,0,0-1.455.8,4.1,4.1,0,0,0-.461,2.061Z" transform="translate(-4887.525 -10808.972)" fill="#12263f"/>
    <path id="Trazado_263978" data-name="Trazado 263978" d="M-7453.5-13056.333H-7470v189.167h16.5" transform="translate(2691.563 2164.143)" fill="none" stroke="#707070" stroke-width="1"/>
  </g>
</svg>
