<svg xmlns="http://www.w3.org/2000/svg" width="819.999" height="273" viewBox="0 0 819.999 273">
  <g id="Grupo_153064" data-name="Grupo 153064" transform="translate(9602 8774)">
    <g id="Grupo_152964" data-name="Grupo 152964" transform="translate(-10025 -10018.345)">
      <g id="Grupo_152946" data-name="Grupo 152946" transform="translate(588.343 1284.173)">
        <g id="Grupo_152945" data-name="Grupo 152945" transform="translate(0 12.051)">
          <g id="Grupo_152944" data-name="Grupo 152944">
            <g id="Grupo_152943" data-name="Grupo 152943">
              <path id="Trazado_206735" data-name="Trazado 206735" d="M617.856,1320.449q.466-.47.935-.935a79.132,79.132,0,0,1,111.153,0q.47.466.935.935a79.132,79.132,0,0,1,0,111.153,138.412,138.412,0,0,1-56.511,34.693,138.422,138.422,0,0,1-56.512-34.693A79.132,79.132,0,0,1,617.856,1320.449Z" transform="translate(-595.055 -1296.713)" fill="#e2872c"/>
              <path id="Trazado_206736" data-name="Trazado 206736" d="M675.131,1447.393a112.5,112.5,0,0,1-43.124-27.253,60.375,60.375,0,0,1,0-84.807q.359-.362.721-.721a60.376,60.376,0,0,1,84.807,0q.362.359.72.721a60.375,60.375,0,0,1,0,84.807,112.493,112.493,0,0,1-43.123,27.253" transform="translate(-595.818 -1297.512)" fill="#fff"/>
            </g>
          </g>
        </g>
        <path id="Trazado_206737" data-name="Trazado 206737" d="M612.638,1307.909q.515-.47,1.033-.935c33.893-30.4,88.872-30.4,122.767,0q.519.465,1.032.935" transform="translate(-595.741 -1284.173)" fill="none" stroke="#e2872c" stroke-linecap="round" stroke-miterlimit="10" stroke-width="3"/>
      </g>
      <g id="Grupo_152950" data-name="Grupo 152950" transform="translate(919.03 1284.173)">
        <g id="Grupo_152949" data-name="Grupo 152949" transform="translate(0 12.051)">
          <g id="Grupo_152948" data-name="Grupo 152948">
            <g id="Grupo_152947" data-name="Grupo 152947">
              <path id="Trazado_206738" data-name="Trazado 206738" d="M961.966,1320.449q.466-.47.936-.935a79.131,79.131,0,0,1,111.152,0q.47.466.936.935a79.132,79.132,0,0,1,0,111.153,138.421,138.421,0,0,1-56.512,34.693,138.422,138.422,0,0,1-56.512-34.693A79.132,79.132,0,0,1,961.966,1320.449Z" transform="translate(-939.165 -1296.713)" fill="#e53935"/>
              <path id="Trazado_206739" data-name="Trazado 206739" d="M1019.241,1447.393a112.493,112.493,0,0,1-43.124-27.253,60.374,60.374,0,0,1,0-84.807q.358-.362.72-.721a60.376,60.376,0,0,1,84.807,0q.362.359.72.721a60.374,60.374,0,0,1,0,84.807,112.486,112.486,0,0,1-43.123,27.253" transform="translate(-939.928 -1297.512)" fill="#fff"/>
            </g>
          </g>
        </g>
        <path id="Trazado_206740" data-name="Trazado 206740" d="M956.748,1307.909q.515-.47,1.033-.935c33.893-30.4,88.873-30.4,122.767,0q.519.465,1.033.935" transform="translate(-939.851 -1284.173)" fill="none" stroke="#e53935" stroke-linecap="round" stroke-miterlimit="10" stroke-width="3"/>
      </g>
      <g id="Grupo_152954" data-name="Grupo 152954" transform="translate(1084.373 1296.224)">
        <g id="Grupo_152953" data-name="Grupo 152953">
          <g id="Grupo_152952" data-name="Grupo 152952">
            <g id="Grupo_152951" data-name="Grupo 152951">
              <path id="Trazado_206741" data-name="Trazado 206741" d="M1247.045,1442.559q-.466.469-.936.935a79.131,79.131,0,0,1-111.152,0q-.47-.466-.935-.935a79.13,79.13,0,0,1,0-111.153,138.4,138.4,0,0,1,56.511-34.693,138.412,138.412,0,0,1,56.512,34.693A79.132,79.132,0,0,1,1247.045,1442.559Z" transform="translate(-1111.22 -1296.713)" fill="#dee9f0"/>
              <path id="Trazado_206742" data-name="Trazado 206742" d="M1191.3,1317.215a112.5,112.5,0,0,1,43.125,27.253,60.376,60.376,0,0,1,0,84.807q-.359.362-.721.72a60.374,60.374,0,0,1-84.808,0q-.362-.357-.72-.72a60.375,60.375,0,0,1,0-84.807,112.485,112.485,0,0,1,43.124-27.253" transform="translate(-1111.983 -1297.513)" fill="#fff"/>
            </g>
          </g>
        </g>
        <path id="Trazado_206743" data-name="Trazado 206743" d="M1253.636,1460.145q-.515.47-1.033.935c-33.893,30.4-88.873,30.4-122.767,0q-.519-.466-1.033-.935" transform="translate(-1111.906 -1303.088)" fill="none" stroke="#dee9f0" stroke-linecap="round" stroke-miterlimit="10" stroke-width="3"/>
      </g>
      <g id="Grupo_152958" data-name="Grupo 152958" transform="translate(753.687 1296.224)">
        <g id="Grupo_152957" data-name="Grupo 152957">
          <g id="Grupo_152956" data-name="Grupo 152956">
            <g id="Grupo_152955" data-name="Grupo 152955">
              <path id="Trazado_206744" data-name="Trazado 206744" d="M902.935,1442.559q-.464.469-.935.935a79.132,79.132,0,0,1-111.153,0q-.468-.466-.935-.935a79.132,79.132,0,0,1,0-111.153,138.411,138.411,0,0,1,56.512-34.693,138.4,138.4,0,0,1,56.511,34.693A79.13,79.13,0,0,1,902.935,1442.559Z" transform="translate(-767.11 -1296.713)" fill="#81af1d"/>
              <path id="Trazado_206745" data-name="Trazado 206745" d="M847.186,1317.215a112.494,112.494,0,0,1,43.123,27.253,60.374,60.374,0,0,1,0,84.807q-.358.362-.72.72a60.374,60.374,0,0,1-84.807,0q-.362-.357-.721-.72a60.376,60.376,0,0,1,0-84.807,112.5,112.5,0,0,1,43.125-27.253" transform="translate(-767.873 -1297.513)" fill="#fff"/>
            </g>
          </g>
        </g>
        <path id="Trazado_206746" data-name="Trazado 206746" d="M908.955,1460.145q-.515.47-1.033.935c-33.893,30.4-88.873,30.4-122.767,0q-.519-.466-1.033-.935" transform="translate(-767.774 -1303.088)" fill="none" stroke="#81af1d" stroke-linecap="round" stroke-miterlimit="10" stroke-width="3"/>
      </g>
      <g id="Grupo_152962" data-name="Grupo 152962" transform="translate(423 1296.224)">
        <g id="Grupo_152961" data-name="Grupo 152961">
          <g id="Grupo_152960" data-name="Grupo 152960">
            <g id="Grupo_152959" data-name="Grupo 152959">
              <path id="Trazado_206747" data-name="Trazado 206747" d="M558.825,1442.559q-.466.469-.935.935a79.132,79.132,0,0,1-111.153,0q-.47-.466-.935-.935a79.132,79.132,0,0,1,0-111.153,138.406,138.406,0,0,1,56.512-34.693,138.4,138.4,0,0,1,56.511,34.693A79.132,79.132,0,0,1,558.825,1442.559Z" transform="translate(-423 -1296.713)" fill="#5000c7"/>
              <path id="Trazado_206748" data-name="Trazado 206748" d="M503.076,1317.215a112.5,112.5,0,0,1,43.124,27.253,60.376,60.376,0,0,1,0,84.807q-.358.362-.72.72a60.375,60.375,0,0,1-84.808,0q-.36-.357-.72-.72a60.376,60.376,0,0,1,0-84.807,112.5,112.5,0,0,1,43.124-27.253" transform="translate(-423.763 -1297.513)" fill="#fff"/>
            </g>
          </g>
        </g>
        <path id="Trazado_206749" data-name="Trazado 206749" d="M565.415,1458.264q-.513.47-1.033.935c-33.893,30.4-88.872,30.4-122.766,0q-.519-.464-1.033-.935" transform="translate(-423.686 -1303.015)" fill="none" stroke="#5000c7" stroke-linecap="round" stroke-miterlimit="10" stroke-width="3"/>
      </g>
      <g id="_10" data-name="10" transform="translate(1124.022 1346.133)" style="isolation: isolate">
        <path id="Trazado_206750" data-name="Trazado 206750" d="M1231.781,1358.223v0a1.852,1.852,0,0,0-.109-.6c-.007-.021-.011-.043-.019-.064a1.865,1.865,0,0,0-.29-.49c-.019-.024-.036-.047-.058-.07a1.848,1.848,0,0,0-.433-.356l-.081-.044a1.819,1.819,0,0,0-.559-.19c-.011,0-.018-.009-.029-.009l-52.261-7.725h-.007l-.03,0a1.686,1.686,0,0,0-.169-.01c-.054,0-.108-.011-.162-.01a1.863,1.863,0,0,0-.322.04.177.177,0,0,1-.024,0,1.832,1.832,0,0,0-.717.335l-23.257,16.609c-.02.014-.035.036-.055.05a1.909,1.909,0,0,0-.235.215c-.033.037-.061.072-.091.111a1.843,1.843,0,0,0-.149.225c-.023.04-.046.08-.066.122a2.029,2.029,0,0,0-.1.276c-.01.036-.024.069-.033.1a1.871,1.871,0,0,0-.047.4v41.566h0v0a1.826,1.826,0,0,0,.107.6c.009.023.012.047.022.071a1.822,1.822,0,0,0,.285.484c.02.025.039.051.062.075a1.847,1.847,0,0,0,.428.354c.029.017.058.032.087.046a1.815,1.815,0,0,0,.551.19c.011,0,.02.01.031.011l53.323,8.1a2.059,2.059,0,0,0,.277.02h.012a1.9,1.9,0,0,0,.6-.109,46.179,46.179,0,0,1,.487-.251l22.071-16.264c.025-.018.042-.042.066-.062a1.9,1.9,0,0,0,.208-.2c.033-.036.063-.074.093-.112a1.989,1.989,0,0,0,.144-.221c.022-.041.046-.079.064-.121a1.782,1.782,0,0,0,.1-.283c.008-.031.021-.06.028-.09a1.845,1.845,0,0,0,.047-.394l.207-42.319v-.012Zm-23.54,55.853-.385-38.44,20.214-15.235-.192,39.206Zm-30.138-61.64,48.9,7.227-19.929,15.02-49.409-7.65Zm-21.924,15.656.047-.034,50.4,7.8.391,38.979-50.835-7.725Z" transform="translate(-1152.478 -1348.648)" fill="#12263f"/>
        <path id="Trazado_206751" data-name="Trazado 206751" d="M1163.133,1361.452l52.878,7.923.215,8.511,6.506-4.3.071-9.755-52.534-7.475Z" transform="translate(-1152.894 -1348.948)" fill="#12263f"/>
      </g>
      <g id="_9" data-name="9" transform="translate(951.743 1330.83)" style="isolation: isolate">
        <path id="Trazado_206752" data-name="Trazado 206752" d="M1066.549,1379a1.7,1.7,0,0,0-.036-.234v-.013c-.026-.06-.05-.109-.074-.172a.969.969,0,0,0-.05-.16l-.013-.012-3.6-7.423-4.347-9.276,0,0a1.843,1.843,0,0,0-1.392-1.163L1029,1355.438l-2.065,3.384,24.845,4.534-30.75,7.691a.829.829,0,0,0-.083-.019c-.045-.01-.092-.011-.137-.017s-.084-.011-.125-.014L987.6,1363.7l27.612-5-2.065-3.384-30.122,5.45h0l-.078.014c-.024,0-.041.017-.064.022a2.39,2.39,0,0,0-.785.321h0a5.359,5.359,0,0,0-1.017,1.581.232.232,0,0,0-.027.039l-7.659,15.676c-.025.062-.039.124-.062.172a1.014,1.014,0,0,0-.062.186c-.012,0-.012.013-.012.024a3.243,3.243,0,0,0-.05.333.6.6,0,0,0,.013.161v.2c.012.063.037.124.049.186s.025.111.037.16.049.111.074.16.05.112.074.174a.815.815,0,0,1,.1.123c.037.061.074.11.111.16s.1.087.148.136a1.1,1.1,0,0,0,.123.111,1.245,1.245,0,0,0,.3.185s.013,0,.013.012a1.719,1.719,0,0,0,.357.123l6.266,1.6v24.964c0,.026.013.038.013.063,0,.074.013.136.013.2s.024.124.037.173.036.111.049.172.049.111.074.173.049.1.074.148.061.1.1.148a1.387,1.387,0,0,0,.111.136,1.318,1.318,0,0,0,.123.135c.049.037.086.075.135.112s.1.073.149.111l.147.074a1.393,1.393,0,0,0,.185.087.185.185,0,0,1,.074.023l37.174,12.151a1.943,1.943,0,0,0,.579.1,1.836,1.836,0,0,0,1.135-.406l35.188-11.545a.372.372,0,0,1,.063-.037l.184-.073a.556.556,0,0,0,.135-.086.625.625,0,0,0,.16-.1c.038-.035.087-.073.137-.11a1.067,1.067,0,0,1,.123-.136,1.3,1.3,0,0,0,.11-.135c.036-.049.062-.1.1-.148l.074-.148c.024-.062.049-.11.074-.172s.036-.11.049-.173a.734.734,0,0,0,.025-.161,1.219,1.219,0,0,0,.024-.2c0-.024.013-.036.013-.062l.307-24.9.186-.049,7.2-1.925a1.593,1.593,0,0,0,.272-.1c.024-.013.049-.013.061-.024h.013a1.648,1.648,0,0,0,.246-.161.3.3,0,0,0,.061-.036,2.439,2.439,0,0,0,.2-.187c.024-.024.048-.036.073-.061.049-.061.088-.123.136-.184a.592.592,0,0,1,.074-.111,1.851,1.851,0,0,0,.234-.85c0-.062.013-.125.013-.173A.52.52,0,0,1,1066.549,1379Zm-85.683-.2-3.145-.8,3.145-6.439,3.515-7.19c.014-.032.02-.066.034-.1l.037-.008,34.566,7.62c0,.006,0,.013-.009.02a1.653,1.653,0,0,0-.1.185l-6.488,14.76-27.85-7.1Zm38.446,38.793-34.747-11.351v-22.681l28.454,7.265.019,0a1.77,1.77,0,0,0,.4.054c.013,0,.026.006.038.006.028,0,.054-.013.083-.014a1.894,1.894,0,0,0,.471-.08,1.678,1.678,0,0,0,.2-.092,1.773,1.773,0,0,0,.3-.16,1.743,1.743,0,0,0,.182-.158,1.769,1.769,0,0,0,.225-.24,1.986,1.986,0,0,0,.132-.208c.031-.055.072-.1.1-.157l4.718-10.735Zm34.495-11.067-33.1,10.867.65-38.242,4.67,10.628a1.85,1.85,0,0,0,1.7,1.106c.036,0,.073-.008.11-.011s.051.013.078.013a2.156,2.156,0,0,0,.468-.062l25.715-6.845Zm4.231-27.431-3.712.986-25.532,6.8-6.5-14.8c-.012-.029-.032-.053-.046-.08l32.48-8.123.435.08a1.8,1.8,0,0,0,.116.4l2.275,4.7,3.5,7.234.85,1.768Z" transform="translate(-973.206 -1333.605)" fill="#12263f"/>
        <path id="Trazado_206753" data-name="Trazado 206753" d="M1025.323,1353.139l2.745-20.415-5.319,4.837-5.319-4.837,2.745,20.415-4.965-2.736,7.476,12.251.062-.1.063.1,7.476-12.251Z" transform="translate(-974.844 -1332.724)" fill="#12263f"/>
      </g>
      <g id="_7" data-name="7" transform="translate(629.224 1340.937)" style="isolation: isolate">
        <path id="Trazado_206754" data-name="Trazado 206754" d="M714.7,1356.046c-.01-.035-.019-.067-.032-.1a1.927,1.927,0,0,0-.231-.462c-.013-.017-.029-.032-.041-.049a1.871,1.871,0,0,0-.336-.344c-.025-.019-.048-.041-.074-.061a1.9,1.9,0,0,0-.472-.245c-.015,0-.028-.017-.044-.022l-34.822-11.427-.012,0a1.977,1.977,0,0,0-.267-.059c-.035,0-.068-.017-.1-.022s-.054,0-.081,0a1.855,1.855,0,0,0-.294,0l-.013,0a2,2,0,0,0-.358.068h-.01l-38.553,11.428c-.018.007-.033.019-.051.025a1.9,1.9,0,0,0-.5.24c-.019.014-.035.031-.054.044a1.827,1.827,0,0,0-.351.349.77.77,0,0,0-.057.066,1.9,1.9,0,0,0-.239.462c-.013.035-.022.07-.032.1a1.89,1.89,0,0,0-.087.539v12.787a1.814,1.814,0,0,0,.03.28l.094,35.08a1.881,1.881,0,0,0,.084.527c.011.036.02.07.033.1a1.932,1.932,0,0,0,.234.462c.013.018.03.035.044.053a1.845,1.845,0,0,0,.343.345.62.62,0,0,0,.067.058,1.9,1.9,0,0,0,.48.243c.016,0,.029.017.045.022l37.451,11.927h0l.008,0a1.9,1.9,0,0,0,1.162,0l0,0h0l35.78-11.469c.016,0,.029-.017.045-.022a1.918,1.918,0,0,0,.479-.244c.025-.017.044-.038.068-.057a1.922,1.922,0,0,0,.34-.345c.014-.018.031-.033.044-.053a1.885,1.885,0,0,0,.233-.462c.013-.035.022-.068.033-.1a1.881,1.881,0,0,0,.084-.524v0h0v-48.6A1.894,1.894,0,0,0,714.7,1356.046Zm-73.172,47.274-.085-32.725v-.016l35.006,10.021v33.84Zm36.495-56.173,30.492,10.007-30.832,8.771-33.44-8.765Zm-1.573,20.1v12.031l-35.023-10.1c0-.052-.01-.1-.016-.154V1358l.438-.13ZM677.727,1379v-11.764l.139-.04h0l32.81-9.334.291.094v11.23Zm0,35.437v-33.846l33.243-10.063v33.254Z" transform="translate(-637.595 -1343.241)" fill="#12263f"/>
        <path id="Trazado_206755" data-name="Trazado 206755" d="M688.914,1349.246l-35.44,11.032-.092,12.932,9.453,2.569.05-12.613,35.362-10.571-8.7-3.349Z" transform="translate(-638.211 -1343.475)" fill="#12263f"/>
        <path id="Trazado_206756" data-name="Trazado 206756" d="M659.64,1351.142l34.055,11.349v12.427l8.569-2.029v-13.254l-34.558-10.951Z" transform="translate(-638.455 -1343.453)" fill="#12263f"/>
      </g>
      <g id="_4" data-name="4" transform="translate(794.229 1354.304)" style="isolation: isolate">
        <g id="Grupo_152963" data-name="Grupo 152963" transform="translate(29.454 29.805)">
          <path id="Trazado_206757" data-name="Trazado 206757" d="M843.637,1401.017h2.879V1392.4h1.867l-3.306-4.238-3.306,4.238h1.867Z" transform="translate(-840.018 -1388.166)" fill="#12263f"/>
          <path id="Trazado_206758" data-name="Trazado 206758" d="M852.737,1401.017h2.88V1392.4h1.866l-3.306-4.238-3.305,4.238h1.866Z" transform="translate(-840.373 -1388.166)" fill="#12263f"/>
          <rect id="Rect치ngulo_42864" data-name="Rect치ngulo 42864" width="18.771" height="2.56" transform="translate(0 14.449)" fill="#12263f"/>
        </g>
        <path id="Trazado_206759" data-name="Trazado 206759" d="M884.44,1375.186l-11.161-17.132-.009-.012a2.03,2.03,0,0,0-.168-.207c-.029-.033-.052-.071-.082-.1a1.964,1.964,0,0,0-.187-.156,1.9,1.9,0,0,0-.178-.127,2,2,0,0,0-.62-.255l-.013,0c-.047-.009-.1-.009-.15-.016a2.288,2.288,0,0,0-.243-.025H822.766c-.007,0-.013,0-.022,0a1.6,1.6,0,0,0-.252.026c-.046,0-.093.007-.139.015a1.7,1.7,0,0,0-.223.07c-.048.016-.1.026-.144.046a2.15,2.15,0,0,0-.221.119c-.038.022-.078.039-.113.062a2.141,2.141,0,0,0-.165.138,1.423,1.423,0,0,0-.132.111c-.036.036-.065.079-.1.117a2.2,2.2,0,0,0-.152.19c0,.007-.009.011-.012.016l-11,17.155a1.983,1.983,0,0,0-.794,1.582v41.1a1.989,1.989,0,0,0,1.988,1.988h72a1.99,1.99,0,0,0,1.989-1.988v-41.1A1.986,1.986,0,0,0,884.44,1375.186Zm-60.586-14.057h46.68l10,15.342H814.015ZM813.276,1377.8H881.3v38.112H813.276Z" transform="translate(-809.298 -1357.151)" fill="#12263f"/>
        <path id="Trazado_206760" data-name="Trazado 206760" d="M854.273,1377.14H844l1.638-19.831h7Z" transform="translate(-810.652 -1357.157)" fill="#12263f"/>
        <rect id="Rect치ngulo_42865" data-name="Rect치ngulo 42865" width="10.27" height="7.519" transform="translate(33.352 19.983)" fill="#12263f"/>
      </g>
      <g id="_2" data-name="2" transform="translate(460.326 1337.194)" style="isolation: isolate">
        <path id="Trazado_206761" data-name="Trazado 206761" d="M520.473,1375.214a1.776,1.776,0,0,0-1.777,1.777V1410.7h-53.3v-45.9h47.014a1.776,1.776,0,0,0,0-3.553h-48.79a1.776,1.776,0,0,0-1.777,1.776v49.455a1.777,1.777,0,0,0,1.777,1.777h56.855a1.777,1.777,0,0,0,1.777-1.777v-35.485A1.776,1.776,0,0,0,520.473,1375.214Z" transform="translate(-461.841 -1340.201)" fill="#12263f"/>
        <path id="Trazado_206762" data-name="Trazado 206762" d="M561.49,1401.365,526.2,1340.235a1.776,1.776,0,0,0-2.426-.651l-17.1,9.87a1.774,1.774,0,0,0-.65,2.427l35.293,61.131a1.777,1.777,0,0,0,1.541.888,1.759,1.759,0,0,0,.887-.238l17.1-9.869a1.774,1.774,0,0,0,.65-2.427Zm-17.984,8.332-33.517-58.054,14.02-8.093,33.517,58.054Z" transform="translate(-463.555 -1339.346)" fill="#12263f"/>
      </g>
    </g>
    <g id="Grupo_152972" data-name="Grupo 152972" transform="translate(-9543.225 -8774)">
      <g id="Grupo_131860" data-name="Grupo 131860">
        <circle id="Elipse_4699" data-name="Elipse 4699" cx="20" cy="20" r="20" transform="translate(0.225)" fill="#5000c7"/>
      </g>
      <text id="_1" data-name="1" transform="translate(16.225 26)" fill="#fff" font-size="16" font-family="Roboto-Bold, Roboto" font-weight="700"><tspan x="0" y="0">1</tspan></text>
    </g>
    <g id="Grupo_152973" data-name="Grupo 152973" transform="translate(-9378.225 -8541)">
      <g id="Grupo_131860-2" data-name="Grupo 131860">
        <circle id="Elipse_4699-2" data-name="Elipse 4699" cx="20" cy="20" r="20" transform="translate(0.225)" fill="#5000c7"/>
      </g>
      <text id="_2-2" data-name="2" transform="translate(16.225 26)" fill="#fff" font-size="16" font-family="Roboto-Bold, Roboto" font-weight="700"><tspan x="0" y="0">2</tspan></text>
    </g>
    <g id="Grupo_152974" data-name="Grupo 152974" transform="translate(-9212.225 -8774)">
      <g id="Grupo_131860-3" data-name="Grupo 131860">
        <circle id="Elipse_4699-3" data-name="Elipse 4699" cx="20" cy="20" r="20" transform="translate(0.225)" fill="#5000c7"/>
      </g>
      <text id="_3" data-name="3" transform="translate(16.225 26)" fill="#fff" font-size="16" font-family="Roboto-Bold, Roboto" font-weight="700"><tspan x="0" y="0">3</tspan></text>
    </g>
    <g id="Grupo_152976" data-name="Grupo 152976" transform="translate(-9047.225 -8541)">
      <g id="Grupo_131860-4" data-name="Grupo 131860">
        <circle id="Elipse_4699-4" data-name="Elipse 4699" cx="20" cy="20" r="20" transform="translate(0.225)" fill="#5000c7"/>
      </g>
      <text id="_4-2" data-name="4" transform="translate(16.225 26)" fill="#fff" font-size="16" font-family="Roboto-Bold, Roboto" font-weight="700"><tspan x="0" y="0">4</tspan></text>
    </g>
    <g id="Grupo_152975" data-name="Grupo 152975" transform="translate(-8884.225 -8774)">
      <g id="Grupo_131860-5" data-name="Grupo 131860">
        <circle id="Elipse_4699-5" data-name="Elipse 4699" cx="20" cy="20" r="20" transform="translate(0.225)" fill="#5000c7"/>
      </g>
      <text id="_5" data-name="5" transform="translate(16.225 26)" fill="#fff" font-size="16" font-family="Roboto-Bold, Roboto" font-weight="700"><tspan x="0" y="0">5</tspan></text>
    </g>
  </g>
</svg>
