<svg xmlns="http://www.w3.org/2000/svg" width="190" height="110" viewBox="0 0 190 110">
  <g id="Grupo_153089" data-name="Grupo 153089" transform="translate(9799 8439)">
    <g id="Grupo_152994" data-name="Grupo 152994" transform="translate(-9979 -11835)">
      <rect id="Rectángulo_40420" data-name="Rectángulo 40420" width="190" height="110" transform="translate(180 3396)" fill="none"/>
      <g id="Grupo_131655" data-name="Grupo 131655" transform="translate(0 -4286)">
        <rect id="Rectángulo_40418" data-name="Rectángulo 40418" width="50" height="50" rx="8" transform="translate(207 7687)" fill="#e2872c" opacity="0.2"/>
        <rect id="Rectángulo_40419" data-name="Rectángulo 40419" width="50" height="50" rx="8" transform="translate(293 7737)" fill="#5000c7" opacity="0.2"/>
      </g>
      <g id="caja" transform="translate(228.131 3401)">
        <path id="Trazado_262597" data-name="Trazado 262597" d="M70.3,9.582l43.158,20.834a1.566,1.566,0,0,1,.885,1.41V83.093a1.566,1.566,0,0,1-.885,1.41L70.3,105.338a3.131,3.131,0,0,1-2.723,0L24.417,84.5a1.566,1.566,0,0,1-.885-1.41V31.827a1.566,1.566,0,0,1,.885-1.41L67.575,9.582A3.131,3.131,0,0,1,70.3,9.582Z" transform="translate(-22.067 -7.46)" fill="#ffd6ad"/>
        <path id="Trazado_262598" data-name="Trazado 262598" d="M68.676,120.368a1.559,1.559,0,0,1,.26.857v51.267a1.566,1.566,0,0,1-.885,1.41L24.893,194.737a3.13,3.13,0,0,1-1.361.312V142.162Z" transform="translate(23.337 -96.859)" fill="#ffba75"/>
        <path id="Trazado_262599" data-name="Trazado 262599" d="M256.26,120.368a1.559,1.559,0,0,0-.26.857v51.267a1.566,1.566,0,0,0,.885,1.41l43.158,20.835a3.13,3.13,0,0,0,1.361.312V142.162Z" transform="translate(-254.535 -96.859)" fill="#e2872c"/>
        <path id="Trazado_262600" data-name="Trazado 262600" d="M115.718,67.885,161.02,46l11.942,5.788-45.4,21.919Z" transform="translate(-98.694 -37.016)" fill="#723deb"/>
        <path id="Trazado_262601" data-name="Trazado 262601" d="M360.025,163.874v16.981a.783.783,0,0,1-1.123.7l-9.832-4.747a1.565,1.565,0,0,1-.885-1.41V158.052Z" transform="translate(-331.161 -127.183)" fill="#5000c7"/>
        <path id="Trazado_262602" data-name="Trazado 262602" d="M16.86,22.065,62.264.146a1.465,1.465,0,0,1,1.274,0l45.4,21.919a1.465,1.465,0,0,1,.828,1.319V76.616a1.465,1.465,0,0,1-.828,1.319l-45.4,21.919a1.465,1.465,0,0,1-1.274,0L16.86,77.936a1.465,1.465,0,0,1-.828-1.319V23.384A1.465,1.465,0,0,1,16.86,22.065ZM62.9,3.092,20.866,23.384l12.185,5.882a1.453,1.453,0,0,1,.248-.156L75.048,8.956Zm15.456,7.521L36.383,30.875l8.6,4.15L86.936,14.771ZM43.431,37.531,35.4,33.654V49l8.03,3.877ZM61.436,96.2V46.223L51.3,41.332a1.465,1.465,0,1,1,1.274-2.638L62.9,43.677l4.062-1.961a1.465,1.465,0,0,1,1.274,2.638l-3.871,1.869V96.2L106.84,75.7V25.718L74.5,41.332a1.465,1.465,0,0,1-1.274-2.638l31.713-15.31L90.384,16.359l-44,21.243-.02.026V55.206a1.465,1.465,0,0,1-2.1,1.319L33.3,51.234a1.465,1.465,0,0,1-.828-1.319V32.24l-13.51-6.522V75.7Z" transform="translate(-16.032 0)"/>
        <path id="Trazado_262603" data-name="Trazado 262603" d="M48.876,344.625l6.663-3.217a1.465,1.465,0,1,1,1.274,2.638l-6.663,3.217a1.465,1.465,0,0,1-1.274-2.638Z" transform="translate(29.843 -274.61)"/>
        <path id="Trazado_262604" data-name="Trazado 262604" d="M48.924,312.009l12.786-6.173a1.465,1.465,0,0,1,1.274,2.638L50.2,314.647a1.465,1.465,0,0,1-1.274-2.638Z" transform="translate(23.663 -245.985)"/>
      </g>
    </g>
  </g>
</svg>
