<svg xmlns="http://www.w3.org/2000/svg" width="515" height="150" viewBox="0 0 515 150">
  <g id="Grupo_153086" data-name="Grupo 153086" transform="translate(9954 9077)">
    <path id="Línea_192" data-name="Línea 192" d="M915,1895.5H758v-79H915" transform="translate(-10588 -10857)" fill="none" stroke="#707070" stroke-width="2"/>
    <path id="Línea_192-2" data-name="Línea 192" d="M0,0H18" transform="translate(-9847 -9001)" fill="none" stroke="#707070" stroke-width="2"/>
    <path id="Trazado_204594" data-name="Trazado 204594" d="M733,1875H649a15,15,0,0,1-15-15v-8a15,15,0,0,1,15-15h84a15,15,0,0,1,15,15v8A15,15,0,0,1,733,1875Z" transform="translate(-10588 -10857)" fill="#dee9f0"/>
    <path id="Trazado_262724" data-name="Trazado 262724" d="M14.5,0h76A14.5,14.5,0,0,1,105,14.5h0A14.5,14.5,0,0,1,90.5,29h-76A14.5,14.5,0,0,1,0,14.5H0A14.5,14.5,0,0,1,14.5,0Z" transform="translate(-9804 -9055)" fill="#dee9f0"/>
    <path id="Trazado_262725" data-name="Trazado 262725" d="M14.5,0h86A14.5,14.5,0,0,1,115,14.5v2.761a14.5,14.5,0,0,1-14.5,14.5h-86A14.5,14.5,0,0,1,0,17.261V14.5A14.5,14.5,0,0,1,14.5,0Z" transform="translate(-9808.999 -8977.381)" fill="#dee9f0"/>
    <path id="Trazado_262726" data-name="Trazado 262726" d="M14.5,0h209A14.5,14.5,0,0,1,238,14.5v44A14.5,14.5,0,0,1,223.5,73H14.5A14.5,14.5,0,0,1,0,58.5v-44A14.5,14.5,0,0,1,14.5,0Z" transform="translate(-9677 -9077)" fill="#dee9f0"/>
    <path id="Trazado_262727" data-name="Trazado 262727" d="M-35.336-4.929h-4.622V-1.15h5.369V0h-6.775V-10.664h6.7v1.15h-5.3v3.435h4.622Zm3.567-3,.044,1a2.888,2.888,0,0,1,2.373-1.143q2.512,0,2.534,2.834V0h-1.355V-5.244a1.824,1.824,0,0,0-.392-1.267,1.57,1.57,0,0,0-1.2-.41,1.956,1.956,0,0,0-1.157.352,2.387,2.387,0,0,0-.776.923V0h-1.355V-7.925ZM-24.108,0V-6.877H-25.36V-7.925h1.252v-.813a2.7,2.7,0,0,1,.681-1.97,2.573,2.573,0,0,1,1.926-.7,3.578,3.578,0,0,1,.93.124l-.073,1.092a3.892,3.892,0,0,0-.732-.066,1.322,1.322,0,0,0-1.018.386,1.564,1.564,0,0,0-.359,1.106v.838h1.692v1.047h-1.692V0Zm8.372-6.709A4.061,4.061,0,0,0-16.4-6.76a1.786,1.786,0,0,0-1.809,1.135V0h-1.355V-7.925h1.318l.022.916a2.11,2.11,0,0,1,1.89-1.062,1.384,1.384,0,0,1,.6.1ZM-13.019,0h-1.355V-7.925h1.355Zm-1.465-10.027a.809.809,0,0,1,.2-.557.756.756,0,0,1,.6-.227.768.768,0,0,1,.6.227.8.8,0,0,1,.205.557.774.774,0,0,1-.205.549.782.782,0,0,1-.6.22.77.77,0,0,1-.6-.22A.782.782,0,0,1-14.484-10.027ZM-5.958,0a2.846,2.846,0,0,1-.19-.835A3.023,3.023,0,0,1-8.4.146a2.8,2.8,0,0,1-1.923-.663A2.145,2.145,0,0,1-11.078-2.2a2.24,2.24,0,0,1,.941-1.923A4.437,4.437,0,0,1-7.489-4.8h1.318v-.623A1.522,1.522,0,0,0-6.6-6.559,1.707,1.707,0,0,0-7.848-6.98a1.976,1.976,0,0,0-1.216.366,1.079,1.079,0,0,0-.491.886h-1.362A1.87,1.87,0,0,1-10.5-6.874a2.874,2.874,0,0,1,1.143-.875,3.844,3.844,0,0,1,1.586-.322,3.133,3.133,0,0,1,2.146.685A2.47,2.47,0,0,1-4.816-5.5v3.647A4.459,4.459,0,0,0-4.537-.117V0ZM-8.207-1.033A2.381,2.381,0,0,0-7-1.362a1.994,1.994,0,0,0,.828-.857V-3.845H-7.233q-2.49,0-2.49,1.458a1.234,1.234,0,0,0,.425,1A1.633,1.633,0,0,0-8.207-1.033Zm6.79-6.892.037.879A2.927,2.927,0,0,1,.97-8.071,2.266,2.266,0,0,1,3.234-6.8,3,3,0,0,1,4.263-7.72a3.039,3.039,0,0,1,1.5-.352q2.607,0,2.651,2.761V0H7.057V-5.229A1.82,1.82,0,0,0,6.669-6.5a1.71,1.71,0,0,0-1.3-.421,1.8,1.8,0,0,0-1.252.45,1.827,1.827,0,0,0-.579,1.212V0H2.172V-5.193A1.512,1.512,0,0,0,.48-6.921,1.813,1.813,0,0,0-1.344-5.786V0H-2.7V-7.925ZM11.927,0H10.573V-7.925h1.355ZM10.463-10.027a.809.809,0,0,1,.2-.557.756.756,0,0,1,.6-.227.768.768,0,0,1,.6.227.8.8,0,0,1,.205.557.774.774,0,0,1-.205.549.782.782,0,0,1-.6.22.77.77,0,0,1-.6-.22A.782.782,0,0,1,10.463-10.027ZM17.384.146A3.463,3.463,0,0,1,14.762-.912a3.928,3.928,0,0,1-1.011-2.831v-.249A4.756,4.756,0,0,1,14.2-6.1a3.514,3.514,0,0,1,1.26-1.45,3.167,3.167,0,0,1,1.754-.524,2.968,2.968,0,0,1,2.4,1.018,4.408,4.408,0,0,1,.857,2.915v.564H15.106a2.817,2.817,0,0,0,.685,1.893,2.153,2.153,0,0,0,1.666.721,2.36,2.36,0,0,0,1.216-.293,3.055,3.055,0,0,0,.872-.776l.828.645A3.328,3.328,0,0,1,17.384.146Zm-.168-7.1a1.807,1.807,0,0,0-1.377.6,2.9,2.9,0,0,0-.688,1.674h3.97v-.1a2.581,2.581,0,0,0-.557-1.6A1.7,1.7,0,0,0,17.216-6.958Zm6.108-.967.044,1a2.888,2.888,0,0,1,2.373-1.143q2.512,0,2.534,2.834V0H26.92V-5.244a1.824,1.824,0,0,0-.392-1.267,1.57,1.57,0,0,0-1.2-.41,1.956,1.956,0,0,0-1.157.352,2.387,2.387,0,0,0-.776.923V0H22.042V-7.925Zm8.833-1.919v1.919h1.479v1.047H32.157v4.921a1.1,1.1,0,0,0,.2.715A.832.832,0,0,0,33.029-1a3.281,3.281,0,0,0,.645-.088V0a3.951,3.951,0,0,1-1.04.146A1.687,1.687,0,0,1,31.263-.4a2.36,2.36,0,0,1-.461-1.56V-6.877H29.359V-7.925H30.8V-9.844Zm2.556,5.808a4.681,4.681,0,0,1,.458-2.095,3.415,3.415,0,0,1,1.274-1.436,3.469,3.469,0,0,1,1.864-.505,3.342,3.342,0,0,1,2.618,1.121,4.311,4.311,0,0,1,1,2.981v.1A4.722,4.722,0,0,1,41.484-1.8,3.365,3.365,0,0,1,40.217-.366a3.509,3.509,0,0,1-1.893.513A3.334,3.334,0,0,1,35.713-.974a4.29,4.29,0,0,1-1-2.966Zm1.362.161a3.39,3.39,0,0,0,.612,2.117,1.957,1.957,0,0,0,1.637.8,1.945,1.945,0,0,0,1.641-.809,3.707,3.707,0,0,0,.608-2.267,3.384,3.384,0,0,0-.619-2.113,1.968,1.968,0,0,0-1.644-.809,1.946,1.946,0,0,0-1.619.8A3.68,3.68,0,0,0,36.075-3.875Z" transform="translate(-9897 -8995.74)"/>
    <path id="Trazado_262728" data-name="Trazado 262728" d="M-14.714-4.929h-4.622V-1.15h5.369V0h-6.775V-10.664h6.7v1.15h-5.3v3.435h4.622Zm3.567-3,.044,1A2.888,2.888,0,0,1-8.73-8.071q2.512,0,2.534,2.834V0H-7.551V-5.244a1.824,1.824,0,0,0-.392-1.267,1.57,1.57,0,0,0-1.2-.41A1.956,1.956,0,0,0-10.3-6.57a2.387,2.387,0,0,0-.776.923V0h-1.355V-7.925ZM-3.486,0V-6.877H-4.739V-7.925h1.252v-.813a2.7,2.7,0,0,1,.681-1.97,2.573,2.573,0,0,1,1.926-.7,3.578,3.578,0,0,1,.93.124l-.073,1.092a3.892,3.892,0,0,0-.732-.066,1.322,1.322,0,0,0-1.018.386,1.564,1.564,0,0,0-.359,1.106v.838H-.439v1.047H-2.131V0ZM4.885-6.709a4.061,4.061,0,0,0-.667-.051A1.786,1.786,0,0,0,2.41-5.625V0H1.055V-7.925H2.373l.022.916a2.11,2.11,0,0,1,1.89-1.062,1.384,1.384,0,0,1,.6.1ZM7.6,0H6.248V-7.925H7.6ZM6.138-10.027a.809.809,0,0,1,.2-.557.756.756,0,0,1,.6-.227.768.768,0,0,1,.6.227.8.8,0,0,1,.205.557.774.774,0,0,1-.205.549.782.782,0,0,1-.6.22.77.77,0,0,1-.6-.22A.782.782,0,0,1,6.138-10.027ZM14.663,0a2.846,2.846,0,0,1-.19-.835,3.023,3.023,0,0,1-2.256.981,2.8,2.8,0,0,1-1.923-.663A2.145,2.145,0,0,1,9.543-2.2a2.24,2.24,0,0,1,.941-1.923A4.437,4.437,0,0,1,13.132-4.8h1.318v-.623a1.522,1.522,0,0,0-.425-1.132,1.707,1.707,0,0,0-1.252-.421,1.976,1.976,0,0,0-1.216.366,1.079,1.079,0,0,0-.491.886H9.7a1.87,1.87,0,0,1,.421-1.146,2.874,2.874,0,0,1,1.143-.875,3.844,3.844,0,0,1,1.586-.322A3.133,3.133,0,0,1,15-7.386,2.47,2.47,0,0,1,15.806-5.5v3.647a4.459,4.459,0,0,0,.278,1.736V0ZM12.415-1.033a2.381,2.381,0,0,0,1.208-.33,1.994,1.994,0,0,0,.828-.857V-3.845H13.389q-2.49,0-2.49,1.458a1.234,1.234,0,0,0,.425,1A1.633,1.633,0,0,0,12.415-1.033ZM21.76-6.709a4.061,4.061,0,0,0-.667-.051,1.786,1.786,0,0,0-1.809,1.135V0H17.93V-7.925h1.318l.022.916a2.11,2.11,0,0,1,1.89-1.062,1.384,1.384,0,0,1,.6.1Z" transform="translate(-9751.5 -9035.24)"/>
    <path id="Trazado_262729" data-name="Trazado 262729" d="M-40.184,0h-1.406V-10.664h1.406Zm3.64-7.925.044,1a2.888,2.888,0,0,1,2.373-1.143q2.512,0,2.534,2.834V0h-1.355V-5.244a1.824,1.824,0,0,0-.392-1.267,1.57,1.57,0,0,0-1.2-.41,1.956,1.956,0,0,0-1.157.352,2.387,2.387,0,0,0-.776.923V0h-1.355V-7.925ZM-24.935-2.1a1,1,0,0,0-.414-.853,3.983,3.983,0,0,0-1.443-.524,6.822,6.822,0,0,1-1.633-.527,2.324,2.324,0,0,1-.894-.732,1.752,1.752,0,0,1-.289-1.011A2.056,2.056,0,0,1-28.784-7.4a3.218,3.218,0,0,1,2.106-.674,3.311,3.311,0,0,1,2.186.7,2.21,2.21,0,0,1,.839,1.78h-1.362a1.223,1.223,0,0,0-.472-.959,1.77,1.77,0,0,0-1.19-.4,1.852,1.852,0,0,0-1.157.322,1.014,1.014,0,0,0-.417.842.822.822,0,0,0,.388.74,4.776,4.776,0,0,0,1.4.476,7.308,7.308,0,0,1,1.644.542,2.4,2.4,0,0,1,.934.758,1.864,1.864,0,0,1,.3,1.08,2.028,2.028,0,0,1-.85,1.7,3.564,3.564,0,0,1-2.2.641A3.991,3.991,0,0,1-28.319-.19a2.74,2.74,0,0,1-1.146-.941,2.268,2.268,0,0,1-.414-1.307h1.355a1.4,1.4,0,0,0,.546,1.08,2.117,2.117,0,0,0,1.344.4A2.185,2.185,0,0,0-25.4-1.271.956.956,0,0,0-24.935-2.1Zm9.814-1.772a4.745,4.745,0,0,1-.828,2.915A2.653,2.653,0,0,1-18.19.146,2.906,2.906,0,0,1-20.46-.769V3.047h-1.355V-7.925h1.238l.066.879a2.791,2.791,0,0,1,2.3-1.025,2.7,2.7,0,0,1,2.26,1.077,4.8,4.8,0,0,1,.831,3Zm-1.355-.154a3.5,3.5,0,0,0-.571-2.117,1.84,1.84,0,0,0-1.567-.776A1.992,1.992,0,0,0-20.46-5.83v3.787A2,2,0,0,0-18.6-.959a1.832,1.832,0,0,0,1.549-.773A3.822,3.822,0,0,0-16.476-4.028ZM-10.111.146A3.463,3.463,0,0,1-12.733-.912a3.928,3.928,0,0,1-1.011-2.831v-.249a4.756,4.756,0,0,1,.45-2.106,3.514,3.514,0,0,1,1.26-1.45,3.167,3.167,0,0,1,1.754-.524,2.968,2.968,0,0,1,2.4,1.018A4.408,4.408,0,0,1-7.02-4.138v.564h-5.369A2.817,2.817,0,0,0-11.7-1.681a2.153,2.153,0,0,0,1.666.721,2.36,2.36,0,0,0,1.216-.293,3.055,3.055,0,0,0,.872-.776l.828.645A3.328,3.328,0,0,1-10.111.146Zm-.168-7.1a1.807,1.807,0,0,0-1.377.6,2.9,2.9,0,0,0-.688,1.674h3.97v-.1a2.581,2.581,0,0,0-.557-1.6A1.7,1.7,0,0,0-10.28-6.958Zm8.005,6A1.952,1.952,0,0,0-1.007-1.4a1.546,1.546,0,0,0,.6-1.1H.875A2.457,2.457,0,0,1,.406-1.2,3.087,3.087,0,0,1-.747-.22,3.329,3.329,0,0,1-2.274.146,3.265,3.265,0,0,1-4.849-.934,4.3,4.3,0,0,1-5.8-3.889v-.227A4.771,4.771,0,0,1-5.38-6.174a3.236,3.236,0,0,1,1.219-1.4,3.464,3.464,0,0,1,1.879-.5,3.178,3.178,0,0,1,2.216.8A2.853,2.853,0,0,1,.875-5.2H-.406A1.867,1.867,0,0,0-.989-6.464a1.811,1.811,0,0,0-1.293-.494,1.9,1.9,0,0,0-1.6.743,3.491,3.491,0,0,0-.568,2.15v.256A3.422,3.422,0,0,0-3.885-1.7,1.906,1.906,0,0,0-2.274-.959Zm7.852,0A1.952,1.952,0,0,0,6.844-1.4a1.546,1.546,0,0,0,.6-1.1H8.727a2.457,2.457,0,0,1-.469,1.3A3.087,3.087,0,0,1,7.1-.22,3.329,3.329,0,0,1,5.577.146,3.265,3.265,0,0,1,3-.934a4.3,4.3,0,0,1-.956-2.955v-.227a4.771,4.771,0,0,1,.425-2.058,3.236,3.236,0,0,1,1.219-1.4,3.464,3.464,0,0,1,1.879-.5,3.178,3.178,0,0,1,2.216.8A2.853,2.853,0,0,1,8.727-5.2H7.445a1.867,1.867,0,0,0-.582-1.263A1.811,1.811,0,0,0,5.57-6.958a1.9,1.9,0,0,0-1.6.743A3.491,3.491,0,0,0,3.4-4.065v.256A3.422,3.422,0,0,0,3.966-1.7,1.906,1.906,0,0,0,5.577-.959ZM11.722,0H10.367V-7.925h1.355ZM10.258-10.027a.809.809,0,0,1,.2-.557.756.756,0,0,1,.6-.227.768.768,0,0,1,.6.227.8.8,0,0,1,.205.557.774.774,0,0,1-.205.549.782.782,0,0,1-.6.22.77.77,0,0,1-.6-.22A.782.782,0,0,1,10.258-10.027Zm3.274,5.991a4.681,4.681,0,0,1,.458-2.095,3.415,3.415,0,0,1,1.274-1.436,3.469,3.469,0,0,1,1.864-.505,3.342,3.342,0,0,1,2.618,1.121,4.311,4.311,0,0,1,1,2.981v.1A4.722,4.722,0,0,1,20.3-1.8,3.365,3.365,0,0,1,19.036-.366a3.509,3.509,0,0,1-1.893.513A3.334,3.334,0,0,1,14.531-.974a4.29,4.29,0,0,1-1-2.966Zm1.362.161a3.39,3.39,0,0,0,.612,2.117,1.957,1.957,0,0,0,1.637.8,1.945,1.945,0,0,0,1.641-.809,3.707,3.707,0,0,0,.608-2.267,3.384,3.384,0,0,0-.619-2.113,1.968,1.968,0,0,0-1.644-.809,1.946,1.946,0,0,0-1.619.8A3.68,3.68,0,0,0,14.894-3.875Zm8.833-4.05.044,1a2.888,2.888,0,0,1,2.373-1.143q2.512,0,2.534,2.834V0H27.323V-5.244a1.824,1.824,0,0,0-.392-1.267,1.57,1.57,0,0,0-1.2-.41,1.956,1.956,0,0,0-1.157.352,2.387,2.387,0,0,0-.776.923V0H22.445V-7.925ZM35.614,0a2.846,2.846,0,0,1-.19-.835,3.023,3.023,0,0,1-2.256.981,2.8,2.8,0,0,1-1.923-.663A2.145,2.145,0,0,1,30.494-2.2a2.24,2.24,0,0,1,.941-1.923A4.437,4.437,0,0,1,34.083-4.8H35.4v-.623a1.522,1.522,0,0,0-.425-1.132,1.707,1.707,0,0,0-1.252-.421,1.976,1.976,0,0,0-1.216.366,1.079,1.079,0,0,0-.491.886H30.656a1.87,1.87,0,0,1,.421-1.146,2.874,2.874,0,0,1,1.143-.875A3.844,3.844,0,0,1,33.8-8.071a3.133,3.133,0,0,1,2.146.685A2.47,2.47,0,0,1,36.757-5.5v3.647a4.459,4.459,0,0,0,.278,1.736V0ZM33.365-1.033a2.381,2.381,0,0,0,1.208-.33,1.994,1.994,0,0,0,.828-.857V-3.845H34.34q-2.49,0-2.49,1.458a1.234,1.234,0,0,0,.425,1A1.633,1.633,0,0,0,33.365-1.033Zm9.346-5.676a4.061,4.061,0,0,0-.667-.051,1.786,1.786,0,0,0-1.809,1.135V0H38.881V-7.925H40.2l.022.916a2.11,2.11,0,0,1,1.89-1.062,1.384,1.384,0,0,1,.6.1Z" transform="translate(-9751.499 -8956.24)"/>
    <path id="Trazado_262730" data-name="Trazado 262730" d="M-75.436-9.514h-3.428V0h-1.4V-9.514h-3.42v-1.15h8.247ZM-72.594,0h-1.355V-7.925h1.355Zm-1.465-10.027a.809.809,0,0,1,.2-.557.756.756,0,0,1,.6-.227.768.768,0,0,1,.6.227.8.8,0,0,1,.205.557.774.774,0,0,1-.205.549.782.782,0,0,1-.6.22.77.77,0,0,1-.6-.22A.782.782,0,0,1-74.059-10.027ZM-67.137.146A3.463,3.463,0,0,1-69.76-.912,3.928,3.928,0,0,1-70.77-3.743v-.249A4.756,4.756,0,0,1-70.32-6.1a3.514,3.514,0,0,1,1.26-1.45,3.167,3.167,0,0,1,1.754-.524,2.968,2.968,0,0,1,2.4,1.018,4.408,4.408,0,0,1,.857,2.915v.564h-5.369a2.817,2.817,0,0,0,.685,1.893,2.153,2.153,0,0,0,1.666.721,2.36,2.36,0,0,0,1.216-.293,3.055,3.055,0,0,0,.872-.776l.828.645A3.328,3.328,0,0,1-67.137.146Zm-.168-7.1a1.807,1.807,0,0,0-1.377.6,2.9,2.9,0,0,0-.688,1.674h3.97v-.1a2.581,2.581,0,0,0-.557-1.6A1.7,1.7,0,0,0-67.306-6.958Zm6.1-.967.037.879a2.927,2.927,0,0,1,2.351-1.025A2.266,2.266,0,0,1-56.554-6.8a3,3,0,0,1,1.029-.923,3.039,3.039,0,0,1,1.5-.352q2.607,0,2.651,2.761V0h-1.355V-5.229A1.82,1.82,0,0,0-53.119-6.5a1.71,1.71,0,0,0-1.3-.421,1.8,1.8,0,0,0-1.252.45,1.827,1.827,0,0,0-.579,1.212V0h-1.362V-5.193a1.512,1.512,0,0,0-1.692-1.729,1.813,1.813,0,0,0-1.824,1.135V0h-1.355V-7.925Zm18.567,4.05a4.745,4.745,0,0,1-.828,2.915A2.653,2.653,0,0,1-45.707.146a2.906,2.906,0,0,1-2.271-.916V3.047h-1.355V-7.925h1.238l.066.879a2.791,2.791,0,0,1,2.3-1.025,2.7,2.7,0,0,1,2.26,1.077,4.8,4.8,0,0,1,.831,3Zm-1.355-.154a3.5,3.5,0,0,0-.571-2.117,1.84,1.84,0,0,0-1.567-.776A1.992,1.992,0,0,0-47.977-5.83v3.787a2,2,0,0,0,1.86,1.084,1.832,1.832,0,0,0,1.549-.773A3.822,3.822,0,0,0-43.993-4.028Zm2.717-.007a4.681,4.681,0,0,1,.458-2.095,3.415,3.415,0,0,1,1.274-1.436,3.469,3.469,0,0,1,1.864-.505,3.342,3.342,0,0,1,2.618,1.121,4.311,4.311,0,0,1,1,2.981v.1A4.722,4.722,0,0,1-34.5-1.8,3.365,3.365,0,0,1-35.771-.366a3.509,3.509,0,0,1-1.893.513A3.334,3.334,0,0,1-40.276-.974a4.29,4.29,0,0,1-1-2.966Zm1.362.161A3.39,3.39,0,0,0-39.3-1.758a1.957,1.957,0,0,0,1.637.8,1.945,1.945,0,0,0,1.641-.809,3.707,3.707,0,0,0,.608-2.267,3.384,3.384,0,0,0-.619-2.113,1.968,1.968,0,0,0-1.644-.809,1.946,1.946,0,0,0-1.619.8A3.68,3.68,0,0,0-39.913-3.875Zm12.546-4.05.044,1A2.888,2.888,0,0,1-24.95-8.071q2.512,0,2.534,2.834V0h-1.355V-5.244a1.824,1.824,0,0,0-.392-1.267,1.57,1.57,0,0,0-1.2-.41,1.956,1.956,0,0,0-1.157.352,2.387,2.387,0,0,0-.776.923V0h-1.355V-7.925ZM-17.084.146A3.463,3.463,0,0,1-19.706-.912a3.928,3.928,0,0,1-1.011-2.831v-.249a4.756,4.756,0,0,1,.45-2.106,3.514,3.514,0,0,1,1.26-1.45,3.167,3.167,0,0,1,1.754-.524,2.968,2.968,0,0,1,2.4,1.018,4.408,4.408,0,0,1,.857,2.915v.564h-5.369a2.817,2.817,0,0,0,.685,1.893,2.153,2.153,0,0,0,1.666.721,2.36,2.36,0,0,0,1.216-.293,3.055,3.055,0,0,0,.872-.776l.828.645A3.328,3.328,0,0,1-17.084.146Zm-.168-7.1a1.807,1.807,0,0,0-1.377.6,2.9,2.9,0,0,0-.688,1.674h3.97v-.1a2.581,2.581,0,0,0-.557-1.6A1.7,1.7,0,0,0-17.252-6.958Zm8.005,6A1.952,1.952,0,0,0-7.98-1.4a1.546,1.546,0,0,0,.6-1.1H-6.1a2.457,2.457,0,0,1-.469,1.3A3.087,3.087,0,0,1-7.72-.22,3.329,3.329,0,0,1-9.247.146a3.265,3.265,0,0,1-2.574-1.08,4.3,4.3,0,0,1-.956-2.955v-.227a4.771,4.771,0,0,1,.425-2.058,3.236,3.236,0,0,1,1.219-1.4,3.464,3.464,0,0,1,1.879-.5,3.178,3.178,0,0,1,2.216.8A2.853,2.853,0,0,1-6.1-5.2H-7.379a1.867,1.867,0,0,0-.582-1.263,1.811,1.811,0,0,0-1.293-.494,1.9,1.9,0,0,0-1.6.743,3.491,3.491,0,0,0-.568,2.15v.256A3.422,3.422,0,0,0-10.858-1.7,1.906,1.906,0,0,0-9.247-.959ZM-1.285.146A3.463,3.463,0,0,1-3.907-.912,3.928,3.928,0,0,1-4.918-3.743v-.249A4.756,4.756,0,0,1-4.468-6.1a3.514,3.514,0,0,1,1.26-1.45,3.167,3.167,0,0,1,1.754-.524,2.968,2.968,0,0,1,2.4,1.018,4.408,4.408,0,0,1,.857,2.915v.564H-3.563a2.817,2.817,0,0,0,.685,1.893,2.153,2.153,0,0,0,1.666.721A2.36,2.36,0,0,0,0-1.252a3.055,3.055,0,0,0,.872-.776l.828.645A3.328,3.328,0,0,1-1.285.146Zm-.168-7.1a1.807,1.807,0,0,0-1.377.6,2.9,2.9,0,0,0-.688,1.674H.45v-.1a2.581,2.581,0,0,0-.557-1.6A1.7,1.7,0,0,0-1.454-6.958ZM7.987-2.1a1,1,0,0,0-.414-.853A3.983,3.983,0,0,0,6.13-3.479,6.822,6.822,0,0,1,4.5-4.006,2.324,2.324,0,0,1,3.6-4.739,1.752,1.752,0,0,1,3.314-5.75,2.056,2.056,0,0,1,4.138-7.4a3.218,3.218,0,0,1,2.106-.674,3.311,3.311,0,0,1,2.186.7A2.21,2.21,0,0,1,9.269-5.6H7.906a1.223,1.223,0,0,0-.472-.959,1.77,1.77,0,0,0-1.19-.4,1.852,1.852,0,0,0-1.157.322,1.014,1.014,0,0,0-.417.842.822.822,0,0,0,.388.74,4.776,4.776,0,0,0,1.4.476A7.308,7.308,0,0,1,8.1-4.036a2.4,2.4,0,0,1,.934.758,1.864,1.864,0,0,1,.3,1.08,2.028,2.028,0,0,1-.85,1.7,3.564,3.564,0,0,1-2.2.641A3.991,3.991,0,0,1,4.6-.19a2.74,2.74,0,0,1-1.146-.941,2.268,2.268,0,0,1-.414-1.307H4.4a1.4,1.4,0,0,0,.546,1.08,2.117,2.117,0,0,0,1.344.4,2.185,2.185,0,0,0,1.234-.311A.956.956,0,0,0,7.987-2.1ZM16,0a2.846,2.846,0,0,1-.19-.835,3.023,3.023,0,0,1-2.256.981,2.8,2.8,0,0,1-1.923-.663A2.145,2.145,0,0,1,10.88-2.2a2.24,2.24,0,0,1,.941-1.923A4.437,4.437,0,0,1,14.469-4.8h1.318v-.623a1.522,1.522,0,0,0-.425-1.132A1.707,1.707,0,0,0,14.11-6.98a1.976,1.976,0,0,0-1.216.366,1.079,1.079,0,0,0-.491.886H11.041a1.87,1.87,0,0,1,.421-1.146A2.874,2.874,0,0,1,12.6-7.749a3.844,3.844,0,0,1,1.586-.322,3.133,3.133,0,0,1,2.146.685A2.47,2.47,0,0,1,17.142-5.5v3.647a4.459,4.459,0,0,0,.278,1.736V0ZM13.751-1.033a2.381,2.381,0,0,0,1.208-.33,1.994,1.994,0,0,0,.828-.857V-3.845H14.725q-2.49,0-2.49,1.458a1.234,1.234,0,0,0,.425,1A1.633,1.633,0,0,0,13.751-1.033ZM23.1-6.709a4.061,4.061,0,0,0-.667-.051,1.786,1.786,0,0,0-1.809,1.135V0H19.266V-7.925h1.318l.022.916A2.11,2.11,0,0,1,22.5-8.071a1.384,1.384,0,0,1,.6.1ZM25.814,0H24.459V-7.925h1.355ZM24.349-10.027a.809.809,0,0,1,.2-.557.756.756,0,0,1,.6-.227.768.768,0,0,1,.6.227.8.8,0,0,1,.205.557.774.774,0,0,1-.205.549.782.782,0,0,1-.6.22.77.77,0,0,1-.6-.22A.782.782,0,0,1,24.349-10.027Zm3.274,5.991a4.681,4.681,0,0,1,.458-2.095,3.415,3.415,0,0,1,1.274-1.436,3.469,3.469,0,0,1,1.864-.505,3.342,3.342,0,0,1,2.618,1.121,4.311,4.311,0,0,1,1,2.981v.1A4.722,4.722,0,0,1,34.395-1.8,3.365,3.365,0,0,1,33.127-.366a3.509,3.509,0,0,1-1.893.513A3.334,3.334,0,0,1,28.623-.974a4.29,4.29,0,0,1-1-2.966Zm1.362.161A3.39,3.39,0,0,0,29.6-1.758a1.957,1.957,0,0,0,1.637.8,1.945,1.945,0,0,0,1.641-.809,3.707,3.707,0,0,0,.608-2.267,3.384,3.384,0,0,0-.619-2.113,1.968,1.968,0,0,0-1.644-.809,1.946,1.946,0,0,0-1.619.8A3.68,3.68,0,0,0,28.986-3.875Zm17.959,0a4.745,4.745,0,0,1-.828,2.915A2.653,2.653,0,0,1,43.876.146a2.906,2.906,0,0,1-2.271-.916V3.047H40.25V-7.925h1.238l.066.879a2.791,2.791,0,0,1,2.3-1.025,2.7,2.7,0,0,1,2.26,1.077,4.8,4.8,0,0,1,.831,3ZM45.59-4.028a3.5,3.5,0,0,0-.571-2.117,1.84,1.84,0,0,0-1.567-.776A1.992,1.992,0,0,0,41.605-5.83v3.787a2,2,0,0,0,1.86,1.084,1.832,1.832,0,0,0,1.549-.773A3.822,3.822,0,0,0,45.59-4.028ZM53.558,0a2.846,2.846,0,0,1-.19-.835,3.023,3.023,0,0,1-2.256.981,2.8,2.8,0,0,1-1.923-.663A2.145,2.145,0,0,1,48.439-2.2,2.24,2.24,0,0,1,49.38-4.12,4.437,4.437,0,0,1,52.028-4.8h1.318v-.623a1.522,1.522,0,0,0-.425-1.132,1.707,1.707,0,0,0-1.252-.421,1.976,1.976,0,0,0-1.216.366,1.079,1.079,0,0,0-.491.886H48.6a1.87,1.87,0,0,1,.421-1.146,2.874,2.874,0,0,1,1.143-.875,3.844,3.844,0,0,1,1.586-.322,3.133,3.133,0,0,1,2.146.685A2.47,2.47,0,0,1,54.7-5.5v3.647a4.459,4.459,0,0,0,.278,1.736V0ZM51.31-1.033a2.381,2.381,0,0,0,1.208-.33,1.994,1.994,0,0,0,.828-.857V-3.845H52.284q-2.49,0-2.49,1.458a1.234,1.234,0,0,0,.425,1A1.633,1.633,0,0,0,51.31-1.033Zm9.346-5.676a4.061,4.061,0,0,0-.667-.051A1.786,1.786,0,0,0,58.18-5.625V0H56.825V-7.925h1.318l.022.916a2.11,2.11,0,0,1,1.89-1.062,1.384,1.384,0,0,1,.6.1ZM66.5,0a2.846,2.846,0,0,1-.19-.835,3.023,3.023,0,0,1-2.256.981,2.8,2.8,0,0,1-1.923-.663A2.145,2.145,0,0,1,61.381-2.2a2.24,2.24,0,0,1,.941-1.923A4.437,4.437,0,0,1,64.969-4.8h1.318v-.623a1.522,1.522,0,0,0-.425-1.132,1.707,1.707,0,0,0-1.252-.421,1.976,1.976,0,0,0-1.216.366,1.079,1.079,0,0,0-.491.886H61.542a1.87,1.87,0,0,1,.421-1.146,2.874,2.874,0,0,1,1.143-.875,3.844,3.844,0,0,1,1.586-.322,3.133,3.133,0,0,1,2.146.685A2.47,2.47,0,0,1,67.643-5.5v3.647a4.459,4.459,0,0,0,.278,1.736V0ZM64.252-1.033a2.381,2.381,0,0,0,1.208-.33,1.994,1.994,0,0,0,.828-.857V-3.845H65.226q-2.49,0-2.49,1.458a1.234,1.234,0,0,0,.425,1A1.633,1.633,0,0,0,64.252-1.033ZM76.769.146A3.463,3.463,0,0,1,74.147-.912a3.928,3.928,0,0,1-1.011-2.831v-.249a4.756,4.756,0,0,1,.45-2.106,3.514,3.514,0,0,1,1.26-1.45A3.167,3.167,0,0,1,76.6-8.071,2.968,2.968,0,0,1,79-7.053a4.408,4.408,0,0,1,.857,2.915v.564H74.491a2.817,2.817,0,0,0,.685,1.893,2.153,2.153,0,0,0,1.666.721,2.36,2.36,0,0,0,1.216-.293,3.055,3.055,0,0,0,.872-.776l.828.645A3.328,3.328,0,0,1,76.769.146Zm-.168-7.1a1.807,1.807,0,0,0-1.377.6,2.9,2.9,0,0,0-.688,1.674H78.5v-.1a2.581,2.581,0,0,0-.557-1.6A1.7,1.7,0,0,0,76.6-6.958ZM82.9,0H81.544V-11.25H82.9ZM-92.322,18.146a3.463,3.463,0,0,1-2.622-1.058,3.928,3.928,0,0,1-1.011-2.831v-.249A4.756,4.756,0,0,1-95.5,11.9a3.514,3.514,0,0,1,1.26-1.45,3.167,3.167,0,0,1,1.754-.524,2.968,2.968,0,0,1,2.4,1.018,4.408,4.408,0,0,1,.857,2.915v.564H-94.6a2.817,2.817,0,0,0,.685,1.893,2.153,2.153,0,0,0,1.666.721,2.36,2.36,0,0,0,1.216-.293,3.055,3.055,0,0,0,.872-.776l.828.645A3.328,3.328,0,0,1-92.322,18.146Zm-.168-7.1a1.807,1.807,0,0,0-1.377.6,2.9,2.9,0,0,0-.688,1.674h3.97v-.1a2.581,2.581,0,0,0-.557-1.6A1.7,1.7,0,0,0-92.49,11.042Zm6.108-.967.044,1a2.888,2.888,0,0,1,2.373-1.143q2.512,0,2.534,2.834V18h-1.355V12.756a1.824,1.824,0,0,0-.392-1.267,1.57,1.57,0,0,0-1.2-.41,1.956,1.956,0,0,0-1.157.352,2.387,2.387,0,0,0-.776.923V18h-1.355V10.075ZM-78.721,18V11.123h-1.252V10.075h1.252V9.262a2.7,2.7,0,0,1,.681-1.97,2.573,2.573,0,0,1,1.926-.7,3.578,3.578,0,0,1,.93.124l-.073,1.092a3.892,3.892,0,0,0-.732-.066,1.322,1.322,0,0,0-1.018.386,1.564,1.564,0,0,0-.359,1.106v.838h1.692v1.047h-1.692V18Zm8.372-6.709a4.06,4.06,0,0,0-.667-.051,1.786,1.786,0,0,0-1.809,1.135V18H-74.18V10.075h1.318l.022.916a2.11,2.11,0,0,1,1.89-1.062,1.384,1.384,0,0,1,.6.1ZM-67.632,18h-1.355V10.075h1.355ZM-69.1,7.973a.809.809,0,0,1,.2-.557.756.756,0,0,1,.6-.227.768.768,0,0,1,.6.227.8.8,0,0,1,.205.557.774.774,0,0,1-.205.549.782.782,0,0,1-.6.22.77.77,0,0,1-.6-.22A.782.782,0,0,1-69.1,7.973ZM-60.571,18a2.846,2.846,0,0,1-.19-.835,3.023,3.023,0,0,1-2.256.981,2.8,2.8,0,0,1-1.923-.663,2.145,2.145,0,0,1-.751-1.681,2.24,2.24,0,0,1,.941-1.923A4.437,4.437,0,0,1-62.1,13.2h1.318v-.623a1.522,1.522,0,0,0-.425-1.132,1.707,1.707,0,0,0-1.252-.421,1.976,1.976,0,0,0-1.216.366,1.079,1.079,0,0,0-.491.886H-65.53a1.87,1.87,0,0,1,.421-1.146,2.874,2.874,0,0,1,1.143-.875,3.844,3.844,0,0,1,1.586-.322,3.133,3.133,0,0,1,2.146.685,2.47,2.47,0,0,1,.806,1.886v3.647a4.459,4.459,0,0,0,.278,1.736V18Zm-2.249-1.033a2.381,2.381,0,0,0,1.208-.33,1.994,1.994,0,0,0,.828-.857V14.155h-1.062q-2.49,0-2.49,1.458a1.234,1.234,0,0,0,.425,1A1.633,1.633,0,0,0-62.82,16.967Zm6.79-6.892.037.879a2.927,2.927,0,0,1,2.351-1.025A2.266,2.266,0,0,1-51.379,11.2a3,3,0,0,1,1.029-.923,3.039,3.039,0,0,1,1.5-.352q2.607,0,2.651,2.761V18h-1.355V12.771a1.82,1.82,0,0,0-.388-1.271,1.71,1.71,0,0,0-1.3-.421,1.8,1.8,0,0,0-1.252.45,1.827,1.827,0,0,0-.579,1.212V18h-1.362V12.807a1.512,1.512,0,0,0-1.692-1.729,1.813,1.813,0,0,0-1.824,1.135V18h-1.355V10.075ZM-42.686,18h-1.355V10.075h1.355ZM-44.15,7.973a.809.809,0,0,1,.2-.557.756.756,0,0,1,.6-.227.768.768,0,0,1,.6.227.8.8,0,0,1,.205.557.774.774,0,0,1-.205.549.782.782,0,0,1-.6.22.77.77,0,0,1-.6-.22A.782.782,0,0,1-44.15,7.973Zm6.921,10.173a3.463,3.463,0,0,1-2.622-1.058,3.928,3.928,0,0,1-1.011-2.831v-.249a4.756,4.756,0,0,1,.45-2.106,3.514,3.514,0,0,1,1.26-1.45A3.167,3.167,0,0,1-37.4,9.929,2.968,2.968,0,0,1-35,10.947a4.408,4.408,0,0,1,.857,2.915v.564h-5.369a2.817,2.817,0,0,0,.685,1.893,2.153,2.153,0,0,0,1.666.721,2.36,2.36,0,0,0,1.216-.293,3.055,3.055,0,0,0,.872-.776l.828.645A3.328,3.328,0,0,1-37.229,18.146Zm-.168-7.1a1.807,1.807,0,0,0-1.377.6,2.9,2.9,0,0,0-.688,1.674h3.97v-.1a2.581,2.581,0,0,0-.557-1.6A1.7,1.7,0,0,0-37.4,11.042Zm6.108-.967.044,1a2.888,2.888,0,0,1,2.373-1.143q2.512,0,2.534,2.834V18h-1.355V12.756a1.824,1.824,0,0,0-.392-1.267,1.57,1.57,0,0,0-1.2-.41,1.956,1.956,0,0,0-1.157.352,2.387,2.387,0,0,0-.776.923V18h-1.355V10.075Zm8.833-1.919v1.919h1.479v1.047h-1.479v4.921a1.1,1.1,0,0,0,.2.715.832.832,0,0,0,.674.238,3.281,3.281,0,0,0,.645-.088V18a3.951,3.951,0,0,1-1.04.146,1.687,1.687,0,0,1-1.37-.549,2.36,2.36,0,0,1-.461-1.56V11.123h-1.443V10.075h1.443V8.156Zm2.556,5.808a4.681,4.681,0,0,1,.458-2.095,3.415,3.415,0,0,1,1.274-1.436A3.469,3.469,0,0,1-16.3,9.929a3.342,3.342,0,0,1,2.618,1.121,4.311,4.311,0,0,1,1,2.981v.1a4.722,4.722,0,0,1-.443,2.076A3.365,3.365,0,0,1-14.4,17.634a3.509,3.509,0,0,1-1.893.513A3.334,3.334,0,0,1-18.9,17.026a4.29,4.29,0,0,1-1-2.966Zm1.362.161a3.39,3.39,0,0,0,.612,2.117,1.957,1.957,0,0,0,1.637.8,1.945,1.945,0,0,0,1.641-.809,3.707,3.707,0,0,0,.608-2.267,3.384,3.384,0,0,0-.619-2.113,1.968,1.968,0,0,0-1.644-.809,1.946,1.946,0,0,0-1.619.8A3.68,3.68,0,0,0-18.538,14.125ZM-7.6,13.972a4.642,4.642,0,0,1,.864-2.933,2.733,2.733,0,0,1,2.263-1.11,2.748,2.748,0,0,1,2.2.952V6.75H-.916V18H-2.161l-.066-.85a2.759,2.759,0,0,1-2.263,1,2.707,2.707,0,0,1-2.245-1.128A4.7,4.7,0,0,1-7.6,14.074Zm1.355.154a3.515,3.515,0,0,0,.557,2.109A1.8,1.8,0,0,0-4.153,17a1.977,1.977,0,0,0,1.882-1.157V12.2a1.992,1.992,0,0,0-1.868-1.121,1.808,1.808,0,0,0-1.553.769A3.87,3.87,0,0,0-6.248,14.125ZM4.475,18.146a3.463,3.463,0,0,1-2.622-1.058A3.928,3.928,0,0,1,.842,14.257v-.249a4.756,4.756,0,0,1,.45-2.106,3.514,3.514,0,0,1,1.26-1.45,3.167,3.167,0,0,1,1.754-.524,2.968,2.968,0,0,1,2.4,1.018,4.408,4.408,0,0,1,.857,2.915v.564H2.2a2.817,2.817,0,0,0,.685,1.893,2.153,2.153,0,0,0,1.666.721,2.36,2.36,0,0,0,1.216-.293,3.055,3.055,0,0,0,.872-.776l.828.645A3.328,3.328,0,0,1,4.475,18.146Zm-.168-7.1a1.807,1.807,0,0,0-1.377.6,2.9,2.9,0,0,0-.688,1.674h3.97v-.1a2.581,2.581,0,0,0-.557-1.6A1.7,1.7,0,0,0,4.307,11.042ZM14.319,18H12.964V6.75h1.355Zm7.061,0a2.846,2.846,0,0,1-.19-.835,3.023,3.023,0,0,1-2.256.981,2.8,2.8,0,0,1-1.923-.663A2.145,2.145,0,0,1,16.26,15.8,2.24,2.24,0,0,1,17.2,13.88a4.437,4.437,0,0,1,2.648-.685h1.318v-.623a1.522,1.522,0,0,0-.425-1.132,1.707,1.707,0,0,0-1.252-.421,1.976,1.976,0,0,0-1.216.366,1.079,1.079,0,0,0-.491.886H16.421a1.87,1.87,0,0,1,.421-1.146,2.874,2.874,0,0,1,1.143-.875,3.844,3.844,0,0,1,1.586-.322,3.133,3.133,0,0,1,2.146.685,2.47,2.47,0,0,1,.806,1.886v3.647a4.459,4.459,0,0,0,.278,1.736V18Zm-2.249-1.033a2.381,2.381,0,0,0,1.208-.33,1.994,1.994,0,0,0,.828-.857V14.155H20.1q-2.49,0-2.49,1.458a1.234,1.234,0,0,0,.425,1A1.633,1.633,0,0,0,19.131,16.967Zm10.5-6.892.037.879a2.927,2.927,0,0,1,2.351-1.025A2.266,2.266,0,0,1,34.285,11.2a3,3,0,0,1,1.029-.923,3.039,3.039,0,0,1,1.5-.352q2.607,0,2.651,2.761V18H38.108V12.771A1.82,1.82,0,0,0,37.72,11.5a1.71,1.71,0,0,0-1.3-.421,1.8,1.8,0,0,0-1.252.45,1.827,1.827,0,0,0-.579,1.212V18H33.223V12.807a1.512,1.512,0,0,0-1.692-1.729,1.813,1.813,0,0,0-1.824,1.135V18H28.352V10.075ZM42.979,18H41.624V10.075h1.355ZM41.514,7.973a.809.809,0,0,1,.2-.557.756.756,0,0,1,.6-.227.768.768,0,0,1,.6.227.8.8,0,0,1,.205.557.774.774,0,0,1-.205.549.782.782,0,0,1-.6.22.77.77,0,0,1-.6-.22A.782.782,0,0,1,41.514,7.973Zm6.921,10.173a3.463,3.463,0,0,1-2.622-1.058A3.928,3.928,0,0,1,44.8,14.257v-.249a4.756,4.756,0,0,1,.45-2.106,3.514,3.514,0,0,1,1.26-1.45,3.167,3.167,0,0,1,1.754-.524,2.968,2.968,0,0,1,2.4,1.018,4.408,4.408,0,0,1,.857,2.915v.564H46.157a2.817,2.817,0,0,0,.685,1.893,2.153,2.153,0,0,0,1.666.721,2.36,2.36,0,0,0,1.216-.293,3.055,3.055,0,0,0,.872-.776l.828.645A3.328,3.328,0,0,1,48.435,18.146Zm-.168-7.1a1.807,1.807,0,0,0-1.377.6,2.9,2.9,0,0,0-.688,1.674h3.97v-.1a2.581,2.581,0,0,0-.557-1.6A1.7,1.7,0,0,0,48.267,11.042ZM54.565,18H53.21V6.75h1.355ZM61.8,11.035a2.881,2.881,0,0,1,2.344-1.106q2.512,0,2.534,2.834V18H65.325V12.756a1.824,1.824,0,0,0-.392-1.267,1.57,1.57,0,0,0-1.2-.41,1.956,1.956,0,0,0-1.157.352,2.387,2.387,0,0,0-.776.923V18H60.447V6.75H61.8ZM73.6,18a2.846,2.846,0,0,1-.19-.835,3.023,3.023,0,0,1-2.256.981,2.8,2.8,0,0,1-1.923-.663,2.145,2.145,0,0,1-.751-1.681,2.24,2.24,0,0,1,.941-1.923A4.437,4.437,0,0,1,72.07,13.2h1.318v-.623a1.522,1.522,0,0,0-.425-1.132,1.707,1.707,0,0,0-1.252-.421,1.976,1.976,0,0,0-1.216.366,1.079,1.079,0,0,0-.491.886H68.643a1.87,1.87,0,0,1,.421-1.146,2.874,2.874,0,0,1,1.143-.875,3.844,3.844,0,0,1,1.586-.322,3.133,3.133,0,0,1,2.146.685,2.47,2.47,0,0,1,.806,1.886v3.647a4.459,4.459,0,0,0,.278,1.736V18Zm-2.249-1.033a2.381,2.381,0,0,0,1.208-.33,1.994,1.994,0,0,0,.828-.857V14.155H72.327q-2.49,0-2.49,1.458a1.234,1.234,0,0,0,.425,1A1.633,1.633,0,0,0,71.353,16.967ZM81.482,15.9a1,1,0,0,0-.414-.853,3.983,3.983,0,0,0-1.443-.524,6.822,6.822,0,0,1-1.633-.527,2.324,2.324,0,0,1-.894-.732,1.752,1.752,0,0,1-.289-1.011,2.056,2.056,0,0,1,.824-1.648,3.218,3.218,0,0,1,2.106-.674,3.311,3.311,0,0,1,2.186.7,2.21,2.21,0,0,1,.839,1.78H81.4a1.223,1.223,0,0,0-.472-.959,1.77,1.77,0,0,0-1.19-.4,1.852,1.852,0,0,0-1.157.322,1.014,1.014,0,0,0-.417.842.822.822,0,0,0,.388.74,4.776,4.776,0,0,0,1.4.476,7.308,7.308,0,0,1,1.644.542,2.4,2.4,0,0,1,.934.758,1.864,1.864,0,0,1,.3,1.08,2.028,2.028,0,0,1-.85,1.7,3.564,3.564,0,0,1-2.2.641A3.991,3.991,0,0,1,78.1,17.81a2.74,2.74,0,0,1-1.146-.941,2.268,2.268,0,0,1-.414-1.307h1.355a1.4,1.4,0,0,0,.546,1.08,2.117,2.117,0,0,0,1.344.4,2.185,2.185,0,0,0,1.234-.311A.956.956,0,0,0,81.482,15.9ZM86.44,8.156v1.919H87.92v1.047H86.44v4.921a1.1,1.1,0,0,0,.2.715.832.832,0,0,0,.674.238,3.281,3.281,0,0,0,.645-.088V18a3.951,3.951,0,0,1-1.04.146,1.687,1.687,0,0,1-1.37-.549,2.36,2.36,0,0,1-.461-1.56V11.123H83.643V10.075h1.443V8.156ZM94.395,18a2.846,2.846,0,0,1-.19-.835,3.023,3.023,0,0,1-2.256.981,2.8,2.8,0,0,1-1.923-.663,2.145,2.145,0,0,1-.751-1.681,2.24,2.24,0,0,1,.941-1.923,4.437,4.437,0,0,1,2.648-.685h1.318v-.623a1.522,1.522,0,0,0-.425-1.132A1.707,1.707,0,0,0,92.5,11.02a1.976,1.976,0,0,0-1.216.366,1.079,1.079,0,0,0-.491.886H89.436a1.87,1.87,0,0,1,.421-1.146A2.874,2.874,0,0,1,91,10.251a3.844,3.844,0,0,1,1.586-.322,3.133,3.133,0,0,1,2.146.685,2.47,2.47,0,0,1,.806,1.886v3.647a4.459,4.459,0,0,0,.278,1.736V18Zm-2.249-1.033a2.381,2.381,0,0,0,1.208-.33,1.994,1.994,0,0,0,.828-.857V14.155H93.12q-2.49,0-2.49,1.458a1.234,1.234,0,0,0,.425,1A1.633,1.633,0,0,0,92.146,16.967ZM-105.267,36h-1.355V24.75h1.355Zm3.64,0h-1.355V24.75h1.355Zm5.457.146a3.463,3.463,0,0,1-2.622-1.058A3.928,3.928,0,0,1-99.8,32.257v-.249a4.756,4.756,0,0,1,.45-2.106,3.514,3.514,0,0,1,1.26-1.45,3.167,3.167,0,0,1,1.754-.524,2.968,2.968,0,0,1,2.4,1.018,4.408,4.408,0,0,1,.857,2.915v.564h-5.369a2.817,2.817,0,0,0,.685,1.893,2.153,2.153,0,0,0,1.666.721,2.36,2.36,0,0,0,1.216-.293,3.055,3.055,0,0,0,.872-.776l.828.645A3.328,3.328,0,0,1-96.171,36.146Zm-.168-7.1a1.807,1.807,0,0,0-1.377.6,2.9,2.9,0,0,0-.688,1.674h3.97v-.1a2.581,2.581,0,0,0-.557-1.6A1.7,1.7,0,0,0-96.339,29.042Zm4.5,2.93a4.658,4.658,0,0,1,.857-2.948,2.741,2.741,0,0,1,2.271-1.095,2.726,2.726,0,0,1,2.263,1.025l.066-.879h1.238V35.81a3.224,3.224,0,0,1-.912,2.424,3.365,3.365,0,0,1-2.45.886,4.076,4.076,0,0,1-1.677-.366,2.887,2.887,0,0,1-1.252-1l.7-.813A2.65,2.65,0,0,0-88.6,38.014a2.076,2.076,0,0,0,1.542-.557A2.128,2.128,0,0,0-86.5,35.89v-.681a2.785,2.785,0,0,1-2.219.938,2.707,2.707,0,0,1-2.252-1.121A4.9,4.9,0,0,1-91.835,31.972Zm1.362.154a3.553,3.553,0,0,0,.549,2.106A1.785,1.785,0,0,0-88.385,35,1.985,1.985,0,0,0-86.5,33.832V30.214a2.008,2.008,0,0,0-1.868-1.135,1.8,1.8,0,0,0-1.545.769A3.87,3.87,0,0,0-90.472,32.125ZM-78.2,36a2.846,2.846,0,0,1-.19-.835,3.023,3.023,0,0,1-2.256.981,2.8,2.8,0,0,1-1.923-.663,2.145,2.145,0,0,1-.751-1.681,2.24,2.24,0,0,1,.941-1.923,4.437,4.437,0,0,1,2.648-.685h1.318v-.623a1.522,1.522,0,0,0-.425-1.132,1.707,1.707,0,0,0-1.252-.421,1.976,1.976,0,0,0-1.216.366,1.079,1.079,0,0,0-.491.886h-1.362a1.87,1.87,0,0,1,.421-1.146,2.874,2.874,0,0,1,1.143-.875,3.844,3.844,0,0,1,1.586-.322,3.133,3.133,0,0,1,2.146.685,2.47,2.47,0,0,1,.806,1.886v3.647a4.459,4.459,0,0,0,.278,1.736V36Zm-2.249-1.033a2.381,2.381,0,0,0,1.208-.33,1.994,1.994,0,0,0,.828-.857V32.155h-1.062q-2.49,0-2.49,1.458a1.234,1.234,0,0,0,.425,1A1.633,1.633,0,0,0-80.453,34.967Zm9.346-5.676a4.06,4.06,0,0,0-.667-.051,1.786,1.786,0,0,0-1.809,1.135V36h-1.355V28.075h1.318l.022.916a2.11,2.11,0,0,1,1.89-1.062,1.384,1.384,0,0,1,.6.1ZM-61.256,36a2.846,2.846,0,0,1-.19-.835,3.023,3.023,0,0,1-2.256.981,2.8,2.8,0,0,1-1.923-.663,2.145,2.145,0,0,1-.751-1.681,2.24,2.24,0,0,1,.941-1.923,4.437,4.437,0,0,1,2.648-.685h1.318v-.623a1.522,1.522,0,0,0-.425-1.132,1.707,1.707,0,0,0-1.252-.421,1.976,1.976,0,0,0-1.216.366,1.079,1.079,0,0,0-.491.886h-1.362a1.87,1.87,0,0,1,.421-1.146,2.874,2.874,0,0,1,1.143-.875,3.844,3.844,0,0,1,1.586-.322,3.133,3.133,0,0,1,2.146.685,2.47,2.47,0,0,1,.806,1.886v3.647a4.459,4.459,0,0,0,.278,1.736V36ZM-63.5,34.967a2.381,2.381,0,0,0,1.208-.33,1.994,1.994,0,0,0,.828-.857V32.155h-1.062q-2.49,0-2.49,1.458a1.234,1.234,0,0,0,.425,1A1.633,1.633,0,0,0-63.5,34.967ZM-52.8,36h-1.355V24.75H-52.8Zm7.061,0a2.846,2.846,0,0,1-.19-.835,3.023,3.023,0,0,1-2.256.981,2.8,2.8,0,0,1-1.923-.663,2.145,2.145,0,0,1-.751-1.681,2.24,2.24,0,0,1,.941-1.923,4.437,4.437,0,0,1,2.648-.685h1.318v-.623a1.522,1.522,0,0,0-.425-1.132,1.707,1.707,0,0,0-1.252-.421,1.976,1.976,0,0,0-1.216.366,1.079,1.079,0,0,0-.491.886H-50.7a1.87,1.87,0,0,1,.421-1.146,2.874,2.874,0,0,1,1.143-.875,3.844,3.844,0,0,1,1.586-.322,3.133,3.133,0,0,1,2.146.685A2.47,2.47,0,0,1-44.6,30.5v3.647a4.459,4.459,0,0,0,.278,1.736V36Zm-2.249-1.033a2.381,2.381,0,0,0,1.208-.33,1.994,1.994,0,0,0,.828-.857V32.155h-1.062q-2.49,0-2.49,1.458a1.234,1.234,0,0,0,.425,1A1.633,1.633,0,0,0-47.992,34.967Zm11.067-8.811v1.919h1.479v1.047h-1.479v4.921a1.1,1.1,0,0,0,.2.715.832.832,0,0,0,.674.238,3.281,3.281,0,0,0,.645-.088V36a3.951,3.951,0,0,1-1.04.146,1.687,1.687,0,0,1-1.37-.549,2.36,2.36,0,0,1-.461-1.56V29.123h-1.443V28.075h1.443V26.156Zm6.35,9.99A3.463,3.463,0,0,1-33.2,35.088a3.928,3.928,0,0,1-1.011-2.831v-.249a4.756,4.756,0,0,1,.45-2.106,3.514,3.514,0,0,1,1.26-1.45,3.167,3.167,0,0,1,1.754-.524,2.968,2.968,0,0,1,2.4,1.018,4.408,4.408,0,0,1,.857,2.915v.564h-5.369a2.817,2.817,0,0,0,.685,1.893,2.153,2.153,0,0,0,1.666.721,2.36,2.36,0,0,0,1.216-.293,3.055,3.055,0,0,0,.872-.776l.828.645A3.328,3.328,0,0,1-30.575,36.146Zm-.168-7.1a1.807,1.807,0,0,0-1.377.6,2.9,2.9,0,0,0-.688,1.674h3.97v-.1a2.581,2.581,0,0,0-.557-1.6A1.7,1.7,0,0,0-30.743,29.042Zm6.1-.967.037.879a2.927,2.927,0,0,1,2.351-1.025A2.266,2.266,0,0,1-19.991,29.2a3,3,0,0,1,1.029-.923,3.039,3.039,0,0,1,1.5-.352q2.607,0,2.651,2.761V36h-1.355V30.771a1.82,1.82,0,0,0-.388-1.271,1.71,1.71,0,0,0-1.3-.421,1.8,1.8,0,0,0-1.252.45,1.827,1.827,0,0,0-.579,1.212V36h-1.362V30.807a1.512,1.512,0,0,0-1.692-1.729,1.813,1.813,0,0,0-1.824,1.135V36h-1.355V28.075Zm18.567,4.05A4.745,4.745,0,0,1-6.9,35.041a2.653,2.653,0,0,1-2.241,1.106,2.906,2.906,0,0,1-2.271-.916v3.816H-12.77V28.075h1.238l.066.879a2.791,2.791,0,0,1,2.3-1.025,2.7,2.7,0,0,1,2.26,1.077,4.8,4.8,0,0,1,.831,3Zm-1.355-.154A3.5,3.5,0,0,0-8,29.855a1.84,1.84,0,0,0-1.567-.776,1.992,1.992,0,0,0-1.846,1.091v3.787a2,2,0,0,0,1.86,1.084,1.832,1.832,0,0,0,1.549-.773A3.822,3.822,0,0,0-7.43,31.972Zm6.365,4.175a3.463,3.463,0,0,1-2.622-1.058A3.928,3.928,0,0,1-4.7,32.257v-.249a4.756,4.756,0,0,1,.45-2.106,3.514,3.514,0,0,1,1.26-1.45,3.167,3.167,0,0,1,1.754-.524,2.968,2.968,0,0,1,2.4,1.018,4.408,4.408,0,0,1,.857,2.915v.564H-3.344a2.817,2.817,0,0,0,.685,1.893,2.153,2.153,0,0,0,1.666.721,2.36,2.36,0,0,0,1.216-.293,3.055,3.055,0,0,0,.872-.776l.828.645A3.328,3.328,0,0,1-1.066,36.146Zm-.168-7.1a1.807,1.807,0,0,0-1.377.6A2.9,2.9,0,0,0-3.3,31.313H.67v-.1a2.581,2.581,0,0,0-.557-1.6A1.7,1.7,0,0,0-1.234,29.042Zm8.657.249a4.06,4.06,0,0,0-.667-.051,1.786,1.786,0,0,0-1.809,1.135V36H3.593V28.075H4.911l.022.916a2.11,2.11,0,0,1,1.89-1.062,1.384,1.384,0,0,1,.6.1ZM13.268,36a2.846,2.846,0,0,1-.19-.835,3.023,3.023,0,0,1-2.256.981A2.8,2.8,0,0,1,8.9,35.484,2.145,2.145,0,0,1,8.148,33.8a2.24,2.24,0,0,1,.941-1.923,4.437,4.437,0,0,1,2.648-.685h1.318v-.623a1.522,1.522,0,0,0-.425-1.132,1.707,1.707,0,0,0-1.252-.421,1.976,1.976,0,0,0-1.216.366,1.079,1.079,0,0,0-.491.886H8.309a1.87,1.87,0,0,1,.421-1.146,2.874,2.874,0,0,1,1.143-.875,3.844,3.844,0,0,1,1.586-.322,3.133,3.133,0,0,1,2.146.685A2.47,2.47,0,0,1,14.41,30.5v3.647a4.459,4.459,0,0,0,.278,1.736V36Zm-2.249-1.033a2.381,2.381,0,0,0,1.208-.33,1.994,1.994,0,0,0,.828-.857V32.155H11.993q-2.49,0-2.49,1.458a1.234,1.234,0,0,0,.425,1A1.633,1.633,0,0,0,11.019,34.967Zm7.354-8.811v1.919h1.479v1.047H18.373v4.921a1.1,1.1,0,0,0,.2.715.832.832,0,0,0,.674.238,3.281,3.281,0,0,0,.645-.088V36a3.951,3.951,0,0,1-1.04.146,1.687,1.687,0,0,1-1.37-.549,2.36,2.36,0,0,1-.461-1.56V29.123H15.575V28.075h1.443V26.156Zm7.954,9.06a2.878,2.878,0,0,1-2.322.93,2.464,2.464,0,0,1-1.93-.736,3.186,3.186,0,0,1-.67-2.179V28.075H22.76v5.12q0,1.8,1.465,1.8a2.028,2.028,0,0,0,2.065-1.157V28.075h1.355V36H26.356Zm7.207-5.925a4.06,4.06,0,0,0-.667-.051,1.786,1.786,0,0,0-1.809,1.135V36H29.7V28.075h1.318l.022.916a2.11,2.11,0,0,1,1.89-1.062,1.384,1.384,0,0,1,.6.1ZM39.379,36a2.846,2.846,0,0,1-.19-.835,3.023,3.023,0,0,1-2.256.981,2.8,2.8,0,0,1-1.923-.663,2.145,2.145,0,0,1-.751-1.681A2.24,2.24,0,0,1,35.2,31.88a4.437,4.437,0,0,1,2.648-.685h1.318v-.623a1.522,1.522,0,0,0-.425-1.132,1.707,1.707,0,0,0-1.252-.421,1.976,1.976,0,0,0-1.216.366,1.079,1.079,0,0,0-.491.886H34.42a1.87,1.87,0,0,1,.421-1.146,2.874,2.874,0,0,1,1.143-.875,3.844,3.844,0,0,1,1.586-.322,3.133,3.133,0,0,1,2.146.685,2.47,2.47,0,0,1,.806,1.886v3.647a4.459,4.459,0,0,0,.278,1.736V36ZM37.13,34.967a2.381,2.381,0,0,0,1.208-.33,1.994,1.994,0,0,0,.828-.857V32.155H38.1q-2.49,0-2.49,1.458a1.234,1.234,0,0,0,.425,1A1.633,1.633,0,0,0,37.13,34.967ZM51.251,36a2.846,2.846,0,0,1-.19-.835,3.023,3.023,0,0,1-2.256.981,2.8,2.8,0,0,1-1.923-.663,2.145,2.145,0,0,1-.751-1.681,2.24,2.24,0,0,1,.941-1.923A4.437,4.437,0,0,1,49.72,31.2h1.318v-.623a1.522,1.522,0,0,0-.425-1.132,1.707,1.707,0,0,0-1.252-.421,1.976,1.976,0,0,0-1.216.366,1.079,1.079,0,0,0-.491.886H46.293a1.87,1.87,0,0,1,.421-1.146,2.874,2.874,0,0,1,1.143-.875,3.844,3.844,0,0,1,1.586-.322,3.133,3.133,0,0,1,2.146.685,2.47,2.47,0,0,1,.806,1.886v3.647a4.459,4.459,0,0,0,.278,1.736V36ZM49,34.967a2.381,2.381,0,0,0,1.208-.33,1.994,1.994,0,0,0,.828-.857V32.155H49.977q-2.49,0-2.49,1.458a1.234,1.234,0,0,0,.425,1A1.633,1.633,0,0,0,49,34.967Zm6.79-6.892.037.879a2.927,2.927,0,0,1,2.351-1.025A2.266,2.266,0,0,1,60.443,29.2a3,3,0,0,1,1.029-.923,3.039,3.039,0,0,1,1.5-.352q2.607,0,2.651,2.761V36H64.266V30.771a1.82,1.82,0,0,0-.388-1.271,1.71,1.71,0,0,0-1.3-.421,1.8,1.8,0,0,0-1.252.45,1.827,1.827,0,0,0-.579,1.212V36H59.381V30.807a1.512,1.512,0,0,0-1.692-1.729,1.813,1.813,0,0,0-1.824,1.135V36H54.51V28.075Zm18.582,4.05a4.712,4.712,0,0,1-.835,2.919,2.668,2.668,0,0,1-2.241,1.1,2.763,2.763,0,0,1-2.322-1.062L68.91,36H67.665V24.75H69.02v4.2a2.747,2.747,0,0,1,2.263-1.018A2.684,2.684,0,0,1,73.55,29.02a4.853,4.853,0,0,1,.824,2.988Zm-1.355-.154a3.662,3.662,0,0,0-.535-2.139,1.77,1.77,0,0,0-1.538-.754,1.989,1.989,0,0,0-1.926,1.245v3.428A2.045,2.045,0,0,0,70.961,35a1.76,1.76,0,0,0,1.516-.754A3.894,3.894,0,0,0,73.019,31.972ZM77.552,36H76.2V28.075h1.355ZM76.088,25.973a.809.809,0,0,1,.2-.557.756.756,0,0,1,.6-.227.768.768,0,0,1,.6.227.8.8,0,0,1,.205.557.774.774,0,0,1-.205.549.782.782,0,0,1-.6.22.77.77,0,0,1-.6-.22A.782.782,0,0,1,76.088,25.973Zm6.921,10.173a3.463,3.463,0,0,1-2.622-1.058,3.928,3.928,0,0,1-1.011-2.831v-.249a4.756,4.756,0,0,1,.45-2.106,3.514,3.514,0,0,1,1.26-1.45,3.167,3.167,0,0,1,1.754-.524,2.968,2.968,0,0,1,2.4,1.018,4.408,4.408,0,0,1,.857,2.915v.564H80.731a2.817,2.817,0,0,0,.685,1.893,2.153,2.153,0,0,0,1.666.721,2.36,2.36,0,0,0,1.216-.293,3.055,3.055,0,0,0,.872-.776l.828.645A3.328,3.328,0,0,1,83.009,36.146Zm-.168-7.1a1.807,1.807,0,0,0-1.377.6,2.9,2.9,0,0,0-.688,1.674h3.97v-.1a2.581,2.581,0,0,0-.557-1.6A1.7,1.7,0,0,0,82.841,29.042Zm6.108-.967.044,1a2.888,2.888,0,0,1,2.373-1.143q2.512,0,2.534,2.834V36H92.545V30.756a1.824,1.824,0,0,0-.392-1.267,1.57,1.57,0,0,0-1.2-.41,1.956,1.956,0,0,0-1.157.352,2.387,2.387,0,0,0-.776.923V36H87.667V28.075Zm8.833-1.919v1.919h1.479v1.047H97.782v4.921a1.1,1.1,0,0,0,.2.715.832.832,0,0,0,.674.238,3.281,3.281,0,0,0,.645-.088V36a3.951,3.951,0,0,1-1.04.146,1.687,1.687,0,0,1-1.37-.549,2.36,2.36,0,0,1-.461-1.56V29.123H94.984V28.075h1.443V26.156Zm6.35,9.99a3.463,3.463,0,0,1-2.622-1.058,3.928,3.928,0,0,1-1.011-2.831v-.249a4.756,4.756,0,0,1,.45-2.106,3.514,3.514,0,0,1,1.26-1.45,3.167,3.167,0,0,1,1.754-.524,2.968,2.968,0,0,1,2.4,1.018,4.408,4.408,0,0,1,.857,2.915v.564h-5.369a2.817,2.817,0,0,0,.685,1.893,2.153,2.153,0,0,0,1.666.721,2.36,2.36,0,0,0,1.216-.293,3.055,3.055,0,0,0,.872-.776l.828.645A3.328,3.328,0,0,1,104.132,36.146Zm-.168-7.1a1.807,1.807,0,0,0-1.377.6,2.9,2.9,0,0,0-.688,1.674h3.97v-.1a2.581,2.581,0,0,0-.557-1.6A1.7,1.7,0,0,0,103.964,29.042Z" transform="translate(-9558 -9054.116)"/>
    <path id="Trazado_262731" data-name="Trazado 262731" d="M14.5,0h209A14.5,14.5,0,0,1,238,14.5v44A14.5,14.5,0,0,1,223.5,73H14.5A14.5,14.5,0,0,1,0,58.5v-44A14.5,14.5,0,0,1,14.5,0Z" transform="translate(-9677 -9000)" fill="#dee9f0"/>
    <path id="Trazado_262732" data-name="Trazado 262732" d="M-75-3.384A3.923,3.923,0,0,1-76.252-.773a4.093,4.093,0,0,1-2.794.919,3.758,3.758,0,0,1-3.029-1.355,5.451,5.451,0,0,1-1.139-3.625V-5.859a6.076,6.076,0,0,1,.531-2.615,3.966,3.966,0,0,1,1.505-1.732,4.191,4.191,0,0,1,2.256-.6,3.853,3.853,0,0,1,2.725.948A3.971,3.971,0,0,1-75-7.236h-1.414a3.064,3.064,0,0,0-.795-1.851,2.4,2.4,0,0,0-1.71-.573,2.516,2.516,0,0,0-2.113,1A4.577,4.577,0,0,0-81.8-5.827v1.034a4.7,4.7,0,0,0,.725,2.764A2.343,2.343,0,0,0-79.047-1a2.706,2.706,0,0,0,1.8-.531,2.947,2.947,0,0,0,.831-1.849Zm1.348-.652A4.681,4.681,0,0,1-73.2-6.13a3.415,3.415,0,0,1,1.274-1.436,3.469,3.469,0,0,1,1.864-.505,3.342,3.342,0,0,1,2.618,1.121,4.311,4.311,0,0,1,1,2.981v.1A4.722,4.722,0,0,1-66.885-1.8,3.365,3.365,0,0,1-68.152-.366a3.509,3.509,0,0,1-1.893.513A3.334,3.334,0,0,1-72.656-.974a4.29,4.29,0,0,1-1-2.966Zm1.362.161a3.39,3.39,0,0,0,.612,2.117,1.957,1.957,0,0,0,1.637.8A1.945,1.945,0,0,0-68.4-1.769,3.707,3.707,0,0,0-67.8-4.036a3.384,3.384,0,0,0-.619-2.113,1.968,1.968,0,0,0-1.644-.809,1.946,1.946,0,0,0-1.619.8A3.68,3.68,0,0,0-72.294-3.875Zm8.833-4.05.044,1a2.888,2.888,0,0,1,2.373-1.143q2.512,0,2.534,2.834V0h-1.355V-5.244a1.824,1.824,0,0,0-.392-1.267,1.57,1.57,0,0,0-1.2-.41,1.956,1.956,0,0,0-1.157.352,2.387,2.387,0,0,0-.776.923V0h-1.355V-7.925ZM-51.852-2.1a1,1,0,0,0-.414-.853,3.983,3.983,0,0,0-1.443-.524,6.822,6.822,0,0,1-1.633-.527,2.324,2.324,0,0,1-.894-.732,1.752,1.752,0,0,1-.289-1.011A2.056,2.056,0,0,1-55.7-7.4a3.218,3.218,0,0,1,2.106-.674,3.311,3.311,0,0,1,2.186.7A2.21,2.21,0,0,1-50.57-5.6h-1.362a1.223,1.223,0,0,0-.472-.959,1.77,1.77,0,0,0-1.19-.4,1.852,1.852,0,0,0-1.157.322,1.014,1.014,0,0,0-.417.842.822.822,0,0,0,.388.74,4.776,4.776,0,0,0,1.4.476,7.308,7.308,0,0,1,1.644.542,2.4,2.4,0,0,1,.934.758,1.864,1.864,0,0,1,.3,1.08,2.028,2.028,0,0,1-.85,1.7,3.564,3.564,0,0,1-2.2.641A3.991,3.991,0,0,1-55.236-.19a2.74,2.74,0,0,1-1.146-.941A2.268,2.268,0,0,1-56.8-2.439h1.355a1.4,1.4,0,0,0,.546,1.08,2.117,2.117,0,0,0,1.344.4,2.185,2.185,0,0,0,1.234-.311A.956.956,0,0,0-51.852-2.1Zm4.958-7.742v1.919h1.479v1.047h-1.479v4.921a1.1,1.1,0,0,0,.2.715A.832.832,0,0,0-46.022-1a3.281,3.281,0,0,0,.645-.088V0a3.951,3.951,0,0,1-1.04.146A1.687,1.687,0,0,1-47.787-.4a2.36,2.36,0,0,1-.461-1.56V-6.877h-1.443V-7.925h1.443V-9.844ZM-38.939,0a2.846,2.846,0,0,1-.19-.835,3.023,3.023,0,0,1-2.256.981,2.8,2.8,0,0,1-1.923-.663A2.145,2.145,0,0,1-44.059-2.2a2.24,2.24,0,0,1,.941-1.923A4.437,4.437,0,0,1-40.47-4.8h1.318v-.623a1.522,1.522,0,0,0-.425-1.132,1.707,1.707,0,0,0-1.252-.421,1.976,1.976,0,0,0-1.216.366,1.079,1.079,0,0,0-.491.886H-43.9a1.87,1.87,0,0,1,.421-1.146,2.874,2.874,0,0,1,1.143-.875,3.844,3.844,0,0,1,1.586-.322,3.133,3.133,0,0,1,2.146.685A2.47,2.47,0,0,1-37.8-5.5v3.647a4.459,4.459,0,0,0,.278,1.736V0Zm-2.249-1.033a2.381,2.381,0,0,0,1.208-.33,1.994,1.994,0,0,0,.828-.857V-3.845h-1.062q-2.49,0-2.49,1.458a1.234,1.234,0,0,0,.425,1A1.633,1.633,0,0,0-41.188-1.033Zm6.8-6.892.044,1a2.888,2.888,0,0,1,2.373-1.143q2.512,0,2.534,2.834V0h-1.355V-5.244a1.824,1.824,0,0,0-.392-1.267,1.57,1.57,0,0,0-1.2-.41,1.956,1.956,0,0,0-1.157.352,2.387,2.387,0,0,0-.776.923V0h-1.355V-7.925Zm8.833-1.919v1.919h1.479v1.047h-1.479v4.921a1.1,1.1,0,0,0,.2.715A.832.832,0,0,0-24.686-1a3.281,3.281,0,0,0,.645-.088V0a3.951,3.951,0,0,1-1.04.146A1.687,1.687,0,0,1-26.451-.4a2.36,2.36,0,0,1-.461-1.56V-6.877h-1.443V-7.925h1.443V-9.844Zm6.35,9.99A3.463,3.463,0,0,1-21.83-.912a3.928,3.928,0,0,1-1.011-2.831v-.249A4.756,4.756,0,0,1-22.39-6.1a3.514,3.514,0,0,1,1.26-1.45,3.167,3.167,0,0,1,1.754-.524,2.968,2.968,0,0,1,2.4,1.018,4.408,4.408,0,0,1,.857,2.915v.564h-5.369A2.817,2.817,0,0,0-20.8-1.681a2.153,2.153,0,0,0,1.666.721,2.36,2.36,0,0,0,1.216-.293,3.055,3.055,0,0,0,.872-.776l.828.645A3.328,3.328,0,0,1-19.208.146Zm-.168-7.1a1.807,1.807,0,0,0-1.377.6,2.9,2.9,0,0,0-.688,1.674h3.97v-.1a2.581,2.581,0,0,0-.557-1.6A1.7,1.7,0,0,0-19.376-6.958ZM-9.364,0h-1.355V-7.925h1.355Zm-1.465-10.027a.809.809,0,0,1,.2-.557.756.756,0,0,1,.6-.227.768.768,0,0,1,.6.227.8.8,0,0,1,.205.557.774.774,0,0,1-.205.549.782.782,0,0,1-.6.22.77.77,0,0,1-.6-.22A.782.782,0,0,1-10.829-10.027Zm4.915,2.1.044,1A2.888,2.888,0,0,1-3.5-8.071q2.512,0,2.534,2.834V0H-2.318V-5.244A1.824,1.824,0,0,0-2.71-6.511a1.57,1.57,0,0,0-1.2-.41,1.956,1.956,0,0,0-1.157.352,2.387,2.387,0,0,0-.776.923V0H-7.2V-7.925ZM5.695-2.1a1,1,0,0,0-.414-.853,3.983,3.983,0,0,0-1.443-.524A6.822,6.822,0,0,1,2.2-4.006a2.324,2.324,0,0,1-.894-.732A1.752,1.752,0,0,1,1.022-5.75,2.056,2.056,0,0,1,1.846-7.4a3.218,3.218,0,0,1,2.106-.674,3.311,3.311,0,0,1,2.186.7A2.21,2.21,0,0,1,6.976-5.6H5.614a1.223,1.223,0,0,0-.472-.959,1.77,1.77,0,0,0-1.19-.4,1.852,1.852,0,0,0-1.157.322,1.014,1.014,0,0,0-.417.842.822.822,0,0,0,.388.74,4.776,4.776,0,0,0,1.4.476,7.308,7.308,0,0,1,1.644.542,2.4,2.4,0,0,1,.934.758,1.864,1.864,0,0,1,.3,1.08,2.028,2.028,0,0,1-.85,1.7A3.564,3.564,0,0,1,4,.146,3.991,3.991,0,0,1,2.311-.19a2.74,2.74,0,0,1-1.146-.941A2.268,2.268,0,0,1,.751-2.439H2.106a1.4,1.4,0,0,0,.546,1.08A2.117,2.117,0,0,0,4-.959a2.185,2.185,0,0,0,1.234-.311A.956.956,0,0,0,5.695-2.1Zm9.814-1.772a4.745,4.745,0,0,1-.828,2.915A2.653,2.653,0,0,1,12.44.146,2.906,2.906,0,0,1,10.17-.769V3.047H8.815V-7.925h1.238l.066.879a2.791,2.791,0,0,1,2.3-1.025,2.7,2.7,0,0,1,2.26,1.077,4.8,4.8,0,0,1,.831,3Zm-1.355-.154a3.5,3.5,0,0,0-.571-2.117,1.84,1.84,0,0,0-1.567-.776A1.992,1.992,0,0,0,10.17-5.83v3.787A2,2,0,0,0,12.03-.959a1.832,1.832,0,0,0,1.549-.773A3.822,3.822,0,0,0,14.154-4.028ZM20.519.146A3.463,3.463,0,0,1,17.9-.912a3.928,3.928,0,0,1-1.011-2.831v-.249a4.756,4.756,0,0,1,.45-2.106,3.514,3.514,0,0,1,1.26-1.45,3.167,3.167,0,0,1,1.754-.524,2.968,2.968,0,0,1,2.4,1.018,4.408,4.408,0,0,1,.857,2.915v.564H18.241a2.817,2.817,0,0,0,.685,1.893,2.153,2.153,0,0,0,1.666.721,2.36,2.36,0,0,0,1.216-.293,3.055,3.055,0,0,0,.872-.776l.828.645A3.328,3.328,0,0,1,20.519.146Zm-.168-7.1a1.807,1.807,0,0,0-1.377.6,2.9,2.9,0,0,0-.688,1.674h3.97v-.1a2.581,2.581,0,0,0-.557-1.6A1.7,1.7,0,0,0,20.35-6.958Zm8.005,6A1.952,1.952,0,0,0,29.623-1.4a1.546,1.546,0,0,0,.6-1.1h1.282a2.457,2.457,0,0,1-.469,1.3,3.087,3.087,0,0,1-1.154.981,3.329,3.329,0,0,1-1.527.366,3.265,3.265,0,0,1-2.574-1.08,4.3,4.3,0,0,1-.956-2.955v-.227a4.771,4.771,0,0,1,.425-2.058,3.236,3.236,0,0,1,1.219-1.4,3.464,3.464,0,0,1,1.879-.5,3.178,3.178,0,0,1,2.216.8A2.853,2.853,0,0,1,31.505-5.2H30.223a1.867,1.867,0,0,0-.582-1.263,1.811,1.811,0,0,0-1.293-.494,1.9,1.9,0,0,0-1.6.743,3.491,3.491,0,0,0-.568,2.15v.256A3.422,3.422,0,0,0,26.744-1.7,1.906,1.906,0,0,0,28.356-.959Zm7.852,0A1.952,1.952,0,0,0,37.474-1.4a1.546,1.546,0,0,0,.6-1.1h1.282a2.457,2.457,0,0,1-.469,1.3,3.087,3.087,0,0,1-1.154.981,3.329,3.329,0,0,1-1.527.366,3.265,3.265,0,0,1-2.574-1.08,4.3,4.3,0,0,1-.956-2.955v-.227A4.771,4.771,0,0,1,33.1-6.174a3.236,3.236,0,0,1,1.219-1.4,3.464,3.464,0,0,1,1.879-.5,3.178,3.178,0,0,1,2.216.8A2.853,2.853,0,0,1,39.357-5.2H38.075a1.867,1.867,0,0,0-.582-1.263A1.811,1.811,0,0,0,36.2-6.958a1.9,1.9,0,0,0-1.6.743,3.491,3.491,0,0,0-.568,2.15v.256A3.422,3.422,0,0,0,34.6-1.7,1.906,1.906,0,0,0,36.207-.959ZM42.352,0H41V-7.925h1.355ZM40.887-10.027a.809.809,0,0,1,.2-.557.756.756,0,0,1,.6-.227.768.768,0,0,1,.6.227.8.8,0,0,1,.205.557.774.774,0,0,1-.205.549.782.782,0,0,1-.6.22.77.77,0,0,1-.6-.22A.782.782,0,0,1,40.887-10.027Zm3.274,5.991a4.681,4.681,0,0,1,.458-2.095,3.415,3.415,0,0,1,1.274-1.436,3.469,3.469,0,0,1,1.864-.505,3.342,3.342,0,0,1,2.618,1.121,4.311,4.311,0,0,1,1,2.981v.1A4.722,4.722,0,0,1,50.933-1.8,3.365,3.365,0,0,1,49.666-.366a3.509,3.509,0,0,1-1.893.513A3.334,3.334,0,0,1,45.161-.974a4.29,4.29,0,0,1-1-2.966Zm1.362.161a3.39,3.39,0,0,0,.612,2.117,1.957,1.957,0,0,0,1.637.8,1.945,1.945,0,0,0,1.641-.809,3.707,3.707,0,0,0,.608-2.267A3.384,3.384,0,0,0,49.4-6.149a1.968,1.968,0,0,0-1.644-.809,1.946,1.946,0,0,0-1.619.8A3.68,3.68,0,0,0,45.524-3.875Zm2.849-7.375h1.641L48.051-9.1l-1.091,0Zm5.984,3.325.044,1a2.888,2.888,0,0,1,2.373-1.143q2.512,0,2.534,2.834V0H57.953V-5.244a1.824,1.824,0,0,0-.392-1.267,1.57,1.57,0,0,0-1.2-.41,1.956,1.956,0,0,0-1.157.352,2.387,2.387,0,0,0-.776.923V0H53.075V-7.925Zm10.378,3.9A4.642,4.642,0,0,1,65.6-6.962a2.733,2.733,0,0,1,2.263-1.11,2.748,2.748,0,0,1,2.2.952V-11.25h1.355V0H70.177l-.066-.85a2.759,2.759,0,0,1-2.263,1A2.707,2.707,0,0,1,65.6-.981a4.7,4.7,0,0,1-.868-2.944Zm1.355.154a3.515,3.515,0,0,0,.557,2.109A1.8,1.8,0,0,0,68.185-1a1.977,1.977,0,0,0,1.882-1.157V-5.8A1.992,1.992,0,0,0,68.2-6.921a1.808,1.808,0,0,0-1.553.769A3.87,3.87,0,0,0,66.09-3.875ZM76.813.146A3.463,3.463,0,0,1,74.191-.912,3.928,3.928,0,0,1,73.18-3.743v-.249A4.756,4.756,0,0,1,73.63-6.1a3.514,3.514,0,0,1,1.26-1.45,3.167,3.167,0,0,1,1.754-.524,2.968,2.968,0,0,1,2.4,1.018A4.408,4.408,0,0,1,79.9-4.138v.564H74.535a2.817,2.817,0,0,0,.685,1.893,2.153,2.153,0,0,0,1.666.721A2.36,2.36,0,0,0,78.1-1.252a3.055,3.055,0,0,0,.872-.776l.828.645A3.328,3.328,0,0,1,76.813.146Zm-.168-7.1a1.807,1.807,0,0,0-1.377.6,2.9,2.9,0,0,0-.688,1.674h3.97v-.1a2.581,2.581,0,0,0-.557-1.6A1.7,1.7,0,0,0,76.644-6.958ZM82.943,0H81.588V-11.25h1.355ZM-75.7,18.146a3.463,3.463,0,0,1-2.622-1.058,3.928,3.928,0,0,1-1.011-2.831v-.249a4.756,4.756,0,0,1,.45-2.106,3.514,3.514,0,0,1,1.26-1.45,3.167,3.167,0,0,1,1.754-.524,2.968,2.968,0,0,1,2.4,1.018,4.408,4.408,0,0,1,.857,2.915v.564h-5.369a2.817,2.817,0,0,0,.685,1.893,2.153,2.153,0,0,0,1.666.721,2.36,2.36,0,0,0,1.216-.293,3.055,3.055,0,0,0,.872-.776l.828.645A3.328,3.328,0,0,1-75.7,18.146Zm-.168-7.1a1.807,1.807,0,0,0-1.377.6,2.9,2.9,0,0,0-.688,1.674h3.97v-.1a2.581,2.581,0,0,0-.557-1.6A1.7,1.7,0,0,0-75.864,11.042Zm6.108-.967.044,1a2.888,2.888,0,0,1,2.373-1.143q2.512,0,2.534,2.834V18H-66.16V12.756a1.824,1.824,0,0,0-.392-1.267,1.57,1.57,0,0,0-1.2-.41,1.956,1.956,0,0,0-1.157.352,2.387,2.387,0,0,0-.776.923V18h-1.355V10.075ZM-62.095,18V11.123h-1.252V10.075h1.252V9.262a2.7,2.7,0,0,1,.681-1.97,2.573,2.573,0,0,1,1.926-.7,3.578,3.578,0,0,1,.93.124l-.073,1.092a3.892,3.892,0,0,0-.732-.066,1.322,1.322,0,0,0-1.018.386,1.564,1.564,0,0,0-.359,1.106v.838h1.692v1.047H-60.74V18Zm8.372-6.709a4.06,4.06,0,0,0-.667-.051A1.786,1.786,0,0,0-56.2,12.375V18h-1.355V10.075h1.318l.022.916a2.11,2.11,0,0,1,1.89-1.062,1.384,1.384,0,0,1,.6.1ZM-51.006,18h-1.355V10.075h1.355ZM-52.471,7.973a.809.809,0,0,1,.2-.557.756.756,0,0,1,.6-.227.768.768,0,0,1,.6.227.8.8,0,0,1,.205.557.774.774,0,0,1-.205.549.782.782,0,0,1-.6.22.77.77,0,0,1-.6-.22A.782.782,0,0,1-52.471,7.973ZM-43.945,18a2.846,2.846,0,0,1-.19-.835,3.023,3.023,0,0,1-2.256.981,2.8,2.8,0,0,1-1.923-.663,2.145,2.145,0,0,1-.751-1.681,2.24,2.24,0,0,1,.941-1.923,4.437,4.437,0,0,1,2.648-.685h1.318v-.623a1.522,1.522,0,0,0-.425-1.132,1.707,1.707,0,0,0-1.252-.421,1.976,1.976,0,0,0-1.216.366,1.079,1.079,0,0,0-.491.886H-48.9a1.87,1.87,0,0,1,.421-1.146,2.874,2.874,0,0,1,1.143-.875,3.844,3.844,0,0,1,1.586-.322,3.133,3.133,0,0,1,2.146.685A2.47,2.47,0,0,1-42.8,12.5v3.647a4.459,4.459,0,0,0,.278,1.736V18Zm-2.249-1.033a2.381,2.381,0,0,0,1.208-.33,1.994,1.994,0,0,0,.828-.857V14.155H-45.22q-2.49,0-2.49,1.458a1.234,1.234,0,0,0,.425,1A1.633,1.633,0,0,0-46.194,16.967Zm6.79-6.892.037.879a2.927,2.927,0,0,1,2.351-1.025A2.266,2.266,0,0,1-34.753,11.2a3,3,0,0,1,1.029-.923,3.039,3.039,0,0,1,1.5-.352q2.607,0,2.651,2.761V18H-30.93V12.771a1.82,1.82,0,0,0-.388-1.271,1.71,1.71,0,0,0-1.3-.421,1.8,1.8,0,0,0-1.252.45,1.827,1.827,0,0,0-.579,1.212V18h-1.362V12.807a1.512,1.512,0,0,0-1.692-1.729,1.813,1.813,0,0,0-1.824,1.135V18h-1.355V10.075ZM-26.06,18h-1.355V10.075h1.355ZM-27.524,7.973a.809.809,0,0,1,.2-.557.756.756,0,0,1,.6-.227.768.768,0,0,1,.6.227.8.8,0,0,1,.205.557.774.774,0,0,1-.205.549.782.782,0,0,1-.6.22.77.77,0,0,1-.6-.22A.782.782,0,0,1-27.524,7.973ZM-20.6,18.146a3.463,3.463,0,0,1-2.622-1.058,3.928,3.928,0,0,1-1.011-2.831v-.249a4.756,4.756,0,0,1,.45-2.106,3.514,3.514,0,0,1,1.26-1.45,3.167,3.167,0,0,1,1.754-.524,2.968,2.968,0,0,1,2.4,1.018,4.408,4.408,0,0,1,.857,2.915v.564h-5.369a2.817,2.817,0,0,0,.685,1.893,2.153,2.153,0,0,0,1.666.721,2.36,2.36,0,0,0,1.216-.293,3.055,3.055,0,0,0,.872-.776l.828.645A3.328,3.328,0,0,1-20.6,18.146Zm-.168-7.1a1.807,1.807,0,0,0-1.377.6,2.9,2.9,0,0,0-.688,1.674h3.97v-.1a2.581,2.581,0,0,0-.557-1.6A1.7,1.7,0,0,0-20.771,11.042Zm6.108-.967.044,1a2.888,2.888,0,0,1,2.373-1.143q2.512,0,2.534,2.834V18h-1.355V12.756a1.824,1.824,0,0,0-.392-1.267,1.57,1.57,0,0,0-1.2-.41,1.956,1.956,0,0,0-1.157.352,2.387,2.387,0,0,0-.776.923V18h-1.355V10.075ZM-5.83,8.156v1.919h1.479v1.047H-5.83v4.921a1.1,1.1,0,0,0,.2.715A.832.832,0,0,0-4.958,17a3.281,3.281,0,0,0,.645-.088V18a3.951,3.951,0,0,1-1.04.146,1.687,1.687,0,0,1-1.37-.549,2.36,2.36,0,0,1-.461-1.56V11.123H-8.628V10.075h1.443V8.156Zm2.556,5.808a4.681,4.681,0,0,1,.458-2.095,3.415,3.415,0,0,1,1.274-1.436A3.469,3.469,0,0,1,.322,9.929a3.342,3.342,0,0,1,2.618,1.121,4.311,4.311,0,0,1,1,2.981v.1A4.722,4.722,0,0,1,3.5,16.2,3.365,3.365,0,0,1,2.23,17.634a3.509,3.509,0,0,1-1.893.513,3.334,3.334,0,0,1-2.611-1.121,4.29,4.29,0,0,1-1-2.966Zm1.362.161A3.39,3.39,0,0,0-1.3,16.242a1.957,1.957,0,0,0,1.637.8,1.945,1.945,0,0,0,1.641-.809,3.707,3.707,0,0,0,.608-2.267,3.384,3.384,0,0,0-.619-2.113,1.968,1.968,0,0,0-1.644-.809,1.946,1.946,0,0,0-1.619.8A3.68,3.68,0,0,0-1.912,14.125Zm17.959,0a4.745,4.745,0,0,1-.828,2.915,2.653,2.653,0,0,1-2.241,1.106,2.906,2.906,0,0,1-2.271-.916v3.816H9.353V10.075h1.238l.066.879a2.791,2.791,0,0,1,2.3-1.025,2.7,2.7,0,0,1,2.26,1.077,4.8,4.8,0,0,1,.831,3Zm-1.355-.154a3.5,3.5,0,0,0-.571-2.117,1.84,1.84,0,0,0-1.567-.776,1.992,1.992,0,0,0-1.846,1.091v3.787a2,2,0,0,0,1.86,1.084,1.832,1.832,0,0,0,1.549-.773A3.822,3.822,0,0,0,14.692,13.972ZM22.661,18a2.846,2.846,0,0,1-.19-.835,3.023,3.023,0,0,1-2.256.981,2.8,2.8,0,0,1-1.923-.663,2.145,2.145,0,0,1-.751-1.681,2.24,2.24,0,0,1,.941-1.923A4.437,4.437,0,0,1,21.13,13.2h1.318v-.623a1.522,1.522,0,0,0-.425-1.132,1.707,1.707,0,0,0-1.252-.421,1.976,1.976,0,0,0-1.216.366,1.079,1.079,0,0,0-.491.886H17.7a1.87,1.87,0,0,1,.421-1.146,2.874,2.874,0,0,1,1.143-.875,3.844,3.844,0,0,1,1.586-.322A3.133,3.133,0,0,1,23,10.614,2.47,2.47,0,0,1,23.8,12.5v3.647a4.459,4.459,0,0,0,.278,1.736V18Zm-2.249-1.033a2.381,2.381,0,0,0,1.208-.33,1.994,1.994,0,0,0,.828-.857V14.155H21.387q-2.49,0-2.49,1.458a1.234,1.234,0,0,0,.425,1A1.633,1.633,0,0,0,20.413,16.967Zm9.346-5.676a4.06,4.06,0,0,0-.667-.051,1.786,1.786,0,0,0-1.809,1.135V18H25.928V10.075h1.318l.022.916a2.11,2.11,0,0,1,1.89-1.062,1.384,1.384,0,0,1,.6.1ZM35.6,18a2.846,2.846,0,0,1-.19-.835,3.023,3.023,0,0,1-2.256.981,2.8,2.8,0,0,1-1.923-.663,2.145,2.145,0,0,1-.751-1.681,2.24,2.24,0,0,1,.941-1.923,4.437,4.437,0,0,1,2.648-.685h1.318v-.623a1.522,1.522,0,0,0-.425-1.132,1.707,1.707,0,0,0-1.252-.421,1.976,1.976,0,0,0-1.216.366,1.079,1.079,0,0,0-.491.886H30.645a1.87,1.87,0,0,1,.421-1.146,2.874,2.874,0,0,1,1.143-.875,3.844,3.844,0,0,1,1.586-.322,3.133,3.133,0,0,1,2.146.685,2.47,2.47,0,0,1,.806,1.886v3.647a4.459,4.459,0,0,0,.278,1.736V18Zm-2.249-1.033a2.381,2.381,0,0,0,1.208-.33,1.994,1.994,0,0,0,.828-.857V14.155H34.329q-2.49,0-2.49,1.458a1.234,1.234,0,0,0,.425,1A1.633,1.633,0,0,0,33.354,16.967Zm15.923-2.842a4.745,4.745,0,0,1-.828,2.915,2.653,2.653,0,0,1-2.241,1.106,2.906,2.906,0,0,1-2.271-.916v3.816H42.583V10.075h1.238l.066.879a2.791,2.791,0,0,1,2.3-1.025,2.7,2.7,0,0,1,2.26,1.077,4.8,4.8,0,0,1,.831,3Zm-1.355-.154a3.5,3.5,0,0,0-.571-2.117,1.84,1.84,0,0,0-1.567-.776,1.992,1.992,0,0,0-1.846,1.091v3.787a2,2,0,0,0,1.86,1.084,1.832,1.832,0,0,0,1.549-.773A3.822,3.822,0,0,0,47.922,13.972Zm2.717-.007A4.681,4.681,0,0,1,51.1,11.87a3.415,3.415,0,0,1,1.274-1.436,3.469,3.469,0,0,1,1.864-.505,3.342,3.342,0,0,1,2.618,1.121,4.311,4.311,0,0,1,1,2.981v.1a4.722,4.722,0,0,1-.443,2.076,3.365,3.365,0,0,1-1.267,1.432,3.509,3.509,0,0,1-1.893.513,3.334,3.334,0,0,1-2.611-1.121,4.29,4.29,0,0,1-1-2.966ZM52,14.125a3.39,3.39,0,0,0,.612,2.117,2.072,2.072,0,0,0,3.278-.011,3.707,3.707,0,0,0,.608-2.267,3.384,3.384,0,0,0-.619-2.113,1.968,1.968,0,0,0-1.644-.809,1.946,1.946,0,0,0-1.619.8A3.68,3.68,0,0,0,52,14.125Zm7.222-.154a4.642,4.642,0,0,1,.864-2.933,2.941,2.941,0,0,1,4.468-.157V6.75h1.355V18H64.666l-.066-.85a2.759,2.759,0,0,1-2.263,1,2.707,2.707,0,0,1-2.245-1.128,4.7,4.7,0,0,1-.868-2.944Zm1.355.154a3.515,3.515,0,0,0,.557,2.109A1.8,1.8,0,0,0,62.673,17a1.977,1.977,0,0,0,1.882-1.157V12.2a1.992,1.992,0,0,0-1.868-1.121,1.808,1.808,0,0,0-1.553.769A3.87,3.87,0,0,0,60.579,14.125ZM71.3,18.146a3.463,3.463,0,0,1-2.622-1.058,3.928,3.928,0,0,1-1.011-2.831v-.249a4.756,4.756,0,0,1,.45-2.106,3.514,3.514,0,0,1,1.26-1.45,3.167,3.167,0,0,1,1.754-.524,2.968,2.968,0,0,1,2.4,1.018,4.408,4.408,0,0,1,.857,2.915v.564H69.023a2.817,2.817,0,0,0,.685,1.893,2.153,2.153,0,0,0,1.666.721,2.36,2.36,0,0,0,1.216-.293,3.055,3.055,0,0,0,.872-.776l.828.645A3.328,3.328,0,0,1,71.3,18.146Zm-.168-7.1a1.807,1.807,0,0,0-1.377.6,2.9,2.9,0,0,0-.688,1.674h3.97v-.1a2.581,2.581,0,0,0-.557-1.6A1.7,1.7,0,0,0,71.133,11.042Zm8.657.249a4.06,4.06,0,0,0-.667-.051,1.786,1.786,0,0,0-1.809,1.135V18H75.959V10.075h1.318l.022.916a2.11,2.11,0,0,1,1.89-1.062,1.384,1.384,0,0,1,.6.1ZM-102.77,36.146a3.463,3.463,0,0,1-2.622-1.058,3.928,3.928,0,0,1-1.011-2.831v-.249a4.756,4.756,0,0,1,.45-2.106,3.514,3.514,0,0,1,1.26-1.45,3.167,3.167,0,0,1,1.754-.524,2.968,2.968,0,0,1,2.4,1.018,4.408,4.408,0,0,1,.857,2.915v.564h-5.369a2.817,2.817,0,0,0,.685,1.893,2.153,2.153,0,0,0,1.666.721,2.36,2.36,0,0,0,1.216-.293,3.055,3.055,0,0,0,.872-.776l.828.645A3.328,3.328,0,0,1-102.77,36.146Zm-.168-7.1a1.807,1.807,0,0,0-1.377.6A2.9,2.9,0,0,0-105,31.313h3.97v-.1a2.581,2.581,0,0,0-.557-1.6A1.7,1.7,0,0,0-102.938,29.042Zm6.3,6.958h-1.355V24.75h1.355Zm7.061,0a2.846,2.846,0,0,1-.19-.835,3.023,3.023,0,0,1-2.256.981,2.8,2.8,0,0,1-1.923-.663A2.145,2.145,0,0,1-94.7,33.8a2.24,2.24,0,0,1,.941-1.923A4.437,4.437,0,0,1-91.11,31.2h1.318v-.623a1.522,1.522,0,0,0-.425-1.132,1.707,1.707,0,0,0-1.252-.421,1.976,1.976,0,0,0-1.216.366,1.079,1.079,0,0,0-.491.886h-1.362a1.87,1.87,0,0,1,.421-1.146,2.874,2.874,0,0,1,1.143-.875,3.844,3.844,0,0,1,1.586-.322,3.133,3.133,0,0,1,2.146.685,2.47,2.47,0,0,1,.806,1.886v3.647a4.459,4.459,0,0,0,.278,1.736V36Zm-2.249-1.033a2.381,2.381,0,0,0,1.208-.33,1.994,1.994,0,0,0,.828-.857V32.155h-1.062q-2.49,0-2.49,1.458a1.234,1.234,0,0,0,.425,1A1.633,1.633,0,0,0-91.827,34.967ZM-79.6,32.125a4.712,4.712,0,0,1-.835,2.919,2.668,2.668,0,0,1-2.241,1.1A2.763,2.763,0,0,1-85,35.084l-.066.916h-1.245V24.75h1.355v4.2a2.747,2.747,0,0,1,2.263-1.018,2.684,2.684,0,0,1,2.267,1.091,4.853,4.853,0,0,1,.824,2.988Zm-1.355-.154a3.662,3.662,0,0,0-.535-2.139,1.77,1.77,0,0,0-1.538-.754,1.989,1.989,0,0,0-1.926,1.245v3.428A2.045,2.045,0,0,0-83.016,35a1.76,1.76,0,0,0,1.516-.754A3.894,3.894,0,0,0-80.958,31.972Zm2.7-.007A4.681,4.681,0,0,1-77.8,29.87a3.415,3.415,0,0,1,1.274-1.436,3.469,3.469,0,0,1,1.864-.505,3.342,3.342,0,0,1,2.618,1.121,4.311,4.311,0,0,1,1,2.981v.1a4.722,4.722,0,0,1-.443,2.076,3.365,3.365,0,0,1-1.267,1.432,3.509,3.509,0,0,1-1.893.513,3.334,3.334,0,0,1-2.611-1.121,4.29,4.29,0,0,1-1-2.966Zm1.362.161a3.39,3.39,0,0,0,.612,2.117,1.957,1.957,0,0,0,1.637.8A1.945,1.945,0,0,0-73,34.231a3.707,3.707,0,0,0,.608-2.267,3.384,3.384,0,0,0-.619-2.113,1.968,1.968,0,0,0-1.644-.809,1.946,1.946,0,0,0-1.619.8A3.68,3.68,0,0,0-76.893,32.125Zm11.382-2.834a4.06,4.06,0,0,0-.667-.051,1.786,1.786,0,0,0-1.809,1.135V36h-1.355V28.075h1.318l.022.916a2.11,2.11,0,0,1,1.89-1.062,1.384,1.384,0,0,1,.6.1ZM-59.667,36a2.846,2.846,0,0,1-.19-.835,3.023,3.023,0,0,1-2.256.981,2.8,2.8,0,0,1-1.923-.663,2.145,2.145,0,0,1-.751-1.681,2.24,2.24,0,0,1,.941-1.923A4.437,4.437,0,0,1-61.2,31.2h1.318v-.623a1.522,1.522,0,0,0-.425-1.132,1.707,1.707,0,0,0-1.252-.421,1.976,1.976,0,0,0-1.216.366,1.079,1.079,0,0,0-.491.886h-1.362a1.87,1.87,0,0,1,.421-1.146,2.874,2.874,0,0,1,1.143-.875,3.844,3.844,0,0,1,1.586-.322,3.133,3.133,0,0,1,2.146.685,2.47,2.47,0,0,1,.806,1.886v3.647a4.459,4.459,0,0,0,.278,1.736V36Zm-2.249-1.033a2.381,2.381,0,0,0,1.208-.33,1.994,1.994,0,0,0,.828-.857V32.155h-1.062q-2.49,0-2.49,1.458a1.234,1.234,0,0,0,.425,1A1.633,1.633,0,0,0-61.915,34.967Zm9.346-5.676a4.06,4.06,0,0,0-.667-.051,1.786,1.786,0,0,0-1.809,1.135V36H-56.4V28.075h1.318l.022.916a2.11,2.11,0,0,1,1.89-1.062,1.384,1.384,0,0,1,.6.1Zm9.851,5.925a2.878,2.878,0,0,1-2.322.93,2.464,2.464,0,0,1-1.93-.736,3.186,3.186,0,0,1-.67-2.179V28.075h1.355v5.12q0,1.8,1.465,1.8a2.028,2.028,0,0,0,2.065-1.157V28.075H-41.4V36h-1.289Zm4.658-7.141.044,1a2.888,2.888,0,0,1,2.373-1.143q2.512,0,2.534,2.834V36h-1.355V30.756a1.824,1.824,0,0,0-.392-1.267,1.57,1.57,0,0,0-1.2-.41,1.956,1.956,0,0,0-1.157.352,2.387,2.387,0,0,0-.776.923V36h-1.355V28.075Zm10.378,3.9a4.642,4.642,0,0,1,.864-2.933,2.733,2.733,0,0,1,2.263-1.11,2.748,2.748,0,0,1,2.2.952V24.75h1.355V36H-22.24l-.066-.85a2.759,2.759,0,0,1-2.263,1,2.707,2.707,0,0,1-2.245-1.128,4.7,4.7,0,0,1-.868-2.944Zm1.355.154a3.515,3.515,0,0,0,.557,2.109A1.8,1.8,0,0,0-24.232,35a1.977,1.977,0,0,0,1.882-1.157V30.2a1.992,1.992,0,0,0-1.868-1.121,1.808,1.808,0,0,0-1.553.769A3.87,3.87,0,0,0-26.327,32.125ZM-15.6,36.146a3.463,3.463,0,0,1-2.622-1.058,3.928,3.928,0,0,1-1.011-2.831v-.249a4.756,4.756,0,0,1,.45-2.106,3.514,3.514,0,0,1,1.26-1.45,3.167,3.167,0,0,1,1.754-.524,2.968,2.968,0,0,1,2.4,1.018,4.408,4.408,0,0,1,.857,2.915v.564h-5.369a2.817,2.817,0,0,0,.685,1.893,2.153,2.153,0,0,0,1.666.721,2.36,2.36,0,0,0,1.216-.293,3.055,3.055,0,0,0,.872-.776l.828.645A3.328,3.328,0,0,1-15.6,36.146Zm-.168-7.1a1.807,1.807,0,0,0-1.377.6,2.9,2.9,0,0,0-.688,1.674h3.97v-.1a2.581,2.581,0,0,0-.557-1.6A1.7,1.7,0,0,0-15.773,29.042ZM-6.332,33.9a1,1,0,0,0-.414-.853,3.983,3.983,0,0,0-1.443-.524,6.822,6.822,0,0,1-1.633-.527,2.324,2.324,0,0,1-.894-.732A1.752,1.752,0,0,1-11,30.25a2.056,2.056,0,0,1,.824-1.648,3.218,3.218,0,0,1,2.106-.674,3.311,3.311,0,0,1,2.186.7A2.21,2.21,0,0,1-5.05,30.4H-6.412a1.223,1.223,0,0,0-.472-.959,1.77,1.77,0,0,0-1.19-.4,1.852,1.852,0,0,0-1.157.322,1.014,1.014,0,0,0-.417.842.822.822,0,0,0,.388.74,4.776,4.776,0,0,0,1.4.476,7.308,7.308,0,0,1,1.644.542,2.4,2.4,0,0,1,.934.758,1.864,1.864,0,0,1,.3,1.08,2.028,2.028,0,0,1-.85,1.7,3.564,3.564,0,0,1-2.2.641,3.991,3.991,0,0,1-1.685-.337,2.74,2.74,0,0,1-1.146-.941,2.268,2.268,0,0,1-.414-1.307h1.355a1.4,1.4,0,0,0,.546,1.08,2.117,2.117,0,0,0,1.344.4A2.185,2.185,0,0,0-6.8,34.729.956.956,0,0,0-6.332,33.9Zm4.395-5.823.037.879A2.927,2.927,0,0,1,.45,27.929,2.266,2.266,0,0,1,2.714,29.2a3,3,0,0,1,1.029-.923,3.039,3.039,0,0,1,1.5-.352q2.607,0,2.651,2.761V36H6.537V30.771A1.82,1.82,0,0,0,6.149,29.5a1.71,1.71,0,0,0-1.3-.421,1.8,1.8,0,0,0-1.252.45,1.827,1.827,0,0,0-.579,1.212V36H1.652V30.807A1.512,1.512,0,0,0-.04,29.079a1.813,1.813,0,0,0-1.824,1.135V36H-3.219V28.075ZM9.576,31.964a4.681,4.681,0,0,1,.458-2.095,3.415,3.415,0,0,1,1.274-1.436,3.469,3.469,0,0,1,1.864-.505,3.342,3.342,0,0,1,2.618,1.121,4.311,4.311,0,0,1,1,2.981v.1a4.722,4.722,0,0,1-.443,2.076,3.365,3.365,0,0,1-1.267,1.432,3.509,3.509,0,0,1-1.893.513,3.334,3.334,0,0,1-2.611-1.121,4.29,4.29,0,0,1-1-2.966Zm1.362.161a3.39,3.39,0,0,0,.612,2.117,2.072,2.072,0,0,0,3.278-.011,3.707,3.707,0,0,0,.608-2.267,3.384,3.384,0,0,0-.619-2.113,1.968,1.968,0,0,0-1.644-.809,1.946,1.946,0,0,0-1.619.8A3.68,3.68,0,0,0,10.939,32.125ZM19.962,36H18.607V24.75h1.355ZM21.8,31.972a4.642,4.642,0,0,1,.864-2.933,2.941,2.941,0,0,1,4.468-.157V24.75h1.355V36H27.242l-.066-.85a2.759,2.759,0,0,1-2.263,1,2.707,2.707,0,0,1-2.245-1.128,4.7,4.7,0,0,1-.868-2.944Zm1.355.154a3.515,3.515,0,0,0,.557,2.109A1.8,1.8,0,0,0,25.25,35a1.977,1.977,0,0,0,1.882-1.157V30.2a1.992,1.992,0,0,0-1.868-1.121,1.808,1.808,0,0,0-1.553.769A3.87,3.87,0,0,0,23.156,32.125Zm10.723,4.021a3.463,3.463,0,0,1-2.622-1.058,3.928,3.928,0,0,1-1.011-2.831v-.249A4.756,4.756,0,0,1,30.7,29.9a3.514,3.514,0,0,1,1.26-1.45,3.167,3.167,0,0,1,1.754-.524,2.968,2.968,0,0,1,2.4,1.018,4.408,4.408,0,0,1,.857,2.915v.564H31.6a2.817,2.817,0,0,0,.685,1.893,2.153,2.153,0,0,0,1.666.721,2.36,2.36,0,0,0,1.216-.293,3.055,3.055,0,0,0,.872-.776l.828.645A3.328,3.328,0,0,1,33.878,36.146Zm-.168-7.1a1.807,1.807,0,0,0-1.377.6,2.9,2.9,0,0,0-.688,1.674h3.97v-.1a2.581,2.581,0,0,0-.557-1.6A1.7,1.7,0,0,0,33.71,29.042ZM47.142,36a2.846,2.846,0,0,1-.19-.835,3.023,3.023,0,0,1-2.256.981,2.8,2.8,0,0,1-1.923-.663,2.145,2.145,0,0,1-.751-1.681,2.24,2.24,0,0,1,.941-1.923,4.437,4.437,0,0,1,2.648-.685H46.93v-.623a1.522,1.522,0,0,0-.425-1.132,1.707,1.707,0,0,0-1.252-.421,1.976,1.976,0,0,0-1.216.366,1.079,1.079,0,0,0-.491.886H42.184a1.87,1.87,0,0,1,.421-1.146,2.874,2.874,0,0,1,1.143-.875,3.844,3.844,0,0,1,1.586-.322,3.133,3.133,0,0,1,2.146.685,2.47,2.47,0,0,1,.806,1.886v3.647a4.459,4.459,0,0,0,.278,1.736V36Zm-2.249-1.033a2.381,2.381,0,0,0,1.208-.33,1.994,1.994,0,0,0,.828-.857V32.155H45.868q-2.49,0-2.49,1.458a1.234,1.234,0,0,0,.425,1A1.633,1.633,0,0,0,44.894,34.967Zm5.186-3a4.642,4.642,0,0,1,.864-2.933,2.941,2.941,0,0,1,4.468-.157V24.75h1.355V36H55.521l-.066-.85a2.759,2.759,0,0,1-2.263,1,2.707,2.707,0,0,1-2.245-1.128,4.7,4.7,0,0,1-.868-2.944Zm1.355.154a3.515,3.515,0,0,0,.557,2.109A1.8,1.8,0,0,0,53.529,35a1.977,1.977,0,0,0,1.882-1.157V30.2a1.992,1.992,0,0,0-1.868-1.121,1.808,1.808,0,0,0-1.553.769A3.87,3.87,0,0,0,51.434,32.125Zm10.723,4.021a3.463,3.463,0,0,1-2.622-1.058,3.928,3.928,0,0,1-1.011-2.831v-.249a4.756,4.756,0,0,1,.45-2.106,3.514,3.514,0,0,1,1.26-1.45,3.167,3.167,0,0,1,1.754-.524,2.968,2.968,0,0,1,2.4,1.018,4.408,4.408,0,0,1,.857,2.915v.564H59.879a2.817,2.817,0,0,0,.685,1.893,2.153,2.153,0,0,0,1.666.721,2.36,2.36,0,0,0,1.216-.293,3.055,3.055,0,0,0,.872-.776l.828.645A3.328,3.328,0,0,1,62.157,36.146Zm-.168-7.1a1.807,1.807,0,0,0-1.377.6,2.9,2.9,0,0,0-.688,1.674h3.97v-.1a2.581,2.581,0,0,0-.557-1.6A1.7,1.7,0,0,0,61.989,29.042Zm8.005,6a1.952,1.952,0,0,0,1.267-.439,1.546,1.546,0,0,0,.6-1.1h1.282a2.457,2.457,0,0,1-.469,1.3,3.087,3.087,0,0,1-1.154.981,3.329,3.329,0,0,1-1.527.366,3.265,3.265,0,0,1-2.574-1.08,4.3,4.3,0,0,1-.956-2.955v-.227a4.771,4.771,0,0,1,.425-2.058,3.236,3.236,0,0,1,1.219-1.4,3.464,3.464,0,0,1,1.879-.5,3.178,3.178,0,0,1,2.216.8,2.853,2.853,0,0,1,.941,2.073H71.862a1.867,1.867,0,0,0-.582-1.263,1.811,1.811,0,0,0-1.293-.494,1.9,1.9,0,0,0-1.6.743,3.491,3.491,0,0,0-.568,2.15v.256a3.422,3.422,0,0,0,.564,2.109A1.906,1.906,0,0,0,69.994,35.041Zm9.565.176a2.878,2.878,0,0,1-2.322.93,2.464,2.464,0,0,1-1.93-.736,3.186,3.186,0,0,1-.67-2.179V28.075h1.355v5.12q0,1.8,1.465,1.8a2.028,2.028,0,0,0,2.065-1.157V28.075h1.355V36H79.589ZM87.828,36a2.846,2.846,0,0,1-.19-.835,3.023,3.023,0,0,1-2.256.981,2.8,2.8,0,0,1-1.923-.663,2.145,2.145,0,0,1-.751-1.681,2.24,2.24,0,0,1,.941-1.923A4.437,4.437,0,0,1,86.3,31.2h1.318v-.623a1.522,1.522,0,0,0-.425-1.132,1.707,1.707,0,0,0-1.252-.421,1.976,1.976,0,0,0-1.216.366,1.079,1.079,0,0,0-.491.886H82.87a1.87,1.87,0,0,1,.421-1.146,2.874,2.874,0,0,1,1.143-.875,3.844,3.844,0,0,1,1.586-.322,3.133,3.133,0,0,1,2.146.685,2.47,2.47,0,0,1,.806,1.886v3.647a4.459,4.459,0,0,0,.278,1.736V36ZM85.58,34.967a2.381,2.381,0,0,0,1.208-.33,1.994,1.994,0,0,0,.828-.857V32.155H86.554q-2.49,0-2.49,1.458a1.234,1.234,0,0,0,.425,1A1.633,1.633,0,0,0,85.58,34.967Zm5.186-3a4.642,4.642,0,0,1,.864-2.933,2.941,2.941,0,0,1,4.468-.157V24.75h1.355V36H96.207l-.066-.85a2.759,2.759,0,0,1-2.263,1,2.707,2.707,0,0,1-2.245-1.128,4.7,4.7,0,0,1-.868-2.944Zm1.355.154a3.515,3.515,0,0,0,.557,2.109A1.8,1.8,0,0,0,94.215,35,1.977,1.977,0,0,0,96.1,33.839V30.2a1.992,1.992,0,0,0-1.868-1.121,1.808,1.808,0,0,0-1.553.769A3.87,3.87,0,0,0,92.12,32.125Zm7.075-.161a4.681,4.681,0,0,1,.458-2.095,3.415,3.415,0,0,1,1.274-1.436,3.469,3.469,0,0,1,1.864-.505,3.342,3.342,0,0,1,2.618,1.121,4.311,4.311,0,0,1,1,2.981v.1a4.722,4.722,0,0,1-.443,2.076,3.365,3.365,0,0,1-1.267,1.432,3.509,3.509,0,0,1-1.893.513,3.334,3.334,0,0,1-2.611-1.121,4.29,4.29,0,0,1-1-2.966Zm1.362.161a3.39,3.39,0,0,0,.612,2.117,2.072,2.072,0,0,0,3.278-.011,3.707,3.707,0,0,0,.608-2.267,3.384,3.384,0,0,0-.619-2.113,1.968,1.968,0,0,0-1.644-.809,1.946,1.946,0,0,0-1.619.8A3.68,3.68,0,0,0,100.558,32.125Z" transform="translate(-9558 -8977.116)"/>
  </g>
</svg>
