<svg xmlns="http://www.w3.org/2000/svg" xmlns:xlink="http://www.w3.org/1999/xlink" width="820" height="390" viewBox="0 0 820 390">
  <defs>
    <clipPath id="clip-path">
      <rect id="Rectangle_296534" data-name="Rectangle 296534" width="820" height="390" rx="15" transform="translate(187.886)" fill="#c0f748"/>
    </clipPath>
    <filter id="Path_264054" x="-403.448" y="173.439" width="593.642" height="472.611" filterUnits="userSpaceOnUse">
      <feOffset dy="-12" input="SourceAlpha"/>
      <feGaussianBlur stdDeviation="5" result="blur"/>
      <feFlood flood-color="#007a64" flood-opacity="0.071"/>
      <feComposite operator="in" in2="blur"/>
      <feComposite in="SourceGraphic"/>
    </filter>
    <filter id="Path_264055" x="266.137" y="-143.981" width="621.325" height="509.109" filterUnits="userSpaceOnUse">
      <feOffset dy="12" input="SourceAlpha"/>
      <feGaussianBlur stdDeviation="5" result="blur-2"/>
      <feFlood flood-color="#007a64" flood-opacity="0.09"/>
      <feComposite operator="in" in2="blur-2"/>
      <feComposite in="SourceGraphic"/>
    </filter>
    <filter id="Path_264056" x="422.706" y="-305.641" width="621.326" height="509.109" filterUnits="userSpaceOnUse">
      <feOffset dy="12" input="SourceAlpha"/>
      <feGaussianBlur stdDeviation="5" result="blur-3"/>
      <feFlood flood-color="#007a64" flood-opacity="0.102"/>
      <feComposite operator="in" in2="blur-3"/>
      <feComposite in="SourceGraphic"/>
    </filter>
    <linearGradient id="linear-gradient" x1="0.711" y1="0.39" x2="-0.068" y2="1.64" gradientUnits="objectBoundingBox">
      <stop offset="0" stop-color="#c0f748"/>
      <stop offset="1" stop-color="#81af1d"/>
    </linearGradient>
    <linearGradient id="linear-gradient-2" x1="0.647" y1="0.361" x2="0.595" y2="-0.066" gradientUnits="objectBoundingBox">
      <stop offset="0" stop-color="#81af1d" stop-opacity="0"/>
      <stop offset="1" stop-color="#81af1d"/>
    </linearGradient>
  </defs>
  <g id="bg-lista" transform="translate(-600 -4284)">
    <rect id="Rectangle_296533" data-name="Rectangle 296533" width="820" height="390" rx="15" transform="translate(600 4284)" fill="#e6fffb" opacity="0.5"/>
    <g id="Mask_Group_163" data-name="Mask Group 163" transform="translate(412.114 4284)" clip-path="url(#clip-path)">
      <g id="Group_223828" data-name="Group 223828" transform="translate(-200.562 -302.641)">
        <g transform="matrix(1, 0, 0, 1, 388.45, 302.64)" filter="url(#Path_264054)">
          <path id="Path_264054-2" data-name="Path 264054" d="M.21,308.938c1.94-24.866,17.149-47.931,37.527-61.824,18.916-12.893,42.025-18.99,59.186-34.256,30.456-27.088,25.392-68.047,37.594-103.779,12.213-35.76,46.532-61.8,83.811-61.09,27.479.523,53.508,14.388,80.987,14.866a85.269,85.269,0,0,0,52.469-17.169c18.984-14.337,32.3-33.721,55.652-41.283,25.666-8.31,54.719-4.624,78.057,9.074,31.758,18.644,52.764,53.408,60.449,90.148,7.261,34.7,2.829,73.275-18.152,101.407-28.424,38.118-82.927,53.2-101.147,97.44-10.443,25.357-6.292,55.276-17.308,80.375-11.6,26.418-40.6,43.531-68.668,40.509-29.98-3.227-53.892-25.955-79.825-41.794A189.61,189.61,0,0,0,142.006,354.95c-30.868,3.421-60.966,20.618-92.4,18.824C21.7,372.185.872,344.409.03,316.332a68.407,68.407,0,0,1,.179-7.393" transform="matrix(-1, -0.03, 0.03, -1, 160.41, 643.05)" fill="#e6fffb" opacity="0.5"/>
        </g>
        <g transform="matrix(1, 0, 0, 1, 388.45, 302.64)" filter="url(#Path_264055)">
          <path id="Path_264055-2" data-name="Path 264055" d="M.231,113.381C2.266,138.248,17.567,161.366,38,175.335c18.971,12.964,42.109,19.148,59.333,34.478,30.567,27.2,25.657,68.129,38,103.9,12.352,35.8,46.779,61.966,84.066,61.4,27.484-.416,53.468-14.176,80.953-14.546A85.887,85.887,0,0,1,352.9,377.935c19.043,14.407,32.435,33.838,55.824,41.49,25.7,8.408,54.752,4.837,78.044-8.767,31.7-18.516,52.576-53.188,60.123-89.889,7.131-34.667,2.552-73.244-18.542-101.451C499.774,181.1,445.2,165.809,426.806,121.508c-10.542-25.391-6.5-55.286-17.618-80.421C397.489,14.63,368.409-2.592,340.348.32c-29.976,3.109-53.809,25.738-79.688,41.472A188.853,188.853,0,0,1,141.891,67.935c-30.889-3.541-61.061-20.85-92.5-19.18C21.49,50.235.758,77.922.023,105.989a68.394,68.394,0,0,0,.208,7.392" transform="matrix(0.99, 0.1, -0.1, 0.99, 325.45, -140.98)" fill="#e6fffb" opacity="0.5"/>
        </g>
        <g transform="matrix(1, 0, 0, 1, 388.45, 302.64)" filter="url(#Path_264056)">
          <path id="Path_264056-2" data-name="Path 264056" d="M.231,310.558C2.266,285.691,17.567,262.573,38,248.6c18.971-12.964,42.109-19.149,59.333-34.478,30.567-27.2,25.657-68.129,38-103.9,12.352-35.8,46.779-61.966,84.066-61.4,27.484.416,53.468,14.176,80.953,14.546A85.887,85.887,0,0,0,352.9,46c19.043-14.407,32.435-33.838,55.824-41.49,25.7-8.408,54.752-4.837,78.045,8.768,31.7,18.516,52.576,53.188,60.123,89.889,7.131,34.667,2.552,73.244-18.542,101.451-28.576,38.219-83.152,53.508-101.545,97.809-10.542,25.391-6.5,55.286-17.618,80.421-11.7,26.457-40.779,43.678-68.841,40.767-29.976-3.109-53.809-25.738-79.688-41.472A188.852,188.852,0,0,0,141.891,356c-30.889,3.541-61.061,20.85-92.5,19.18C21.49,373.7.758,346.016.023,317.95a68.393,68.393,0,0,1,.208-7.392" transform="matrix(-0.99, 0.1, -0.1, -0.99, 1029.03, 118.98)" fill="#e6fffb" opacity="0.5"/>
        </g>
      </g>
      <g id="Group_223829" data-name="Group 223829" transform="translate(909.233 -21.295)">
        <path id="Path_264057" data-name="Path 264057" d="M87.414,134.921a302.832,302.832,0,0,0,34.445-20.707,243.653,243.653,0,0,0,24.376-19.348c18.555-16.648,35.093-35.278,53.578-52A231.734,231.734,0,0,1,226.9,21.525,134.945,134.945,0,0,1,254.663,7.369,118.772,118.772,0,0,1,290.78.107,124.406,124.406,0,0,1,331.7,5.385V165.22H0a334.269,334.269,0,0,0,87.414-30.3" transform="translate(0 346.537) rotate(-90)" fill="url(#linear-gradient)"/>
        <path id="Path_264058" data-name="Path 264058" d="M92.485,66.016a366.24,366.24,0,0,0,38.761-9.171,282.4,282.4,0,0,0,28.671-10.14c22.332-9.211,43.238-20.37,65.52-29.652A269.067,269.067,0,0,1,257.256,5.908,165.624,165.624,0,0,1,287.826.486a147.516,147.516,0,0,1,36.821,1.62A141.58,141.58,0,0,1,362.8,14.444L320.552,138.725,0,71.987a416.847,416.847,0,0,0,92.485-5.971" transform="translate(55.43 362.798) rotate(-90)" fill="url(#linear-gradient-2)"/>
      </g>
    </g>
  </g>
</svg>
