<svg xmlns="http://www.w3.org/2000/svg" width="241.916" height="241.99" viewBox="0 0 241.916 241.99">
  <g id="Grupo_153130" data-name="Grupo 153130" transform="translate(-766 4334.666)">
    <g id="Grupo_152843" data-name="Grupo 152843" transform="translate(-592.072 -6160.414)">
      <path id="Trazado_205823" data-name="Trazado 205823" d="M1477.2,1917.583l69.441,1.225-7.11,82.388-6.326,6.737-32.1,8.74-31.154-10.965,3.97-82.421Z" transform="translate(30.623 25.137)" fill="#5000c7"/>
      <path id="Trazado_205824" data-name="Trazado 205824" d="M1366.526,1985.231c-3.237-7.26-5.04-14.931-6.59-22.685-.759-3.8-.687-7.725-1.864-11.449V1931.25c1.108-2.552.908-5.332,1.314-8a119.828,119.828,0,0,1,30.561-63.857,96.563,96.563,0,0,1,14.385-13.211q-.006,16.521-.011,33.043-2.942.008-5.883.015c-5,.014-7.281,2.309-7.284,7.353q-.013,13.766,0,27.533c-3.6.033-7.2.019-10.8.116a5.775,5.775,0,0,0-5.547,4.263,6.015,6.015,0,0,0,2.408,6.6c1.513,1.071,3.266.912,4.966,1.051l-.164,15.026c-2.516,0-5.05.182-7.544-.052-4.892-.458-8,3.305-7.931,8.009C1366.7,1961.169,1366.551,1973.2,1366.526,1985.231Z" transform="translate(0 5.594)" fill="#f8bc39"/>
      <path id="Trazado_205825" data-name="Trazado 205825" d="M1457.363,2020.305c-2.862-1-5.9-.9-8.847-1.41-17.837-3.091-34.4-9.3-49.219-19.862l136.935,0a112.688,112.688,0,0,1-34.41,16.488,99.724,99.724,0,0,1-23.922,4.317c-.335.015-.6.1-.69.465Z" transform="translate(11.284 47.432)" fill="#28283d"/>
      <path id="Trazado_205826" data-name="Trazado 205826" d="M1498.45,1837.33c.564-3.121.783-3.312,3.969-3.316q7.3-.009,14.6,0c2.949.009,3.516.6,3.527,3.623.01,2.667.053,5.337-.02,8-.033,1.208.333,1.6,1.579,1.638,2.947.091,3.244.5,3.266,3.556.014,2.039.048,4.079.074,6.118-.031,2.282-.083,4.564-.089,6.846-.014,5.081,0,5.081,4.992,5.134,3.923.041,5.375,1.507,5.376,5.453,0,12.756.053,25.511-.05,38.266-.018,2.13.6,2.719,2.66,2.6,2.983-.17,5.983-.044,8.975-.043,5.257.005,7.8,2.54,7.8,7.788q.017,32.243.028,64.486c-2.3,7.225-5.891,13.833-9.8,20.275a108.978,108.978,0,0,1-12.054,16.313c0-26.9,0-53.212,0-79.525,3.221-.136,5.338-1.8,5.272-4.155s-2.214-3.917-5.389-3.927q-12.042-.042-24.084-.094.048-31.89.071-63.781c0-2.727-1.6-4.143-4.341-4.184-4.014-.059-8.028-.07-12.043-.1q-.01-8.6-.018-17.2c0-3.239.535-3.882,3.789-3.882,1.648,0,1.973-.68,1.927-2.12C1498.389,1842.515,1498.449,1839.921,1498.45,1837.33Z" transform="translate(36.865 2.261)" fill="#e2872c"/>
      <path id="Trazado_205827" data-name="Trazado 205827" d="M1486.11,1932.645q-.034,32.012-.066,64.022c-.005,7.245.027,14.49.041,21.734l-13.583.1c-.744-1.284.1-2.81-.622-4.1.019-4.849.018-9.7.069-14.548.014-1.326-.378-2.056-1.856-2.034-4.927.071-9.854.081-14.779.116-1.722-.037-3.447-.014-5.164-.126-1.616-.106-2.278.532-2.235,2.163.069,2.741.08,5.486,0,8.226-.1,3.433.36,6.882-.275,10.3-2.131-.153-4.281.241-6.4-.227q-.023-14.432-.046-28.865c1.478-.028,2.955-.045,4.431-.085,2.443-.069,3.044-.713,3.082-3.272.018-2.36-.024-4.722.071-7.078.091-2.238-1.083-3.152-3.118-3.249-1.493-.07-2.988-.056-4.482-.08q.01-2.564.018-5.129c1.488-.027,2.977-.045,4.465-.084,2.526-.068,3.073-.664,3.04-3.279.02-2.343-.021-4.687.076-7.026.094-2.261-.976-3.087-3.128-2.994-1.476.063-2.96-.065-4.44-.107q0-2.7-.008-5.4,2.358-.042,4.714-.082c1.862-.031,3.051-.726,2.821-2.834.008-2.494-.034-4.989.04-7.48.06-2.055-.774-3.047-2.9-2.976-1.553.052-3.11-.055-4.667-.09q-.006-2.719-.013-5.437c1.544-.028,3.089-.114,4.63-.068,2.007.06,3.121-.688,2.9-2.848.01-2.49-.027-4.981.047-7.469.063-2.056-.795-3.038-2.9-2.977-1.553.046-3.109-.051-4.663-.084q0-2.694-.005-5.389c1.547-.037,3.094-.122,4.64-.1,2,.033,3.138-.7,2.874-2.884.013-2.514-.027-5.031.053-7.543.065-2.04-.966-2.844-2.856-2.871-1.571-.022-3.141-.055-4.711-.083q-.006-2.677-.01-5.355c1.551-.047,3.1-.139,4.656-.127,2.006.015,3.145-.738,2.867-2.923.011-2.581.04-5.163.028-7.744a2.4,2.4,0,0,0-2.62-2.642c-1.641-.048-3.284-.057-4.926-.084.529-2.98,1.91-4.173,4.946-4.174q19.929-.01,39.86.008.052,5.426.1,10.851v12.292l0,20.819-.018,3.28Q1486.1,1928.627,1486.11,1932.645Zm-12.8,24.545c-2.814.09-3.247.513-3.274,3.323-.023,2.279-.05,4.56.011,6.837.052,1.916.924,3.108,3.035,3.083,2.516-.032,5.031.029,7.545-.019,2.209-.041,2.928-.9,2.876-3.25.045-2.353.15-4.705.115-7.056-.031-2.053-.972-3.151-3.244-2.995C1478.028,1957.274,1475.665,1957.174,1473.309,1957.19Zm-7.155,10.428c.019-2.491.032-4.984.06-7.475.024-2.132-.934-3.127-3.145-3.02-2.41.116-4.828.05-7.242.064-2.1-.192-3.01.768-2.949,2.871.074,2.5.055,5,.009,7.5-.037,1.991.964,2.857,2.857,2.863,2.579.009,5.158.05,7.737-.015C1465.216,1970.362,1466.265,1969.509,1466.154,1967.618Zm17.405-18.889c.028-2.415.119-4.831.065-7.245-.054-2.362-.959-3.195-3.3-3.211s-4.677.011-7.016.021c-2.044-.338-3.2.522-3.257,2.6q-.1,3.985,0,7.974a2.474,2.474,0,0,0,2.648,2.662c2.736.043,5.473.052,8.209,0A2.385,2.385,0,0,0,1483.56,1948.728Zm-.011-18.9c.031-2.412.127-4.826.075-7.237-.051-2.345-.97-3.191-3.309-3.208s-4.673.017-7.009.028c-2.609.083-3.231.66-3.267,3.163-.034,2.362-.017,4.723,0,7.084.011,1.874.87,2.973,2.842,2.979,2.676.009,5.354.034,8.03-.009C1482.69,1932.6,1483.681,1931.719,1483.548,1929.828Zm-27.739-48.152c-2.041-.291-2.91.7-2.91,2.652,0,2.662.006,5.324,0,7.985a2.283,2.283,0,0,0,2.588,2.6c2.661,0,5.323,0,7.985,0,1.934,0,2.956-.848,2.672-2.9.023-2.5.066-5,.06-7.5a2.589,2.589,0,0,0-2.9-2.9C1460.808,1881.613,1458.309,1881.654,1455.809,1881.676Zm27.706,104.388c.042-2.424.126-4.849.113-7.273a2.78,2.78,0,0,0-3.073-3.07c-2.424-.015-4.849.065-7.274.1-2.112-.288-3.133.836-3.217,2.767-.113,2.588-.062,5.184-.017,7.776a2.662,2.662,0,0,0,2.742,2.914,79.411,79.411,0,0,0,8.243-.032C1482.78,1989.128,1483.969,1988.123,1483.515,1986.064ZM1455.8,1975.81c-2.02-.224-2.905.76-2.9,2.709.005,2.594.051,5.189-.017,7.781-.053,2.118.987,3.016,2.995,3.018,2.437,0,4.873.029,7.31-.008,2.107-.032,3.243-1.015,2.95-3.257.026-2.359,0-4.719.092-7.075.083-2.215-1.073-3.212-3.118-3.25C1460.673,1975.682,1458.235,1975.776,1455.8,1975.81Zm17.5-75.264c-2.218-.28-3.226.825-3.257,2.933-.038,2.5-.028,5.006,0,7.509a2.481,2.481,0,0,0,2.741,2.783c2.739.01,5.477.037,8.214-.014,1.795-.033,2.733-.954,2.547-2.83.033-2.411.133-4.823.08-7.233-.051-2.335-.974-3.179-3.322-3.195S1475.632,1900.528,1473.3,1900.546Zm-7.152,10.371q.033-3.762.065-7.523c.014-1.926-.928-2.91-2.872-2.9q-3.762.021-7.524.049c-2.04-.268-2.926.709-2.918,2.682.01,2.6.021,5.2,0,7.8-.016,1.838.789,2.784,2.692,2.761,2.6-.031,5.2-.036,7.794,0C1465.368,1913.817,1466.312,1912.923,1466.145,1910.917Zm.005,37.8c.021-2.44.08-4.88.051-7.319-.029-2.536-.665-3.117-3.289-3.129-2.362-.011-4.723.009-7.084.014-2.011-.257-2.942.667-2.932,2.656.013,2.668,0,5.338.009,8.007a2.293,2.293,0,0,0,2.61,2.6c2.669-.017,5.338.025,8.007-.017C1465.317,1951.5,1466.3,1950.617,1466.15,1948.718Zm0-18.9c.022-2.431.019-4.863.074-7.293.048-2.147-.907-3.206-3.1-3.159-2.432.053-4.863.031-7.295.041-2.015-.247-2.937.688-2.927,2.672.013,2.671,0,5.342.009,8.012a2.267,2.267,0,0,0,2.629,2.558c2.592-.036,5.184-.014,7.776-.006C1465.208,1932.646,1466.319,1931.881,1466.146,1929.817Zm7.146-48.139c-2.224-.274-3.229.832-3.254,2.951-.029,2.513-.037,5.028.008,7.541.031,1.761.864,2.777,2.761,2.751,2.67-.034,5.341-.015,8.012-.005,1.951.008,2.929-.878,2.723-2.891.033-2.438.127-4.877.08-7.315-.04-2.043-1.024-3.2-3.249-3.117C1478.015,1881.686,1475.652,1881.656,1473.292,1881.678Z" transform="translate(22.748 14.127)" fill="#81af1d"/>
      <path id="Trazado_205828" data-name="Trazado 205828" d="M1394.382,1880.969q.006-16.521.011-33.042c.427-6.235,2.356-8.021,8.65-8.028,1.013,0,2.024-.05,3.036-.075l30.855,0q8.25.04,16.5.081c5.006.023,7.493,2.49,7.535,7.552.031,3.771-.006,7.544-.013,11.316-.7.027-1.405.085-2.107.074-1.946-.031-2.9.931-2.89,2.855q.042,6.563.108,13.126c-.05.545-.133,1.089-.143,1.634-.08,4.213-.075,4.213-4.317,4.019,0-6.129-.008-12.258.023-18.386.009-1.958-.765-3.233-2.822-3.266q-5.774-.1-11.55,0a2.86,2.86,0,0,0-3.1,3.113c-.039,7.7-.065,15.4.019,23.1.022,1.963,1.069,3.17,3.307,3.085,2.669-.1,5.342-.02,8.014-.019q0,5.193,0,10.387c-2.421,0-4.841-.005-7.263.006-3.132.015-4.08.931-4.091,4-.015,4.452,0,8.9,0,13.354h-10.876c0-4.48.016-8.959,0-13.439-.013-2.96-.976-3.9-3.983-3.914-3.379-.017-6.758-.021-10.137,0-2.476.018-3.344.908-3.352,3.442-.018,4.636,0,9.273,0,13.91l-11.285.01Q1394.441,1898.418,1394.382,1880.969Zm11.4-7.4c0,3.849.056,7.7-.023,11.548-.043,2.07.7,3.049,2.874,3,3.769-.082,7.542,0,11.312-.029,2.369-.015,3.305-.913,3.312-3.239q.036-11.194,0-22.388c-.01-2.657-1.039-3.634-3.759-3.656q-5.185-.044-10.369,0c-2.463.018-3.328.917-3.341,3.452C1405.769,1866.032,1405.783,1869.8,1405.783,1873.574Z" transform="translate(9.939 3.852)" fill="#81af1d"/>
      <path id="Trazado_205829" data-name="Trazado 205829" d="M1487.438,1988.215l13.583-.1q9.931-.055,19.861-.108,8.7.428,17.394,0c5.01.05,10.018.088,15.027.157a6.047,6.047,0,0,1,2.774.238l-.108.106.045.146a103.091,103.091,0,0,1-16.31,13.4l-136.935,0a102.767,102.767,0,0,1-16.157-13.252c.794-.778,1.794-.442,2.7-.443q26.8-.044,53.593-.042c1.573-.065,3.179.381,4.71-.316a33.4,33.4,0,0,0,8.563-.018c2.119.468,4.269.074,6.4.227Q1475.008,1988.532,1487.438,1988.215Z" transform="translate(7.812 44.408)" fill="#32314b"/>
      <path id="Trazado_205830" data-name="Trazado 205830" d="M1434.421,1843.672l-30.855,0a104.2,104.2,0,0,1,29.362-13.1c31.126-8.706,61.121-5.6,89.935,9.014,0,2.591-.061,5.185.02,7.773.046,1.439-.279,2.12-1.927,2.12-3.254,0-3.789.643-3.789,3.882q0,8.6.018,17.2l-16.554.011c0-9.842.028-19.683-.005-29.525-.013-3.958-2.4-6.293-6.334-6.3-7.479-.02-14.96-.008-22.439-.01-.186-1.274-.374-2.681-2.03-2.692-1.678-.01-1.847,1.391-1.992,2.677-9.017.006-18.033-.008-27.05.029a6.028,6.028,0,0,0-6.333,6.332C1434.431,1841.947,1434.428,1842.809,1434.421,1843.672Z" transform="translate(12.453)" fill="#f8bc39"/>
      <path id="Trazado_205831" data-name="Trazado 205831" d="M1548.132,1982.553q-.013-32.243-.028-64.486c0-5.248-2.547-7.782-7.8-7.788-2.992,0-5.992-.127-8.975.043-2.056.119-2.677-.471-2.66-2.6.1-12.755.052-25.51.05-38.266,0-3.946-1.453-5.412-5.376-5.453-5-.053-5.006-.053-4.992-5.134.006-2.283.058-4.564.089-6.846a113.113,113.113,0,0,1,23.077,29.907,119.358,119.358,0,0,1,14.295,49.134,121.648,121.648,0,0,1-7.3,50.9A3.108,3.108,0,0,1,1548.132,1982.553Z" transform="translate(43.871 7.192)" fill="#f8bc39"/>
      <path id="Trazado_205832" data-name="Trazado 205832" d="M1476.458,1922.513q-.01-4.018-.02-8.036l37.112-.1q12.04.048,24.084.094c3.175.01,5.323,1.568,5.389,3.927s-2.051,4.019-5.272,4.155Z" transform="translate(32.399 24.259)" fill="#e53935"/>
      <path id="Trazado_205833" data-name="Trazado 205833" d="M1509.421,1992.422q-8.7.415-17.394,0c.015-5.814.078-11.628.015-17.44-.023-2.178.734-3.159,3.026-3.087,3.766.118,7.543.12,11.309,0,2.3-.074,3.042.927,3.021,3.094C1509.343,1980.8,1509.406,1986.61,1509.421,1992.422Z" transform="translate(36.666 40.002)" fill="#e2872c"/>
      <path id="Trazado_205834" data-name="Trazado 205834" d="M1480.3,1947.526c-.017-6.135.015-12.271-.076-18.405-.032-2.079.829-2.79,2.825-2.719q5.888.208,11.786.182c1.679-.005,2.171.744,2.167,2.3-.019,6.213.034,12.427.06,18.638l-.577.082-15.229.013Z" transform="translate(33.436 27.55)" fill="#a3a3a3"/>
      <path id="Trazado_205835" data-name="Trazado 205835" d="M1479.6,1971.674q-.05-9.409-.1-18.821c-.008-1.433.577-2.122,2.127-2.094q6.234.115,12.474.025c1.716-.027,2.147.8,2.144,2.311-.017,6.2.019,12.391.036,18.586Z" transform="translate(33.238 34.218)" fill="#a3a3a3"/>
      <path id="Trazado_205836" data-name="Trazado 205836" d="M1505.042,1947.521c-.009-6.133.047-12.269-.061-18.4-.037-2.12.845-2.781,2.81-2.717q5.888.193,11.779.2c1.494,0,2.109.521,2.108,2.062,0,6.287.076,12.573.125,18.86Z" transform="translate(40.212 27.551)" fill="#a3a3a3"/>
      <path id="Trazado_205837" data-name="Trazado 205837" d="M1505.069,1970.938c-.018-6.2,0-12.4-.078-18.595-.022-1.729.614-2.369,2.347-2.331,4.078.091,8.161.088,12.24.033,1.52-.021,2.1.558,2.093,2.07-.008,6.271.053,12.541.09,18.812Z" transform="translate(40.215 34.014)" fill="#a3a3a3"/>
      <path id="Trazado_205838" data-name="Trazado 205838" d="M1480.055,1967.179l16.678.008c1.08.395,2.507.55,2.164,2.214-.316,1.527-1.624,1.452-2.833,1.451-5.114-.009-10.228,0-15.343-.006-1.181,0-2.517.14-2.821-1.434C1477.581,1967.761,1478.932,1967.537,1480.055,1967.179Z" transform="translate(32.787 38.713)" fill="#e2872c"/>
      <path id="Trazado_205839" data-name="Trazado 205839" d="M1505.278,1966.691l16.693-.011c1.117.367,2.479.59,2.149,2.238-.312,1.558-1.643,1.433-2.829,1.433q-7.667,0-15.336,0c-1.2,0-2.513.1-2.83-1.443C1502.783,1967.249,1504.192,1967.08,1505.278,1966.691Z" transform="translate(39.69 38.576)" fill="#e2872c"/>
      <path id="Trazado_205840" data-name="Trazado 205840" d="M1505.233,1942.734l16.761,0c1.137.215,2.253.53,2.126,2-.134,1.527-1.353,1.508-2.475,1.51q-8.013.01-16.025,0c-1.134,0-2.328,0-2.477-1.513C1503,1943.267,1504.072,1942.921,1505.233,1942.734Z" transform="translate(39.705 32.022)" fill="#e2872c"/>
      <path id="Trazado_205841" data-name="Trazado 205841" d="M1497.173,1942.815l.577-.08c1.169.176,2.29.564,2.167,1.976-.125,1.43-1.316,1.548-2.49,1.546-5.355-.01-10.711,0-16.066-.009-1.117,0-2.346.044-2.488-1.5-.138-1.484.974-1.8,2.116-2.011l.953.09A84.5,84.5,0,0,0,1497.173,1942.815Z" transform="translate(33.063 32.022)" fill="#e2872c"/>
      <path id="Trazado_205842" data-name="Trazado 205842" d="M1519.884,1988.375l.012-.1-.041.061Z" transform="translate(44.284 44.487)" fill="#e2872c"/>
      <path id="Trazado_205843" data-name="Trazado 205843" d="M1519.619,1988.578l-.045-.146.108-.106a.212.212,0,0,1,.278.042l-.028-.04A.486.486,0,0,1,1519.619,1988.578Z" transform="translate(44.207 44.492)" fill="#e2872c"/>
      <path id="Trazado_205844" data-name="Trazado 205844" d="M1450.28,2009.642c-1.531.7-3.137.251-4.71.316-.027-5.58-.038-11.16-.088-16.74-.027-2.923-1.108-4.034-3.954-4.035q-26.06-.019-52.122,0c-2.93,0-3.9,1.012-3.923,3.994-.032,4.481-.04,8.961-.057,13.441-2.9-3.415-6.15-6.541-8.461-10.429q0-32.2,0-64.4c0-2.592-.063-5.185-.1-7.777q.082-7.512.164-15.026c7.4-.018,14.8-.051,22.2-.047q25.506.014,51.013.053Q1450.264,1959.315,1450.28,2009.642Zm-59.584-46.786c-4.369-.246-5.222.531-5.234,4.765q-.006,2.124,0,4.25c.017,3.83.74,4.566,4.537,4.568q25.155.006,50.31,0c4.643,0,5.462-.909,5.078-5.62.036-1.257.111-2.514.1-3.77-.023-3.118-1.164-4.275-4.272-4.285q-8.619-.033-17.237-.005Q1407.34,1962.8,1390.7,1962.855Zm54.714-38.824c.028-1.413.108-2.826.076-4.238-.062-2.764-1.155-3.849-3.871-3.887-1.885-.027-3.77-.009-5.657-.006l-45.248.091c-4.4-.384-5.238.36-5.249,4.653q-.006,2,0,4.009c.01,4.111.852,4.957,4.964,4.957q24.876,0,49.752,0C1444.773,1929.61,1445.71,1928.61,1445.41,1924.031Zm-29.79,15.194v-.082q-12.977,0-25.953,0c-2.936,0-4.184,1.074-4.377,4.015a46.893,46.893,0,0,0-.019,4.952c.171,4.167,1.136,5.076,5.28,5.077q24.775,0,49.55,0c.552,0,1.1.031,1.652-.014,2.659-.218,3.77-1.406,3.792-4.095.015-1.73-.034-3.459-.046-5.19-.023-3.575-1.072-4.652-4.631-4.656Q1428.245,1939.214,1415.62,1939.225Z" transform="translate(5.145 22.77)" fill="#5000c7"/>
      <path id="Trazado_205845" data-name="Trazado 205845" d="M1383.587,1989.374c.018-4.481.025-8.961.057-13.441.022-2.982.994-3.993,3.923-3.994q26.061-.019,52.122,0c2.845,0,3.927,1.112,3.954,4.035.05,5.58.061,11.16.088,16.74q-26.8.014-53.593.042c-.906,0-1.905-.335-2.7.443Z" transform="translate(6.984 40.013)" fill="#e2872c"/>
      <path id="Trazado_205846" data-name="Trazado 205846" d="M1380.2,1920.788c.034,2.592.1,5.185.1,7.777q.007,32.2,0,64.4a98.964,98.964,0,0,1-15.584-28.134c.026-12.029.176-24.061.014-36.088-.064-4.7,3.039-8.468,7.932-8.009C1375.148,1920.971,1377.683,1920.785,1380.2,1920.788Z" transform="translate(1.817 25.99)" fill="#e2872c"/>
      <path id="Trazado_205847" data-name="Trazado 205847" d="M1451.846,1911.567q-25.506-.029-51.013-.053c-7.4,0-14.8.029-22.2.047-1.7-.139-3.453.021-4.966-1.051a6.015,6.015,0,0,1-2.409-6.6,5.775,5.775,0,0,1,5.547-4.263c3.6-.1,7.2-.083,10.8-.116l13.291-.006,11.285-.01h28.354l11.438.059A41.1,41.1,0,0,1,1451.846,1911.567Z" transform="translate(3.546 20.191)" fill="#e53935"/>
      <path id="Trazado_205848" data-name="Trazado 205848" d="M1397.331,1907.022l-13.291.006q0-13.768,0-27.533c0-5.044,2.288-7.339,7.284-7.353q2.943-.01,5.883-.015Q1397.272,1889.575,1397.331,1907.022Z" transform="translate(7.108 12.695)" fill="#e2872c"/>
      <path id="Trazado_205849" data-name="Trazado 205849" d="M1515.789,1929l-37.112.1q.008-1.639.018-3.281c4.175-.015,4.189-.029,4.19-4.238q0-6.253,0-12.508c0-3.852-.245-4.085-4.186-4.072q0-6.146,0-12.292c3.565.011,4.14-.325,4.169-2.872.058-5.177.013-10.353.019-15.528a2.127,2.127,0,0,0-2.463-2.417c-2.666.023-5.339.125-8-.033-2.207-.131-3.066.721-2.777,2.857-1.023.148-1.346-.359-1.332-1.315.02-1.448-.033-2.9-.055-4.347l.132-8.107,14.529-.006,16.554-.011c4.015.032,8.03.043,12.043.1,2.745.041,4.338,1.457,4.341,4.184Q1515.876,1897.11,1515.789,1929Zm-19.661-47.1c0,2.75.028,5.5-.01,8.25-.026,1.774.762,2.6,2.551,2.575,2.749-.037,5.5-.023,8.25-.005a2.129,2.129,0,0,0,2.443-2.446c-.013-5.343-.005-10.687-.005-16.03a2.054,2.054,0,0,0-2.3-2.344c-2.986,0-5.973.021-8.958-.009-1.39-.014-2,.6-1.982,1.992C1496.155,1876.559,1496.129,1879.231,1496.128,1881.9Zm13.229,33.6c0-2.672-.015-5.344.006-8.015.013-1.639-.715-2.5-2.4-2.488-2.829.014-5.658.009-8.487,0-1.7-.005-2.364.9-2.358,2.522.022,5.343.038,10.688-.01,16.031-.014,1.574.528,2.321,2.186,2.282,2.828-.066,5.658-.047,8.485-.008,1.772.024,2.609-.763,2.586-2.547C1509.334,1920.688,1509.358,1918.095,1509.357,1915.5Z" transform="translate(30.161 9.631)" fill="#5000c7"/>
      <path id="Trazado_205850" data-name="Trazado 205850" d="M1477.507,1867.316c.022,1.449.075,2.9.055,4.347-.014.955.31,1.462,1.334,1.315.7.015,1.4.042,2.094.044,6.4.015,7.091.726,6.855,7.1q-19.929-.005-39.86-.008c-3.035,0-4.417,1.193-4.946,4.174l-2.876.115c-2.006-.118-2.835.936-2.83,2.832,0,1.481,0,2.963,0,4.444,0,6.19-.478,5.932,5.474,6.072a.972.972,0,0,1,.225.06q.006,2.677.011,5.354l-2.875.115c-2.018-.2-2.912.741-2.844,2.741.047,1.411.011,2.825.006,4.239-.026,7.1-.311,6.038,5.713,6.383q0,2.7.005,5.39l-2.871.117c-2.176-.187-2.958.922-2.858,2.968.069,1.4,0,2.816.014,4.225.043,5.839-.881,6.006,5.7,6.134q.006,2.719.011,5.439l-2.866.122c-2.168-.2-2.959.9-2.863,2.94.066,1.4.024,2.807.01,4.212-.057,6.162-.231,6.077,5.706,6.188l.008,5.4-2.853.144c-2.156-.195-2.965.884-2.871,2.935.068,1.48.026,2.964.01,4.447-.062,5.826-.2,5.89,5.7,5.965q-.01,2.564-.018,5.128l-2.862.106c-1.992-.051-2.81,1.042-2.816,2.908-.006,2.425-.016,4.85,0,7.275.02,2.523.851,3.35,3.349,3.4.782.018,1.563.047,2.344.072q.023,14.432.046,28.865a33.4,33.4,0,0,1-8.563.018q-.017-50.327-.033-100.653a41.056,41.056,0,0,0,.124-11.995q-.042-8.708-.082-17.419,0-5.193,0-10.387c-.084-6.1.865-7.625,6.11-7.63,4.241.195,4.236.195,4.317-4.019.01-.545.093-1.089.143-1.634Z" transform="translate(20.914 11.374)" fill="#cced74"/>
      <path id="Trazado_205851" data-name="Trazado 205851" d="M1452.276,1972.046c4.925-.034,9.852-.045,14.779-.116,1.477-.022,1.87.708,1.856,2.034-.051,4.849-.05,9.7-.069,14.548-2.908,0-5.818.056-8.725-.013a7.671,7.671,0,0,1-7.823-7.964C1452.276,1977.706,1452.281,1974.876,1452.276,1972.046Z" transform="translate(25.786 40.013)" fill="#2e66b5"/>
      <path id="Trazado_205852" data-name="Trazado 205852" d="M1453.925,1972.051c.005,2.83,0,5.66.018,8.49a7.671,7.671,0,0,0,7.823,7.964c2.907.069,5.817.013,8.725.013.726,1.288-.122,2.814.622,4.1q-12.43.308-24.861,0c.636-3.417.176-6.866.275-10.3.079-2.74.068-5.485,0-8.226-.042-1.63.619-2.269,2.235-2.163C1450.478,1972.037,1452.2,1972.013,1453.925,1972.051Z" transform="translate(24.137 40.009)" fill="#1f5488"/>
      <path id="Trazado_205853" data-name="Trazado 205853" d="M1478.311,1879.518c.236-6.372-.451-7.083-6.855-7.1-.7,0-1.4-.029-2.094-.044-.291-2.136.568-2.988,2.776-2.857,2.658.158,5.332.056,8,.033a2.127,2.127,0,0,1,2.463,2.417c-.006,5.175.039,10.352-.019,15.528-.029,2.547-.6,2.884-4.169,2.872Q1478.362,1884.943,1478.311,1879.518Z" transform="translate(30.447 11.977)" fill="#a3a3a3"/>
      <path id="Trazado_205854" data-name="Trazado 205854" d="M1465.9,1880.769c2.362-.023,4.723.008,7.082-.085,2.225-.088,3.208,1.074,3.248,3.117.047,2.438-.047,4.877-.079,7.315-2.421-.008-4.845-.1-7.263,0-2.257.093-3.089-.9-3-3.085C1465.988,1885.616,1465.9,1883.191,1465.9,1880.769Z" transform="translate(29.51 15.036)" fill="#f8bc39"/>
      <path id="Trazado_205855" data-name="Trazado 205855" d="M1452.182,1910.379c2.431-.01,4.864.013,7.295-.041,2.2-.047,3.151,1.011,3.1,3.159-.055,2.43-.051,4.862-.073,7.293-2.359,0-4.718.013-7.076-.019-2.328-.033-3.219-.945-3.244-3.317S1452.182,1912.738,1452.182,1910.379Z" transform="translate(25.758 23.154)" fill="#f8bc39"/>
      <path id="Trazado_205856" data-name="Trazado 205856" d="M1438.452,1895.571l2.875-.115c1.57.028,3.141.061,4.711.083,1.89.027,2.921.832,2.856,2.871-.08,2.511-.041,5.029-.053,7.543-2.275,0-4.551.008-6.827-.007-2.535-.015-3.494-.953-3.546-3.549C1438.423,1900.123,1438.454,1897.847,1438.452,1895.571Z" transform="translate(21.999 19.081)" fill="#f8bc39"/>
      <path id="Trazado_205857" data-name="Trazado 205857" d="M1452.186,1925.195c2.361-.005,4.724-.025,7.086-.014,2.623.013,3.258.594,3.287,3.129.029,2.439-.031,4.878-.051,7.319-2.353-.005-4.706.045-7.056-.032-2.3-.074-3.247-1.08-3.266-3.344C1452.165,1929.9,1452.185,1927.549,1452.186,1925.195Z" transform="translate(25.758 27.216)" fill="#f8bc39"/>
      <path id="Trazado_205858" data-name="Trazado 205858" d="M1452.174,1895.572q3.76-.025,7.523-.049c1.944-.011,2.888.973,2.872,2.9q-.027,3.76-.064,7.523c-2.433,0-4.866,0-7.3-.017-2.02-.011-3.024-1.044-3.026-3.059Q1452.178,1899.219,1452.174,1895.572Z" transform="translate(25.758 19.099)" fill="#f8bc39"/>
      <path id="Trazado_205859" data-name="Trazado 205859" d="M1465.9,1895.574c2.335-.018,4.669-.061,7-.047s3.271.86,3.322,3.195c.052,2.41-.047,4.822-.079,7.233-2.493-.009-4.985.013-7.478-.037-1.825-.037-2.884-.8-2.788-2.866C1466,1900.564,1465.907,1898.066,1465.9,1895.574Z" transform="translate(29.509 19.099)" fill="#f8bc39"/>
      <path id="Trazado_205860" data-name="Trazado 205860" d="M1452.657,1954.673c2.437-.034,4.875-.129,7.31-.083,2.046.038,3.2,1.036,3.118,3.25-.088,2.356-.066,4.717-.092,7.075-2.437,0-4.88-.109-7.31.017-2.2.113-2.983-.976-3-2.948C1452.665,1959.548,1452.665,1957.111,1452.657,1954.673Z" transform="translate(25.89 35.264)" fill="#f8bc39"/>
      <path id="Trazado_205861" data-name="Trazado 205861" d="M1466.382,1954.687c2.425-.038,4.85-.118,7.274-.1a2.78,2.78,0,0,1,3.073,3.07c.013,2.424-.071,4.849-.113,7.273-2.589-.009-5.18-.029-7.771-.021a2.133,2.133,0,0,1-2.442-2.446C1466.414,1959.868,1466.391,1957.277,1466.382,1954.687Z" transform="translate(29.647 35.264)" fill="#f8bc39"/>
      <path id="Trazado_205862" data-name="Trazado 205862" d="M1438.932,1954.623l2.862-.106c1.494.024,2.99.01,4.482.08,2.035.1,3.208,1.011,3.118,3.249-.1,2.356-.053,4.718-.071,7.078-2.5,0-5.006-.09-7.5.022-2.089.094-2.819-1-2.853-2.82C1438.919,1959.626,1438.941,1957.124,1438.932,1954.623Z" transform="translate(22.133 35.247)" fill="#f8bc39"/>
      <path id="Trazado_205863" data-name="Trazado 205863" d="M1438.466,1925.216l2.866-.122c1.556.034,3.114.141,4.668.089,2.12-.071,2.955.921,2.894,2.976-.074,2.491-.032,4.987-.039,7.48-2.351,0-4.7.046-7.054-.017-2.258-.06-3.272-1.083-3.328-3.352C1438.414,1929.92,1438.463,1927.568,1438.466,1925.216Z" transform="translate(21.999 27.193)" fill="#f8bc39"/>
      <path id="Trazado_205864" data-name="Trazado 205864" d="M1438.446,1880.752l2.875-.115c1.642.027,3.285.036,4.926.084a2.394,2.394,0,0,1,2.62,2.642c.011,2.582-.016,5.164-.028,7.744l-7.315,0c-2.025,0-3.053-1.011-3.063-3.035C1438.447,1885.63,1438.45,1883.191,1438.446,1880.752Z" transform="translate(22 15.024)" fill="#f8bc39"/>
      <path id="Trazado_205865" data-name="Trazado 205865" d="M1438.461,1910.386l2.871-.117c1.554.032,3.11.129,4.663.083,2.1-.061,2.96.921,2.9,2.977-.075,2.488-.037,4.979-.048,7.469-2.349,0-4.7.046-7.046-.017-2.253-.06-3.27-1.084-3.327-3.349C1438.414,1915.085,1438.461,1912.735,1438.461,1910.386Z" transform="translate(21.999 23.135)" fill="#f8bc39"/>
      <path id="Trazado_205866" data-name="Trazado 205866" d="M1452.169,1880.761c2.5-.022,5-.062,7.5-.06a2.59,2.59,0,0,1,2.9,2.9c.006,2.5-.038,5-.06,7.5q-3.642-.005-7.285-.014a2.7,2.7,0,0,1-3.036-3.04Q1452.171,1884.4,1452.169,1880.761Z" transform="translate(25.756 15.042)" fill="#f8bc39"/>
      <path id="Trazado_205867" data-name="Trazado 205867" d="M1465.906,1910.38c2.336-.011,4.673-.047,7.009-.028s3.26.864,3.309,3.208c.052,2.411-.043,4.825-.075,7.237-2.27-.008-4.54,0-6.809-.027-2.524-.026-3.4-.875-3.427-3.345C1465.888,1915.078,1465.906,1912.729,1465.906,1910.38Z" transform="translate(29.515 23.157)" fill="#f8bc39"/>
      <path id="Trazado_205868" data-name="Trazado 205868" d="M1465.911,1925.2c2.337-.009,4.676-.038,7.014-.021s3.247.85,3.3,3.211c.055,2.414-.037,4.83-.065,7.245-2.343-.009-4.687.04-7.027-.043-2.281-.08-3.2-1.09-3.222-3.364C1465.892,1929.889,1465.91,1927.546,1465.911,1925.2Z" transform="translate(29.515 27.216)" fill="#f8bc39"/>
      <path id="Trazado_205869" data-name="Trazado 205869" d="M1452.683,1940.046c2.415-.014,4.833.052,7.242-.064,2.211-.107,3.169.888,3.145,3.02-.028,2.491-.041,4.984-.06,7.475a27.982,27.982,0,0,0-7.677-.463c-1.889.023-2.708-.824-2.667-2.7C1452.719,1944.894,1452.682,1942.47,1452.683,1940.046Z" transform="translate(25.892 31.266)" fill="#f8bc39"/>
      <path id="Trazado_205870" data-name="Trazado 205870" d="M1438.472,1940.044l2.852-.144c1.48.041,2.965.169,4.441.106,2.151-.093,3.221.733,3.128,2.994-.1,2.339-.057,4.683-.078,7.026-2.44,0-4.887-.1-7.321.024-2.182.116-3.022-.927-3.034-2.919C1438.446,1944.768,1438.466,1942.405,1438.472,1940.044Z" transform="translate(22.003 31.246)" fill="#f8bc39"/>
      <path id="Trazado_205871" data-name="Trazado 205871" d="M1466.405,1940.054c2.356-.015,4.719.084,7.065-.078,2.272-.157,3.214.941,3.244,2.995.036,2.351-.07,4.7-.115,7.056-2.583-.008-5.169-.029-7.753-.02a2.13,2.13,0,0,1-2.447-2.433C1466.414,1945.067,1466.405,1942.561,1466.405,1940.054Z" transform="translate(29.652 31.263)" fill="#f8bc39"/>
      <path id="Trazado_205872" data-name="Trazado 205872" d="M1476.456,1895.535c3.941-.013,4.183.22,4.186,4.072q.006,6.253,0,12.508c0,4.208-.015,4.222-4.19,4.238Z" transform="translate(32.403 19.102)" fill="#a3a3a3"/>
      <path id="Trazado_205873" data-name="Trazado 205873" d="M1467.088,1954.673c.009,2.591.032,5.182.022,7.772a2.133,2.133,0,0,0,2.442,2.446c2.591-.008,5.182.013,7.771.021.453,2.06-.735,3.065-2.483,3.186a79.413,79.413,0,0,1-8.244.032,2.661,2.661,0,0,1-2.742-2.914c-.046-2.592-.1-5.188.016-7.776C1463.955,1955.509,1464.976,1954.386,1467.088,1954.673Z" transform="translate(28.941 35.278)" fill="#e2872c"/>
      <path id="Trazado_205874" data-name="Trazado 205874" d="M1467.113,1940.034c0,2.507.009,5.013-.005,7.52a2.13,2.13,0,0,0,2.447,2.433c2.584-.009,5.17.013,7.753.02.052,2.35-.667,3.21-2.876,3.25-2.514.048-5.03-.013-7.546.019-2.112.025-2.983-1.167-3.035-3.083-.061-2.277-.034-4.559-.011-6.837C1463.866,1940.547,1464.3,1940.125,1467.113,1940.034Z" transform="translate(28.944 31.283)" fill="#e2872c"/>
      <path id="Trazado_205875" data-name="Trazado 205875" d="M1467.115,1925.213c0,2.342-.018,4.686,0,7.028.019,2.274.941,3.284,3.223,3.364,2.34.083,4.685.034,7.027.043a2.385,2.385,0,0,1-2.648,2.794c-2.736.053-5.473.045-8.209,0a2.474,2.474,0,0,1-2.648-2.662q-.107-3.984,0-7.974C1463.91,1925.736,1465.071,1924.876,1467.115,1925.213Z" transform="translate(28.942 27.206)" fill="#e2872c"/>
      <path id="Trazado_205876" data-name="Trazado 205876" d="M1453.285,1954.66c.008,2.438.008,4.875.028,7.313.015,1.972.8,3.061,3,2.948,2.43-.126,4.873-.022,7.31-.017.293,2.242-.843,3.225-2.95,3.257-2.437.037-4.873.01-7.31.008-2.007,0-3.048-.9-2.995-3.018.068-2.592.022-5.188.017-7.781C1450.379,1955.42,1451.265,1954.436,1453.285,1954.66Z" transform="translate(25.262 35.277)" fill="#e2872c"/>
      <path id="Trazado_205877" data-name="Trazado 205877" d="M1467.1,1880.759c.005,2.421.089,4.847-.01,7.263-.09,2.186.741,3.178,3,3.085,2.417-.1,4.841-.009,7.263,0,.205,2.014-.773,2.9-2.724,2.891-2.671-.01-5.342-.029-8.012.005-1.9.025-2.731-.99-2.761-2.751-.045-2.513-.037-5.027-.008-7.541C1463.867,1881.591,1464.872,1880.485,1467.1,1880.759Z" transform="translate(28.945 15.046)" fill="#e2872c"/>
      <path id="Trazado_205878" data-name="Trazado 205878" d="M1466.611,1910.373c0,2.349-.018,4.7.006,7.046.026,2.47.9,3.319,3.427,3.345,2.27.023,4.54.019,6.809.027.134,1.892-.859,2.771-2.643,2.8-2.676.043-5.352.018-8.028.009-1.973-.006-2.831-1.105-2.842-2.979-.014-2.361-.032-4.723,0-7.084C1463.381,1911.033,1464,1910.456,1466.611,1910.373Z" transform="translate(28.81 23.164)" fill="#e2872c"/>
      <path id="Trazado_205879" data-name="Trazado 205879" d="M1467.1,1895.572c0,2.493.1,4.99-.019,7.478-.1,2.069.962,2.829,2.788,2.866,2.491.05,4.985.028,7.477.037.186,1.876-.753,2.8-2.547,2.83-2.737.051-5.476.024-8.214.014a2.481,2.481,0,0,1-2.741-2.783c-.028-2.5-.038-5.007,0-7.509C1463.874,1896.4,1464.883,1895.292,1467.1,1895.572Z" transform="translate(28.945 19.101)" fill="#e2872c"/>
      <path id="Trazado_205880" data-name="Trazado 205880" d="M1439.539,1954.6c.009,2.5-.013,5,.036,7.5.035,1.823.764,2.914,2.853,2.82,2.5-.112,5-.023,7.5-.022-.038,2.559-.639,3.2-3.082,3.272-1.476.041-2.954.057-4.431.085-.781-.024-1.562-.054-2.344-.072-2.5-.055-3.328-.881-3.349-3.4-.018-2.425-.008-4.85,0-7.275C1436.729,1955.642,1437.547,1954.549,1439.539,1954.6Z" transform="translate(21.526 35.269)" fill="#e2872c"/>
      <path id="Trazado_205881" data-name="Trazado 205881" d="M1439.582,1940.018c-.005,2.361-.024,4.724-.01,7.087.011,1.992.851,3.035,3.034,2.919,2.434-.129,4.881-.027,7.321-.024.033,2.615-.515,3.211-3.04,3.279-1.488.039-2.977.057-4.465.084-5.9-.074-5.763-.137-5.7-5.964.015-1.482.057-2.966-.01-4.447C1436.616,1940.9,1437.425,1939.823,1439.582,1940.018Z" transform="translate(21.523 31.272)" fill="#e2872c"/>
      <path id="Trazado_205882" data-name="Trazado 205882" d="M1453.313,1940.036c0,2.424.036,4.848-.016,7.272-.041,1.872.778,2.719,2.667,2.7a27.982,27.982,0,0,1,7.677.463c.111,1.892-.939,2.745-2.674,2.79-2.578.065-5.157.024-7.737.015-1.893-.007-2.894-.873-2.857-2.863.046-2.5.065-5-.009-7.5C1450.3,1940.8,1451.21,1939.844,1453.313,1940.036Z" transform="translate(25.262 31.277)" fill="#e2872c"/>
      <path id="Trazado_205883" data-name="Trazado 205883" d="M1439.569,1910.365c0,2.349-.048,4.7.011,7.046.057,2.265,1.072,3.289,3.327,3.349,2.347.063,4.7.015,7.046.017.224,2.16-.889,2.908-2.9,2.848-1.541-.046-3.086.04-4.63.068-6.584-.129-5.659-.3-5.7-6.134-.01-1.409.055-2.82-.014-4.225C1436.611,1911.288,1437.394,1910.178,1439.569,1910.365Z" transform="translate(21.523 23.156)" fill="#e2872c"/>
      <path id="Trazado_205884" data-name="Trazado 205884" d="M1439.558,1895.552c0,2.276-.031,4.552.015,6.827.052,2.6,1.011,3.533,3.546,3.549,2.276.014,4.551.005,6.827.007.265,2.179-.875,2.917-2.874,2.884-1.546-.025-3.093.06-4.64.1-6.023-.345-5.738.72-5.713-6.383.005-1.414.041-2.828-.006-4.239C1436.646,1896.293,1437.541,1895.355,1439.558,1895.552Z" transform="translate(21.525 19.1)" fill="#e2872c"/>
      <path id="Trazado_205885" data-name="Trazado 205885" d="M1453.291,1880.759q.007,3.642.015,7.284a2.7,2.7,0,0,0,3.037,3.04q3.642.011,7.283.014c.284,2.051-.739,2.9-2.672,2.9-2.662,0-5.324,0-7.985,0a2.283,2.283,0,0,1-2.588-2.6c.006-2.661,0-5.323,0-7.985C1450.38,1881.462,1451.25,1880.468,1453.291,1880.759Z" transform="translate(25.267 15.044)" fill="#e2872c"/>
      <path id="Trazado_205886" data-name="Trazado 205886" d="M1439.574,1925.2c0,2.351-.052,4.7.006,7.054.056,2.27,1.07,3.292,3.328,3.352,2.35.063,4.7.015,7.054.017.229,2.108-.959,2.8-2.821,2.834q-2.355.036-4.714.082c-5.937-.109-5.764-.024-5.706-6.186.014-1.405.056-2.811-.01-4.212C1436.615,1926.09,1437.406,1925,1439.574,1925.2Z" transform="translate(21.523 27.214)" fill="#e2872c"/>
      <path id="Trazado_205887" data-name="Trazado 205887" d="M1453.31,1925.2c0,2.354-.022,4.707,0,7.059.019,2.263.962,3.27,3.266,3.344,2.35.076,4.7.027,7.057.032.154,1.9-.833,2.781-2.629,2.807-2.668.042-5.338,0-8.007.017a2.293,2.293,0,0,1-2.61-2.6c-.008-2.668,0-5.338-.009-8.007C1450.368,1925.868,1451.3,1924.943,1453.31,1925.2Z" transform="translate(25.266 27.211)" fill="#e2872c"/>
      <path id="Trazado_205888" data-name="Trazado 205888" d="M1453.3,1895.571q.006,3.649.009,7.3c0,2.015,1,3.048,3.026,3.059,2.432.013,4.864.012,7.3.017.167,2.006-.777,2.9-2.768,2.87-2.6-.039-5.2-.034-7.794,0-1.9.023-2.708-.924-2.692-2.761.024-2.6.014-5.2,0-7.8C1450.371,1896.28,1451.256,1895.3,1453.3,1895.571Z" transform="translate(25.265 19.1)" fill="#e2872c"/>
      <path id="Trazado_205889" data-name="Trazado 205889" d="M1439.551,1880.729c0,2.439,0,4.878.015,7.316.009,2.024,1.038,3.035,3.062,3.035l7.316,0c.278,2.186-.861,2.938-2.867,2.923-1.552-.011-3.1.08-4.656.127a1.063,1.063,0,0,0-.227-.059c-5.952-.14-5.473.118-5.474-6.072,0-1.481,0-2.962,0-4.444C1436.716,1881.665,1437.545,1880.611,1439.551,1880.729Z" transform="translate(21.526 15.047)" fill="#e2872c"/>
      <path id="Trazado_205890" data-name="Trazado 205890" d="M1453.305,1910.378c0,2.359-.02,4.718.005,7.075s.914,3.284,3.243,3.317c2.359.032,4.718.014,7.076.019.172,2.063-.939,2.829-2.837,2.824-2.592-.008-5.184-.029-7.776.006a2.267,2.267,0,0,1-2.629-2.558c-.01-2.67,0-5.341-.009-8.012C1450.368,1911.066,1451.29,1910.131,1453.305,1910.378Z" transform="translate(25.266 23.155)" fill="#e2872c"/>
      <path id="Trazado_205891" data-name="Trazado 205891" d="M1403.338,1869.5c0-3.77-.014-7.542,0-11.312.013-2.535.878-3.434,3.341-3.452q5.184-.036,10.369,0c2.719.022,3.749,1,3.759,3.656q.044,11.194,0,22.388c-.006,2.326-.943,3.224-3.312,3.239-3.77.025-7.543-.052-11.312.029-2.171.047-2.917-.932-2.874-3C1403.394,1877.2,1403.338,1873.346,1403.338,1869.5Z" transform="translate(12.384 7.929)" fill="#184971"/>
      <path id="Trazado_205892" data-name="Trazado 205892" d="M1443.068,1876.4c-5.245.005-6.194,1.534-6.11,7.63-2.672,0-5.346-.082-8.014.019-2.238.085-3.285-1.122-3.307-3.085-.084-7.7-.059-15.4-.019-23.1a2.86,2.86,0,0,1,3.1-3.113q5.776-.088,11.55,0c2.057.033,2.831,1.308,2.822,3.266C1443.06,1864.143,1443.072,1870.273,1443.068,1876.4Z" transform="translate(18.479 7.926)" fill="#184971"/>
      <path id="Trazado_205893" data-name="Trazado 205893" d="M1475.249,1870.767l-32.415-.015q-.056-6.563-.108-13.126c-.011-1.925.944-2.886,2.89-2.855.7.011,1.4-.047,2.108-.074l.666.055,22.151-.034c.468.023.934.057,1.4.066,2.922.059,3.354.5,3.379,3.426.013,1.484.038,2.967.059,4.45Zm-15.194-13.091c-4.058-.256-6.943,2.158-6.976,5.785-.028,2.933,2.9,6.706,6.97,5.808,3.407-1,4.895-2.812,4.86-5.914C1464.877,1860.415,1463.359,1858.638,1460.055,1857.675Z" transform="translate(23.171 7.924)" fill="#81af1d"/>
      <path id="Trazado_205894" data-name="Trazado 205894" d="M1452.479,1860.746c-.222-.018-.444-.036-.666-.055.005-3.771.042-7.544.011-11.316-.042-5.062-2.53-7.529-7.535-7.552q-8.25-.038-16.5-.081c.008-.862.01-1.725.025-2.587a6.028,6.028,0,0,1,6.333-6.332c9.017-.037,18.033-.023,27.05-.029q.065,7.331.131,14.662c-1.863.031-3.727.117-5.589.076-2.015-.043-3.075.739-2.992,2.875.08,2.018.052,4.039.071,6.059C1452.17,1857.85,1452.7,1859.328,1452.479,1860.746Z" transform="translate(19.083 1.929)" fill="#e2872c"/>
      <path id="Trazado_205895" data-name="Trazado 205895" d="M1420.814,1903.246h-17.478c0-4.637-.015-9.274,0-13.91.009-2.533.876-3.424,3.352-3.442,3.379-.024,6.758-.019,10.137,0,3.007.015,3.97.954,3.983,3.914C1420.831,1894.287,1420.816,1898.766,1420.814,1903.246Z" transform="translate(12.388 16.459)" fill="#184971"/>
      <path id="Trazado_205896" data-name="Trazado 205896" d="M1436.953,1885.884q.04,8.71.082,17.419l-11.437-.059c0-4.452-.014-8.9,0-13.354.011-3.07.959-3.985,4.091-4C1432.111,1885.879,1434.531,1885.885,1436.953,1885.884Z" transform="translate(18.482 16.46)" fill="#184971"/>
      <path id="Trazado_205897" data-name="Trazado 205897" d="M1471.451,1868.651c-.02-1.484-.046-2.967-.059-4.45-.026-2.929-.457-3.368-3.379-3.426-.469-.009-.935-.043-1.4-.066q-.053-2.119-.108-4.238c.023-1.96,0-3.922.079-5.879.089-2.235-1-3.108-3.147-3.062-2.114.046-4.231-.046-6.347-.076l.115-14.646c7.479,0,14.96-.01,22.439.01,3.938.01,6.322,2.346,6.334,6.3.033,9.842.006,19.683.005,29.525Z" transform="translate(27.103 1.932)" fill="#e2872c"/>
      <path id="Trazado_205898" data-name="Trazado 205898" d="M1458.042,1833.385q-.057,7.323-.115,14.646h-3.777q-.065-7.331-.131-14.662c.145-1.286.314-2.687,1.992-2.677C1457.667,1830.7,1457.855,1832.111,1458.042,1833.385Z" transform="translate(26.263 1.354)" fill="#28283d"/>
      <path id="Trazado_205899" data-name="Trazado 205899" d="M1413.827,1932.734q12.623,0,25.248,0c3.559,0,4.608,1.08,4.631,4.656.011,1.731.061,3.46.046,5.19-.022,2.689-1.132,3.877-3.792,4.095-.548.046-1.1.014-1.652.014q-24.774,0-49.55,0c-4.143,0-5.109-.911-5.28-5.077a46.893,46.893,0,0,1,.019-4.952c.192-2.941,1.441-4.017,4.377-4.015q12.977.013,25.953,0Z" transform="translate(6.939 29.261)" fill="#e2872c"/>
      <path id="Trazado_205900" data-name="Trazado 205900" d="M1387.738,1914.5l45.248-.091c1.886,0,3.772-.02,5.657.006,2.716.038,3.808,1.124,3.871,3.887.032,1.411-.049,2.825-.076,4.238l-36.75-.022c-4.789,0-9.58.029-14.37-.013-2.6-.022-3.549-1.009-3.573-3.531C1387.729,1917.479,1387.739,1915.987,1387.738,1914.5Z" transform="translate(8.12 24.265)" fill="#e2872c"/>
      <path id="Trazado_205901" data-name="Trazado 205901" d="M1387.725,1951.291q16.643-.048,33.285-.1,8.619-.019,17.237.005c3.108.01,4.249,1.167,4.272,4.285.009,1.256-.066,2.513-.1,3.77q-8.477-.011-16.954-.021-16.953-.006-33.908,0c-3.012,0-3.791-.77-3.811-3.7C1387.734,1954.116,1387.731,1952.7,1387.725,1951.291Z" transform="translate(8.117 34.335)" fill="#e2872c"/>
      <path id="Trazado_205902" data-name="Trazado 205902" d="M1388.85,1951.277c.006,1.413.009,2.825.019,4.239.02,2.931.8,3.7,3.811,3.7q16.954.008,33.908,0,8.477,0,16.954.021c.383,4.71-.436,5.62-5.078,5.62q-25.155,0-50.31,0c-3.8,0-4.52-.738-4.537-4.568q-.009-2.124,0-4.25C1383.628,1951.808,1384.482,1951.031,1388.85,1951.277Z" transform="translate(6.991 34.349)" fill="#f8bc39"/>
      <path id="Trazado_205903" data-name="Trazado 205903" d="M1388.866,1914.493c0,1.491-.009,2.983.006,4.476.024,2.522.972,3.509,3.573,3.531,4.791.042,9.581.011,14.37.013l36.75.022c.3,4.579-.637,5.579-5.232,5.579q-24.876,0-49.752,0c-4.112,0-4.953-.846-4.964-4.957q-.006-2,0-4.009C1383.628,1914.853,1384.469,1914.109,1388.866,1914.493Z" transform="translate(6.991 24.267)" fill="#f8bc39"/>
      <path id="Trazado_205904" data-name="Trazado 205904" d="M1490.143,1879.548c0-2.672.026-5.344-.009-8.016-.018-1.391.592-2.006,1.982-1.992,2.986.029,5.973.006,8.958.009a2.054,2.054,0,0,1,2.3,2.344c0,5.343-.008,10.687.005,16.03a2.129,2.129,0,0,1-2.443,2.446c-2.75-.018-5.5-.032-8.25.005-1.79.025-2.577-.8-2.551-2.575C1490.169,1885.049,1490.141,1882.3,1490.143,1879.548Z" transform="translate(36.147 11.987)" fill="#a3a3a3"/>
      <path id="Trazado_205905" data-name="Trazado 205905" d="M1503.373,1906.032c0,2.594-.024,5.187.008,7.78.023,1.784-.814,2.572-2.586,2.547-2.828-.039-5.658-.059-8.485.008-1.657.038-2.2-.708-2.186-2.282.048-5.344.032-10.688.01-16.031-.006-1.625.657-2.527,2.358-2.522,2.829.006,5.658.011,8.487,0,1.685-.008,2.412.848,2.4,2.488C1503.357,1900.688,1503.372,1903.36,1503.373,1906.032Z" transform="translate(36.145 19.101)" fill="#a3a3a3"/>
      <path id="Trazado_205906" data-name="Trazado 205906" d="M1469.216,1851.386q.053,2.119.108,4.238l-22.151.034c.225-1.418-.308-2.9.342-4.279Z" transform="translate(24.389 7.016)" fill="#cced74"/>
      <path id="Trazado_205907" data-name="Trazado 205907" d="M1457.163,1857.035c3.3.963,4.822,2.74,4.854,5.68.034,3.1-1.453,4.911-4.86,5.914-.921-.8-2.163-1.124-2.843-2.33C1452.34,1862.8,1453.186,1859.88,1457.163,1857.035Z" transform="translate(26.063 8.564)" fill="#2e66b5"/>
      <path id="Trazado_205908" data-name="Trazado 205908" d="M1457.83,1857.039c-3.978,2.845-4.824,5.764-2.849,9.264.68,1.206,1.922,1.529,2.843,2.33-4.075.9-7-2.875-6.97-5.808C1450.887,1859.2,1453.772,1856.783,1457.83,1857.039Z" transform="translate(25.396 8.56)" fill="#1f5488"/>
      <path id="Trazado_205909" data-name="Trazado 205909" d="M1469.159,1853.323l-21.7-.006c-.019-2.02.009-4.042-.071-6.059-.083-2.136.977-2.918,2.992-2.875,1.862.041,3.726-.046,5.589-.076h3.777c2.116.031,4.233.122,6.347.076,2.15-.046,3.237.827,3.147,3.062C1469.16,1849.4,1469.182,1851.363,1469.159,1853.323Z" transform="translate(24.446 5.079)" fill="#81af1d"/>
    </g>
  </g>
</svg>
