<svg xmlns="http://www.w3.org/2000/svg" width="139.001" height="139.001" viewBox="0 0 139.001 139.001">
  <g id="Grupo_153103" data-name="Grupo 153103" transform="translate(911 9157)">
    <g id="humedad" transform="translate(-911 -9157)">
      <path id="Trazado_262654" data-name="Trazado 262654" d="M6.844,104.17a66.484,66.484,0,0,0,20.8,34.352l86.9.691A66.515,66.515,0,1,0,14.782,53.757Z" transform="translate(-4.986 -16.027)" fill="#81af1d"/>
      <path id="Trazado_262655" data-name="Trazado 262655" d="M177.984,28.832a21.069,21.069,0,1,1-35.524-3.763L155.977,7.823A37.327,37.327,0,0,0,98.053,24.517a3,3,0,0,1-3.278,1.893,24.252,24.252,0,0,0-23.148,9.862c.078,0,.155,0,.233,0A25.789,25.789,0,0,1,96,53.147a2.587,2.587,0,0,0,2.8,1.63,16.671,16.671,0,0,1,2.358-.168,16.485,16.485,0,0,1,11.654,4.8A46.282,46.282,0,0,1,153.07,74.66h13.42c13.38,0,24.573-10.649,24.691-24.028a24.233,24.233,0,0,0-13.2-21.8Z" transform="translate(-52.181)" fill="#b8e9fa"/>
      <g id="Grupo_153043" data-name="Grupo 153043" transform="translate(19.446 0)">
        <path id="Trazado_262656" data-name="Trazado 262656" d="M109.371,43.355a2.505,2.505,0,0,0,1.482-1.918A19.756,19.756,0,0,1,128.6,24.968a2.445,2.445,0,0,0,2.245-2.111A30.486,30.486,0,0,1,143.673,1.518a37.357,37.357,0,0,0-45.621,23,3,3,0,0,1-3.278,1.893,24.252,24.252,0,0,0-23.148,9.862c.078,0,.155,0,.233,0A25.789,25.789,0,0,1,96,53.147a2.587,2.587,0,0,0,2.8,1.63,16.671,16.671,0,0,1,2.358-.168c.1,0,.2.006.3.007a13,13,0,0,1,7.908-11.262Z" transform="translate(-71.627 0)" fill="#8adaf9"/>
      </g>
      <path id="Trazado_262657" data-name="Trazado 262657" d="M46.558,150.375a2.105,2.105,0,0,1-2.3-1.327A26.187,26.187,0,0,0,9.8,133.792,66.654,66.654,0,0,0,1.858,184.2H23.253a46.458,46.458,0,0,1,37.963-28.8,16.938,16.938,0,0,0-12.234-5.2,17.119,17.119,0,0,0-2.424.173Z" transform="translate(0 -96.062)" fill="#e6f8fc"/>
      <path id="Trazado_262658" data-name="Trazado 262658" d="M352.958,37.746,337.89,18.522a2.232,2.232,0,0,0-3.514,0L319.308,37.746a21.377,21.377,0,1,0,33.65,0Z" transform="translate(-229.275 -12.87)" fill="#2ebcf6"/>
      <path id="Trazado_262659" data-name="Trazado 262659" d="M327.843,49.154c7.534-3.122,4.14-10.113,4.14-10.113l4.362-21.358a2.222,2.222,0,0,0-1.969.844L319.308,37.751a21.376,21.376,0,0,0,16.28,34.554C323.072,63.263,327.843,49.154,327.843,49.154Z" transform="translate(-229.275 -12.875)" fill="#009cf2"/>
      <g id="Grupo_153047" data-name="Grupo 153047" transform="translate(94.33 22.684)">
        <g id="Grupo_153044" data-name="Grupo 153044" transform="translate(5.773 1.012)">
          <path id="Trazado_262660" data-name="Trazado 262660" d="M371.066,113.692a2.344,2.344,0,0,1-2.159-3.25l9.117-21.725a2.343,2.343,0,1,1,4.32,1.813l-9.117,21.725A2.343,2.343,0,0,1,371.066,113.692Z" transform="translate(-368.724 -87.281)" fill="#e6f8fc"/>
        </g>
        <g id="Grupo_153045" data-name="Grupo 153045">
          <path id="Trazado_262661" data-name="Trazado 262661" d="M353.829,97.6c-3.513,0-6.371-3.151-6.371-7.024s2.858-7.024,6.371-7.024S360.2,86.7,360.2,90.578,357.342,97.6,353.829,97.6Zm0-9.362c-.914,0-1.686,1.071-1.686,2.339s.772,2.339,1.686,2.339,1.686-1.071,1.686-2.339S354.743,88.239,353.829,88.239Z" transform="translate(-347.458 -83.554)" fill="#e6f8fc"/>
        </g>
        <g id="Grupo_153046" data-name="Grupo 153046" transform="translate(12.313 14.853)">
          <path id="Trazado_262662" data-name="Trazado 262662" d="M399.184,152.313c-3.513,0-6.371-3.151-6.371-7.024s2.858-7.024,6.371-7.024,6.371,3.151,6.371,7.024S402.7,152.313,399.184,152.313Zm0-9.363c-.914,0-1.686,1.071-1.686,2.339s.772,2.339,1.686,2.339,1.686-1.071,1.686-2.339S400.1,142.95,399.184,142.95Z" transform="translate(-392.813 -138.265)" fill="#e6f8fc"/>
        </g>
      </g>
      <path id="Trazado_262663" data-name="Trazado 262663" d="M118.435,215.853a46.834,46.834,0,0,0-43.591,63.894,66.4,66.4,0,0,0,25.08,13.815l36.537.288v0a66.365,66.365,0,0,0,25.285-13.415,46.828,46.828,0,0,0-43.311-64.585Z" transform="translate(-52.181 -157.252)" fill="#5000c7"/>
      <path id="Trazado_262664" data-name="Trazado 262664" d="M147.093,293.651a1.487,1.487,0,0,0-1.527-1.424c-10.689.262-13.906-7.938-14.715-10.884a1.483,1.483,0,0,0-1.26-1.089,4.7,4.7,0,0,1-4.575-4.682,1.5,1.5,0,0,0-1.241-1.37c-8.074-1.446-8.008-7.61-7.652-10.042a1.5,1.5,0,0,0-.7-1.487c-4.188-2.6-3.6-7.06-3.069-9.084a1.485,1.485,0,0,0-.637-1.631c-6.944-4.413-6.328-11.641-5.826-14.286a1.522,1.522,0,0,0-.606-1.5,2.5,2.5,0,0,1-.933-2.882,1.474,1.474,0,0,0-.626-1.651,3.394,3.394,0,0,1-1.4-3.847,1.5,1.5,0,0,0-.218-1.143,46.856,46.856,0,0,0-27.258,60.963,66.4,66.4,0,0,0,25.08,13.815l36.537.288v0a66.069,66.069,0,0,0,13.178-5.228,1.483,1.483,0,0,0-.5-.187A2.472,2.472,0,0,1,147.093,293.651Z" transform="translate(-52.181 -165.116)" fill="#32007d"/>
      <path id="Trazado_262665" data-name="Trazado 262665" d="M141.065,246.917A38.356,38.356,0,0,0,115.078,313.5a66.681,66.681,0,0,0,51.527.406,38.356,38.356,0,0,0-25.54-66.989Z" transform="translate(-74.812 -179.883)" fill="#e6f8fc"/>
      <path id="Trazado_262666" data-name="Trazado 262666" d="M168.2,314.217c-10.689.262-13.906-7.938-14.715-10.884a1.483,1.483,0,0,0-1.26-1.089,4.7,4.7,0,0,1-4.575-4.682,1.5,1.5,0,0,0-1.241-1.37c-8.074-1.446-8.008-7.61-7.652-10.042a1.5,1.5,0,0,0-.7-1.487c-4.188-2.6-3.6-7.06-3.069-9.084a1.485,1.485,0,0,0-.637-1.631c-6.944-4.413-6.328-11.641-5.826-14.286a1.522,1.522,0,0,0-.606-1.5,2.535,2.535,0,0,1-.966-1.329,38.351,38.351,0,0,0-11.869,63.891,66.681,66.681,0,0,0,51.527.406,38.765,38.765,0,0,0,3.644-3.73,3.126,3.126,0,0,1-.526-1.758A1.486,1.486,0,0,0,168.2,314.217Z" transform="translate(-74.812 -187.106)" fill="#b8e9fa"/>
      <path id="Trazado_262667" data-name="Trazado 262667" d="M271.162,288.365,244.04,315.487h38.375A38.253,38.253,0,0,0,271.162,288.365Z" transform="translate(-177.787 -210.078)" fill="#ff4155"/>
      <path id="Trazado_262668" data-name="Trazado 262668" d="M244.041,246.917v38.374l27.122-27.122A38.257,38.257,0,0,0,244.041,246.917Z" transform="translate(-177.787 -179.883)" fill="#f99300"/>
      <path id="Trazado_262669" data-name="Trazado 262669" d="M171.26,246.917a38.255,38.255,0,0,0-27.122,11.252l27.122,27.122Z" transform="translate(-105.007 -179.883)" fill="#ffe400"/>
      <path id="Trazado_262670" data-name="Trazado 262670" d="M169.205,290.458a10.243,10.243,0,0,1-.257-4.31,1.5,1.5,0,0,0-.7-1.487c-4.188-2.6-3.6-7.06-3.069-9.084a1.485,1.485,0,0,0-.637-1.631c-6.944-4.413-6.328-11.641-5.826-14.286a1.522,1.522,0,0,0-.606-1.5,2.535,2.535,0,0,1-.966-1.329,38.493,38.493,0,0,0-13,8.561Z" transform="translate(-105.007 -187.105)" fill="#fdca00"/>
      <path id="Trazado_262671" data-name="Trazado 262671" d="M113.943,288.365a38.255,38.255,0,0,0-11.252,27.122h38.375l-27.122-27.122Z" transform="translate(-74.812 -210.078)" fill="#60b550"/>
      <g id="Grupo_153048" data-name="Grupo 153048" transform="translate(49.078 126.053)">
        <path id="Trazado_262672" data-name="Trazado 262672" d="M197.951,473.373a29.566,29.566,0,0,1-16.106-4.755,2.343,2.343,0,0,1,2.547-3.933,24.969,24.969,0,0,0,27.119,0,2.343,2.343,0,1,1,2.547,3.933A29.569,29.569,0,0,1,197.951,473.373Z" transform="translate(-180.776 -464.308)" fill="#5ccbf7"/>
      </g>
      <path id="Trazado_262673" data-name="Trazado 262673" d="M134.779,238.288a40.694,40.694,0,0,0-31.848,66.055,66.106,66.106,0,0,0,13.336,5.563,36.03,36.03,0,1,1,36.539.288,66.081,66.081,0,0,0,13.419-5.35,40.7,40.7,0,0,0-31.445-66.556Z" transform="translate(-68.525 -173.596)" fill="#b0c0d2"/>
      <g id="Grupo_153049" data-name="Grupo 153049" transform="translate(25.537 67.223)">
        <path id="Trazado_262674" data-name="Trazado 262674" d="M116.266,316.7a36.022,36.022,0,0,1,5.856-64.636,1.6,1.6,0,0,0-.5-.619,2.5,2.5,0,0,1-.933-2.882,1.483,1.483,0,0,0-.048-.95,40.688,40.688,0,0,0-17.714,63.524,66.087,66.087,0,0,0,13.336,5.563Z" transform="translate(-94.062 -247.611)" fill="#727997"/>
        <path id="Trazado_262675" data-name="Trazado 262675" d="M310.44,479.15a66.056,66.056,0,0,0,13.177-5.226,1.488,1.488,0,0,0-.5-.187,2.472,2.472,0,0,1-2.049-2.65,1.442,1.442,0,0,0-.336-.881A36.314,36.314,0,0,1,310.44,479.15Z" transform="translate(-251.696 -409.775)" fill="#727997"/>
      </g>
      <path id="Trazado_262676" data-name="Trazado 262676" d="M214.349,313.4l-11.007-14.043a1.63,1.63,0,0,0-2.567,0L189.768,313.4a15.616,15.616,0,1,0,24.581,0Z" transform="translate(-135.805 -217.63)" fill="#515181"/>
      <path id="Trazado_262677" data-name="Trazado 262677" d="M214,351.151a1.452,1.452,0,0,0-.786-.342,4.7,4.7,0,0,1-4.575-4.682,1.5,1.5,0,0,0-1.241-1.37c-8.074-1.446-8.008-7.61-7.652-10.042a1.5,1.5,0,0,0-.7-1.487c-4.188-2.6-3.6-7.06-3.069-9.084A1.475,1.475,0,0,0,196,323.5l-6.228,7.946a15.616,15.616,0,0,0,12.29,25.249A15.34,15.34,0,0,0,214,351.151Z" transform="translate(-135.806 -235.671)" fill="#41416b"/>
      <circle id="Elipse_4936" data-name="Elipse 4936" cx="7.658" cy="7.658" r="7.658" transform="matrix(0.515, -0.857, 0.857, 0.515, 55.728, 108.099)" fill="#8080c1"/>
      <path id="Trazado_262678" data-name="Trazado 262678" d="M229.816,373.126a1.517,1.517,0,0,0-.985-.637c-8.074-1.446-8.008-7.61-7.652-10.042a1.468,1.468,0,0,0-.149-.883,7.657,7.657,0,1,0,8.786,11.562Z" transform="translate(-157.238 -263.405)" fill="#7070ab"/>
      <path id="Trazado_262679" data-name="Trazado 262679" d="M5.334,169.459a17.483,17.483,0,0,1,14.658-17.57,2.234,2.234,0,0,0,1.762-1.447,27.007,27.007,0,0,1,12.12-14.4A26.193,26.193,0,0,0,9.8,133.791,66.655,66.655,0,0,0,1.858,184.2H14.126a17.417,17.417,0,0,1-8.792-14.744Z" transform="translate(0 -96.061)" fill="#b8e9fa"/>
    </g>
  </g>
</svg>
