<svg xmlns="http://www.w3.org/2000/svg" width="134" height="138" viewBox="0 0 134 138">
  <g id="Grupo_153104" data-name="Grupo 153104" transform="translate(562 9156)">
    <g id="Grupo_153051" data-name="Grupo 153051" transform="translate(-1352 -11549)">
      <circle id="Elipse_4939" data-name="Elipse 4939" cx="67" cy="67" r="67" transform="translate(790 2397)" fill="#81af1d"/>
      <g id="_23-Humidity" data-name="23-Humidity" transform="translate(810.754 2393)">
        <path id="Trazado_262645" data-name="Trazado 262645" d="M88.934,37H14.971a37.952,37.952,0,1,0,73.963,0Z" transform="translate(-5.567 38.904)" fill="#5ec8e6"/>
        <path id="Trazado_262646" data-name="Trazado 262646" d="M102.77,85.337a46.385,46.385,0,1,1-92.77,0c0-21.8,29.117-69.515,42.632-82.819a5.4,5.4,0,0,1,7.506,0C73.653,15.822,102.77,63.536,102.77,85.337Zm-8.434,0a38.3,38.3,0,0,0-.97-8.434H19.4a37.952,37.952,0,1,0,74.933,8.434Z" transform="translate(-10 -1)" fill="#c2f1ff"/>
        <path id="Trazado_262647" data-name="Trazado 262647" d="M15.745,37h-.791a37.952,37.952,0,0,0,70.4,26.421A46.37,46.37,0,0,1,15.745,37Z" transform="translate(-5.551 38.904)" fill="#26a5c9"/>
        <path id="Trazado_262648" data-name="Trazado 262648" d="M89.806,76.7A37.93,37.93,0,0,1,19.4,50.28h.791A46.385,46.385,0,0,1,18.434,37.63a46.767,46.767,0,0,1,2.18-12.611C14.428,37.8,10,50.225,10,58.714a46.385,46.385,0,0,0,92.349,6.159A46.611,46.611,0,0,1,89.806,76.7Z" transform="translate(-10 25.624)" fill="#a4eaff"/>
        <g id="Grupo_153042" data-name="Grupo 153042" transform="translate(31.626 14.679)">
          <path id="Trazado_262649" data-name="Trazado 262649" d="M38.04,18.736a4.217,4.217,0,0,1-3.525-1.9c-.493-.751-.989-1.476-1.476-2.214a4.217,4.217,0,1,1,6.979-4.731q.772,1.132,1.543,2.319a4.217,4.217,0,0,1-3.521,6.523Z" transform="translate(-16.956 -7.962)" fill="#fff"/>
          <path id="Trazado_262650" data-name="Trazado 262650" d="M57.019,57.17a4.217,4.217,0,0,1-3.985-2.846A196.462,196.462,0,0,0,37.254,21.342a4.217,4.217,0,1,1,7.285-4.251A206.35,206.35,0,0,1,61.006,51.579a4.217,4.217,0,0,1-3.987,5.592Z" transform="translate(-12.055 -0.163)" fill="#fff"/>
          <path id="Trazado_262651" data-name="Trazado 262651" d="M27.108,69.518a2.108,2.108,0,0,1-1.491-3.6l25.3-25.3A2.108,2.108,0,1,1,53.9,43.6L28.6,68.9A2.108,2.108,0,0,1,27.108,69.518Z" transform="translate(-25 27.549)" fill="#fff"/>
          <path id="Trazado_262652" data-name="Trazado 262652" d="M39.325,61.651a6.325,6.325,0,1,1,6.325-6.325A6.325,6.325,0,0,1,39.325,61.651Zm0-8.434a2.108,2.108,0,1,0,2.108,2.108A2.108,2.108,0,0,0,39.325,53.217Z" transform="translate(-16.133 37.525)" fill="#fff"/>
          <path id="Trazado_262653" data-name="Trazado 262653" d="M31.325,51.651a6.325,6.325,0,1,1,6.325-6.325,6.325,6.325,0,0,1-6.325,6.325Zm0-8.434a2.108,2.108,0,1,0,2.108,2.108A2.108,2.108,0,0,0,31.325,43.217Z" transform="translate(-25 26.441)" fill="#fff"/>
        </g>
      </g>
    </g>
  </g>
</svg>
