<svg xmlns="http://www.w3.org/2000/svg" width="139" height="139" viewBox="0 0 139 139">
  <g id="Grupo_153107" data-name="Grupo 153107" transform="translate(-571 9157)">
    <g id="azucar" transform="translate(571 -9157)">
      <path id="Trazado_262610" data-name="Trazado 262610" d="M139,69.5a69.271,69.271,0,0,1-4.942,25.786q-.765,1.923-1.645,3.787a69.545,69.545,0,0,1-125.826,0q-.876-1.863-1.645-3.789A69.507,69.507,0,1,1,139,69.5Zm0,0" fill="#81af1d"/>
      <path id="Trazado_262611" data-name="Trazado 262611" d="M147.319,306.845q-.765,1.923-1.645,3.787a69.545,69.545,0,0,1-125.827,0q-.876-1.863-1.645-3.789c3.381-5.018,7.324-8.829,8.057-16.445h113a22.207,22.207,0,0,0,.363,2.422q.145.706.332,1.37c1.45,5.245,4.6,8.544,7.364,12.655Zm0,0" transform="translate(-13.261 -211.56)" fill="#ff9e3d"/>
      <path id="Trazado_262612" data-name="Trazado 262612" d="M163.14,97.709C163.14,86,125.447,55.5,107.98,55.5S52.82,86,52.82,97.709" transform="translate(-38.48 -40.436)" fill="#e6e6e6"/>
      <path id="Trazado_262613" data-name="Trazado 262613" d="M107.981,55.5c-8.49,0-26.815,30.5-26.815,42.205H52.821C52.821,86,90.515,55.5,107.981,55.5Zm0,0" transform="translate(-38.48 -40.436)" fill="#ccc"/>
      <path id="Trazado_262614" data-name="Trazado 262614" d="M139.969,294.256c-22.549,0-94.4-3.685-104.987,37.272a69.589,69.589,0,0,1-15.134-20.9q-.876-1.863-1.645-3.789c3.381-5.018,7.324-8.829,8.057-16.445H139.042l.581,2.422.332,1.37Zm0,0" transform="translate(-13.261 -211.56)" fill="#e2872c"/>
      <path id="Trazado_262615" data-name="Trazado 262615" d="M150.392,223.968a7.187,7.187,0,0,1-6.694,5.818q-41.917,2.286-83.835,1.084-13.144-.374-26.285-1.1a7.142,7.142,0,0,1-6.348-4.688,21.6,21.6,0,0,1-.406-13.279,7.141,7.141,0,0,1,6.434-4.936q13.127-.719,26.253-1.1,42.067-1.222,84.126,1.07a7.224,7.224,0,0,1,6.706,5.869,32.073,32.073,0,0,1,.048,11.259Zm0,0" transform="translate(-18.918 -149.598)" fill="#e2872c"/>
      <path id="Trazado_262616" data-name="Trazado 262616" d="M224.792,223.968a7.187,7.187,0,0,1-6.694,5.818q-41.917,2.286-83.835,1.084a8.087,8.087,0,0,1-4.726-4.817,24.656,24.656,0,0,1-.466-15.177,8.084,8.084,0,0,1,4.839-5.106q42.067-1.222,84.126,1.07a7.224,7.224,0,0,1,6.706,5.869,32.073,32.073,0,0,1,.048,11.259Zm0,0" transform="translate(-93.318 -149.598)" fill="#ff9e3d"/>
      <g id="Grupo_153041" data-name="Grupo 153041" transform="translate(43.411 19.52)">
        <path id="Trazado_262617" data-name="Trazado 262617" d="M369.653,156.385a2.842,2.842,0,1,1-2.842-2.842A2.842,2.842,0,0,1,369.653,156.385Zm0,0" transform="translate(-308.568 -131.379)" fill="#ccc"/>
        <path id="Trazado_262618" data-name="Trazado 262618" d="M344.916,124.1a2.218,2.218,0,1,1-2.219-2.217A2.218,2.218,0,0,1,344.916,124.1Zm0,0" transform="translate(-291.456 -108.317)" fill="#ccc"/>
        <path id="Trazado_262619" data-name="Trazado 262619" d="M338.787,153.719a2.218,2.218,0,1,1-2.217-2.219A2.218,2.218,0,0,1,338.787,153.719Zm0,0" transform="translate(-286.991 -129.891)" fill="#ccc"/>
        <path id="Trazado_262620" data-name="Trazado 262620" d="M164.338,177.723a2.218,2.218,0,1,1-2.219-2.219A2.218,2.218,0,0,1,164.338,177.723Zm0,0" transform="translate(-159.902 -147.378)" fill="#ccc"/>
        <path id="Trazado_262621" data-name="Trazado 262621" d="M174.319,147.883a2.218,2.218,0,1,1-2.219-2.219A2.217,2.217,0,0,1,174.319,147.883Zm0,0" transform="translate(-167.173 -125.639)" fill="#ccc"/>
        <path id="Trazado_262622" data-name="Trazado 262622" d="M193.377,168.324a2.218,2.218,0,1,1-2.219-2.219A2.218,2.218,0,0,1,193.377,168.324Zm0,0" transform="translate(-181.058 -140.531)" fill="#ccc"/>
        <path id="Trazado_262623" data-name="Trazado 262623" d="M267.87,74.121a2.219,2.219,0,1,1-2.219-2.219A2.218,2.218,0,0,1,267.87,74.121Zm0,0" transform="translate(-235.326 -71.902)" fill="#ccc"/>
        <path id="Trazado_262624" data-name="Trazado 262624" d="M288.217,181.186A2.218,2.218,0,1,1,286,178.969,2.218,2.218,0,0,1,288.217,181.186Zm0,0" transform="translate(-250.15 -149.902)" fill="#ccc"/>
      </g>
    </g>
  </g>
</svg>
