<svg xmlns="http://www.w3.org/2000/svg" width="315" height="315" viewBox="0 0 315 315">
  <g id="Grupo_153122" data-name="Grupo 153122" transform="translate(-503 6663)">
    <g id="Grupo_152734" data-name="Grupo 152734" transform="translate(91 -7966)">
      <circle id="Elipse_4871" data-name="Elipse 4871" cx="157.5" cy="157.5" r="157.5" transform="translate(412 1303)" fill="#81af1d" opacity="0.15" style="isolation: isolate"/>
      <g id="Grupo_152731" data-name="Grupo 152731" transform="translate(443.222 1358.523)">
        <g id="Grupo_152730" data-name="Grupo 152730">
          <path id="Trazado_205040" data-name="Trazado 205040" d="M581.242,1408.753q7.2,10.369,14.4,20.736c10.162,14.629,19.734,29.638,28.952,44.874,1.929,3.188,3.807,6.412,5.556,9.7a9.3,9.3,0,0,1-1.705,11.381,101.33,101.33,0,0,1-27.133,20.49,89.255,89.255,0,0,1-29.481,9.083,109.648,109.648,0,0,1-23.522.342c-5.4-.474-8.827-4.761-8.837-11.072q-.034-23.435-.019-46.87,0-18.975.028-37.951c4.524.591,8.806-.67,13.115-1.719.417.234.855.434,1.248.7a9.514,9.514,0,0,0,12.452-1.1c2.1-2.037,2.812-4.666,3.368-7.386A40.562,40.562,0,0,0,581.242,1408.753Z" transform="translate(-455.308 -1368.551)" fill="#e2872c" opacity="0.35" style="isolation: isolate"/>
          <path id="Trazado_205041" data-name="Trazado 205041" d="M535.229,1425.638c-2.858-2.643-4-6.222-5.122-9.75a40.9,40.9,0,0,1-1.226-19.8c2.828-2.04,6.063-2.686,9.468-3.011a65.775,65.775,0,0,1,16.6.34c3.1.491,6.165,1.2,9.245,1.808.239.054.471.283.722.032l-.014-.013c-.211.588.062.827.621.861,1.559-.022,2.892.758,4.32,1.208,2.792.882,5.422,2.325,8.43,2.468a18.156,18.156,0,0,1,2.286,3.721,26.022,26.022,0,0,1-3.052.471,39.27,39.27,0,0,0-15.087,3.956,52.662,52.662,0,0,0-14.152,8.395c-2.99,1.552-5.373,3.932-8.071,5.881C538.567,1423.38,537.37,1425.2,535.229,1425.638Z" transform="translate(-454.242 -1367.03)" fill="#e53935"/>
          <path id="Trazado_205042" data-name="Trazado 205042" d="M520.464,1547.567c.333.515.684,1.018.995,1.546a3.4,3.4,0,0,1-3.193,5.2c-11.8-.167-23.6-.066-35.407-.066-4.211,0-8.421.024-12.631-.009-2.983-.023-4.394-2.117-3.183-4.864a25.272,25.272,0,0,1,10.3-11.785c2.664.034,5.337-.01,7.895.928-.469.658-1.693.346-1.923,1.609l4.027-1.718c.767-.872,1.635-.528,2.353-.037a3.19,3.19,0,0,0,1.525.472,88.73,88.73,0,0,1,22.437,5.843C515.94,1545.625,517.969,1547.157,520.464,1547.567Zm-42.682-2.877,2.468-2.583A3.3,3.3,0,0,0,477.782,1544.689Zm-2.033,3.2,1.542-2.611C476.092,1545.7,475.777,1546.666,475.749,1547.893Zm7.08-7.728a2.35,2.35,0,0,0-2.01,1.27A2.784,2.784,0,0,0,482.829,1540.165Z" transform="translate(-448.401 -1380.768)" fill="#81af1d"/>
          <path id="Trazado_205043" data-name="Trazado 205043" d="M564.264,1393.392c-3.08-.61-6.146-1.317-9.245-1.808a65.775,65.775,0,0,0-16.6-.34c-3.405.326-6.64.971-9.468,3.011-.191-1.761,1.076-3.31.743-5.092l-.031.08c.49.22.378-.175.42-.411.93-2.176,1.691-4.418,2.789-6.531.711-1.37,1.957-2.445,2.22-4.052,2.79-2.354,5.513-4.781,9.5-4.861a15.776,15.776,0,0,1,6.849,1.174c11.329,5.063,20.12,13.073,26.9,23.383-3.008-.142-5.637-1.586-8.43-2.468-1.428-.45-2.762-1.229-4.321-1.208-.1-.364-.2-.726-.62-.861l.014.013a2.7,2.7,0,0,0-1.523-1.782C563.366,1392.527,564.091,1392.82,564.264,1393.392Zm-1.561-2.235c.142.082.369.266.413.23.274-.228.056-.385-.132-.53a9.6,9.6,0,0,0-2.913-2.906l-.472-.2.167.479Q561.234,1389.694,562.7,1391.157Zm-15.567-10.588-.043-.051.053.046c2.12,1.972,5.038,2.257,7.452,3.608A19.535,19.535,0,0,0,547.137,1380.569Zm12.274,7.144a3.177,3.177,0,0,0-2.138-1.844A3.326,3.326,0,0,0,559.411,1387.714Zm-2.077-1.96a4.814,4.814,0,0,0-.74-.534c-.129-.058-.409-.039-.3.24a.794.794,0,0,0,.4.379C556.815,1385.891,556.994,1385.807,557.333,1385.754Zm-2-.558.6-.273a3.789,3.789,0,0,0-.536-.516c-.164-.108-.4-.025-.362.193A2.071,2.071,0,0,0,555.328,1385.2Z" transform="translate(-454.311 -1365.197)" fill="#f45d5d"/>
          <path id="Trazado_205044" data-name="Trazado 205044" d="M491.152,1523.267q-7.089-42.478-14.179-84.955-.17-1.021-.338-2.041a14.6,14.6,0,0,0,5.853-.8q2.049,14.878,4.1,29.755,3.013,22.168,5.993,44.341c.6,4.448,1.226,8.892,1.839,13.339Z" transform="translate(-449.352 -1371.085)" fill="#070707"/>
          <path id="Trazado_205045" data-name="Trazado 205045" d="M529.685,1378.759c-.263,1.607-1.509,2.682-2.22,4.052-1.1,2.113-1.858,4.355-2.789,6.531-.221.053-.508.04-.42.411l.031-.08c-4.912,2.325-9.482,5.267-14.2,7.946-9.275,5.267-18.515,10.6-27.769,15.9-2.987-1.27-6.035-1.97-9.258-.955-.349-2.177-.654-4.363-1.067-6.527-.2-1.037-.091-1.525,1.145-1.46,1.78.093,4.125-.665,5.2.207,1.043.849.787,3.295,1.105,5.067a5.824,5.824,0,0,0,2.407-1.241q23.033-14.4,46.052-28.814C528.484,1379.433,529.09,1379.1,529.685,1378.759Z" transform="translate(-448.904 -1365.707)" fill="#060606"/>
          <path id="Trazado_205046" data-name="Trazado 205046" d="M491.327,1532.426l3.265-.358a39.49,39.49,0,0,1,11.075,1.629,45.144,45.144,0,0,1,8.83,4.649c2.764,2.573,5.592,5.093,7.093,8.7-2.5-.409-4.524-1.942-6.8-2.88a88.73,88.73,0,0,0-22.437-5.843,3.189,3.189,0,0,1-1.525-.473c-.719-.491-1.587-.835-2.353.037-.734-.59-1.4.188-2.1.109-2.558-.938-5.231-.893-7.895-.928A29.3,29.3,0,0,1,491.327,1532.426Z" transform="translate(-449.526 -1380.245)" fill="#b5dd47"/>
          <path id="Trazado_205047" data-name="Trazado 205047" d="M472.667,1416.057c3.223-1.015,6.271-.315,9.258.955.409.358.815.722,1.231,1.073a9.249,9.249,0,0,1-.055,14.367c-.474.393-.97.759-1.456,1.137a14.619,14.619,0,0,1-5.853.795c-4.721-1.276-7.759-4.026-8.052-9.185a21.937,21.937,0,0,1,1.037-5.081A11.906,11.906,0,0,1,472.667,1416.057ZM476.9,1430.2a5.234,5.234,0,0,0,5.113-5.4c-.025-2.93-2.735-5.384-5.958-5.4-2.721-.012-4.779,2.309-4.8,5.407A5.458,5.458,0,0,0,476.9,1430.2Z" transform="translate(-448.508 -1369.198)" fill="#5000c7"/>
          <path id="Trazado_205048" data-name="Trazado 205048" d="M566.006,1409.055a39.284,39.284,0,0,1,15.087-3.955,26.022,26.022,0,0,0,3.052-.471,6.018,6.018,0,0,1-.385,3.732,40.561,40.561,0,0,1-11.582,11.217c-.319-1.36-.125-2.822-.81-4.11A9.432,9.432,0,0,0,566.006,1409.055Z" transform="translate(-457.826 -1368.16)" fill="#302e2d"/>
          <path id="Trazado_205049" data-name="Trazado 205049" d="M535.965,1428.111c2.141-.438,3.338-2.258,4.968-3.436,2.7-1.949,5.082-4.329,8.071-5.88q.041,1.082.081,2.162c-.12,3.065,1.56,5.39,3.176,7.743-4.31,1.049-8.591,2.31-13.115,1.719C537.993,1429.779,536.568,1429.512,535.965,1428.111Z" transform="translate(-454.978 -1369.504)" fill="#302e2d"/>
          <path id="Trazado_205050" data-name="Trazado 205050" d="M466.763,1420.594a21.935,21.935,0,0,0-1.037,5.081c-5.551,3.173-11.107,6.334-16.643,9.531-.931.538-1.561.849-2.249-.417-.619-1.138-.387-1.587.649-2.221C453.934,1428.618,460.341,1424.594,466.763,1420.594Z" transform="translate(-446.493 -1369.674)" fill="#090a0a"/>
          <path id="Trazado_205051" data-name="Trazado 205051" d="M517.345,1538.053a45.143,45.143,0,0,0-8.83-4.649c.769-5.633.708-5.046,5.357-2.907,1.377.634,2.729,1.334,4.143,1.873,1.695.647,1.849,1.592.885,3C518.317,1536.221,517.859,1537.156,517.345,1538.053Z" transform="translate(-452.375 -1379.951)" fill="#e3ac0b"/>
          <path id="Trazado_205052" data-name="Trazado 205052" d="M551.79,1369.027c.272-1.334.541-2.613.792-3.9.084-.432.21-.868.735-.781s.521.542.435.978c-.256,1.281-.491,2.566-.771,3.842-.1.442-.149,1.086-.8.982C551.459,1370.038,551.837,1369.4,551.79,1369.027Z" transform="translate(-456.473 -1364.34)" fill="#302e2d"/>
          <path id="Trazado_205053" data-name="Trazado 205053" d="M549.042,1367.654c-.429.807.545,2.405-.595,2.417-1.016.01-.453-1.611-.463-2.478-.01-.883-.458-2.574.4-2.523C549.572,1365.142,548.668,1366.749,549.042,1367.654Z" transform="translate(-456.103 -1364.409)" fill="#060606"/>
          <path id="Trazado_205054" data-name="Trazado 205054" d="M558.547,1369.164a10.09,10.09,0,0,1-1.706,2.766.42.42,0,0,1-.689-.085c-.441-.621.151-1.019.419-1.42.434-.649.544-1.6,1.475-1.822C558.415,1368.516,558.382,1368.944,558.547,1369.164Z" transform="translate(-456.877 -1364.743)" fill="#302e2d"/>
          <path id="Trazado_205055" data-name="Trazado 205055" d="M553.636,1428.451c-1.617-2.353-3.3-4.678-3.176-7.743a6.4,6.4,0,0,0,2.793-.584c3.066-.96,5.963-2.427,9.178-2.949,1.26-.206,2.651-.035,3.71-1.014,1.089,1.654,2.5.317,3.754.4.685,1.288.492,2.75.81,4.11-.556,2.721-1.27,5.35-3.368,7.387a9.514,9.514,0,0,1-12.452,1.1C554.491,1428.885,554.053,1428.684,553.636,1428.451Zm10.955-2.695a6.282,6.282,0,0,0,1.736-4.632,30.42,30.42,0,0,1-1.995,4.352c-.343.3-.733.57-.723,1.145A1.17,1.17,0,0,0,564.591,1425.756Z" transform="translate(-456.352 -1369.254)" fill="#ef9d52"/>
          <path id="Trazado_205056" data-name="Trazado 205056" d="M569.887,1415.932c-1.256-.084-2.665,1.253-3.754-.4-1.059.978-2.45.808-3.71,1.014-3.214.522-6.112,1.989-9.178,2.949a6.4,6.4,0,0,1-2.793.584q-.039-1.081-.081-2.162a52.639,52.639,0,0,1,14.152-8.4A9.429,9.429,0,0,1,569.887,1415.932Z" transform="translate(-456.344 -1368.624)" fill="#e2872c"/>
          <path id="Trazado_205057" data-name="Trazado 205057" d="M567.881,1395.3c-.173-.572-.9-.865-.8-1.751a2.7,2.7,0,0,1,1.523,1.782C568.352,1395.588,568.12,1395.359,567.881,1395.3Z" transform="translate(-457.927 -1367.11)" fill="#3f1312"/>
          <path id="Trazado_205058" data-name="Trazado 205058" d="M568.741,1395.508c.418.135.52.5.62.861C568.8,1396.335,568.53,1396.1,568.741,1395.508Z" transform="translate(-458.079 -1367.295)" fill="#3f1312"/>
          <path id="Trazado_205059" data-name="Trazado 205059" d="M486.995,1538.579c.707.08,1.37-.7,2.1-.109l-4.027,1.718C485.3,1538.925,486.526,1539.237,486.995,1538.579Z" transform="translate(-450.152 -1380.831)" fill="none" stroke="#b5dd47" stroke-miterlimit="10" stroke-width="1"/>
          <path id="Trazado_205060" data-name="Trazado 205060" d="M478.952,1545.162a3.3,3.3,0,0,1,2.468-2.583Z" transform="translate(-449.571 -1381.242)" fill="none" stroke="#b5dd47" stroke-miterlimit="10" stroke-width="1"/>
          <path id="Trazado_205061" data-name="Trazado 205061" d="M476.706,1548.7c.028-1.227.343-2.2,1.542-2.611Z" transform="translate(-449.358 -1381.574)" fill="none" stroke="#b5dd47" stroke-miterlimit="10" stroke-width="1"/>
          <path id="Trazado_205062" data-name="Trazado 205062" d="M484.317,1540.435a2.785,2.785,0,0,1-2.01,1.27A2.349,2.349,0,0,1,484.317,1540.435Z" transform="translate(-449.889 -1381.038)" fill="none" stroke="#b5dd47" stroke-miterlimit="10" stroke-width="1"/>
          <path id="Trazado_205063" data-name="Trazado 205063" d="M549.044,1381.321a19.549,19.549,0,0,1,7.463,3.6c-2.414-1.35-5.332-1.636-7.452-3.608Z" transform="translate(-456.218 -1365.95)" fill="#3f1312"/>
          <path id="Trazado_205064" data-name="Trazado 205064" d="M563.3,1389.477a9.6,9.6,0,0,1,2.913,2.906,2.777,2.777,0,0,0-.281.3L563,1389.755A2.223,2.223,0,0,0,563.3,1389.477Z" transform="translate(-457.541 -1366.723)" fill="#3f1312"/>
          <path id="Trazado_205065" data-name="Trazado 205065" d="M562.38,1389.022a3.326,3.326,0,0,1-2.138-1.844A3.177,3.177,0,0,1,562.38,1389.022Z" transform="translate(-457.28 -1366.505)" fill="#3f1312"/>
          <path id="Trazado_205066" data-name="Trazado 205066" d="M560.2,1386.991c-.339.052-.519.137-.639.085a.794.794,0,0,1-.4-.379c-.113-.279.167-.3.3-.24A4.814,4.814,0,0,1,560.2,1386.991Z" transform="translate(-457.175 -1366.435)" fill="#3f1312"/>
          <path id="Trazado_205067" data-name="Trazado 205067" d="M558.063,1386.345a2.073,2.073,0,0,1-.294-.6c-.041-.218.2-.3.362-.193a3.789,3.789,0,0,1,.536.516Z" transform="translate(-457.045 -1366.347)" fill="#3f1312"/>
          <path id="Trazado_205068" data-name="Trazado 205068" d="M549.051,1381.312l-.054-.047.043.051Z" transform="translate(-456.213 -1365.945)" fill="#3f1312"/>
          <path id="Trazado_205069" data-name="Trazado 205069" d="M566.523,1392.687c.188.146.406.3.132.53-.043.036-.271-.147-.413-.228A2.755,2.755,0,0,1,566.523,1392.687Z" transform="translate(-457.849 -1367.028)" fill="#3f1312"/>
          <path id="Trazado_205070" data-name="Trazado 205070" d="M529.737,1390.861c-.088-.371.2-.358.42-.411C530.115,1390.686,530.227,1391.081,529.737,1390.861Z" transform="translate(-454.386 -1366.816)" fill="#fefefe"/>
          <path id="Trazado_205071" data-name="Trazado 205071" d="M562.979,1389.734l-.167-.479.472.2A2.22,2.22,0,0,1,562.979,1389.734Z" transform="translate(-457.523 -1366.702)" fill="#3f1312"/>
          <path id="Trazado_205072" data-name="Trazado 205072" d="M477.273,1430.6a5.458,5.458,0,0,1-5.64-5.39c.016-3.1,2.075-5.418,4.8-5.407,3.223.014,5.932,2.468,5.958,5.4A5.234,5.234,0,0,1,477.273,1430.6Zm.615-6.493c.835,1.494.235,3.026-.023,5.054C479.144,1427.1,479.11,1425.582,477.888,1424.108Z" transform="translate(-448.877 -1369.599)" fill="#e2872c"/>
          <path id="Trazado_205073" data-name="Trazado 205073" d="M565.784,1425.994a30.111,30.111,0,0,0,2-4.35,6.282,6.282,0,0,1-1.736,4.632C565.959,1426.181,565.872,1426.087,565.784,1425.994Z" transform="translate(-457.805 -1369.774)" fill="#3f1312"/>
          <path id="Trazado_205074" data-name="Trazado 205074" d="M565.969,1426.732a1.17,1.17,0,0,1-.982.865c-.01-.575.38-.845.722-1.146C565.8,1426.543,565.883,1426.636,565.969,1426.732Z" transform="translate(-457.73 -1370.229)" fill="#3f1312"/>
          <path id="Trazado_205075" data-name="Trazado 205075" d="M478.541,1424.559c1.222,1.474,1.256,3-.023,5.054C478.776,1427.585,479.376,1426.052,478.541,1424.559Z" transform="translate(-449.53 -1370.05)" fill="#3f1312"/>
        </g>
      </g>
      <g id="Grupo_152733" data-name="Grupo 152733" transform="translate(613.081 1383.166)">
        <g id="Grupo_152732" data-name="Grupo 152732">
          <path id="Trazado_205076" data-name="Trazado 205076" d="M693.8,1467.39c-.014,12.235.012,24.468.313,36.7.176,7.126,2.29,13.284,7.268,18.425.933.964,1.727,2.066,2.676,3.012,8.535,8.51,10.346,18.937,7.38,30-4.482,16.717-15.363,27.73-32.4,31.443-12.163,2.651-22.881-1.723-32.045-9.754-14.968-13.12-17.127-35.9-5.048-51.307a50.381,50.381,0,0,1,6.187-6.1c3.606-3.252,5-7.066,4.8-12.047-1-24.869-2.964-49.706-2.74-74.616.078-8.694.244-17.4,2.838-25.829.394-1.279.826-2.553,1.342-3.785,4.083-9.727,11.745-13.618,22.267-11.338,8.713,1.887,13.568,7.2,15,16.948,1.734,11.775,1.892,23.668,2.131,35.54C693.924,1452.251,693.8,1459.821,693.8,1467.39Zm-47.577,62.533a23.805,23.805,0,0,0-6.694,14.9c-.858,11.212,2.6,20.865,11.153,28.426,7.97,7.05,17.194,9.98,27.772,8.1,9.522-1.688,16.6-7.147,22.035-14.842,4.838-6.849,7.622-14.4,6.72-22.981a26.4,26.4,0,0,0-7.568-15.738c-1.275-1.324-2.517-2.68-3.79-4.007a22.482,22.482,0,0,1-5.968-11.249,86.024,86.024,0,0,1-1.427-17.083c-.091-17.253-.092-34.508-.12-51.762-.014-9.263-.9-18.5-.685-27.773a30.45,30.45,0,0,0-1.131-9.441c-.963-3.22-2.6-5.894-5.76-7.484-9.6-4.826-19.229-.878-22.542,9.355a57.558,57.558,0,0,0-2.57,17.127c-.129,10.818-.12,21.639-.037,32.457.094,12.234.716,24.448,1.541,36.655.39,5.779,1.256,11.529,1.055,17.348a13.206,13.206,0,0,1-4.071,9.455A62.631,62.631,0,0,0,646.223,1529.922Z" transform="translate(-634.147 -1391.565)" fill="#681c2f"/>
          <path id="Trazado_205077" data-name="Trazado 205077" d="M647.016,1530.487a62.631,62.631,0,0,1,7.913-8.53A13.206,13.206,0,0,0,659,1512.5c.2-5.818-.665-11.569-1.055-17.348-.825-12.207-1.446-24.421-1.541-36.655-.082-10.818-.092-21.639.037-32.457a57.559,57.559,0,0,1,2.57-17.127c3.312-10.233,12.94-14.18,22.542-9.355,3.164,1.59,4.8,4.264,5.76,7.484a30.45,30.45,0,0,1,1.131,9.441c-.211,9.272.671,18.511.685,27.773.027,17.254.028,34.509.12,51.762a86.022,86.022,0,0,0,1.427,17.083,22.482,22.482,0,0,0,5.968,11.249c1.273,1.327,2.515,2.683,3.79,4.007A26.4,26.4,0,0,1,708,1544.1c-1.292,1.447-.706,3.317-1.039,4.968-1.534,7.605-4.571,14.489-10.272,19.773a33.828,33.828,0,0,1-26.69,9.3c-8.387-.667-15.256-4.126-20.234-10.792-7.439-9.96-9.662-20.769-4.3-32.538C646.09,1533.438,647.125,1532.147,647.016,1530.487Zm18.74-123.032c-.9,0-.889.631-.871,1.265-1.673,3.343-1.756,6.93-1.659,10.557q.42,15.7.8,31.4c.441,18.531.5,37.065.434,55.6-.015,4.313.577,8.614.233,12.931a34.668,34.668,0,0,1-7.7,16.9c-4.2,5.268-5.941,11.059-4.067,17.779,2.415,8.662,11.86,15.295,21.685,14.106,8.039-.972,17.193-7.322,15.678-18.373a17.973,17.973,0,0,0-3.9-13.683,11.828,11.828,0,0,1-2.424-6.468c-1.075-14.323-1.118-28.683-1.468-43.032.978-.458.594-1.352.593-2.06-.006-11,.416-21.99.786-32.984.32-9.515.806-19.04.516-28.572a71.2,71.2,0,0,0-.867-9.864c-1.186-6.929-5.162-10.472-11.3-10.187-3.181.147-6.037,2.218-6.469,4.691Z" transform="translate(-634.94 -1392.129)" fill="#4e03c7"/>
          <path id="Trazado_205078" data-name="Trazado 205078" d="M646.773,1544.417c.11,1.66-.926,2.951-1.551,4.323-5.361,11.769-3.138,22.578,4.3,32.538,4.978,6.667,11.847,10.125,20.234,10.792a33.829,33.829,0,0,0,26.69-9.3c5.7-5.284,8.738-12.168,10.272-19.773.333-1.651-.253-3.521,1.039-4.968.9,8.578-1.882,16.132-6.72,22.981-5.435,7.695-12.512,13.154-22.035,14.842-10.578,1.875-19.8-1.055-27.772-8.1-8.549-7.561-12.011-17.214-11.153-28.426A23.805,23.805,0,0,1,646.773,1544.417Z" transform="translate(-634.698 -1406.059)" fill="#9465ef"/>
          <path id="Trazado_205079" data-name="Trazado 205079" d="M683.791,1487.139c.35,14.349.393,28.708,1.468,43.032a11.828,11.828,0,0,0,2.424,6.467,17.972,17.972,0,0,1,3.9,13.682,4.491,4.491,0,0,0-.263.79c-1.514,10.706-8.917,16.854-19.55,16.23a16.52,16.52,0,0,1-14.986-12.564,19.869,19.869,0,0,1,4.347-18c4.115-4.864,4.981-10.744,4.858-16.87.345-4.318-.247-8.618-.233-12.931.062-18.534.007-37.069-.434-55.6q-.372-15.7-.8-31.4c-.1-3.627-.014-7.214,1.659-10.557a1.742,1.742,0,0,0,.871-1.266l0,0c.848-.619,1.668-1.283,2.55-1.851a7.682,7.682,0,0,1,9.867.918,13.2,13.2,0,0,1,2.868,4.145c1.41,3.028,1.437,6.21,1.42,9.484-.11,21.535-.106,43.071-.129,64.606A16.667,16.667,0,0,0,683.791,1487.139Zm-7.926,20.957,2.747.337c0-6.654.062-13.085-.011-19.514-.264-23.336-.206-46.672-.066-70.009.014-2.272.017-4.54-1.025-6.625-.742-1.484-1.785-2.582-3.69-1.98-2.088.374-3.088,1.741-3.517,3.717a23.991,23.991,0,0,0-.315,5.705c.672,28.353,1.379,56.7,1.169,85.069-.026,3.571-.027,3.566,3.438,3.286C675.016,1508.049,675.442,1508.089,675.865,1508.1Zm-4.94,9.995c-.16,2.531-.424,5.061-.458,7.594a19.676,19.676,0,0,1-3.9,12.238,25.885,25.885,0,0,0-4.358,8.871c-1.291,4.582-1.03,8.838,2.721,12.25a12.437,12.437,0,0,0,17.521-.759c3.58-3.989,5.39-8.557,3.315-13.965-.25-1.843-1.493-3.161-2.488-4.592a17.986,17.986,0,0,1-3.516-8.709c-.465-5.2-.488-10.414-.5-15.628-.006-3.476-.6-4.108-4.009-4.1-3.161,0-3.852.557-4.256,3.641A28.531,28.531,0,0,0,670.926,1518.09Z" transform="translate(-636.24 -1392.832)" fill="#681a2d"/>
          <path id="Trazado_205080" data-name="Trazado 205080" d="M665.7,1531.953c.123,6.126-.743,12.006-4.858,16.87a19.869,19.869,0,0,0-4.347,18,16.52,16.52,0,0,0,14.986,12.564c10.633.625,18.036-5.523,19.55-16.23a4.491,4.491,0,0,1,.263-.79c1.515,11.052-7.639,17.4-15.678,18.374-9.826,1.188-19.27-5.445-21.685-14.106-1.874-6.72-.132-12.511,4.067-17.779A34.668,34.668,0,0,0,665.7,1531.953Z" transform="translate(-635.952 -1404.877)" fill="#9465ef"/>
          <path id="Trazado_205081" data-name="Trazado 205081" d="M684.926,1486.984a16.667,16.667,0,0,1-.165-1.675c.023-21.535.019-43.071.129-64.606.016-3.274-.01-6.457-1.42-9.484a13.2,13.2,0,0,0-2.868-4.145,7.682,7.682,0,0,0-9.867-.918c-.882.568-1.7,1.232-2.55,1.851.433-2.473,3.289-4.543,6.469-4.691,6.136-.285,10.113,3.258,11.3,10.187a71.2,71.2,0,0,1,.867,9.864c.291,9.531-.2,19.057-.516,28.572-.369,10.994-.792,21.982-.786,32.984C685.52,1485.632,685.9,1486.526,684.926,1486.984Z" transform="translate(-637.375 -1392.677)" fill="#9465ef"/>
          <path id="Trazado_205082" data-name="Trazado 205082" d="M668.1,1408.5a1.742,1.742,0,0,1-.871,1.266C667.21,1409.127,667.2,1408.5,668.1,1408.5Z" transform="translate(-637.284 -1393.17)" fill="#19bcba"/>
          <path id="Trazado_205083" data-name="Trazado 205083" d="M671.854,1529.232a28.531,28.531,0,0,1,.074-3.164c.4-3.084,1.1-3.639,4.256-3.641,3.411,0,4,.629,4.009,4.1.01,5.214.033,10.429.5,15.628a17.986,17.986,0,0,0,3.516,8.709c1,1.431,2.238,2.749,2.488,4.593a14.742,14.742,0,0,1-5.032,11.634,9.571,9.571,0,0,1-9.86,2.036c-3.276-1.03-5.055-3.476-5.624-6.975-.682-4.2.668-7.87,2.867-11.15C673.647,1544.146,673.066,1536.763,671.854,1529.232Zm3.568,36.1a6.69,6.69,0,0,0,6.963-6.667c-.018-3.565-2.237-6.132-5.293-6.123-3.889.01-6.617,3.309-6.61,8C670.484,1563.974,671.9,1565.348,675.422,1565.329Z" transform="translate(-637.168 -1403.974)" fill="#fd2e60"/>
          <path id="Trazado_205084" data-name="Trazado 205084" d="M677.305,1508.658c-.424-.006-.849-.047-1.269-.014-3.465.281-3.464.285-3.438-3.286.209-28.365-.5-56.716-1.169-85.069a23.991,23.991,0,0,1,.315-5.705c.428-1.976,1.428-3.343,3.517-3.717,1.757,5.6,1.18,11.444,1.585,17.167a103.32,103.32,0,0,1-.22,14.153c-.6,8.991-.73,18.017-.921,27.031-.14,6.628.693,13.244.4,19.879a8.009,8.009,0,0,0,.033.846Q676.721,1499.3,677.305,1508.658Z" transform="translate(-637.68 -1393.395)" fill="#e2872c"/>
          <path id="Trazado_205085" data-name="Trazado 205085" d="M677.71,1508.641q-.583-9.356-1.164-18.713a8.009,8.009,0,0,1-.033-.846c.29-6.636-.544-13.252-.4-19.879.19-9.015.318-18.04.921-27.031a103.32,103.32,0,0,0,.22-14.153c-.4-5.723.172-11.564-1.585-17.167,1.905-.6,2.948.5,3.69,1.98,1.042,2.085,1.038,4.353,1.025,6.625-.139,23.336-.2,46.672.066,70.009.072,6.428.011,12.86.011,19.514Z" transform="translate(-638.084 -1393.378)" fill="#edaa6e"/>
          <path id="Trazado_205086" data-name="Trazado 205086" d="M671.48,1529.945c1.212,7.531,1.793,14.914-2.808,21.775-2.2,3.28-3.548,6.949-2.867,11.15.568,3.5,2.348,5.945,5.624,6.975a9.57,9.57,0,0,0,9.86-2.036,14.743,14.743,0,0,0,5.032-11.634c2.076,5.407.265,9.975-3.315,13.964a12.437,12.437,0,0,1-17.521.759c-3.751-3.412-4.012-7.668-2.721-12.25a25.886,25.886,0,0,1,4.358-8.871,19.677,19.677,0,0,0,3.9-12.238C671.057,1535.006,671.32,1532.476,671.48,1529.945Z" transform="translate(-636.794 -1404.687)" fill="#e7114d"/>
          <path id="Trazado_205087" data-name="Trazado 205087" d="M675.891,1568.483c-3.523.019-4.938-1.354-4.941-4.794-.006-4.687,2.722-7.986,6.61-8,3.057-.008,5.275,2.558,5.293,6.123A6.69,6.69,0,0,1,675.891,1568.483Z" transform="translate(-637.637 -1407.129)" fill="#fe6598"/>
        </g>
      </g>
    </g>
  </g>
</svg>
