<svg xmlns="http://www.w3.org/2000/svg" width="190" height="110" viewBox="0 0 190 110">
  <g id="Grupo_153113" data-name="Grupo 153113" transform="translate(752 7626)">
    <g id="Grupo_153058" data-name="Grupo 153058" transform="translate(-932 -11022)">
      <rect id="Rectángulo_40420" data-name="Rectángulo 40420" width="190" height="110" transform="translate(180 3396)" fill="none"/>
      <g id="Grupo_131655" data-name="Grupo 131655" transform="translate(0 -4286)">
        <rect id="Rectángulo_40418" data-name="Rectángulo 40418" width="50" height="50" rx="8" transform="translate(207 7687)" fill="#e2872c" opacity="0.2"/>
        <rect id="Rectángulo_40419" data-name="Rectángulo 40419" width="50" height="50" rx="8" transform="translate(293 7737)" fill="#5000c7" opacity="0.2"/>
      </g>
      <g id="ley" transform="translate(224.997 3401)">
        <g id="Grupo_153059" data-name="Grupo 153059" transform="translate(1.95 1.947)">
          <path id="Trazado_262682" data-name="Trazado 262682" d="M89.041,94.1l-.148-77.833A7.791,7.791,0,0,0,81.254,10H15.843A5.84,5.84,0,0,0,10,15.84v9.734h11.68V99.939a5.84,5.84,0,0,0,5.84,5.84H94.881a5.84,5.84,0,0,0,5.84-5.84V94.1Z" transform="translate(-10.003 -10)" fill="#eefaff"/>
          <path id="Trazado_262683" data-name="Trazado 262683" d="M287.344,43.4a54.635,54.635,0,0,0-22.062-.864,36.147,36.147,0,0,0-15.268,6.35c-19.194,14.189-13.853,49.245-13.933,49.546A112.233,112.233,0,0,0,254.9,85.968l-3.765-7.528h12.021a99.781,99.781,0,0,0,7.446-8.675A165.247,165.247,0,0,0,287.346,43.4Z" transform="translate(-191.567 -35.612)" fill="#ff9832"/>
          <circle id="Elipse_4940" data-name="Elipse 4940" cx="9.5" cy="9.5" r="9.5" transform="translate(20.047 12.053)" fill="#81af1d"/>
        </g>
        <g id="Grupo_153060" data-name="Grupo 153060" transform="translate(0.003 0)">
          <path id="Trazado_262684" data-name="Trazado 262684" d="M1.95,19.467h9.734V91.886a7.8,7.8,0,0,0,7.787,7.787H50.813a1.947,1.947,0,1,0,0-3.893H26.21a7.737,7.737,0,0,0,1.048-3.893V87.993H90.721v3.893a3.9,3.9,0,0,1-3.893,3.893H68.333a1.947,1.947,0,1,0,0,3.893H86.827a7.8,7.8,0,0,0,7.787-7.787v-5.84A1.947,1.947,0,0,0,92.668,84.1H82.934V36.766A165.428,165.428,0,0,0,99.482,10.581a1.952,1.952,0,0,0-1.264-2.732l-.015,0A57.152,57.152,0,0,0,82.279,6.22,9.763,9.763,0,0,0,73.2,0H7.79A7.8,7.8,0,0,0,0,7.787v9.734A1.947,1.947,0,0,0,1.95,19.467ZM75.613,39.618c-.916,1.074-1.889,2.151-2.9,3.21H61.52a1.947,1.947,0,0,0-1.741,2.818l3.062,6.123a117.064,117.064,0,0,1-14.054,9.514A56.7,56.7,0,0,1,59.665,35.041H73.42a1.947,1.947,0,0,0,0-3.893H62.841a60.48,60.48,0,0,1,8.372-7.787H81.6a1.947,1.947,0,0,0,0-3.893h-4.67A60.654,60.654,0,0,1,94.115,12.45a163.723,163.723,0,0,1-18.5,27.169ZM47.971,48.506c.583-9.486,2.886-21.063,9.887-28.466L56.318,32.863c-.007.057-.01.114-.011.171a61.491,61.491,0,0,0-8.336,15.473Zm12.91-20.988L62.227,16.3a32.972,32.972,0,0,1,9.966-4.641l-4.211,8.921a1.941,1.941,0,0,0-.154.484,64.374,64.374,0,0,0-6.947,6.451ZM84.346,10.074c1.223,0,2.395.042,3.5.113a64.765,64.765,0,0,0-13.671,6.4l2.815-5.963a47.651,47.651,0,0,1,7.358-.552ZM73.2,3.893a5.857,5.857,0,0,1,4.893,2.651C69.883,7.522,62.3,10.51,56.3,16.1c-8.051,7.493-11.19,19.368-12.1,30.381a93.44,93.44,0,0,0,.306,18.35l-.375,5.256H21.417a1.947,1.947,0,0,0,0,3.893H53.733a1.947,1.947,0,0,0,0-3.893h-5.7l.292-4.09A116.875,116.875,0,0,0,66.515,53.812a1.947,1.947,0,0,0,.511-2.38l-2.356-4.71h8.871a1.947,1.947,0,0,0,1.395-.589c1.273-1.308,2.5-2.65,3.64-3.989.155-.182.31-.368.465-.552V84.1H25.31a1.947,1.947,0,0,0-1.947,1.947v5.84a3.893,3.893,0,1,1-7.787,0V7.787a7.737,7.737,0,0,0-1.048-3.893ZM3.9,7.787a3.893,3.893,0,0,1,7.787,0v7.787H3.9Z" transform="translate(-0.003 0)"/>
          <path id="Trazado_262685" data-name="Trazado 262685" d="M101.95,323.893h16.742a1.947,1.947,0,0,0,0-3.893H101.95a1.947,1.947,0,0,0,0,3.893Z" transform="translate(-80.536 -257.704)"/>
          <path id="Trazado_262686" data-name="Trazado 262686" d="M114.683,83.361A11.68,11.68,0,1,0,103,71.68,11.694,11.694,0,0,0,114.683,83.361Zm0-19.467A7.787,7.787,0,1,1,106.9,71.68,7.8,7.8,0,0,1,114.683,63.893Z" transform="translate(-82.952 -48.32)"/>
          <circle id="Elipse_4941" data-name="Elipse 4941" cx="2" cy="2" r="2" transform="translate(57.993 96)"/>
        </g>
      </g>
    </g>
  </g>
</svg>
