<svg xmlns="http://www.w3.org/2000/svg" width="95.5" height="83.936" viewBox="0 0 95.5 83.936">
  <g id="Grupo_153111" data-name="Grupo 153111" transform="translate(733 8060)">
    <g id="multimedia" transform="translate(-733 -8091)">
      <g id="Grupo_152989" data-name="Grupo 152989" transform="translate(2.798 33.798)">
        <path id="Trazado_206766" data-name="Trazado 206766" d="M15,406v11.191h89.9V406H15Z" transform="translate(-15 -338.852)" fill="#fff"/>
        <path id="Trazado_206767" data-name="Trazado 206767" d="M59.952,46H15V57.191h89.9V46Z" transform="translate(-15 -46)" fill="#fff"/>
      </g>
      <path id="Trazado_206768" data-name="Trazado 206768" d="M256,46h44.952V57.191H256Z" transform="translate(-208.25 -12.202)" fill="#e8e8e8"/>
      <path id="Trazado_206769" data-name="Trazado 206769" d="M256,406h44.952v11.191H256Z" transform="translate(-208.25 -305.054)" fill="#e8e8e8"/>
      <path id="Trazado_206770" data-name="Trazado 206770" d="M72.154,106H30v55.957h84.309V106Z" transform="translate(-24.404 -61.011)" fill="#e53935"/>
      <path id="Trazado_206771" data-name="Trazado 206771" d="M256,106h42.154v55.957H256Z" transform="translate(-208.25 -61.011)" fill="#c7322e"/>
      <g id="Grupo_152992" data-name="Grupo 152992" transform="translate(0 31)">
        <g id="Grupo_152990" data-name="Grupo 152990">
          <path id="Trazado_206772" data-name="Trazado 206772" d="M0,391v16.787H95.5V391H0Zm15.108,11.191H5.6v-5.6h9.513Zm14.922,0H20.7v-5.6H30.03Zm14.922,0H35.626v-5.6h9.326Zm35.439-5.6H89.9v5.6H80.392Zm-14.922,0H74.8v5.6H65.47Zm-14.922,0h9.326v5.6H50.548Z" transform="translate(0 -323.852)" fill="#5000c7"/>
          <path id="Trazado_206773" data-name="Trazado 206773" d="M47.75,31H0V47.787H95.5V31ZM15.108,42.191H5.6V36.6h9.513Zm14.922,0H20.7V36.6H30.03Zm14.922,0H35.626V36.6h9.326Zm14.922,0H50.548V36.6h9.326Zm14.922,0H65.47V36.6H74.8Zm15.108,0H80.373V36.6H89.9Z" transform="translate(0 -31)" fill="#5000c7"/>
        </g>
        <g id="Grupo_152991" data-name="Grupo 152991" transform="translate(47.75)">
          <path id="Trazado_206774" data-name="Trazado 206774" d="M268.124,42.191H258.8V36.6h9.326Zm14.922,0H273.72V36.6h9.326ZM256,31V47.787h47.75V31Zm42.154,11.191h-9.531V36.6h9.531Z" transform="translate(-256 -31)" fill="#37008a"/>
          <path id="Trazado_206775" data-name="Trazado 206775" d="M303.75,391H256v16.787h47.75Zm-35.626,11.191H258.8v-5.6h9.326Zm14.922,0H273.72v-5.6h9.326Zm15.108,0h-9.513v-5.6h9.513Z" transform="translate(-256 -323.852)" fill="#37008a"/>
        </g>
      </g>
      <path id="Trazado_206776" data-name="Trazado 206776" d="M219.394,173.573l-8.394-5.6v32.836l8.394-5.6L235.629,184.4Z" transform="translate(-171.644 -111.428)" fill="#fff"/>
      <path id="Trazado_206777" data-name="Trazado 206777" d="M256,197.976v21.646L272.235,208.8Z" transform="translate(-208.25 -135.831)" fill="#e8e8e8"/>
    </g>
  </g>
</svg>
