<svg xmlns="http://www.w3.org/2000/svg" width="1030" height="246" viewBox="0 0 1030 246">
  <g id="Grupo_153070" data-name="Grupo 153070" transform="translate(5204 11124)">
    <g id="Grupo_144804" data-name="Grupo 144804" transform="translate(-5522 -12965.743)">
      <path id="Trazado_204830" data-name="Trazado 204830" d="M1347.759,2000.533a73.836,73.836,0,0,0-122.06-49.717,32.622,32.622,0,0,1-34.72,4.971h0a33.24,33.24,0,0,1-19.451-29.834q-.046-2.055-.2-4.132c-2.79-36.319-32.5-65.611-68.85-67.925a73.961,73.961,0,0,0-78.687,73.728v.191a29.689,29.689,0,0,1-17.564,27.137l-3.925,1.756a28.923,28.923,0,0,1-31.289-4.666,74.133,74.133,0,0,0-18.661-12.452c-.072-.033-.143-.069-.215-.1-.76-.352-1.531-.685-2.3-1.012-.292-.123-.583-.251-.878-.372-.6-.246-1.216-.478-1.828-.707-.477-.18-.951-.361-1.432-.53s-.954-.325-1.433-.483c-.629-.208-1.259-.411-1.9-.6-.37-.11-.742-.215-1.115-.32-.749-.212-1.5-.415-2.259-.6-.3-.073-.595-.143-.893-.212q-1.243-.294-2.5-.545c-.266-.052-.532-.1-.8-.152q-1.286-.241-2.583-.435-.425-.064-.852-.123-1.238-.17-2.489-.3-.54-.056-1.08-.1c-.341-.031-.679-.074-1.021-.1s-.7-.028-1.053-.049q-.933-.057-1.871-.089-.879-.031-1.751-.043c-.3,0-.588-.021-.884-.021-.4,0-.788.021-1.184.027-.509.009-1.018.016-1.524.036-.752.026-1.5.071-2.244.12-.443.031-.887.055-1.327.093-.84.071-1.673.163-2.5.262-.342.04-.688.074-1.029.119-1.022.137-2.036.3-3.044.476-.147.026-.3.046-.441.072a73.289,73.289,0,0,0-10.512,2.741l-.037.014q-1.66.567-3.281,1.212l-.258.106q-1.515.606-3,1.278c-.112.05-.222.1-.333.154q-1.453.667-2.872,1.4l-.3.156q-1.445.749-2.853,1.56l-.209.121q-1.479.857-2.914,1.781l-.044.029a74.116,74.116,0,0,0-8.744,6.577c-.376.329-.766.631-1.153.939a32.662,32.662,0,0,1-33.309,3.833h0a33.238,33.238,0,0,1-19.451-29.834q-.046-2.055-.2-4.132a73.527,73.527,0,0,0-21.266-46.125l-.034-.035q-1.035-1.043-2.111-2.041c-.092-.084-.179-.172-.271-.255-.645-.595-1.3-1.174-1.969-1.746-.171-.148-.339-.3-.512-.444-.6-.5-1.206-.993-1.818-1.478-.252-.2-.5-.4-.755-.6-.55-.423-1.11-.834-1.672-1.243-.329-.239-.656-.482-.989-.717-.505-.354-1.019-.7-1.533-1.04-.4-.268-.8-.538-1.208-.8-.468-.3-.942-.585-1.417-.873s-.927-.566-1.4-.839c-.437-.253-.881-.494-1.323-.738-.518-.285-1.035-.571-1.56-.844-.416-.216-.838-.423-1.258-.632-.562-.279-1.123-.557-1.692-.821-.4-.187-.808-.364-1.215-.543-.595-.265-1.192-.527-1.8-.775-.4-.164-.8-.318-1.2-.476-.617-.242-1.234-.48-1.859-.7-.409-.148-.823-.286-1.235-.425-.624-.212-1.248-.422-1.879-.618-.427-.132-.859-.255-1.29-.379-.622-.18-1.245-.359-1.874-.523-.457-.119-.918-.227-1.379-.338-.607-.146-1.214-.291-1.827-.421-.494-.1-.993-.2-1.491-.294-.585-.111-1.171-.223-1.761-.32-.538-.09-1.08-.166-1.622-.244s-1.107-.157-1.665-.223c-.588-.07-1.18-.126-1.771-.181-.349-.033-.7-.08-1.046-.108-.151-.012-.3-.012-.45-.023-.234-.016-.466-.046-.7-.061-.6-.038-1.2-.043-1.794-.067-.576-.023-1.153-.054-1.725-.063-.775-.014-1.543,0-2.312.01-.6.009-1.2.007-1.8.028-.714.027-1.421.082-2.13.129-.642.043-1.287.073-1.923.131-.61.057-1.211.141-1.816.212-.724.085-1.451.157-2.168.264-.293.044-.581.1-.872.151A73.193,73.193,0,0,0,723.1,1857c-.121.038-.246.069-.366.106-.993.311-1.969.654-2.943,1-.225.081-.455.153-.679.236-.937.349-1.86.726-2.779,1.111-.248.1-.5.2-.748.308-.91.391-1.8.811-2.693,1.238-.244.118-.491.229-.734.349-.885.437-1.756.9-2.621,1.37-.236.128-.473.253-.707.384-.866.483-1.716.99-2.559,1.505-.219.135-.439.267-.657.4-.85.532-1.684,1.085-2.51,1.651-.2.136-.394.269-.589.406q-1.254.877-2.466,1.805c-.171.13-.341.26-.511.392q-1.235.959-2.428,1.969-.21.177-.417.356-1.223,1.051-2.4,2.152c-.1.1-.2.192-.3.29q-1.217,1.153-2.381,2.356c-.059.061-.116.124-.174.185q-1.215,1.269-2.374,2.593l-.021.025a73.546,73.546,0,0,0-18.134,48.658,29.684,29.684,0,0,1-17.562,27.1l-3.925,1.756a28.923,28.923,0,0,1-31.289-4.666,73.729,73.729,0,0,0-98.448-1.027,31.689,31.689,0,0,1-33.839,5.065l-.547-.245a33.277,33.277,0,0,1-19.557-29.879q-.041-1.835-.173-3.687a73.962,73.962,0,1,0-25.264,61.1,32.622,32.622,0,0,1,34.719-4.97,33.238,33.238,0,0,1,19.451,29.832,76.675,76.675,0,0,0,.57,7.762,73.887,73.887,0,0,0,147.17-9.43v-.191a29.688,29.688,0,0,1,17.564-27.137l3.925-1.756a28.922,28.922,0,0,1,31.289,4.666,74.162,74.162,0,0,0,18.65,12.447c.074.034.146.071.221.1.764.354,1.537.69,2.316,1.018.286.121.572.246.86.364.61.248,1.227.483,1.844.715.472.178.946.357,1.422.526s.959.327,1.441.485c.625.207,1.252.41,1.884.6.375.113.753.219,1.13.326q1.118.316,2.247.6c.3.074.6.145.9.216q1.237.292,2.488.541c.269.053.538.1.808.155q1.284.24,2.58.434c.282.043.563.082.846.121q1.24.171,2.49.3.541.057,1.086.1c.338.031.672.073,1.011.1s.7.029,1.053.05q.936.057,1.88.089.874.031,1.742.042c.3,0,.594.022.893.022.4,0,.8-.021,1.2-.028.491-.009.981-.016,1.469-.034.769-.027,1.533-.072,2.295-.124.423-.029.846-.052,1.266-.086.877-.074,1.746-.17,2.613-.274.3-.036.6-.063.905-.1a73.36,73.36,0,0,0,10.57-2.2l.166-.052q1.619-.467,3.205-1.008c.138-.046.273-.1.41-.144q1.471-.51,2.914-1.078c.154-.06.307-.125.461-.186q1.425-.575,2.82-1.2.208-.093.417-.19,1.438-.659,2.844-1.38l.279-.142q1.522-.788,3-1.643l.017-.01a74.417,74.417,0,0,0,11.254-7.974,32.853,32.853,0,0,1,54.453,24.59,76.693,76.693,0,0,0,.57,7.762c.08.634.222,1.247.317,1.876q.167,1.077.363,2.146.476,2.6,1.136,5.133c.045.173.089.346.134.519a74.215,74.215,0,0,0,42.78,49c.1.042.2.088.3.13q1.673.7,3.381,1.31c.965.349,1.937.681,2.92.99q1.2.374,2.415.708,2.009.556,4.057,1c.582.124,1.165.235,1.751.344,1.607.305,3.228.564,4.868.761.127.015.25.045.378.059.379.043.754.059,1.134.1.462.046.922.1,1.386.142.249.021.5.022.745.038.768.054,1.531.089,2.293.118.645.025,1.29.049,1.932.059.718.009,1.432,0,2.146-.01.674-.011,1.349-.021,2.019-.049s1.328-.074,1.99-.119c.708-.049,1.417-.1,2.121-.167.606-.06,1.206-.136,1.807-.21.748-.092,1.494-.184,2.236-.3.542-.084,1.078-.185,1.617-.28.786-.14,1.573-.28,2.35-.444.472-.1.938-.215,1.407-.324.833-.192,1.663-.387,2.484-.608.393-.1.781-.225,1.171-.338.883-.252,1.766-.509,2.635-.795.3-.1.6-.211.9-.313.946-.324,1.888-.655,2.816-1.016.192-.075.38-.159.573-.235,1.025-.409,2.044-.83,3.047-1.283.056-.025.11-.053.166-.079a73.952,73.952,0,0,0,43.4-67.519,29.689,29.689,0,0,1,17.563-27.1l3.925-1.756a28.921,28.921,0,0,1,31.289,4.666,73.729,73.729,0,0,0,97.909,1.5,33.015,33.015,0,0,1,35.031-5.241h0a33.243,33.243,0,0,1,19.451,29.834q.046,2.064.206,4.153a73.884,73.884,0,1,0,147.291-11.854Z" transform="translate(0)" fill="#81af1d"/>
      <circle id="Elipse_4853" data-name="Elipse 4853" cx="54.595" cy="54.595" r="54.595" transform="translate(333.036 1977.611) rotate(-85.348)" fill="#fff"/>
      <line id="Línea_443" data-name="Línea 443" y1="21.148" transform="translate(568.334 1894.503)" fill="none" stroke="#e53935" stroke-linecap="round" stroke-miterlimit="10" stroke-width="7" stroke-dasharray="0 10"/>
      <line id="Línea_444" data-name="Línea 444" y1="21.148" transform="translate(921.243 1894.503)" fill="none" stroke="#e53935" stroke-linecap="round" stroke-miterlimit="10" stroke-width="7" stroke-dasharray="0 10"/>
      <line id="Línea_445" data-name="Línea 445" y1="21.148" transform="translate(1274.151 1894.503)" fill="none" stroke="#e53935" stroke-linecap="round" stroke-miterlimit="10" stroke-width="7" stroke-dasharray="0 10"/>
      <line id="Línea_446" data-name="Línea 446" y2="21.148" transform="translate(391.88 2018.534)" fill="none" stroke="#e53935" stroke-linecap="round" stroke-miterlimit="10" stroke-width="7" stroke-dasharray="0 10"/>
      <line id="Línea_447" data-name="Línea 447" y2="21.148" transform="translate(744.788 2018.534)" fill="none" stroke="#e53935" stroke-linecap="round" stroke-miterlimit="10" stroke-width="7" stroke-dasharray="0 10"/>
      <line id="Línea_448" data-name="Línea 448" y2="21.148" transform="translate(1097.697 2018.534)" fill="none" stroke="#e53935" stroke-linecap="round" stroke-miterlimit="10" stroke-width="7" stroke-dasharray="0 10"/>
      <circle id="Elipse_4854" data-name="Elipse 4854" cx="54.595" cy="54.595" r="54.595" transform="translate(513.738 1951.968)" fill="#fff"/>
      <circle id="Elipse_4855" data-name="Elipse 4855" cx="54.595" cy="54.595" r="54.595" transform="translate(682.074 1972.659) rotate(-80.682)" fill="#fff"/>
      <circle id="Elipse_4856" data-name="Elipse 4856" cx="54.595" cy="54.595" r="54.595" transform="translate(1034.968 1972.659) rotate(-80.682)" fill="#fff"/>
      <circle id="Elipse_4857" data-name="Elipse 4857" cx="54.595" cy="54.595" r="54.595" transform="translate(866.647 1951.968)" fill="#fff"/>
      <circle id="Elipse_4858" data-name="Elipse 4858" cx="54.595" cy="54.595" r="54.595" transform="translate(1219.541 1951.968)" fill="#fff"/>
      <g id="Grupo_144788" data-name="Grupo 144788" transform="translate(351.891 1889.182)">
        <g id="Grupo_144787" data-name="Grupo 144787">
          <g id="Grupo_144785" data-name="Grupo 144785">
            <path id="Trazado_204831" data-name="Trazado 204831" d="M420.422,1903.418v39.9a1.879,1.879,0,0,1-1.06,1.691l-33.76,16.336a2.08,2.08,0,0,1-1.785.014L349.825,1945.5a1.434,1.434,0,0,1-.825-1.3v-40.458a1.471,1.471,0,0,1,.812-1.314l14.127-7.031,33.776,17.211a2.138,2.138,0,0,0,.96.234l-.008.252.18,12.835a1.141,1.141,0,0,0,1.609,1.024l6.73-3.031a1.4,1.4,0,0,0,.829-1.28v-13.086a1.678,1.678,0,0,0-.269-.913l12.265-6.016.168-.052A1.6,1.6,0,0,1,420.422,1903.418Z" transform="translate(-349 -1885.298)" fill="#e2872c"/>
            <path id="Trazado_204832" data-name="Trazado 204832" d="M418.162,1903.435l-.168.052-12.265,6.016a1.693,1.693,0,0,0-.671-.6l-34.41-16.994,11.118-5.535a2.073,2.073,0,0,1,1.828-.01l33.914,16.481A1.6,1.6,0,0,1,418.162,1903.435Z" transform="translate(-346.981 -1886.159)" fill="#e2872c"/>
            <path id="Trazado_204833" data-name="Trazado 204833" d="M403.779,1908.425v13.086a1.4,1.4,0,0,1-.829,1.28l-6.73,3.031a1.141,1.141,0,0,1-1.609-1.024l-.18-12.835.008-.252a2.133,2.133,0,0,0,.952-.218l8.12-3.982A1.678,1.678,0,0,1,403.779,1908.425Z" transform="translate(-344.763 -1884.168)" fill="#e2872c"/>
            <path id="Trazado_204834" data-name="Trazado 204834" d="M406.473,1909.013l-8.12,3.982a2.138,2.138,0,0,1-1.912-.016l-33.776-17.211,8.726-4.346,34.41,16.994A1.693,1.693,0,0,1,406.473,1909.013Z" transform="translate(-347.726 -1885.669)" fill="#e2872c"/>
          </g>
          <g id="Grupo_144786" data-name="Grupo 144786">
            <path id="Trazado_204835" data-name="Trazado 204835" d="M420.181,1903.435a1.6,1.6,0,0,1,.242.845v39.9a1.879,1.879,0,0,1-1.06,1.691l-33.76,16.336a2.081,2.081,0,0,1-1.785.014l-33.992-15.862a1.434,1.434,0,0,1-.825-1.3V1904.6a1.471,1.471,0,0,1,.812-1.314l14.127-7.031,8.726-4.346,11.118-5.535a2.073,2.073,0,0,1,1.828-.01l33.914,16.481A1.6,1.6,0,0,1,420.181,1903.435Z" transform="translate(-349 -1886.159)" fill="none" stroke="#1d1d1b" stroke-linecap="round" stroke-linejoin="round" stroke-width="1.488"/>
            <line id="Línea_449" data-name="Línea 449" x1="27.091" y1="13.135" transform="translate(0.41 17.534)" fill="none" stroke="#1d1d1b" stroke-linecap="round" stroke-linejoin="round" stroke-width="1.488"/>
            <path id="Trazado_204836" data-name="Trazado 204836" d="M362.665,1895.4l33.776,17.211a2.137,2.137,0,0,0,1.912.016l8.12-3.982,12.265-6.016" transform="translate(-347.726 -1885.298)" fill="none" stroke="#1d1d1b" stroke-linecap="round" stroke-linejoin="round" stroke-width="1.488"/>
            <path id="Trazado_204837" data-name="Trazado 204837" d="M370.647,1891.421l34.41,16.994a1.685,1.685,0,0,1,.94,1.511v13.086a1.4,1.4,0,0,1-.829,1.28l-6.73,3.031a1.141,1.141,0,0,1-1.609-1.024l-.18-12.835" transform="translate(-346.981 -1885.669)" fill="none" stroke="#1d1d1b" stroke-linecap="round" stroke-linejoin="round" stroke-width="1.488"/>
            <path id="Trazado_204838" data-name="Trazado 204838" d="M390.678,1913.836l-7.819,3.539a1.372,1.372,0,0,0-.809,1.24l-.2,41.195" transform="translate(-345.936 -1883.578)" fill="none" stroke="#1d1d1b" stroke-linecap="round" stroke-linejoin="round" stroke-width="1.488"/>
            <line id="Línea_450" data-name="Línea 450" x1="4.515" y1="1.847" transform="translate(31.607 32.311)" fill="none" stroke="#1d1d1b" stroke-linecap="round" stroke-linejoin="round" stroke-width="1.488"/>
            <line id="Línea_451" data-name="Línea 451" x2="10.629" y2="5.071" transform="translate(4.31 46.883)" fill="none" stroke="#1d1d1b" stroke-linecap="round" stroke-linejoin="round" stroke-width="1.488"/>
            <line id="Línea_452" data-name="Línea 452" x2="6.157" y2="2.818" transform="translate(4.31 52.479)" fill="none" stroke="#1d1d1b" stroke-linecap="round" stroke-linejoin="round" stroke-width="1.488"/>
          </g>
        </g>
        <path id="Trazado_204839" data-name="Trazado 204839" d="M362.664,1895.766l34.729,17.7.53,12.193c-.325.941.5,2.173,1.865,1.126l5.088-1.953a2.754,2.754,0,0,0,1.828-2.767l-.422-13.294-34.892-17.349Z" transform="translate(-347.726 -1885.669)" fill="#81af1d" stroke="#1d1d1b" stroke-miterlimit="10" stroke-width="1.488"/>
        <line id="Línea_453" data-name="Línea 453" x1="8.889" y2="4.694" transform="translate(49.668 23.101)" fill="#81af1d" stroke="#1d1d1b" stroke-miterlimit="10" stroke-width="1.488"/>
      </g>
      <rect id="Rectángulo_42726" data-name="Rectángulo 42726" width="5.262" height="2.736" transform="translate(558.844 1966.004)" fill="#1d1d1b"/>
      <g id="Grupo_144789" data-name="Grupo 144789" transform="translate(530.642 1963.9)">
        <rect id="Rectángulo_42727" data-name="Rectángulo 42727" width="25.326" height="25.326" rx="4.091" transform="translate(0 50.652)" fill="#e2872c" stroke="#1d1d1b" stroke-miterlimit="10" stroke-width="1.73"/>
        <rect id="Rectángulo_42728" data-name="Rectángulo 42728" width="25.326" height="25.326" rx="3.97" transform="translate(25.326 50.652)" fill="#e2872c" stroke="#1d1d1b" stroke-miterlimit="10" stroke-width="1.73"/>
        <rect id="Rectángulo_42729" data-name="Rectángulo 42729" width="25.326" height="25.326" rx="3.732" transform="translate(50.652 50.652)" fill="#e2872c" stroke="#1d1d1b" stroke-miterlimit="10" stroke-width="1.73"/>
        <rect id="Rectángulo_42730" data-name="Rectángulo 42730" width="25.326" height="25.326" rx="3.965" transform="translate(25.326)" fill="#e2872c" stroke="#1d1d1b" stroke-miterlimit="10" stroke-width="1.73"/>
        <rect id="Rectángulo_42731" data-name="Rectángulo 42731" width="25.326" height="25.326" rx="4.373" transform="translate(12.663 25.326)" fill="#e2872c" stroke="#1d1d1b" stroke-miterlimit="10" stroke-width="1.73"/>
        <rect id="Rectángulo_42732" data-name="Rectángulo 42732" width="25.326" height="25.326" rx="3.904" transform="translate(37.989 25.326)" fill="#e2872c" stroke="#1d1d1b" stroke-miterlimit="10" stroke-width="1.73"/>
        <rect id="Rectángulo_42733" data-name="Rectángulo 42733" width="5.262" height="2.736" transform="translate(4.315 53.774)" fill="#1d1d1b"/>
        <rect id="Rectángulo_42734" data-name="Rectángulo 42734" width="5.262" height="2.736" transform="translate(28.202 53.879)" fill="#1d1d1b"/>
        <rect id="Rectángulo_42735" data-name="Rectángulo 42735" width="5.262" height="2.736" transform="translate(15.785 27.571)" fill="#1d1d1b"/>
        <rect id="Rectángulo_42736" data-name="Rectángulo 42736" width="5.262" height="2.736" transform="translate(41.883 27.571)" fill="#1d1d1b"/>
        <rect id="Rectángulo_42737" data-name="Rectángulo 42737" width="5.262" height="2.736" transform="translate(53.353 53.984)" fill="#1d1d1b"/>
      </g>
      <g id="Grupo_144796" data-name="Grupo 144796" transform="translate(718.679 1885.732)">
        <path id="Trazado_204840" data-name="Trazado 204840" d="M734.685,1897.512l-47.59.289-2.6,62.011h46.436Z" transform="translate(-684.5 -1881.65)" fill="#e53935" stroke="#1d1d1b" stroke-linecap="round" stroke-linejoin="round" stroke-width="3.166"/>
        <path id="Trazado_204841" data-name="Trazado 204841" d="M737.932,1949.14l-7.21-51.627L727,1959.332a.186.186,0,0,0,.316.144Z" transform="translate(-680.536 -1881.65)" fill="#b51d1d" stroke="#1d1d1b" stroke-linecap="round" stroke-linejoin="round" stroke-width="3.166" style="isolation: isolate"/>
        <g id="Grupo_144792" data-name="Grupo 144792" transform="translate(14.71 2.307)">
          <line id="Línea_454" data-name="Línea 454" y1="15.775" transform="translate(14.148 6.458)" fill="none" stroke="#000" stroke-linecap="round" stroke-linejoin="round" stroke-width="3.166"/>
          <g id="Grupo_144791" data-name="Grupo 144791">
            <line id="Línea_455" data-name="Línea 455" y1="15.775" transform="translate(0 7.074)" fill="none" stroke="#000" stroke-linecap="round" stroke-linejoin="round" stroke-width="3.166"/>
            <g id="Grupo_144790" data-name="Grupo 144790" transform="translate(0.02)">
              <path id="Trazado_204842" data-name="Trazado 204842" d="M710.914,1891.584" transform="translate(-696.766 -1884.51)" fill="none" stroke="#000" stroke-linecap="round" stroke-linejoin="round" stroke-width="3.166"/>
              <path id="Trazado_204843" data-name="Trazado 204843" d="M697.973,1891.584" transform="translate(-697.973 -1884.51)" fill="none" stroke="#000" stroke-linecap="round" stroke-linejoin="round" stroke-width="3.166"/>
              <path id="Trazado_204844" data-name="Trazado 204844" d="M697.973,1892.187a7.074,7.074,0,1,1,14.148,0" transform="translate(-697.973 -1885.113)" fill="none" stroke="#000" stroke-linecap="round" stroke-linejoin="round" stroke-width="3.166"/>
            </g>
          </g>
        </g>
        <g id="Grupo_144795" data-name="Grupo 144795" transform="translate(21.632)">
          <line id="Línea_456" data-name="Línea 456" y1="9.429" transform="translate(14.148 6.457)" fill="none" stroke="#000" stroke-linecap="round" stroke-linejoin="round" stroke-width="3.166"/>
          <g id="Grupo_144794" data-name="Grupo 144794">
            <line id="Línea_457" data-name="Línea 457" y1="8.789" transform="translate(0 7.073)" fill="none" stroke="#000" stroke-linecap="round" stroke-linejoin="round" stroke-width="3.166"/>
            <g id="Grupo_144793" data-name="Grupo 144793" transform="translate(0.02)">
              <path id="Trazado_204845" data-name="Trazado 204845" d="M717.246,1889.473" transform="translate(-703.098 -1882.4)" fill="none" stroke="#000" stroke-linecap="round" stroke-linejoin="round" stroke-width="3.166"/>
              <path id="Trazado_204846" data-name="Trazado 204846" d="M704.3,1889.473" transform="translate(-704.305 -1882.4)" fill="none" stroke="#000" stroke-linecap="round" stroke-linejoin="round" stroke-width="3.166"/>
              <path id="Trazado_204847" data-name="Trazado 204847" d="M704.3,1890.076a7.074,7.074,0,0,1,14.148,0" transform="translate(-704.305 -1883.003)" fill="none" stroke="#000" stroke-linecap="round" stroke-linejoin="round" stroke-width="3.166"/>
            </g>
          </g>
        </g>
      </g>
      <g id="Grupo_144800" data-name="Grupo 144800" transform="translate(881.198 1969.085)">
        <g id="Grupo_144797" data-name="Grupo 144797" transform="translate(2.015 13.087)">
          <path id="Trazado_204848" data-name="Trazado 204848" d="M894.289,1971.217l-24.309.955-3.853,1.7-29.053,29.052L835,2005.686v2.858l7.609,8.21,10.376,11.068s8.045,9.393,11.981.892L893,2001.474l1.287-9.532,1.306-19.77ZM883.076,1987.7a4.5,4.5,0,1,1,4.5-4.5A4.5,4.5,0,0,1,883.076,1987.7Z" transform="translate(-835 -1971.217)" fill="#5000c7"/>
        </g>
        <g id="Grupo_144799" data-name="Grupo 144799">
          <g id="Grupo_144798" data-name="Grupo 144798">
            <path id="Trazado_204849" data-name="Trazado 204849" d="M907.707,1965.547a10.229,10.229,0,0,1-2.283,11.276,39.083,39.083,0,0,1-8.225,6.191,1.308,1.308,0,0,0-.747,1.225c-.312,5.1-.636,10.216-1,15.322a6.016,6.016,0,0,1-1.944,3.9c-3.5,3.473-6.973,6.967-10.459,10.453q-9.347,9.349-18.7,18.684a6.049,6.049,0,0,1-8.1.754,9.408,9.408,0,0,1-.982-.885q-9.992-9.982-19.977-19.971c-2.85-2.857-2.844-6.4.013-9.255q14.372-14.372,28.729-28.75a7.292,7.292,0,0,1,5.036-2.269c4.9-.262,9.781-.615,14.672-.975a1.373,1.373,0,0,0,.913-.623,41.479,41.479,0,0,1,6.261-8.273,10.19,10.19,0,0,1,7.2-3.106A10.333,10.333,0,0,1,907.707,1965.547Zm-4.1,9.27a7.563,7.563,0,1,0-10.832-10.556c-1.6,1.695-2.954,3.611-4.407,5.438-.283.36-.491.768-.8,1.252.409,0,.671.013.941,0,1.646-.1,3.293-.249,4.938-.312a3.464,3.464,0,0,1,3.632,3.029,8.727,8.727,0,0,1-.034,1.646c-.091,1.578-.195,3.148-.3,4.829a2.8,2.8,0,0,0,.429-.194C899.331,1978.255,901.634,1976.712,903.605,1974.817Zm-9.152-.291c.062-.921-.291-1.293-1.2-1.239-2.276.145-4.559.3-6.835.478a.828.828,0,0,0-.609.395c-.649,1.508-1.245,3.036-1.9,4.662.443.112.657.159.865.214a5.36,5.36,0,1,1-6.17,7.388,5.222,5.222,0,0,1,1.715-6.474,2.219,2.219,0,0,0,1.183-1.8,2.7,2.7,0,0,1,.187-.713c.38-1.135.761-2.269,1.162-3.445-.152,0-.262-.007-.366,0-4.476.3-8.952.622-13.434.878a4.386,4.386,0,0,0-2.994,1.336q-14.444,14.474-28.908,28.921c-1.785,1.778-1.785,3.7-.008,5.478q9.982,9.994,19.978,19.979a3.547,3.547,0,0,0,5.506-.008q3.539-3.527,7.07-7.062,10.894-10.9,21.79-21.783a4.247,4.247,0,0,0,1.376-2.974c.077-1.9.235-3.8.36-5.693Q893.846,1983.8,894.454,1974.526Zm-10.59,7.139a2.066,2.066,0,0,0,2.268,2.206A2.212,2.212,0,0,0,883.863,1981.665Zm-2.227,4.531a2.6,2.6,0,0,0,3.32.27,4.918,4.918,0,0,1-3.68-3.721A2.706,2.706,0,0,0,881.636,1986.2Z" transform="translate(-833.156 -1959.246)"/>
          </g>
        </g>
      </g>
      <g id="Grupo_144802" data-name="Grupo 144802" transform="translate(1048.84 1885.728)">
        <g id="Grupo_144801" data-name="Grupo 144801" transform="translate(0)">
          <path id="Trazado_204850" data-name="Trazado 204850" d="M1057.923,1913.043l1.208.34a1.876,1.876,0,0,0,.5.068,1.842,1.842,0,0,0,.5-3.616l-1.208-.339a1.842,1.842,0,1,0-.995,3.548Z" transform="translate(-979.963 -1880.536)"/>
          <path id="Trazado_204851" data-name="Trazado 204851" d="M1012.464,1921.657a1.843,1.843,0,0,0-1.843-1.842h-3.04a1.842,1.842,0,1,0,0,3.684h3.04A1.843,1.843,0,0,0,1012.464,1921.657Z" transform="translate(-984.704 -1879.567)"/>
          <path id="Trazado_204852" data-name="Trazado 204852" d="M1083.168,1916.924l-11.3-3.163a1.842,1.842,0,0,0-.992,3.548l9.948,2.787v3.154h-36.7c.3-4.712.538-9.248.728-13.236l14.292,4.007a1.8,1.8,0,0,0,.5.07,1.843,1.843,0,0,0,.5-3.618l-15.113-4.234c.282-6.3.412-10.523.412-10.606v-.056c0-6.933-4.452-12.577-9.929-12.577s-9.933,5.643-9.933,12.577v.056c0,.083.13,4.3.412,10.606l-38.144,10.686a1.844,1.844,0,0,0-1.345,1.777v6.39a1.84,1.84,0,0,0,1.845,1.841h15.643a1.841,1.841,0,1,0,0-3.682h-13.8V1920.1l35.974-10.082c.19,3.988.436,8.524.728,13.236h-9.038a1.841,1.841,0,0,0,0,3.682h9.28c.079,1.22.167,2.439.255,3.659.511,6.984,1.071,12.995,1.669,17.965l-13.254,8.019a1.84,1.84,0,0,0-.872,1.831l.719,5.144a1.849,1.849,0,0,0,.737,1.238,1.882,1.882,0,0,0,1.086.353,1.77,1.77,0,0,0,.315-.028l13.826-2.416c1.024,3.209,2.221,4.485,3.9,4.485s2.875-1.276,3.9-4.485l13.825,2.416a1.808,1.808,0,0,0,.315.028,1.861,1.861,0,0,0,1.085-.353,1.833,1.833,0,0,0,.737-1.238l.719-5.144a1.839,1.839,0,0,0-.873-1.831l-13.253-8.019c.6-4.971,1.159-10.982,1.669-17.965.087-1.22.176-2.439.259-3.659h38.785a1.84,1.84,0,0,0,1.841-1.841v-6.39A1.844,1.844,0,0,0,1083.168,1916.924Zm-64.138,44.228-.287-2.054,10.834-6.553c.106.761.217,1.489.325,2.18.263,1.651.528,3.107.8,4.392Zm17.262-.991c-.009.042-.027.079-.037.116v.019a18.346,18.346,0,0,1-.747,2.379,18.166,18.166,0,0,1-.751-2.379v-.019c-.01-.042-.028-.079-.037-.121-1.039-4.117-2.481-12.948-3.808-31.9-1.132-16.162-1.632-31.93-1.655-32.7.009-4.8,2.871-8.863,6.251-8.863s6.238,4.058,6.247,8.863c-.023.774-.524,16.532-1.651,32.695C1038.778,1947.211,1037.33,1956.046,1036.292,1960.16Zm15.977-1.063-.287,2.054-11.664-2.036c.269-1.284.529-2.741.793-4.392q.167-1.036.325-2.18Z" transform="translate(-986.498 -1883)"/>
          <path id="Trazado_204853" data-name="Trazado 204853" d="M1047.677,1953.165l-.287,2.054-11.664-2.035c.269-1.285.529-2.741.793-4.392q.167-1.037.325-2.18Z" transform="translate(-981.907 -1877.068)" fill="#5000c7" opacity="0.35" style="isolation: isolate"/>
          <path id="Trazado_204854" data-name="Trazado 204854" d="M1027.948,1953.184l-11.668,2.035-.287-2.054,10.834-6.553c.106.761.217,1.489.325,2.18C1027.414,1950.443,1027.679,1951.9,1027.948,1953.184Z" transform="translate(-983.747 -1877.068)" fill="#5000c7" opacity="0.35" style="isolation: isolate"/>
          <path id="Trazado_204855" data-name="Trazado 204855" d="M1038.107,1895.235c-.023.774-.524,16.532-1.651,32.695-1.326,18.967-2.774,27.8-3.812,31.916-.009.042-.027.079-.037.116v.019a18.346,18.346,0,0,1-.747,2.379,18.166,18.166,0,0,1-.751-2.379v-.019c-.01-.042-.028-.079-.037-.121-1.039-4.117-2.481-12.948-3.808-31.9-1.132-16.162-1.632-31.93-1.655-32.7.009-4.8,2.871-8.863,6.251-8.863S1038.1,1890.43,1038.107,1895.235Z" transform="translate(-982.851 -1882.686)" fill="#5000c7" opacity="0.35" style="isolation: isolate"/>
          <path id="Trazado_204856" data-name="Trazado 204856" d="M997.948,1925.77a1.84,1.84,0,0,0-1.842,1.841v6.45a1.842,1.842,0,0,0,3.683,0v-6.45A1.84,1.84,0,0,0,997.948,1925.77Z" transform="translate(-985.602 -1879.011)"/>
          <path id="Trazado_204857" data-name="Trazado 204857" d="M997.948,1936.546a1.842,1.842,0,0,0-1.842,1.843v.929a1.842,1.842,0,1,0,3.683,0v-.929A1.842,1.842,0,0,0,997.948,1936.546Z" transform="translate(-985.602 -1878.006)"/>
          <path id="Trazado_204858" data-name="Trazado 204858" d="M1055.4,1927.611a1.843,1.843,0,0,0-3.685,0v9.581a1.843,1.843,0,0,0,3.685,0Z" transform="translate(-980.416 -1879.011)"/>
          <path id="Trazado_204859" data-name="Trazado 204859" d="M1053.559,1939.411a1.842,1.842,0,0,0-1.843,1.842v3a1.843,1.843,0,1,0,3.685,0v-3A1.843,1.843,0,0,0,1053.559,1939.411Z" transform="translate(-980.416 -1877.739)"/>
          <path id="Trazado_204860" data-name="Trazado 204860" d="M1011.249,1927.611a1.842,1.842,0,0,0-3.684,0v9.581a1.842,1.842,0,1,0,3.684,0Z" transform="translate(-984.533 -1879.011)"/>
          <path id="Trazado_204861" data-name="Trazado 204861" d="M1009.406,1939.411a1.842,1.842,0,0,0-1.841,1.842v3a1.842,1.842,0,1,0,3.684,0v-3A1.843,1.843,0,0,0,1009.406,1939.411Z" transform="translate(-984.533 -1877.739)"/>
          <path id="Trazado_204862" data-name="Trazado 204862" d="M1066.86,1927.611a1.843,1.843,0,0,0-3.685,0v6.45a1.843,1.843,0,0,0,3.685,0Z" transform="translate(-979.347 -1879.011)"/>
          <path id="Trazado_204863" data-name="Trazado 204863" d="M1065.018,1936.546a1.843,1.843,0,0,0-1.843,1.843v.929a1.843,1.843,0,0,0,3.685,0v-.929A1.843,1.843,0,0,0,1065.018,1936.546Z" transform="translate(-979.347 -1878.006)"/>
        </g>
        <path id="Trazado_204864" data-name="Trazado 204864" d="M1003.672,1920.945h-13.8v-3.154l35.974-10.082c.19,3.988.436,8.524.728,13.236h-9.038" transform="translate(-986.184 -1880.696)" fill="#5000c7" opacity="0.35" style="isolation: isolate"/>
        <path id="Trazado_204865" data-name="Trazado 204865" d="M1065.963,1915l9.948,2.787v3.154h-36.7c.3-4.712.538-9.248.728-13.236l14.292,4.007" transform="translate(-981.582 -1880.696)" fill="#5000c7" opacity="0.35" style="isolation: isolate"/>
      </g>
      <g id="Grupo_144803" data-name="Grupo 144803" transform="translate(1235.223 1975.683)">
        <path id="Trazado_204866" data-name="Trazado 204866" d="M1228.229,2026.29h-2.685v-61.009h2.685Z" transform="translate(-1150.588 -1965.281)"/>
        <path id="Trazado_204867" data-name="Trazado 204867" d="M1222.059,2026.244h-3.974v-60.933h3.974Z" transform="translate(-1151.284 -1965.278)"/>
        <path id="Trazado_204868" data-name="Trazado 204868" d="M1159.617,2026.268h-2.635v-60.945h2.635Z" transform="translate(-1156.982 -1965.277)"/>
        <path id="Trazado_204869" data-name="Trazado 204869" d="M1200.718,2026.246H1198.1V1965.31h2.617Z" transform="translate(-1153.147 -1965.278)"/>
        <path id="Trazado_204870" data-name="Trazado 204870" d="M1203.107,1965.292h2.6v60.928h-2.6Z" transform="translate(-1152.681 -1965.28)"/>
        <path id="Trazado_204871" data-name="Trazado 204871" d="M1208.1,1965.291h2.6v60.931h-2.6Z" transform="translate(-1152.215 -1965.28)"/>
        <path id="Trazado_204872" data-name="Trazado 204872" d="M1211.836,1965.291h2.6v60.931h-2.6Z" transform="translate(-1151.867 -1965.28)"/>
        <path id="Trazado_204873" data-name="Trazado 204873" d="M1175.726,1965.3h2.561v60.929h-2.561Z" transform="translate(-1155.234 -1965.28)"/>
        <path id="Trazado_204874" data-name="Trazado 204874" d="M1194.5,2026.247h-2.617v-60.936h2.617Z" transform="translate(-1153.728 -1965.278)"/>
        <path id="Trazado_204875" data-name="Trazado 204875" d="M1162,2026.255h-1.27v-60.937H1162Z" transform="translate(-1156.632 -1965.277)"/>
        <path id="Trazado_204876" data-name="Trazado 204876" d="M1164.487,1965.308h1.255v60.911h-1.255Z" transform="translate(-1156.282 -1965.279)"/>
        <path id="Trazado_204877" data-name="Trazado 204877" d="M1171.962,2026.231h-1.254v-60.926h1.254Z" transform="translate(-1155.702 -1965.279)"/>
        <path id="Trazado_204878" data-name="Trazado 204878" d="M1223.061,1965.294h1.266v60.936h-1.266Z" transform="translate(-1150.82 -1965.28)"/>
        <path id="Trazado_204879" data-name="Trazado 204879" d="M1181.954,1965.293h1.217v60.944h-1.217Z" transform="translate(-1154.653 -1965.28)"/>
        <path id="Trazado_204880" data-name="Trazado 204880" d="M1185.667,2026.253h-1.214v-60.936h1.214Z" transform="translate(-1154.42 -1965.278)"/>
        <path id="Trazado_204881" data-name="Trazado 204881" d="M1186.95,1965.293h1.217v60.943h-1.217Z" transform="translate(-1154.187 -1965.28)"/>
      </g>
    </g>
    <g id="Grupo_144805" data-name="Grupo 144805" transform="translate(-5150.225 -10918)">
      <g id="Grupo_131860" data-name="Grupo 131860">
        <circle id="Elipse_4699" data-name="Elipse 4699" cx="20" cy="20" r="20" transform="translate(0.225)" fill="#5000c7"/>
      </g>
      <text id="_1" data-name="1" transform="translate(16.225 26)" fill="#fff" font-size="16" font-family="Roboto-Bold, Roboto" font-weight="700"><tspan x="0" y="0">1</tspan></text>
    </g>
    <g id="Grupo_144806" data-name="Grupo 144806" transform="translate(-4974.225 -11124)">
      <g id="Grupo_131860-2" data-name="Grupo 131860">
        <circle id="Elipse_4699-2" data-name="Elipse 4699" cx="20" cy="20" r="20" transform="translate(0.225)" fill="#5000c7"/>
      </g>
      <text id="_2" data-name="2" transform="translate(16.225 26)" fill="#fff" font-size="16" font-family="Roboto-Bold, Roboto" font-weight="700"><tspan x="0" y="0">2</tspan></text>
    </g>
    <g id="Grupo_144809" data-name="Grupo 144809" transform="translate(-4624.225 -11124)">
      <g id="Grupo_131860-3" data-name="Grupo 131860">
        <circle id="Elipse_4699-3" data-name="Elipse 4699" cx="20" cy="20" r="20" transform="translate(0.225)" fill="#5000c7"/>
      </g>
      <text id="_4" data-name="4" transform="translate(16.225 26)" fill="#fff" font-size="16" font-family="Roboto-Bold, Roboto" font-weight="700"><tspan x="0" y="0">4</tspan></text>
    </g>
    <g id="Grupo_144810" data-name="Grupo 144810" transform="translate(-4268.225 -11124)">
      <g id="Grupo_131860-4" data-name="Grupo 131860">
        <circle id="Elipse_4699-4" data-name="Elipse 4699" cx="20" cy="20" r="20" transform="translate(0.225)" fill="#5000c7"/>
      </g>
      <text id="_6" data-name="6" transform="translate(16.225 26)" fill="#fff" font-size="16" font-family="Roboto-Bold, Roboto" font-weight="700"><tspan x="0" y="0">6</tspan></text>
    </g>
    <g id="Grupo_144807" data-name="Grupo 144807" transform="translate(-4796.225 -10918)">
      <g id="Grupo_131860-5" data-name="Grupo 131860">
        <circle id="Elipse_4699-5" data-name="Elipse 4699" cx="20" cy="20" r="20" transform="translate(0.225)" fill="#5000c7"/>
      </g>
      <text id="_3" data-name="3" transform="translate(16.225 26)" fill="#fff" font-size="16" font-family="Roboto-Bold, Roboto" font-weight="700"><tspan x="0" y="0">3</tspan></text>
    </g>
    <g id="Grupo_144808" data-name="Grupo 144808" transform="translate(-4442.225 -10918)">
      <g id="Grupo_131860-6" data-name="Grupo 131860">
        <circle id="Elipse_4699-6" data-name="Elipse 4699" cx="20" cy="20" r="20" transform="translate(0.225)" fill="#5000c7"/>
      </g>
      <text id="_5" data-name="5" transform="translate(16.225 26)" fill="#fff" font-size="16" font-family="Roboto-Bold, Roboto" font-weight="700"><tspan x="0" y="0">5</tspan></text>
    </g>
  </g>
</svg>
