<svg xmlns="http://www.w3.org/2000/svg" width="86.047" height="85.739" viewBox="0 0 86.047 85.739">
  <g id="Grupo_153112" data-name="Grupo 153112" transform="translate(721 7823.739)">
    <g id="Grupo_153057" data-name="Grupo 153057" transform="translate(-3302.434 -8452.613)">
      <g id="Grupo_152903" data-name="Grupo 152903" transform="translate(2581.434 628.874)">
        <path id="Trazado_206046" data-name="Trazado 206046" d="M2877.263,855.133a5.7,5.7,0,1,1,3.026-7.435,5.713,5.713,0,0,1-3.026,7.435Z" transform="translate(-2794.694 -790.149)" fill="#a5ce37"/>
        <g id="Grupo_152902" data-name="Grupo 152902" transform="translate(0 0)">
          <path id="Trazado_206047" data-name="Trazado 206047" d="M2670.77,684.956l.037-.036,5.182-2.171c.073-.037.147-.037.22-.073a4.2,4.2,0,1,1,1.066,2.538l-.22.11-5.146,2.171-.037.036a26.8,26.8,0,0,1,.111,17.77l11.835,4.82a1.4,1.4,0,0,1,.331,2.428,1.445,1.445,0,0,1-1.4.185l-11.834-4.857a26.5,26.5,0,0,1-12.46,12.656h0l1.654,3.937a4.251,4.251,0,1,1-2.573,1.1l-1.654-3.936-.037-.037a26.494,26.494,0,0,1-17.752.11v.037l-2.647,6.475c0,.074-.036.111-.073.184a5.515,5.515,0,0,1,1.838,2.318,5.6,5.6,0,1,1-7.351-2.98,5.523,5.523,0,0,1,2.94-.4c.037-.075.037-.111.073-.148l2.646-6.512v-.037a26.428,26.428,0,0,1-12.607-12.472h-.037l-5.183,2.17a.522.522,0,0,1-.221.074,4.2,4.2,0,1,1-1.066-2.539l.221-.11,5.146-2.171h.037a26.573,26.573,0,0,1-.11-17.769l-.036-.037-6.469-2.649a.192.192,0,0,1-.148-.074,5.606,5.606,0,1,1-6.688-8.5,5.633,5.633,0,0,1,7.35,3.018,5.328,5.328,0,0,1,.368,2.906c.074.036.11.036.183.073l6.469,2.648h.037a26.418,26.418,0,0,1,12.459-12.619v-.037l-5.366-12.8a3.468,3.468,0,0,1-3.2-2.134,3.509,3.509,0,1,1,6.469-2.723,3.57,3.57,0,0,1-.7,3.79l5.366,12.766.038.037a26.614,26.614,0,0,1,17.715-.11h.037l2.646-6.512a.276.276,0,0,1,.074-.148,5.441,5.441,0,0,1-1.838-2.318,5.609,5.609,0,1,1,7.351,2.98,5.493,5.493,0,0,1-2.941.369c-.037.073-.037.109-.073.184l-2.646,6.475v.036a26.5,26.5,0,0,1,12.607,12.509Z" transform="translate(-2604.933 -652.756)" fill="#80ac1d"/>
          <path id="Trazado_206048" data-name="Trazado 206048" d="M2779.614,809.591a5.694,5.694,0,1,1-4.409-10.5,5.694,5.694,0,0,1,4.409,10.5Z" transform="translate(-2724.692 -757.453)" fill="#668a17"/>
          <path id="Trazado_206049" data-name="Trazado 206049" d="M2739.957,750.863a4.27,4.27,0,1,1,2.279-5.6,4.259,4.259,0,0,1-2.279,5.6Z" transform="translate(-2697.618 -717.256)" fill="#668a17"/>
          <path id="Trazado_206050" data-name="Trazado 206050" d="M2742.607,867.389a4.261,4.261,0,1,1,2.28-5.567,4.257,4.257,0,0,1-2.28,5.567Z" transform="translate(-2699.498 -800.873)" fill="#668a17"/>
          <path id="Trazado_206051" data-name="Trazado 206051" d="M2704.417,763.958a1.5,1.5,0,0,1-.113-.561,2.894,2.894,0,0,1,.075-.561,1.781,1.781,0,0,1,.336-.448,1.332,1.332,0,0,1,.448-.3,1.545,1.545,0,0,1,1.083-.037,1.447,1.447,0,0,1,.037,2.652,1.453,1.453,0,0,1-1.121,0,1.457,1.457,0,0,1-.747-.747Z" transform="translate(-2676.233 -731.081)" fill="#668a17"/>
          <path id="Trazado_206052" data-name="Trazado 206052" d="M2677.371,835.768a1.189,1.189,0,0,1-.113-.523,1.489,1.489,0,0,1,.113-.56,1.356,1.356,0,0,1,.3-.449,1.428,1.428,0,0,1,.486-.336,1.546,1.546,0,0,1,1.083,0,1.778,1.778,0,0,1,.448.336,1.446,1.446,0,0,1,.336,1.532,1.594,1.594,0,0,1-.784.784,2.189,2.189,0,0,1-.523.076,1.432,1.432,0,0,1-.56-.076,1.6,1.6,0,0,1-.785-.784Z" transform="translate(-2656.827 -782.594)" fill="#668a17"/>
          <path id="Trazado_206053" data-name="Trazado 206053" d="M2813.772,840.674a1.5,1.5,0,0,1-.112-.56,1.194,1.194,0,0,1,.112-.523,1.34,1.34,0,0,1,.3-.449,1.772,1.772,0,0,1,.448-.336,1.457,1.457,0,0,1,1.121,0,3.153,3.153,0,0,1,.449.3,1.51,1.51,0,0,1,.337,1.569,1.534,1.534,0,0,1-.785.747,1.509,1.509,0,0,1-.56.112,2.25,2.25,0,0,1-.523-.075,1.6,1.6,0,0,1-.785-.785Z" transform="translate(-2754.696 -786.103)" fill="#668a17"/>
          <path id="Trazado_206054" data-name="Trazado 206054" d="M2715.47,868.5a1.5,1.5,0,0,1-.112-.561,1.192,1.192,0,0,1,.112-.522,1.337,1.337,0,0,1,.3-.449,1.789,1.789,0,0,1,.448-.336,1.466,1.466,0,0,1,1.121,0,3.281,3.281,0,0,1,.449.3,1.51,1.51,0,0,1,.336,1.569,1.532,1.532,0,0,1-.784.748,1.481,1.481,0,0,1-.523.112,2.534,2.534,0,0,1-.561-.075,1.6,1.6,0,0,1-.785-.784Z" transform="translate(-2684.164 -806.057)" fill="#668a17"/>
          <path id="Trazado_206055" data-name="Trazado 206055" d="M2798.222,753.592a4.271,4.271,0,1,1,2.28-5.6,4.258,4.258,0,0,1-2.28,5.6Z" transform="translate(-2739.45 -719.214)" fill="#668a17"/>
          <path id="Trazado_206056" data-name="Trazado 206056" d="M2767.873,726.529a1.2,1.2,0,0,1-.112-.523,1.5,1.5,0,0,1,.112-.561,1.333,1.333,0,0,1,.3-.448,1.74,1.74,0,0,1,.448-.337,1.453,1.453,0,0,1,1.12,0,2.989,2.989,0,0,1,.449.3,1.508,1.508,0,0,1,.337,1.569,1.53,1.53,0,0,1-.786.747,1.481,1.481,0,0,1-.56.112,1.192,1.192,0,0,1-.523-.074,1.467,1.467,0,0,1-.784-.784Z" transform="translate(-2721.763 -704.242)" fill="#668a17"/>
          <path id="Trazado_206057" data-name="Trazado 206057" d="M2709.75,734.707a1.494,1.494,0,0,1-.112-.56,2.886,2.886,0,0,1,.075-.56,3.437,3.437,0,0,1,.336-.448,1.865,1.865,0,0,1,.448-.3,1.545,1.545,0,0,1,1.083-.037,2.236,2.236,0,0,1,.486.336,1.449,1.449,0,0,1,.3,1.532,1.531,1.531,0,0,1-.747.784,1.453,1.453,0,0,1-1.121,0,1.452,1.452,0,0,1-.747-.747Z" transform="translate(-2680.059 -710.104)" fill="#668a17"/>
          <path id="Trazado_206058" data-name="Trazado 206058" d="M2681.834,793.818a4.253,4.253,0,1,1,2.28-5.566,4.2,4.2,0,0,1-2.28,5.566Z" transform="translate(-2655.893 -748.091)" fill="#668a17"/>
          <path id="Trazado_206059" data-name="Trazado 206059" d="M2735.887,794.113a2.838,2.838,0,0,1-2.205-5.231,2.872,2.872,0,0,1,3.737,1.532,2.816,2.816,0,0,1-1.532,3.7Z" transform="translate(-2696.09 -750.246)" fill="#668a17"/>
          <path id="Trazado_206060" data-name="Trazado 206060" d="M2815.907,797.063a2.831,2.831,0,1,1,1.532-3.736,2.87,2.87,0,0,1-1.532,3.736Z" transform="translate(-2753.535 -752.35)" fill="#668a17"/>
          <path id="Trazado_206061" data-name="Trazado 206061" d="M2787.523,860.675a2.838,2.838,0,0,1-2.2-5.23,2.838,2.838,0,1,1,2.2,5.23Z" transform="translate(-2733.153 -797.991)" fill="#668a17"/>
          <path id="Trazado_206062" data-name="Trazado 206062" d="M2743.909,824.493a2.2,2.2,0,0,1-.074-.523,2.893,2.893,0,0,1,.074-.561,1.29,1.29,0,0,1,.336-.448,1.025,1.025,0,0,1,.449-.337,1.785,1.785,0,0,1,1.084,0,1.015,1.015,0,0,1,.448.337,1.378,1.378,0,0,1,.337,1.531,1.469,1.469,0,0,1-.784.785,1.2,1.2,0,0,1-.523.074.984.984,0,0,1-.561-.074,1.6,1.6,0,0,1-.785-.785Z" transform="translate(-2704.596 -774.518)" fill="#668a17"/>
          <path id="Trazado_206063" data-name="Trazado 206063" d="M2713.444,827.393a2.838,2.838,0,0,1-2.2-5.23,2.838,2.838,0,1,1,2.2,5.23Z" transform="translate(-2679.999 -774.117)" fill="#668a17"/>
          <path id="Trazado_206064" data-name="Trazado 206064" d="M2776.323,776.829a1.454,1.454,0,0,1,0-1.121,1.375,1.375,0,0,1,.747-.747,1.653,1.653,0,0,1,1.121-.037,3.478,3.478,0,0,1,.449.336,1.4,1.4,0,0,1-.449,2.316,1.5,1.5,0,0,1-.56.112,1.2,1.2,0,0,1-.523-.112,1.531,1.531,0,0,1-.784-.747Z" transform="translate(-2727.826 -740.313)" fill="#668a17"/>
        </g>
      </g>
    </g>
  </g>
</svg>
