<svg xmlns="http://www.w3.org/2000/svg" width="136" height="139" viewBox="0 0 136 139">
  <g id="Grupo_153105" data-name="Grupo 153105" transform="translate(212 9156)">
    <g id="Grupo_153052" data-name="Grupo 153052" transform="translate(613 645)">
      <circle id="Elipse_4937" data-name="Elipse 4937" cx="68" cy="68" r="68" transform="translate(-825 -9798)" fill="#81af1d"/>
      <g id="Page-1" transform="translate(-817.398 -9801)">
        <g id="_009---Moisture-Wicking-Fabric" data-name="009---Moisture-Wicking-Fabric" transform="translate(0 0)">
          <path id="Shape" d="M20.736,62.662A10.368,10.368,0,0,1,0,62.662C0,52.294,10.368,44,10.368,44S20.736,52.294,20.736,62.662Z" transform="translate(0 46.703)" fill="#b8e9fa"/>
          <path id="Shape-2" data-name="Shape" d="M27.039.615,14.8,14.593a1.037,1.037,0,0,0,.786,1.719h3.753A2.074,2.074,0,0,1,21.4,18.655,31.738,31.738,0,0,1,13.055,36.8C4.868,44.975,3.3,58.449,3,63.88a2.074,2.074,0,0,0,2.074,2.2h8.313a2.057,2.057,0,0,0,2.074-1.916c.33-4.9,1.833-14.015,6.4-18.579A44.565,44.565,0,0,0,33.95,18.207a2.074,2.074,0,0,1,2.074-1.9h4.035a1.037,1.037,0,0,0,.78-1.719L28.6.615a1.037,1.037,0,0,0-1.566,0Z" transform="translate(3.219 -0.257)" fill="#ff9e3d"/>
          <g id="Grupo_153050" data-name="Grupo 153050" transform="translate(2.075 69.966)">
            <path id="Shape-3" data-name="Shape" d="M3.073,50.589a2.074,2.074,0,0,1-1.854-3L7.44,35.147A2.074,2.074,0,0,1,11.152,37L4.931,49.443a2.074,2.074,0,0,1-1.858,1.147Z" transform="translate(-1.001 -33.999)" fill="#b8e9fa"/>
            <path id="Shape-4" data-name="Shape" d="M8.073,50.589a2.074,2.074,0,0,1-1.854-3L12.44,35.147A2.074,2.074,0,0,1,16.152,37L9.931,49.443a2.074,2.074,0,0,1-1.858,1.147Z" transform="translate(4.367 -33.999)" fill="#b8e9fa"/>
            <path id="Shape-5" data-name="Shape" d="M13.073,50.589a2.074,2.074,0,0,1-1.854-3L17.44,35.147A2.074,2.074,0,0,1,21.152,37L14.931,49.443a2.074,2.074,0,0,1-1.858,1.147Z" transform="translate(9.735 -33.999)" fill="#b8e9fa"/>
            <path id="Shape-6" data-name="Shape" d="M18.073,50.589a2.074,2.074,0,0,1-1.854-3L22.44,35.147A2.074,2.074,0,0,1,26.152,37L19.931,49.443a2.074,2.074,0,0,1-1.858,1.147Z" transform="translate(15.103 -33.999)" fill="#b8e9fa"/>
            <path id="Shape-7" data-name="Shape" d="M23.073,50.589a2.074,2.074,0,0,1-1.854-3L27.44,35.147A2.074,2.074,0,1,1,31.152,37L24.931,49.443a2.074,2.074,0,0,1-1.858,1.147Z" transform="translate(20.471 -33.999)" fill="#b8e9fa"/>
            <path id="Shape-8" data-name="Shape" d="M28.073,50.589a2.074,2.074,0,0,1-1.854-3L32.44,35.147A2.074,2.074,0,1,1,36.152,37L29.931,49.443a2.074,2.074,0,0,1-1.858,1.147Z" transform="translate(25.839 -33.999)" fill="#b8e9fa"/>
            <path id="Shape-9" data-name="Shape" d="M33.073,50.589a2.074,2.074,0,0,1-1.854-3L37.44,35.147A2.074,2.074,0,0,1,41.152,37L34.931,49.443a2.074,2.074,0,0,1-1.858,1.147Z" transform="translate(31.207 -33.999)" fill="#b8e9fa"/>
            <path id="Shape-10" data-name="Shape" d="M38.073,50.589a2.074,2.074,0,0,1-1.854-3L42.44,35.147A2.074,2.074,0,0,1,46.152,37L39.931,49.443a2.074,2.074,0,0,1-1.858,1.147Z" transform="translate(36.575 -33.999)" fill="#b8e9fa"/>
            <path id="Shape-11" data-name="Shape" d="M43.073,50.589a2.074,2.074,0,0,1-1.854-3L47.44,35.147A2.074,2.074,0,0,1,51.152,37L44.931,49.443a2.074,2.074,0,0,1-1.858,1.147Z" transform="translate(41.942 -33.999)" fill="#b8e9fa"/>
            <path id="Shape-12" data-name="Shape" d="M48.073,50.589a2.074,2.074,0,0,1-1.854-3L52.44,35.147A2.074,2.074,0,0,1,56.152,37L49.931,49.443a2.074,2.074,0,0,1-1.858,1.147Z" transform="translate(47.31 -33.999)" fill="#b8e9fa"/>
            <path id="Shape-13" data-name="Shape" d="M53.073,50.589a2.074,2.074,0,0,1-1.854-3L57.44,35.147A2.074,2.074,0,0,1,61.152,37L54.931,49.443a2.074,2.074,0,0,1-1.858,1.147Z" transform="translate(52.678 -33.999)" fill="#b8e9fa"/>
          </g>
          <path id="Shape-14" data-name="Shape" d="M37.031,16.312H32.987A2.057,2.057,0,0,0,30.934,18.2a44.642,44.642,0,0,1-12.11,27.392c-4.562,4.562-6.076,13.686-6.387,18.579a2.047,2.047,0,0,1-2.074,1.908H5.823a40.46,40.46,0,0,1,5.433-20.985c2.737-4.666,6.366-8.709,9.352-13.209a25.745,25.745,0,0,0,5.1-15.1A13.372,13.372,0,0,0,19.343,5.944L24.009.615a1.024,1.024,0,0,1,1.555,0L37.8,14.591a1.037,1.037,0,0,1-.767,1.721Z" transform="translate(6.245 -0.258)" fill="#e2872c"/>
          <path id="Shape-15" data-name="Shape" d="M45.039.615,32.8,14.593a1.037,1.037,0,0,0,.786,1.719h3.753A2.074,2.074,0,0,1,39.4,18.655,31.738,31.738,0,0,1,31.055,36.8C22.868,44.975,21.3,58.449,21,63.88a2.074,2.074,0,0,0,2.074,2.2h8.313a2.057,2.057,0,0,0,2.074-1.916c.33-4.9,1.833-14.015,6.4-18.579A44.565,44.565,0,0,0,51.95,18.207a2.074,2.074,0,0,1,2.074-1.9h4.035a1.037,1.037,0,0,0,.78-1.719L46.6.615a1.037,1.037,0,0,0-1.566,0Z" transform="translate(22.543 -0.257)" fill="#ff9e3d"/>
          <path id="Shape-16" data-name="Shape" d="M55.031,16.312H50.987A2.057,2.057,0,0,0,48.934,18.2a44.642,44.642,0,0,1-12.11,27.392c-4.562,4.562-6.076,13.686-6.387,18.579a2.047,2.047,0,0,1-2.074,1.908H23.823a40.46,40.46,0,0,1,5.433-20.985c2.737-4.666,6.366-8.709,9.352-13.209a25.746,25.746,0,0,0,5.1-15.1A13.372,13.372,0,0,0,37.343,5.944L42.009.615a1.024,1.024,0,0,1,1.555,0L55.8,14.591a1.037,1.037,0,0,1-.767,1.721Z" transform="translate(25.569 -0.258)" fill="#e2872c"/>
          <path id="Shape-17" data-name="Shape" d="M63.039.615,50.8,14.593a1.037,1.037,0,0,0,.786,1.719h3.753A2.074,2.074,0,0,1,57.4,18.655,31.738,31.738,0,0,1,49.055,36.8C40.868,44.975,39.3,58.449,39,63.88a2.074,2.074,0,0,0,2.074,2.2h8.313a2.057,2.057,0,0,0,2.074-1.916c.33-4.9,1.833-14.015,6.4-18.579A44.565,44.565,0,0,0,69.95,18.207a2.074,2.074,0,0,1,2.074-1.9h4.035a1.037,1.037,0,0,0,.78-1.719L64.6.615a1.037,1.037,0,0,0-1.566,0Z" transform="translate(41.867 -0.257)" fill="#ff9e3d"/>
          <path id="Shape-18" data-name="Shape" d="M73.031,16.312H68.987A2.057,2.057,0,0,0,66.934,18.2a44.642,44.642,0,0,1-12.11,27.392c-4.562,4.562-6.076,13.686-6.387,18.579a2.047,2.047,0,0,1-2.074,1.908H41.823a40.46,40.46,0,0,1,5.433-20.985c2.737-4.666,6.366-8.709,9.352-13.209a25.745,25.745,0,0,0,5.1-15.1A13.372,13.372,0,0,0,55.343,5.944L60.009.615a1.024,1.024,0,0,1,1.555,0L73.8,14.591a1.037,1.037,0,0,1-.767,1.721Z" transform="translate(44.894 -0.258)" fill="#e2872c"/>
          <rect id="Rectangle-path" width="120.267" height="8.095" rx="2" transform="translate(0 65.96)" fill="#5000c7"/>
          <ellipse id="Oval" cx="3.397" cy="2.385" rx="3.397" ry="2.385" transform="translate(1.355 107.064) rotate(-75.283)" fill="#e6f8fc"/>
          <path id="Shape-19" data-name="Shape" d="M20.371,62.662A10.368,10.368,0,0,1,.34,66.415a16.649,16.649,0,0,0,6.864.062,9.072,9.072,0,0,0,6.843-7.05,14.119,14.119,0,0,0-1.431-7.569,47.219,47.219,0,0,0-3.629-6.967C9.609,44.311,10,44,10,44s10.368,8.294,10.368,18.662Z" transform="translate(0.365 46.703)" fill="#8adaf9"/>
          <path id="Shape-20" data-name="Shape" d="M36.736,62.662a10.368,10.368,0,1,1-20.736,0C16,52.294,26.368,44,26.368,44S36.736,52.294,36.736,62.662Z" transform="translate(17.177 46.703)" fill="#b8e9fa"/>
          <ellipse id="Oval-2" data-name="Oval" cx="3.397" cy="2.385" rx="3.397" ry="2.385" transform="translate(34.52 107.066) rotate(-75.283)" fill="#e6f8fc"/>
          <path id="Shape-21" data-name="Shape" d="M36.371,62.662A10.368,10.368,0,0,1,16.34,66.415a16.649,16.649,0,0,0,6.864.062,9.072,9.072,0,0,0,6.843-7.05,14.119,14.119,0,0,0-1.431-7.569,47.219,47.219,0,0,0-3.629-6.967C25.609,44.311,26,44,26,44s10.368,8.294,10.368,18.662Z" transform="translate(17.542 46.703)" fill="#8adaf9"/>
          <path id="Shape-22" data-name="Shape" d="M52.736,62.662a10.368,10.368,0,1,1-20.736,0C32,52.294,42.368,44,42.368,44S52.736,52.294,52.736,62.662Z" transform="translate(34.354 46.703)" fill="#b8e9fa"/>
          <ellipse id="Oval-3" data-name="Oval" cx="3.397" cy="2.385" rx="3.397" ry="2.385" transform="translate(67.689 107.073) rotate(-75.283)" fill="#e6f8fc"/>
          <path id="Shape-23" data-name="Shape" d="M52.371,62.662A10.368,10.368,0,0,1,32.34,66.415a16.649,16.649,0,0,0,6.864.062,9.072,9.072,0,0,0,6.843-7.05,14.119,14.119,0,0,0-1.431-7.569,47.219,47.219,0,0,0-3.629-6.967C41.609,44.311,42,44,42,44s10.368,8.294,10.368,18.662Z" transform="translate(34.719 46.703)" fill="#8adaf9"/>
          <path id="Shape-24" data-name="Shape" d="M68.736,62.662a10.368,10.368,0,1,1-20.736,0C48,52.294,58.368,44,58.368,44S68.736,52.294,68.736,62.662Z" transform="translate(51.532 46.703)" fill="#b8e9fa"/>
          <ellipse id="Oval-4" data-name="Oval" cx="3.397" cy="2.385" rx="3.397" ry="2.385" transform="translate(100.855 107.077) rotate(-75.283)" fill="#e6f8fc"/>
          <path id="Shape-25" data-name="Shape" d="M68.371,62.662A10.368,10.368,0,0,1,48.34,66.415a16.649,16.649,0,0,0,6.864.062,9.072,9.072,0,0,0,6.843-7.05,14.119,14.119,0,0,0-1.431-7.569,47.219,47.219,0,0,0-3.629-6.967C57.609,44.311,58,44,58,44s10.368,8.294,10.368,18.662Z" transform="translate(51.897 46.703)" fill="#8adaf9"/>
        </g>
      </g>
    </g>
  </g>
</svg>
