<svg xmlns="http://www.w3.org/2000/svg" width="190" height="110" viewBox="0 0 190 110">
  <g id="c2" transform="translate(-180 -5772)">
    <rect id="Rectangle_40420" data-name="Rectangle 40420" width="190" height="110" transform="translate(180 5772)" fill="none"/>
    <g id="Group_131655" data-name="Group 131655" transform="translate(0 -1910)">
      <rect id="Rectangle_40418" data-name="Rectangle 40418" width="50" height="50" rx="8" transform="translate(207 7687)" fill="#81af1d" opacity="0.2"/>
      <rect id="Rectangle_40419" data-name="Rectangle 40419" width="50" height="50" rx="8" transform="translate(293 7737)" fill="#e2872c" opacity="0.2"/>
    </g>
    <g id="obrero" transform="translate(187.984 5777)">
      <path id="Path_262688" data-name="Path 262688" d="M407.719,363.215v12.3H396v-30.7A20.422,20.422,0,0,1,407.719,363.215Z" transform="translate(-281.641 -277.472)" fill="#eb9f52"/>
      <path id="Path_262689" data-name="Path 262689" d="M166.781,133a3.906,3.906,0,0,1,0,7.813H119.906a3.906,3.906,0,0,1,0-7.812Z" transform="translate(-56.328 -107.023)" fill="#e2872c"/>
      <path id="Path_262690" data-name="Path 262690" d="M151.625,14.883v-.391c0-2.158,1.748-4.492,3.906-4.492h7.813c2.158,0,3.906,2.334,3.906,4.492v.391a19.54,19.54,0,0,1,15.625,19.141H136A19.54,19.54,0,0,1,151.625,14.883Z" transform="translate(-72.422 -8.047)" fill="#eb9f52"/>
      <path id="Path_262691" data-name="Path 262691" d="M162.875,336h-7.812l-11.719,12.3L131.625,336h-7.812A18.6,18.6,0,0,0,116,337.723v30.7h54.688v-30.7A18.6,18.6,0,0,0,162.875,336Z" transform="translate(-56.328 -270.375)" fill="#a0d925"/>
      <path id="Path_262692" data-name="Path 262692" d="M164.828,173H121.859a5.859,5.859,0,0,0,0,11.719h2.34a20.556,20.556,0,0,0,5.334,10.2,20.005,20.005,0,0,0,2.2,1.975l-.1.135v7.811l11.719,12.3,11.719-12.3v-7.811l-.1-.135a20.559,20.559,0,0,0,7.529-12.172h2.34a5.859,5.859,0,1,0,0-11.719Z" transform="translate(-56.328 -139.211)" fill="#fff5cd"/>
      <path id="Path_262693" data-name="Path 262693" d="M67.719,344.82v30.7H56v-12.3A20.422,20.422,0,0,1,67.719,344.82Z" transform="translate(-8.047 -277.472)" fill="#eb9f52"/>
      <path id="Path_262694" data-name="Path 262694" d="M347.953,432.906A1.953,1.953,0,1,0,346,430.953,1.954,1.954,0,0,0,347.953,432.906Z" transform="translate(-241.406 -345.211)"/>
      <path id="Path_262695" data-name="Path 262695" d="M147.953,429a1.953,1.953,0,1,0,1.953,1.953A1.954,1.954,0,0,0,147.953,429Z" transform="translate(-80.469 -345.211)"/>
      <path id="Path_262696" data-name="Path 262696" d="M124.446,73.674a22.072,22.072,0,0,0-8.759-7.854,1.943,1.943,0,0,0-1.109-.51,20.432,20.432,0,0,0-8.031-1.638h-5.859V58.519A22.4,22.4,0,0,0,107.7,47.461h.8a7.807,7.807,0,0,0,5.738-13.107c.123-.1.243-.213.358-.328a5.857,5.857,0,0,0-2.257-9.689A21.558,21.558,0,0,0,96.667,5.275C96.153,2.589,93.936,0,90.922,0H83.109c-3.014,0-5.231,2.589-5.745,5.275A21.558,21.558,0,0,0,61.692,24.334a5.856,5.856,0,0,0-1.9,10.018,7.807,7.807,0,0,0,5.736,13.109h.8a22.45,22.45,0,0,0,5.468,9.6c.49.511,1.01,1,1.548,1.461v5.154H67.484a20.433,20.433,0,0,0-8.031,1.638,1.943,1.943,0,0,0-1.109.51A22.378,22.378,0,0,0,46,85.742v12.3A1.953,1.953,0,0,0,47.953,100h78.125a1.953,1.953,0,0,0,1.953-1.953v-12.3A22.206,22.206,0,0,0,124.446,73.674Zm-19.853-6.1v12.3a1.953,1.953,0,0,0,3.906,0V67.694a16.534,16.534,0,0,1,3.906.954V96.094H108.5V91.6a1.953,1.953,0,1,0-3.906,0v4.492H88.969V78.711l10.6-11.133ZM77.25,61.206a20.57,20.57,0,0,0,19.531,0v3.638L87.016,75.1,77.25,64.844ZM108.5,43.555h-.089c.058-.65.089-1.3.089-1.953V35.742a3.906,3.906,0,0,1,0,7.813ZM77.25,9.4v8.762a1.953,1.953,0,0,0,3.906,0V6.445c0-1.21,1.022-2.539,1.953-2.539h7.813c.931,0,1.953,1.329,1.953,2.539V18.164a1.953,1.953,0,0,0,3.906,0V9.4a17.656,17.656,0,0,1,11.61,14.621H65.64A17.656,17.656,0,0,1,77.25,9.4ZM62.2,28.5a1.94,1.94,0,0,1,1.381-.573h46.875a1.953,1.953,0,0,1,0,3.906H63.578A1.952,1.952,0,0,1,62.2,28.5Zm-.572,11.146a3.911,3.911,0,0,1,3.906-3.906V41.6c0,.651.031,1.3.089,1.953h-.089A3.911,3.911,0,0,1,61.625,39.648Zm8.167,5.5c0-.021-.008-.042-.012-.063a18.014,18.014,0,0,1-.343-3.488V35.742h35.156V41.6a18.021,18.021,0,0,1-.343,3.487c0,.021-.008.042-.012.064a18.5,18.5,0,0,1-6.806,10.985,16.768,16.768,0,0,1-20.837,0,18.1,18.1,0,0,1-1.981-1.782A18.522,18.522,0,0,1,69.792,45.153ZM74.46,67.578l10.6,11.133V96.094H69.438V91.6a1.953,1.953,0,1,0-3.906,0v4.492H61.625V68.647a16.532,16.532,0,0,1,3.906-.954V79.883a1.953,1.953,0,0,0,3.906,0v-12.3ZM49.906,85.742a18.658,18.658,0,0,1,7.813-15.015V96.094H49.906Zm74.219,10.352h-7.812V70.727a18.658,18.658,0,0,1,7.813,15.015Z"/>
    </g>
  </g>
</svg>
