<svg xmlns="http://www.w3.org/2000/svg" width="287.671" height="293.317" viewBox="0 0 287.671 293.317">
  <g id="Grupo_153123" data-name="Grupo 153123" transform="translate(-152 6043.564)">
    <g id="Grupo_152814" data-name="Grupo 152814" transform="translate(-1756 -7243.469)">
      <g id="Grupo_152778" data-name="Grupo 152778">
        <path id="Trazado_205169" data-name="Trazado 205169" d="M2079.786,1476.018a1.1,1.1,0,0,1-.217-2.185l85.356-17.18a1.1,1.1,0,1,1,.435,2.164L2080,1476A1.173,1.173,0,0,1,2079.786,1476.018Z" fill="#5000c7"/>
      </g>
      <g id="Grupo_152779" data-name="Grupo 152779">
        <path id="Trazado_205170" data-name="Trazado 205170" d="M2104.36,1376.1a1.1,1.1,0,0,1-.036-2.206l60.782-2.023a1.1,1.1,0,1,1,.073,2.2L2104.4,1376.1Z" fill="#5000c7"/>
      </g>
      <g id="Grupo_152780" data-name="Grupo 152780">
        <path id="Trazado_205171" data-name="Trazado 205171" d="M2080.462,1302.564a1.1,1.1,0,0,1-.206-2.188l70.324-13.531a1.1,1.1,0,0,1,.416,2.168l-70.324,13.531A1.145,1.145,0,0,1,2080.462,1302.564Z" fill="#5000c7"/>
      </g>
      <g id="Grupo_152781" data-name="Grupo 152781">
        <path id="Trazado_205172" data-name="Trazado 205172" d="M2022.45,1305.455a1.107,1.107,0,0,1-.248-.028l-69.566-15.988a1.1,1.1,0,0,1,.494-2.152l69.566,15.988a1.1,1.1,0,0,1-.246,2.18Z" fill="#5000c7"/>
      </g>
      <g id="Grupo_152782" data-name="Grupo 152782">
        <path id="Trazado_205173" data-name="Trazado 205173" d="M1938.9,1458.691a1.1,1.1,0,0,1-.689-1.965l59.14-47.243a1.1,1.1,0,1,1,1.378,1.724l-59.141,47.243A1.1,1.1,0,0,1,1938.9,1458.691Z" fill="#5000c7"/>
      </g>
      <g id="Grupo_152783" data-name="Grupo 152783">
        <path id="Trazado_205174" data-name="Trazado 205174" d="M1938.9,1377.1a1.1,1.1,0,0,1-.542-2.065l93.157-52.444a1.1,1.1,0,1,1,1.083,1.923l-93.157,52.444A1.091,1.091,0,0,1,1938.9,1377.1Z" fill="#5000c7"/>
      </g>
      <g id="Grupo_152784" data-name="Grupo 152784">
        <path id="Trazado_205175" data-name="Trazado 205175" d="M2051.776,1273.273h0a1.1,1.1,0,0,1-1.1-1.1l.059-41.365a1.1,1.1,0,0,1,1.1-1.1h0a1.1,1.1,0,0,1,1.1,1.1l-.059,41.365A1.1,1.1,0,0,1,2051.776,1273.273Z" fill="#5000c7"/>
      </g>
      <g id="Grupo_152785" data-name="Grupo 152785">
        <circle id="Elipse_4876" data-name="Elipse 4876" cx="30.902" cy="30.902" r="30.902" transform="translate(2020.933 1199.905)" fill="#5000c7"/>
        <path id="Trazado_205176" data-name="Trazado 205176" d="M2051.835,1203.768a27.039,27.039,0,1,0,27.04,27.038A27.038,27.038,0,0,0,2051.835,1203.768ZM2068.87,1237a84.571,84.571,0,0,1-34.066,0c-3.49,0-5.212-.645-1.468-3.759a19.032,19.032,0,0,1,6.561-11.109,1.362,1.362,0,0,1,.513-1.826l2.366-1.364a1.363,1.363,0,0,1,1.864.5l.019.033a19.664,19.664,0,0,1,4.445-1.051v-.177a1.366,1.366,0,0,1,1.366-1.366h2.735a1.365,1.365,0,0,1,1.364,1.366v.177a19.626,19.626,0,0,1,4.445,1.051l.02-.033a1.363,1.363,0,0,1,1.864-.5l2.366,1.364a1.361,1.361,0,0,1,.513,1.826,19.042,19.042,0,0,1,6.561,11.109C2074.081,1236.351,2072.36,1237,2068.87,1237Z" fill="#f5f5f5"/>
      </g>
      <g id="Grupo_152786" data-name="Grupo 152786">
        <circle id="Elipse_4877" data-name="Elipse 4877" cx="30.902" cy="30.902" r="30.902" transform="translate(1908 1342.074)" fill="#5000c7"/>
        <path id="Trazado_205177" data-name="Trazado 205177" d="M1938.9,1345.938a27.039,27.039,0,1,0,27.039,27.037A27.038,27.038,0,0,0,1938.9,1345.938Zm-18.887,20.92c0-2.159.52-3.4,1.59-3.8,2.38-.886,6.286,3.179,10.47,7.987-.271.3-.535.616-.789.948-2.527-2.915-7.464-8.454-9.256-7.794-.513.192-.8,1.136-.8,2.659,0,5.808,4.071,10.7,7.681,13.6a9.1,9.1,0,0,0,.6,1.967C1925.292,1379.474,1920.015,1373.69,1920.015,1366.858Zm18.888,20.057c-4.939,0-8.941-3.284-8.941-8.222,0-3.03,2.019-6.188,4.407-8.178,1.5-1.252,2.146-3.047,4.534-3.047,2.457,0,3.033,1.795,4.538,3.049,2.385,1.989,4.4,5.148,4.4,8.176C1947.844,1383.631,1943.841,1386.915,1938.9,1386.915Zm9.389-4.49a9.037,9.037,0,0,0,.6-1.966c3.61-2.9,7.682-7.793,7.682-13.6,0-1.523-.283-2.467-.8-2.658-1.79-.667-6.728,4.875-9.256,7.792-.255-.333-.52-.649-.789-.949,4.183-4.807,8.084-8.873,10.469-7.985,1.07.4,1.59,1.641,1.59,3.8C1957.79,1373.689,1952.515,1379.473,1948.292,1382.425Zm-5.125-9.473c-.609,0-1.828-2.437-4.264-2.437s-3.656,2.437-4.266,2.437a.575.575,0,0,0-.608.608.607.607,0,0,0,.608.61c.61,0,3.046-2.437,4.266-2.437s3.655,2.437,4.264,2.437a.586.586,0,0,0,.609-.61A.609.609,0,0,0,1943.167,1372.952Z" fill="#f5f5f5"/>
      </g>
      <g id="Grupo_152787" data-name="Grupo 152787">
        <path id="Trazado_205178" data-name="Trazado 205178" d="M2181.691,1288.363a30.9,30.9,0,1,1-30.9-30.9A30.9,30.9,0,0,1,2181.691,1288.363Z" fill="#5000c7"/>
        <path id="Trazado_205179" data-name="Trazado 205179" d="M2150.788,1261.325a27.039,27.039,0,1,0,27.041,27.038A27.04,27.04,0,0,0,2150.788,1261.325Zm18.89,27.038a1.219,1.219,0,0,1-1.22,1.219h-.694a9.756,9.756,0,0,1-9.664,8.53,9.64,9.64,0,0,1-4.874-1.219c-.408-.191-1.217-1.218-2.435-1.162-1.22-.056-2.031.971-2.439,1.162a9.634,9.634,0,0,1-4.873,1.219,9.758,9.758,0,0,1-9.665-8.53h-.692a1.219,1.219,0,0,1-1.221-1.219v-4.873a1.219,1.219,0,0,1,1.221-1.219h.608v-1.218a2.44,2.44,0,0,1,2.438-2.438h29.244a2.436,2.436,0,0,1,2.436,2.438v1.218h.61a1.219,1.219,0,0,1,1.22,1.219Zm-11.578-7.005h-14.621c-5.894,0-7.006,1.113-7.006,7.005a7.011,7.011,0,0,0,7.006,7.008,8.3,8.3,0,0,0,3.748-1.243,5.911,5.911,0,0,1,7.125,0,8.3,8.3,0,0,0,3.748,1.243,7.015,7.015,0,0,0,7.007-7.008c0-3.2-.358-4.8-1.279-5.722S2161.3,1281.358,2158.1,1281.358Z" fill="#f5f5f5"/>
      </g>
      <g id="Grupo_152788" data-name="Grupo 152788">
        <circle id="Elipse_4878" data-name="Elipse 4878" cx="30.902" cy="30.902" r="30.902" transform="translate(1921.979 1257.462)" fill="#5000c7"/>
        <path id="Trazado_205180" data-name="Trazado 205180" d="M1952.881,1261.325a27.039,27.039,0,1,0,27.04,27.038A27.038,27.038,0,0,0,1952.881,1261.325Zm14.991,40.317a1.458,1.458,0,0,1-1.505,1.418,1.482,1.482,0,0,1-1.342-1.592l.736-13.546a1.452,1.452,0,0,1,1.505-1.416,1.479,1.479,0,0,1,1.341,1.59c.042,0,.084.013.125.018a17.3,17.3,0,0,0-4.482-9.552,5.053,5.053,0,0,1-2.833-1.411,8.785,8.785,0,0,1-1.3-1.338,5.825,5.825,0,0,1-2.816-.6,7.621,7.621,0,0,1-1.977-1.214,7.739,7.739,0,0,1-4.876,0,7.59,7.59,0,0,1-1.978,1.214,5.822,5.822,0,0,1-2.814.6,8.7,8.7,0,0,1-1.306,1.338,5.051,5.051,0,0,1-2.834,1.411,17.3,17.3,0,0,0-4.482,9.552c.042,0,.084-.015.127-.018a1.477,1.477,0,0,1,1.342-1.59,1.451,1.451,0,0,1,1.5,1.416l.737,13.546a1.483,1.483,0,0,1-1.342,1.592,1.456,1.456,0,0,1-1.5-1.418c-2.358.141-4.433-2.774-4.637-6.513a9.31,9.31,0,0,1,.869-4.624v-.023c0-10.929,8.414-19.822,18.757-19.822s18.758,8.893,18.758,19.822v.025a9.338,9.338,0,0,1,.869,4.622C1972.3,1298.868,1970.229,1301.782,1967.872,1301.642Z" fill="#f5f5f5"/>
      </g>
      <g id="Grupo_152789" data-name="Grupo 152789">
        <circle id="Elipse_4879" data-name="Elipse 4879" cx="30.902" cy="30.902" r="30.902" transform="translate(2133.867 1426.687)" fill="#5000c7"/>
        <path id="Trazado_205181" data-name="Trazado 205181" d="M2164.769,1430.549a27.04,27.04,0,1,0,27.039,27.04A27.039,27.039,0,0,0,2164.769,1430.549Zm-4.38,9.526h14.595l0,1.7h-10.945v3.164h-3.472l-.088-.978c-.049-.532-.088-1.406-.088-1.941Zm-6.971,32.107h-2.272a2.39,2.39,0,0,1-1.216-.242,1.723,1.723,0,0,1-.243-.975c0-.4.11-.728.243-.728s.134-.218,0-.487a4.149,4.149,0,0,1-.241-1.458,2.392,2.392,0,0,1,.484-1.46,4.313,4.313,0,0,1,1.411-.794l1.073-.357a14.823,14.823,0,0,1,1.882-.468l3.918-.653a3.539,3.539,0,0,0,1.647-.849l1.544-1.543a2.25,2.25,0,0,0,.566-1.654l-.73-5.851c-.068-.531-.162-1.4-.209-1.935l-.577-6.329h3.388c.014.216.028.423.044.6l.1,1.106.7,7.658c.049.544.145,1.432.213,1.973l.732,5.855a1.118,1.118,0,0,1-.221.641l-1.542,1.542a2.421,2.421,0,0,1-.985.508l-3.92.653a16.425,16.425,0,0,0-2.067.511l-1.074.359a5.485,5.485,0,0,0-1.885,1.089,3.556,3.556,0,0,0-.842,2.319A6.6,6.6,0,0,0,2153.418,1472.182Zm25.544-16.535c-.048.532-.159,1.4-.247,1.929l-.653,3.918a14.2,14.2,0,0,0-.16,1.934,7.252,7.252,0,0,0,.307,1.893l.358,1.073a7.172,7.172,0,0,1,.308,1.9v3.4a2.6,2.6,0,0,1-.243.973c-.134.27-.134.486,0,.486s.243.33.243.731a3.077,3.077,0,0,1-.121.972c-.068.134-.561.243-1.095.243h-4.621c-.536,0-.974-.22-.974-.486s-.438-.486-.972-.486h-.973a2.389,2.389,0,0,0-1.459.486,2.376,2.376,0,0,1-1.46.486h-11.189a2.358,2.358,0,0,1-1.214-.243,1.7,1.7,0,0,1-.245-.972c0-.4.11-.731.245-.731s.134-.216,0-.486a4.091,4.091,0,0,1-.245-1.46,2.374,2.374,0,0,1,.487-1.459,4.3,4.3,0,0,1,1.409-.8l1.073-.359a15.474,15.474,0,0,1,1.883-.465l3.919-.653a3.576,3.576,0,0,0,1.648-.848l1.542-1.542a2.259,2.259,0,0,0,.567-1.654l-.733-5.853c-.066-.531-.158-1.4-.209-1.934l-.574-6.328h13.975Zm.886-10.706c0,.535-.041,1.409-.087,1.942l-.088.976h-14.24l-.091-.976c-.049-.533-.089-1.407-.089-1.942l0-1.947h14.593Z" fill="#f5f5f5"/>
      </g>
      <g id="Grupo_152790" data-name="Grupo 152790">
        <circle id="Elipse_4880" data-name="Elipse 4880" cx="30.902" cy="30.902" r="30.902" transform="translate(1908 1426.687)" fill="#5000c7"/>
        <path id="Trazado_205182" data-name="Trazado 205182" d="M1938.9,1430.549a27.04,27.04,0,1,0,27.039,27.039A27.039,27.039,0,0,0,1938.9,1430.549Zm-11.014,32.049-7.632-4.453a2.153,2.153,0,1,1,2.17-3.719l3.07,1.791-3.223-8.566a1.866,1.866,0,0,1,3.489-1.323l-.653-1.734,0-.006a1.867,1.867,0,0,1,3.494-1.315h0l.327.87a1.867,1.867,0,0,1,3.5-1.311h0l.985,2.618a1.865,1.865,0,1,1,3.493-1.31l.735,1.955a3.334,3.334,0,0,0-2.038,3.982l2.119,8.067-3.915,6.9a2.133,2.133,0,0,0-1.961,2.043l-2.461.926Zm3.043,10.71a.934.934,0,0,1-.658-1.748l.079-.027-.58-2.1,2.512-.946a2.1,2.1,0,0,0,.814.664l4.034,1.828Zm18.741-.036a.934.934,0,0,1-.769,1.7l-15.3-6.936a.934.934,0,0,1,.771-1.7l.077.036,1.077-1.9,14.785,6.7-.716,2.062Zm3-8.886h0l-1.88,5.4-14.544-6.589,2.772-4.888-2.245-8.546a2.152,2.152,0,1,1,4.163-1.094l.9,3.438,3.777-8.338a1.866,1.866,0,0,1,3.4,1.533l.765-1.688v-.005a1.867,1.867,0,0,1,3.4,1.54h0l-.382.847a1.866,1.866,0,0,1,3.4,1.544h0l-1.157,2.548a1.867,1.867,0,1,1,3.4,1.544Z" fill="#f5f5f5"/>
      </g>
      <g id="Grupo_152791" data-name="Grupo 152791">
        <circle id="Elipse_4881" data-name="Elipse 4881" cx="30.902" cy="30.902" r="30.902" transform="translate(2133.867 1342.073)" fill="#5000c7"/>
        <path id="Trazado_205183" data-name="Trazado 205183" d="M2164.767,1345.938a27.039,27.039,0,1,0,27.041,27.039A27.038,27.038,0,0,0,2164.767,1345.938Zm-16.43,27.481a8.891,8.891,0,0,0,4.76-9.23l-.893-8.61,2.881-.4,4.078,22.15h-10.826Zm16.43,14.781a3.1,3.1,0,0,1-2.9,3.262l-10.631-1.086a3.1,3.1,0,0,1-2.9-3.262v-2.178h16.43Zm0-5.438h-16.43V1379.5h16.43Zm0-5.437h-3.326l-4.137-22.464,2.633-.371,4.83,11.961Zm4.833-22.835,2.633.371-4.139,22.464h-2.109v-11.109l-.562-1.389Zm11.6,32.624a3.1,3.1,0,0,1-2.9,3.262l-10.63,1.086a2.762,2.762,0,0,1-2.181-1.13,4.768,4.768,0,0,0,.5-2.132v-3.264H2181.2Zm0-4.352h-15.212V1379.5H2181.2Zm0-5.437h-10.826l4.081-22.15,2.881.4-.9,8.61a8.893,8.893,0,0,0,4.759,9.23Z" fill="#f5f5f5"/>
      </g>
      <g id="Grupo_152813" data-name="Grupo 152813">
        <path id="Trazado_205184" data-name="Trazado 205184" d="M2061.653,1334.812c0,6.57-5.521,2.378-9.887,2.378s-9.888,4.192-9.888-2.378,5.519-49.963,9.888-49.963S2061.653,1328.242,2061.653,1334.812Z" fill="#681e1e"/>
        <g id="Grupo_152794" data-name="Grupo 152794">
          <path id="Trazado_205185" data-name="Trazado 205185" d="M2015.241,1390.251h-9.63c0-28.117,14.978-49.207,20.671-52.477l4.8,8.35.094-.059C2028.361,1348.053,2015.241,1365.9,2015.241,1390.251Z" fill="#ffcc80"/>
          <path id="Trazado_205186" data-name="Trazado 205186" d="M2031.079,1346.124l-4.8-8.35c-.062.035-.131.084-.195.124l4.368,7.6.094-.059c-2.813,1.988-15.932,19.836-15.932,44.187h-8.995c0,.208-.011.414-.011.623h9.63c0-24.35,13.12-42.2,15.932-44.186Z" fill="#212121" opacity="0.05"/>
          <g id="Grupo_152792" data-name="Grupo 152792">
            <path id="Trazado_205187" data-name="Trazado 205187" d="M2003.076,1399.85c-.215,5.676,2.527,10.429,6.122,10.608,9.77.489,6.688-4.278,6.905-9.955s-2.525-10.428-6.121-10.609C2003.908,1389.59,2003.468,1389.567,2003.076,1399.85Z" fill="#ff8f00"/>
            <path id="Trazado_205188" data-name="Trazado 205188" d="M2013.694,1397.916c2.177,3.289,4.812,5.2,5.889,4.261s.181-4.365-1.995-7.657-4.81-5.2-5.888-4.266S2011.515,1394.621,2013.694,1397.916Z" fill="#ff8f00"/>
            <path id="Trazado_205189" data-name="Trazado 205189" d="M2016.807,1384.7c.185,2.636-1.026,7.861-1.026,7.861l-11.6.789s-1.358-7.515-.49-9.732C2005.669,1384.441,2014.392,1385.555,2016.807,1384.7Z" fill="#ff8f00"/>
          </g>
          <path id="Trazado_205190" data-name="Trazado 205190" d="M2017.588,1394.52a18.027,18.027,0,0,0-1.743-2.245,35.187,35.187,0,0,0,.962-7.575,3.928,3.928,0,0,1-.609.15,41.243,41.243,0,0,1-.977,6.8,18.036,18.036,0,0,1,1.743,2.245c2.175,3.292,3.07,6.72,1.995,7.656-.694.6-2.038.015-3.487-1.353-.1,5.534,2.689,10.114-6.9,9.636a4.754,4.754,0,0,1-2.916-1.281,5.064,5.064,0,0,0,3.54,1.9c9.586.479,6.8-4.1,6.9-9.636,1.45,1.369,2.793,1.959,3.487,1.355C2020.658,1401.24,2019.764,1397.812,2017.588,1394.52Z" fill="#212121" opacity="0.5"/>
          <path id="Trazado_205191" data-name="Trazado 205191" d="M2097.917,1390.251h-9.628c0-24.351-13.121-42.2-15.931-44.186l4.89-8.291C2082.94,1341.044,2097.917,1362.132,2097.917,1390.251Z" fill="#ffcc80"/>
          <path id="Trazado_205192" data-name="Trazado 205192" d="M2077.248,1337.774l-.358.607c6.215,4.722,19.779,25.1,19.779,51.87h1.248C2097.917,1362.132,2082.94,1341.044,2077.248,1337.774Z" fill="#212121" opacity="0.05"/>
          <g id="Grupo_152793" data-name="Grupo 152793">
            <path id="Trazado_205193" data-name="Trazado 205193" d="M2100.456,1399.85c.215,5.676-2.526,10.429-6.122,10.608-9.772.489-6.691-4.278-6.905-9.955s2.524-10.428,6.119-10.609C2099.624,1389.59,2100.065,1389.567,2100.456,1399.85Z" fill="#ff8f00"/>
            <path id="Trazado_205194" data-name="Trazado 205194" d="M2089.838,1397.916c-2.177,3.289-4.814,5.2-5.889,4.261s-.181-4.365,2-7.657,4.811-5.2,5.886-4.266S2092.015,1394.621,2089.838,1397.916Z" fill="#ff8f00"/>
            <path id="Trazado_205195" data-name="Trazado 205195" d="M2086.725,1384.7c-.187,2.636,1.025,7.861,1.025,7.861l11.6.789s1.36-7.515.491-9.732C2097.862,1384.441,2089.138,1385.555,2086.725,1384.7Z" fill="#ff8f00"/>
          </g>
          <path id="Trazado_205196" data-name="Trazado 205196" d="M2100.456,1399.85c-.158-4.126-.328-6.574-.862-8.03.345-2.314.866-6.613.244-8.2a7.584,7.584,0,0,1-.983.3,37.726,37.726,0,0,1-.509,6.649c.534,1.456.705,3.9.861,8.029.216,5.677-2.526,10.43-6.122,10.609-2.727.137-4.45-.138-5.526-.726.721,1.409,2.539,2.186,6.775,1.974C2097.93,1410.279,2100.671,1405.526,2100.456,1399.85Zm-16.507,2.327c.471.41,1.246.259,2.147-.3.855-.611,1.609-1.057,1.532-1.955-1,.946-3.386,1.162-4.107,1.227A1.536,1.536,0,0,0,2083.949,1402.177Z" fill="#212121" opacity="0.5"/>
        </g>
        <g id="Grupo_152796" data-name="Grupo 152796">
          <g id="Grupo_152795" data-name="Grupo 152795">
            <path id="Trazado_205197" data-name="Trazado 205197" d="M2070.8,1478.527h-10.38l-6.921-76.819,25.95-4.8Z" fill="#184054"/>
            <path id="Trazado_205198" data-name="Trazado 205198" d="M2032.734,1478.527h10.379l6.923-76.819-25.951-4.8Z" fill="#184054"/>
          </g>
          <path id="Trazado_205199" data-name="Trazado 205199" d="M2058.684,1420.913l-4.7-2.776h-4.443l-4.7,2.776v-26.408h13.841Z" fill="#184054"/>
        </g>
        <path id="Trazado_205200" data-name="Trazado 205200" d="M2076.629,1397.426l-8.33,78.6h-8.109l.226,2.5h10.38l8.649-81.622Zm-23.134,18.215h-6.448l-1.044.616-5.386,59.774h-8.148l.265,2.5h10.379l5.386-59.773,1.044-.617h4.444l1.043.617Z" fill="#212121" opacity="0.4"/>
        <g id="Grupo_152798" data-name="Grupo 152798">
          <g id="Grupo_152797" data-name="Grupo 152797">
            <path id="Trazado_205201" data-name="Trazado 205201" d="M2024.806,1370.5c0-35.689,12.071-45.206,26.96-45.206s26.959,9.517,26.959,45.206Z" fill="#153d51"/>
            <path id="Trazado_205202" data-name="Trazado 205202" d="M2076.927,1358.6c10.784,0,12.583-9.514,12.583-11.894s-5.393-11.9-17.974-16.655-1.8,19.034-1.8,19.034Z" fill="#153d51"/>
            <path id="Trazado_205203" data-name="Trazado 205203" d="M2026.6,1358.6c-10.784,0-12.58-9.514-12.58-11.894s5.389-11.9,17.972-16.655,1.8,19.034,1.8,19.034Z" fill="#153d51"/>
          </g>
          <path id="Trazado_205204" data-name="Trazado 205204" d="M2082.319,1343.139c0,9.855-13.68,17.843-30.553,17.843s-30.555-7.988-30.555-17.843,13.68-17.844,30.555-17.844S2082.319,1333.283,2082.319,1343.139Z" fill="#153d51"/>
        </g>
        <g id="Grupo_152801" data-name="Grupo 152801">
          <g id="Grupo_152799" data-name="Grupo 152799">
            <path id="Trazado_205205" data-name="Trazado 205205" d="M2078.738,1366.905c-8.052-4-9.783-17.225-6.09-35.585.112-.559.224-1.1.339-1.657l-11.416-4.368-9.8,26.45v46.294c0,3.649,2.324,6.613,5.19,6.613l19.03-2.2c2.866,0,5.192-2.962,5.192-6.614l-1.812-27.726C2079.245,1367.44,2079.576,1367.319,2078.738,1366.905Z" fill="#e2872c"/>
            <path id="Trazado_205206" data-name="Trazado 205206" d="M2079.366,1368.107c-.121-.664.206-.786-.619-1.2l.723,27.214c0,3.652-2.327,6.614-5.192,6.614l-19.031,2.2a4.26,4.26,0,0,1-2.255-.682,4.827,4.827,0,0,0,3.964,2.391l19.03-2.2c2.866,0,5.192-2.962,5.192-6.614Zm-4.389-4.278c-4.735-5.9-5.351-17.483-2.329-32.509.112-.559.224-1.1.339-1.657l-1.91-.73c-.046.226-.092.449-.139.678C2067.588,1346.275,2068.722,1358.685,2074.977,1363.829Z" fill="#e26910"/>
            <path id="Trazado_205207" data-name="Trazado 205207" d="M2080.016,1378.2h-28.25v-4.409h27.975Z" fill="#212121"/>
            <path id="Trazado_205208" data-name="Trazado 205208" d="M2080.744,1389.22h-28.979v-4.408h28.687Z" fill="#212121"/>
            <path id="Trazado_205209" data-name="Trazado 205209" d="M2068.466,1327.933l-8.585,45.857-.417,2.2-3.375-1.014.226-1.19,9.864-46.733Z" fill="#212121"/>
          </g>
          <g id="Grupo_152800" data-name="Grupo 152800">
            <path id="Trazado_205210" data-name="Trazado 205210" d="M2024.794,1366.905c8.051-4,9.781-17.225,6.089-35.585-.112-.559-.226-1.1-.338-1.657l11.414-4.368,9.807,26.45v46.294c0,3.649-2.325,6.613-5.192,6.613l-19.031-2.2c-2.867,0-5.189-2.962-5.189-6.614l1.811-27.726C2024.287,1367.44,2023.956,1367.319,2024.794,1366.905Z" fill="#e2872c"/>
            <path id="Trazado_205211" data-name="Trazado 205211" d="M2041.959,1325.3l-.688.263,9.247,24.939v46.3c0,3.647-2.326,6.612-5.192,6.612L2026.3,1401.2a4.335,4.335,0,0,1-2.549-.885,4.748,4.748,0,0,0,3.8,2.133l19.031,2.2c2.867,0,5.192-2.964,5.192-6.613v-46.294Z" fill="#e26910"/>
            <path id="Trazado_205212" data-name="Trazado 205212" d="M2023.513,1378.2h28.253v-4.409H2023.79Z" fill="#212121"/>
            <path id="Trazado_205213" data-name="Trazado 205213" d="M2022.786,1389.22h28.979v-4.408H2023.08Z" fill="#212121"/>
            <path id="Trazado_205214" data-name="Trazado 205214" d="M2035.115,1327.913l8.537,45.877.414,2.2,3.375-1.014-.224-1.19-9.862-46.733Z" fill="#212121"/>
          </g>
          <path id="Trazado_205215" data-name="Trazado 205215" d="M2052.63,1396.938a1,1,0,0,1-.864,1.1h0a1,1,0,0,1-.865-1.1V1352.85a1.007,1.007,0,0,1,.865-1.1h0a1.006,1.006,0,0,1,.864,1.1Z" fill="#212121"/>
          <path id="Trazado_205216" data-name="Trazado 205216" d="M2052.63,1353.951H2050.9l-1.729,6.613.863,2.2h3.462l.865-2.2Zm-.865,7.8a1.354,1.354,0,1,1,1.355-1.354A1.354,1.354,0,0,1,2051.765,1361.75Z" fill="#e0e0e0"/>
        </g>
        <path id="Trazado_205217" data-name="Trazado 205217" d="M2061.077,1326.2c-1.361,2.844-5,4.879-9.311,4.879s-7.951-2.035-9.313-4.879c.223-1.887.47-3.971.767-6.177a11.82,11.82,0,0,1,17.091,0C2060.608,1322.234,2060.856,1324.318,2061.077,1326.2Z" fill="#ffb74d"/>
        <g id="Grupo_152809" data-name="Grupo 152809">
          <path id="Trazado_205218" data-name="Trazado 205218" d="M2067.7,1303.988c0,11.85-7.136,25.244-15.937,25.244s-15.94-13.394-15.94-25.244,7.136-17.671,15.94-17.671S2067.7,1292.136,2067.7,1303.988Z" fill="#ffcc80"/>
          <path id="Trazado_205219" data-name="Trazado 205219" d="M2068.029,1308.453c-.386,3.009.351,5.559-1.3,5.383s-2.681-2.759-2.294-5.767,2.046-5.3,3.7-5.129S2068.419,1305.442,2068.029,1308.453Z" fill="#ffcc80"/>
          <path id="Trazado_205220" data-name="Trazado 205220" d="M2035.5,1308.453c.387,3.009-.354,5.559,1.3,5.383s2.684-2.759,2.295-5.767-2.046-5.3-3.7-5.129S2035.113,1305.442,2035.5,1308.453Z" fill="#ffcc80"/>
          <g id="Grupo_152803" data-name="Grupo 152803">
            <path id="Trazado_205221" data-name="Trazado 205221" d="M2060.762,1319.067c0,4.968-4.026,8.275-9,8.275s-9-3.307-9-8.275c0-3.047,2.032-6.227,4.434-8.228,1.514-1.261,2.16-3.063,4.564-3.063,2.469,0,3.051,1.8,4.567,3.065C2058.732,1312.843,2060.762,1316.021,2060.762,1319.067Z" fill="#f5f5f5"/>
            <path id="Trazado_205222" data-name="Trazado 205222" d="M2045.634,1313.907a.613.613,0,0,1-.413-.159l-9.8-8.886a.613.613,0,1,1,.824-.907l9.8,8.884a.614.614,0,0,1-.412,1.068Z" fill="#f5f5f5"/>
            <path id="Trazado_205223" data-name="Trazado 205223" d="M2057.9,1313.907a.614.614,0,0,1-.418-1.062l9.5-8.885a.613.613,0,1,1,.838.9l-9.5,8.886A.612.612,0,0,1,2057.9,1313.907Z" fill="#f5f5f5"/>
            <path id="Trazado_205224" data-name="Trazado 205224" d="M2044.41,1323.715a.61.61,0,0,1-.434-.18l-6.132-6.131a.613.613,0,0,1,.866-.868l6.133,6.131a.614.614,0,0,1-.433,1.048Z" fill="#f5f5f5"/>
            <path id="Trazado_205225" data-name="Trazado 205225" d="M2059.12,1323.715a.605.605,0,0,1-.43-.18.612.612,0,0,1,0-.868l6.128-6.131a.613.613,0,0,1,.866.868l-6.127,6.131A.618.618,0,0,1,2059.12,1323.715Z" fill="#f5f5f5"/>
            <path id="Trazado_205226" data-name="Trazado 205226" d="M2056.668,1313.9a.59.59,0,0,1-.612.615c-.614,0-3.065-2.454-4.29-2.453s-3.68,2.453-4.293,2.453a.613.613,0,0,1-.612-.615h0a.58.58,0,0,1,.612-.613c.613,0,1.84-2.451,4.293-2.452s3.676,2.452,4.29,2.452a.612.612,0,0,1,.612.613Z" fill="#757575"/>
            <g id="Grupo_152802" data-name="Grupo 152802">
              <path id="Trazado_205227" data-name="Trazado 205227" d="M2055.309,1318.2a.4.4,0,0,1-.335.424c-2.136.064-4.282.064-6.417,0a.4.4,0,0,1-.334-.424h0a.382.382,0,0,1,.336-.413h6.413a.383.383,0,0,1,.337.413Z" fill="#bdbdbd"/>
              <path id="Trazado_205228" data-name="Trazado 205228" d="M2056.009,1320.679a.484.484,0,0,1-.4.463,26.383,26.383,0,0,1-7.694,0,.486.486,0,0,1-.4-.463h0a.349.349,0,0,1,.4-.354,34.755,34.755,0,0,0,7.691,0,.349.349,0,0,1,.4.354Z" fill="#bdbdbd"/>
              <path id="Trazado_205229" data-name="Trazado 205229" d="M2055.642,1323.261a.526.526,0,0,1-.361.5,15.2,15.2,0,0,1-7.032,0,.527.527,0,0,1-.36-.5h0a.3.3,0,0,1,.362-.329,17.586,17.586,0,0,0,7.029,0,.3.3,0,0,1,.362.329Z" fill="#bdbdbd"/>
            </g>
          </g>
          <g id="Grupo_152805" data-name="Grupo 152805">
            <g id="Grupo_152804" data-name="Grupo 152804">
              <path id="Trazado_205230" data-name="Trazado 205230" d="M2065.254,1307.187c0,10.261-11.037,3.421-13.49,3.421s-13.488,6.813-13.488-3.446c0-7.358,0-6.132,13.488-6.132S2065.254,1299.8,2065.254,1307.187Z" fill="#263238"/>
              <path id="Trazado_205231" data-name="Trazado 205231" d="M2067.705,1301.942a1.412,1.412,0,0,1-1.225,1.541h-29.427a1.413,1.413,0,0,1-1.227-1.541h0a1.414,1.414,0,0,1,1.227-1.543h29.427a1.412,1.412,0,0,1,1.225,1.543Z" fill="#263238"/>
              <path id="Trazado_205232" data-name="Trazado 205232" d="M2065.254,1307.162c.676,0,1.226-2.744,1.226-6.132h-2.454C2064.026,1304.418,2064.573,1307.162,2065.254,1307.162Z" fill="#263238"/>
              <path id="Trazado_205233" data-name="Trazado 205233" d="M2038.276,1307.162c.679,0,1.23-2.744,1.23-6.132h-2.454C2037.052,1304.418,2037.6,1307.162,2038.276,1307.162Z" fill="#263238"/>
            </g>
            <path id="Trazado_205234" data-name="Trazado 205234" d="M2050.845,1305.934v-2.452l-.307-.613c-1.937,0-2.37-.024-3.8-.046-1.05-.016-1.968-.031-2.774-.031-2.835,0-3.448.231-3.56.366-.293.353-.293,2.293-.293,4a4.789,4.789,0,0,0,.827,3.215,2.315,2.315,0,0,0,1.887.61,19.113,19.113,0,0,0,5.607-1.357,5.4,5.4,0,0,0,1.795-.861Z" fill="#bbdefb"/>
            <path id="Trazado_205235" data-name="Trazado 205235" d="M2045.48,1308.047a1.175,1.175,0,1,1,1.378-1.157A1.28,1.28,0,0,1,2045.48,1308.047Z" fill="#90caf9"/>
            <path id="Trazado_205236" data-name="Trazado 205236" d="M2063.119,1303.162c-.114-.138-.729-.369-3.572-.369-.805,0-1.723.014-2.775.03-1.422.022-1.851.046-3.781.046l-.306.613v2.452l.612,2.835a5.456,5.456,0,0,0,1.8.866,19.012,19.012,0,0,0,5.611,1.367c1.075,0,2.7,0,2.7-3.817C2063.412,1305.38,2063.412,1303.517,2063.119,1303.162Z" fill="#bbdefb"/>
            <path id="Trazado_205237" data-name="Trazado 205237" d="M2058.048,1308.055a1.175,1.175,0,1,1,1.376-1.157A1.281,1.281,0,0,1,2058.048,1308.055Z" fill="#90caf9"/>
          </g>
          <g id="Grupo_152806" data-name="Grupo 152806">
            <path id="Trazado_205238" data-name="Trazado 205238" d="M2051.766,1283.866c8.96,0,16.226,8.234,16.226,18.392h2.166c0-11.512-8.236-20.845-18.392-20.845s-18.393,9.333-18.393,20.845h2.164C2035.537,1292.1,2042.8,1283.866,2051.766,1283.866Z" fill="#ff8f00"/>
            <path id="Trazado_205239" data-name="Trazado 205239" d="M2037.319,1312.965a1.453,1.453,0,0,1-1.365,1.53h0a1.451,1.451,0,0,1-1.53-1.364l-.747-13.021a1.45,1.45,0,0,1,1.364-1.53h0a1.453,1.453,0,0,1,1.531,1.364Z" fill="#212121"/>
            <path id="Trazado_205240" data-name="Trazado 205240" d="M2034.426,1313.131c-2.4.137-4.509-2.665-4.714-6.26s1.57-6.624,3.967-6.761Z" fill="#ff8f00"/>
            <path id="Trazado_205241" data-name="Trazado 205241" d="M2032.333,1312.465c1.024-2.1,1.611-7.588,1.473-10.16l.624,10.821A3.273,3.273,0,0,1,2032.333,1312.465Z" fill="#212121" opacity="0.1"/>
          </g>
          <g id="Grupo_152807" data-name="Grupo 152807">
            <path id="Trazado_205242" data-name="Trazado 205242" d="M2066.211,1312.965a1.451,1.451,0,0,0,1.364,1.53h0a1.453,1.453,0,0,0,1.532-1.364l.743-13.021a1.445,1.445,0,0,0-1.361-1.53h0a1.453,1.453,0,0,0-1.53,1.364Z" fill="#212121"/>
            <path id="Trazado_205243" data-name="Trazado 205243" d="M2069.1,1313.131c2.4.137,4.507-2.665,4.715-6.26s-1.569-6.624-3.969-6.761Z" fill="#ff8f00"/>
            <path id="Trazado_205244" data-name="Trazado 205244" d="M2073.831,1306.212c0,.212,0,.437-.012.662-.213,3.594-2.322,6.39-4.719,6.252l.086-1.448C2072.056,1311.478,2073.27,1307.835,2073.831,1306.212Z" fill="#212121" opacity="0.1"/>
          </g>
          <g id="Grupo_152808" data-name="Grupo 152808">
            <path id="Trazado_205245" data-name="Trazado 205245" d="M2067.8,1298.474a79.531,79.531,0,0,1-32.087,0c-3.282,0-4.9-.6-1.373-3.532a17.871,17.871,0,0,1,6.179-10.471,1.263,1.263,0,0,1,.486-1.71l2.222-1.3a1.3,1.3,0,0,1,1.759.474l.013.038c.025-.013.05-.013.075-.025a18.025,18.025,0,0,1,4.118-.974v-.162a.8.8,0,0,1,.013-.175,1.291,1.291,0,0,1,1.273-1.111h2.571a1.285,1.285,0,0,1,1.285,1.286v.162a.072.072,0,0,1,.05.013,17.586,17.586,0,0,1,4.143.986l.013-.038c0-.012.013-.012.026-.024a1.274,1.274,0,0,1,1.734-.45l2.222,1.3a1.262,1.262,0,0,1,.486,1.71,17.86,17.86,0,0,1,6.178,10.471C2072.72,1297.875,2071.1,1298.474,2067.8,1298.474Z" fill="#e2872c"/>
            <path id="Trazado_205246" data-name="Trazado 205246" d="M2058.568,1281.913l-.687,6.477a2.121,2.121,0,0,1-4.232-.212,1.289,1.289,0,0,1,.013-.225l.724-6.964a17.586,17.586,0,0,1,4.143.986l.013-.038C2058.542,1281.925,2058.555,1281.925,2058.568,1281.913Z" fill="#e26910"/>
            <path id="Trazado_205247" data-name="Trazado 205247" d="M2049.981,1287.953a1.26,1.26,0,0,1,.012.212,2.134,2.134,0,0,1-1.91,2.122,2.113,2.113,0,0,1-2.333-1.9l-.674-6.44a18.025,18.025,0,0,1,4.118-.974Z" fill="#e26910"/>
            <path id="Trazado_205248" data-name="Trazado 205248" d="M2069.188,1294.942c-11.718,3.282-14.54,2.321-17.422,2.321,3.544-.923,17.309-.574,14.888-8.686A19.652,19.652,0,0,1,2069.188,1294.942Z" fill="#e26910"/>
          </g>
        </g>
        <g id="Grupo_152812" data-name="Grupo 152812">
          <g id="Grupo_152810" data-name="Grupo 152810">
            <path id="Trazado_205249" data-name="Trazado 205249" d="M2085.7,1490.974a.844.844,0,0,1,.111-.414,4.748,4.748,0,0,0,.277-1.671,2.738,2.738,0,0,0-.556-1.671,4.931,4.931,0,0,0-1.613-.91l-1.231-.41a16.917,16.917,0,0,0-2.155-.534l-4.489-.749a4.112,4.112,0,0,1-1.889-.969l-1.766-1.768a2.594,2.594,0,0,1-.648-1.9l.839-6.705c.075-.608.181-1.6.239-2.214l.655-7.247h-16l.658,7.247c.058.61.184,1.606.286,2.21l.749,4.487a16.384,16.384,0,0,1,.182,2.212,8.16,8.16,0,0,1-.355,2.174l-.406,1.226a8.158,8.158,0,0,0-.354,2.174v3.9a3,3,0,0,0,.279,1.113.754.754,0,0,1,.1.44C2062.5,1490.354,2076.591,1491.441,2085.7,1490.974Z" fill="#dedede"/>
            <path id="Trazado_205250" data-name="Trazado 205250" d="M2085.532,1487.218a4.931,4.931,0,0,0-1.613-.91l-1.231-.41a16.917,16.917,0,0,0-2.155-.534l-4.489-.749a4.112,4.112,0,0,1-1.889-.969l-1.766-1.768a2.594,2.594,0,0,1-.648-1.9l.839-6.705c.075-.608.181-1.6.239-2.214l.655-7.247h-1.247l-.655,7.247c-.058.61-.166,1.606-.24,2.214l-.838,6.705a2.589,2.589,0,0,0,.646,1.9l1.767,1.768a4.107,4.107,0,0,0,1.889.969l4.49.749a16.943,16.943,0,0,1,2.154.534l1.231.41a4.936,4.936,0,0,1,1.614.91,2.744,2.744,0,0,1,.555,1.671,4.717,4.717,0,0,1-.278,1.671.849.849,0,0,0-.109.414c-1.539.079-3.226.111-4.975.118,2.2.007,4.321-.02,6.222-.118a.844.844,0,0,1,.111-.414,4.748,4.748,0,0,0,.277-1.671A2.738,2.738,0,0,0,2085.532,1487.218Z" fill="#212121" opacity="0.5"/>
            <path id="Trazado_205251" data-name="Trazado 205251" d="M2085.811,1490.994c-.07,0-.1-.058-.111-.144-9.109.467-23.2-.621-27.088.026-.011.069-.041.118-.1.118-.152,0-.279.375-.279.835a3.539,3.539,0,0,0,.14,1.116c.074.153.641.277,1.253.277h5.294c.612,0,1.112-.252,1.112-.557s.5-.558,1.117-.558h1.112a2.724,2.724,0,0,1,1.671.558,2.746,2.746,0,0,0,1.674.557h12.814a2.724,2.724,0,0,0,1.394-.277,1.977,1.977,0,0,0,.277-1.116C2086.088,1491.369,2085.963,1490.994,2085.811,1490.994Z" fill="#212121"/>
          </g>
          <g id="Grupo_152811" data-name="Grupo 152811">
            <path id="Trazado_205252" data-name="Trazado 205252" d="M2017.83,1490.974a.849.849,0,0,0-.11-.414,4.743,4.743,0,0,1-.278-1.671,2.743,2.743,0,0,1,.556-1.671,4.936,4.936,0,0,1,1.614-.91l1.231-.41a16.83,16.83,0,0,1,2.155-.534l4.489-.749a4.107,4.107,0,0,0,1.889-.969l1.766-1.768a2.593,2.593,0,0,0,.647-1.9l-.839-6.705c-.074-.608-.181-1.6-.238-2.214l-.656-7.247h16l-.658,7.247c-.057.61-.184,1.606-.285,2.21l-.75,4.487a16.364,16.364,0,0,0-.182,2.212,8.2,8.2,0,0,0,.355,2.174l.408,1.226a8.2,8.2,0,0,1,.353,2.174v3.9a3,3,0,0,1-.279,1.113.766.766,0,0,0-.1.44C2041.031,1490.354,2026.94,1491.441,2017.83,1490.974Z" fill="#dedede"/>
            <path id="Trazado_205253" data-name="Trazado 205253" d="M2045.117,1473.274c.1-.6.228-1.6.285-2.21l.658-7.247h-1.248l-.658,7.247c-.057.61-.184,1.606-.286,2.21l-.749,4.487a16.364,16.364,0,0,0-.182,2.212,8.2,8.2,0,0,0,.355,2.174l.408,1.226a8.2,8.2,0,0,1,.353,2.174v3.9a3,3,0,0,1-.279,1.113.938.938,0,0,0-.1.313c.475.033.907.072,1.241.127a.766.766,0,0,1,.1-.44,3,3,0,0,0,.279-1.113v-3.9a8.2,8.2,0,0,0-.353-2.174l-.408-1.226a8.2,8.2,0,0,1-.355-2.174,16.364,16.364,0,0,1,.182-2.212Z" fill="#212121" opacity="0.5"/>
            <path id="Trazado_205254" data-name="Trazado 205254" d="M2017.72,1490.994c.07,0,.1-.058.11-.144,9.11.467,23.2-.621,27.088.026.011.069.042.118.1.118.152,0,.279.375.279.835a3.544,3.544,0,0,1-.14,1.116c-.075.153-.64.277-1.253.277h-5.293c-.614,0-1.113-.252-1.113-.557s-.5-.558-1.117-.558h-1.113a2.721,2.721,0,0,0-1.67.558,2.746,2.746,0,0,1-1.674.557h-12.815a2.72,2.72,0,0,1-1.393-.277,1.975,1.975,0,0,1-.278-1.116C2017.442,1491.369,2017.568,1490.994,2017.72,1490.994Z" fill="#212121"/>
          </g>
        </g>
      </g>
    </g>
  </g>
</svg>
