<svg xmlns="http://www.w3.org/2000/svg" width="218.018" height="292" viewBox="0 0 218.018 292">
  <g id="Grupo_153128" data-name="Grupo 153128" transform="translate(-710 4960.901)">
    <g id="Grupo_152837" data-name="Grupo 152837" transform="translate(-172.681 -6718.974)">
      <path id="Trazado_205714" data-name="Trazado 205714" d="M914.782,1783.731c9.669-15.215,23.887-22.891,41.453-25.034.7-.084,1.557.233,2.031-.625h19.966c4.044.744,8.094,1.466,12.132,2.242,1.107.213,2.182.591,3.273.894-.158,10.591.55,21.151,1.01,31.724.4,9.254.53,18.522.778,27.783a27.422,27.422,0,0,0-6.859.841c-5.535-4.022-10.922-8.26-16.973-11.523a5.2,5.2,0,0,0-.812-.786,225.11,225.11,0,0,0-51.317-23.685C917.859,1785.064,916.08,1785.012,914.782,1783.731Zm32.053-9.7c.512,2.014-.252,3.6-2.64,3.688-1.875.067-5.009,1.717-5.115,3.52-.231,3.956,3.844.977,5.158,2.907.277.407,2.177-.325,2.411-1.649.5-2.872,1.4-3.3,4.057-1.77a8.307,8.307,0,0,0,10.43-1.256,8.52,8.52,0,0,0,1.25-10.227,8.366,8.366,0,0,0-8.984-3.877C949.151,1766.476,946.826,1769.462,946.835,1774.034Z" transform="translate(11.715)" fill="#e2872c"/>
      <path id="Trazado_205715" data-name="Trazado 205715" d="M921.021,1925.642c-.588-.688-1.455-1.434.343-1.619.845.98,2.126,1.194,3.175,1.817,1.1.652,1.788.377,2.017-.91,1.168-6.591,5.071-12.523,4.678-19.5-.081-1.424.721-2.24,2.147-1.774a2.087,2.087,0,0,0,2.821-1.083,54.137,54.137,0,0,1,6.822-8.726c2.568-2.841,5.136-5.764,8.744-7.415-.03.276-.194.656-.071.813,2.225,2.858,5.24,4.853,7.96,7.167.569.485,1.011-.146,1.385-.556a.754.754,0,0,0-.116-1.216c-2.9-2.225-5.24-5.172-8.65-6.743,2.522-3.24,6.213-4.851,9.605-6.881.225,1.95.483,3.9.663,5.852.138,1.489.909,1.935,2.281,1.579a.981.981,0,0,0,1.661.161l1.721-.276c.341.643.721.777,1.166.091l1.761.176a.984.984,0,0,0,1.639-.092c2.09.381,2.686-.3,2.058-2.423a13.565,13.565,0,0,1-.884-5.452c2.5.853,3.831-.255,4.3-2.578.22-1.095.856-1.238,1.828-1.223,8.422.131,16.843.216,25.266.315-1.2.757-2.426,1.49-3.61,2.277-23.813,15.8-36.933,37.127-34.67,66.552,1.238,16.08,8.628,29.051,19.71,40.262.192.191.384.385.575.577q.293.26.59.517c.193.191.385.384.577.573q.317.276.632.555l.565.775c.106-.122.291-.232.308-.365.053-.423-.177-.661-.6-.71l-.561-.575-.572-.571q-.283-.291-.566-.579l-.567-.569c-3.494-4.355-7.22-8.542-9.907-13.491-12.335-22.736-12.82-45.167,1.792-67.176a78.828,78.828,0,0,1,32.954-28l1.078-.33c1.566-.607,3.111-1.275,4.7-1.8,1.114-.369,1.788-.681,1.234-2.117s-1.306-1.511-2.516-.946c-1.607.749-3.249,1.422-4.876,2.129a19.149,19.149,0,0,1-2.9-4.6c24,.781,44.733,9.224,60.86,27.235,24.782,27.678,22.867,67.226-4.345,92.568-18.791,17.5-41.412,24.36-66.785,22.487a85.3,85.3,0,0,1-50.769-21.33c-1.178-2.161-4.051-2.98-4.518-5.706q6.257,1.091,12.517,2.177c.823.142,1.728.425,2.015-.819.317-1.375-.717-1.256-1.522-1.4-3.339-.591-6.725-1-10-1.843-2.013-.52-2.767.047-2.993,1.9-1.2.236-1.683-.764-2.241-1.44a68.915,68.915,0,0,1-8.661-12.967c-5.817-11.6-8.386-23.806-6.882-36.819C925.917,1927.055,925.666,1927.019,921.021,1925.642Zm148.826.567c1.712-.518,3.6-.594,5.4-2.117a17.255,17.255,0,0,0-6.187,1.492c-2.7.486-5.393,1.055-8.112,1.424-1.548.209-3.651.743-4.377-.973-.758-1.789,1.1-2.966,2.285-4.157,1.127-1.136,2.734-1.833,3.513-3.6-2.488-.061-4.362,1.368-6.541,1.541-1.077.086-2.237.229-2.933-.624-.816-1-.281-2.142.26-3.183a16.46,16.46,0,0,1,7.949-7.872c-5.1.41-11.13,5.849-11.834,10.094-.33,1.993.4,3.2,2.49,3.194,1.647-.005,3.295-.244,5.03-.388-.292,1.264-1.344,1.738-1.918,2.576-.781,1.141-2.255,2.155-1.446,3.7.692,1.324,2.294,1.179,3.6,1.163A44.5,44.5,0,0,0,1069.847,1926.209Zm-58.252-22.2a21.25,21.25,0,0,0-5.153,7.03c-7.479,14.819-8.176,30.313-4.157,46.138,1.878,7.4,4.938,14.277,11.026,19.351,6.123,5.723,13.779,6.163,20.4,1.183a28.175,28.175,0,0,0,8.191-10.067c7.009-13.9,7.854-28.519,4.676-43.5-1.717-8.1-4.862-15.59-11.011-21.423C1028.059,1895.593,1018.189,1896.176,1011.595,1904.008Zm-21.281,19.553c0-1.625.066-2.847-.018-4.059a21.476,21.476,0,0,0-.5-3.658c-.812-3.3-2.823-4.066-5.7-2.271-5.02,3.135-7.6,12.275-4.947,17.537a9.515,9.515,0,0,0,.569.983c.743,1.118,1.744,1.007,2.742.471,1.2-.644.419-1.379.045-2.12a15.4,15.4,0,0,1-.987-2.345c-.455-1.471-.109-2.215,1.592-1.552,2.728,1.063,5.473,2.087,8.2,3.168,1.414.561,2.689.656,3.911-.8l-5.331-2.3c3.594-2.737,6.68-5.737,10.528-7.832C996.272,1918.307,993.755,1921.281,990.314,1923.561Zm62.474,26.985c4.777.577,5.674-4.233,8.591-6.351.8,2.085,1.448,4.047,2.313,5.9.683,1.467,1.631,2.96,3.478,2.995a4.448,4.448,0,0,0,4.15-2.995c1.878-4.38,2.5-8.92.827-13.543a8.179,8.179,0,0,0-3.279-4.176,1.871,1.871,0,0,0-2.552.479c-.818.923.356,1.239.786,1.735,1.05,1.215,2.155,2.387,2.077,4.095-4.645,1.168-9.381-1.594-13.92.7l5.729.872C1058.064,1943.8,1056.19,1947.692,1052.788,1950.546Zm-63.609-7.5a12.269,12.269,0,0,1,5.239,10.451c.067,3.552-1.127,4.311-4.319,2.828a18.7,18.7,0,0,1-8.023-7.427,11.831,11.831,0,0,1-1.271-10.528c-3.3.262-4.678,2.542-3.874,6.436A17.789,17.789,0,0,0,985.6,1956.6c3.867,2.374,8.094,2.5,10.37.436,2.292-2.078,2.5-6.183.255-10.33-.992-1.832-2.2-3.362,1.694-4.017C991.575,1941.714,991.575,1941.714,989.178,1943.049Zm52.9-35.985c2.208.306,3.325-.293,4.168-1.652.95-1.529,2.114-2.929,3.012-4.487.926-1.605,1.839-2.194,3.829-1.477a16.335,16.335,0,0,0,8.983.652c1.718-.366,3.36-1.021,3.835-2.939.513-2.066-1-3.167-2.432-4.089-5.083-3.281-10.673-3.612-16.442-2.567-.591.108-1.306.379-1.207,1.675,3.051-.211,6.119-.614,9.171-.089,2.577.444,5.005,1.132,6.737,3.257.531.652,1.152,1.433.742,2.3-.366.77-1.286.729-2.045.687a21.482,21.482,0,0,1-7.679-1.609c.265-1.5,1.949-1.908,2.3-4.168C1048.453,1895.787,1046.379,1902.128,1042.074,1907.064Zm-31.368-10.588c-1.5-.111-2.52-.018-3.351.924-2.323,2.633-4.779,5.225-5.942,8.592-.669,1.936-1.465,1.787-2.768.842-3.373-2.445-6.762-4.866-10.124-7.327-1.5-1.1-2.87-1.155-4.282.339,4.983,2.944,8.939,7.211,14.213,9.535,3.7,1.633,4.6,1.263,5.6-2.454a15.288,15.288,0,0,1,2.466-5.076C1007.779,1900.123,1009.143,1898.47,1010.706,1896.476Zm-36.847,5.554c-.311-1.38-.99-1.548-2.265-.991-6.666,2.907-13.367,5.734-20.065,8.568-.815.345-1.657.516-1.055,1.748.512,1.051,1.153.655,1.865.352q10.161-4.336,20.332-8.656C973.192,1902.83,973.771,1902.706,973.86,1902.03Zm-6.235,57.826c-.349-1.3-.935-1.536-2.083-.917-6.266,3.378-12.567,6.692-18.853,10.034-.738.393-1.712.693-1.067,1.866s1.425.508,2.158.12q9.314-4.922,18.618-9.866C966.945,1960.8,967.717,1960.652,967.625,1959.856Zm-7.756-61.525a4.822,4.822,0,0,0,.542-.154q9.162-3.777,18.328-7.55c.872-.356,1.185-.863.788-1.744-.5-1.107-1.231-.506-1.886-.24q-6.558,2.668-13.1,5.362c-1.66.681-3.31,1.384-4.975,2.05-.571.229-1.087.474-.785,1.2C958.978,1897.74,959.083,1898.4,959.869,1898.331ZM944.2,1939.974c.164-.071.428-.171.681-.292q8.554-4.113,17.105-8.232c.613-.295,1.177-.579.74-1.484-.456-.946-1.024-.894-1.826-.5-2.8,1.37-5.62,2.7-8.428,4.05s-5.611,2.712-8.418,4.068c-.693.334-1.444.613-.979,1.653C943.285,1939.7,943.515,1940.062,944.2,1939.974Zm.162,13.794c.248-.112.685-.291,1.107-.5,5.349-2.627,10.7-5.248,16.039-7.9.662-.33,1.834-.408,1.209-1.728-.681-1.437-1.552-.576-2.335-.2-2.9,1.394-5.783,2.824-8.672,4.242-2.55,1.25-5.1,2.488-7.641,3.762-.551.276-1.332.467-1.069,1.387C943.165,1953.394,943.41,1953.907,944.363,1953.768Zm3.057-28.585a1.917,1.917,0,0,0,.269-.089q8.382-4.169,16.757-8.348c.669-.336.543-.939.274-1.467-.318-.624-.853-.659-1.439-.381-.94.446-1.885.883-2.817,1.344q-6.611,3.28-13.217,6.569c-.573.284-1.376.419-1,1.354C946.451,1924.674,946.664,1925.27,947.421,1925.184Zm-2.408,22.5c-.127-.232-.2-.581-.4-.7q-7.633-4.406-15.294-8.763c-.732-.416-.98.219-1.287.685-.41.622-.2,1.01.408,1.36q7.416,4.222,14.807,8.483C944.524,1949.485,944.643,1948.461,945.013,1947.68Zm13.5,40.876a1.548,1.548,0,0,0,.358-.078q7.639-4.34,15.264-8.7c.611-.351.487-.947.143-1.487a.923.923,0,0,0-1.414-.373q-7.375,4.234-14.756,8.456c-.508.292-.951.7-.542,1.366C957.8,1988.124,958,1988.6,958.509,1988.557Zm13.1,9.021a3.763,3.763,0,0,0,.691-.249q6.607-4.457,13.2-8.936c.622-.425.4-.945.025-1.467-.4-.561-.794-.73-1.406-.314q-6.472,4.406-12.955,8.793c-.426.289-.7.661-.362,1.171C971.052,1996.947,971.365,1997.276,971.612,1997.578Zm-39.533-36.925c-.788-.134-.9.452-1.119.987-.381.945.252,1.1.916,1.336,4.264,1.494,8.53,2.992,12.779,4.531.819.3,1.422.389,1.789-.587.395-1.044-.315-1.344-1.044-1.6q-4.922-1.753-9.856-3.471C934.388,1961.442,933.228,1961.05,932.079,1960.653Zm12.957-28.213c.1-.351-.231-.687-.639-.943q-5.907-3.712-11.82-7.409c-.7-.44-1.159-.334-1.613.408-.493.805-.154,1.174.5,1.577,3.87,2.4,7.742,4.8,11.583,7.25C944.07,1933.979,944.594,1933.65,945.036,1932.44Zm-8.4-21.839c-.774-.168-.938.484-1.2.942-.521.909.326,1.138.831,1.459q5.141,3.261,10.308,6.477c.708.444,1.433,1.092,2.106-.071s-.34-1.478-1-1.9c-3.341-2.132-6.7-4.234-10.057-6.344C937.3,1910.962,936.971,1910.785,936.64,1910.6Zm64.023,89.3c-.319-1.347-.928-1.679-2.21-1.018-2.928,1.506-5.921,2.885-8.887,4.316-.737.355-1.742.515-1.077,1.764.63,1.183,1.388.557,2.128.209,2.981-1.4,5.963-2.8,8.928-4.227C1000.008,2000.718,1000.67,2000.6,1000.663,1999.9Zm-57.908-101.472a10.808,10.808,0,0,0-.8.96c-.348.516-.01.913.371,1.188,3.008,2.155,6.036,4.283,9.044,6.438.56.4,1.016.445,1.426-.157.257-.378.774-.913.344-1.231-3.276-2.423-6.61-4.768-9.93-7.132C943.139,1898.446,943.021,1898.465,942.755,1898.428Zm-10.182,9.62c.768-.979,1.875-1.71,1.6-2.958-.093-.417-.882-.506-1.23-.213C931.856,1905.792,932.382,1906.977,932.573,1908.048Z" transform="translate(13.724 39.948)" fill="#080f40"/>
      <path id="Trazado_205716" data-name="Trazado 205716" d="M992.057,1814.7a27.422,27.422,0,0,1,6.859-.841c4.33,1.717,5.322,4.412,3.079,8.464a16.773,16.773,0,0,1-1.583,2.363c-5.737,7.109-13.42,9.118-22.13,8.372-1.368-.117-2.783-.828-3.56,1.151-1.974,5.029-4.057,10.013-6.1,15.016-1.112,2.357-2.39,4.652-2.846,7.267a11.152,11.152,0,0,0-1.563,2.978c-.809,4.593-6.135,6.247-9.747,5.841-3.083-.348-4.305-1.562-4.644-4.652-.162-1.486.177-3.042-.616-4.442-.007-.95-.008-1.9-.02-2.851-.03-2.3-.769-3.378-3.489-3.575-8.951-.645-17.869-1.749-26.8-2.624-3.2-.312-6.418-.519-9.631-.692-2.24-.122-3.3-.939-3.482-3.443a147.192,147.192,0,0,1-.435-18.484c.786-14.945,3.128-29.564,10.195-43.035.833-1.587,1.814-3.1,2.726-4.641,1.3,1.281,3.077,1.333,4.683,1.833a225.11,225.11,0,0,1,51.317,23.685,5.133,5.133,0,0,1,.811.786c-.67,1.873-1.417,3.722-1.989,5.624-.684,2.279-1.436,4.78.293,6.781,1.865,2.159,4.42,1.2,6.662.512,1.485-.453,2.166-.644,2.213,1.368.053,2.353,1.293,2.91,3.082,1.482A58.043,58.043,0,0,1,992.057,1814.7Zm-40.643,3.178a.486.486,0,0,0,.53-.586c.669-.132.676-.6.577-1.127,1.8-2.29,1.5-4.646-.807-6.358a13.416,13.416,0,0,0-16.793.575,6.144,6.144,0,0,0-.143,9.447,10.051,10.051,0,0,0,7.881,2.525c3.034-.295,6.477-.5,8.22-3.875Q951.146,1818.174,951.415,1817.875Zm30.8,6.275-.6.543c-1.878,1.5-1.937,3.449-1.212,5.611-.212-2.062.891-3.615,1.83-5.232q.254-.281.505-.561c.083-.222.295-.581.228-.644C982.594,1823.521,982.376,1823.805,982.215,1824.149Zm-57.008-9.056.036.054c-.082-.482-.038-1.081-.835-.893l-.105.075c.351-1.114-.474-1.606-1.205-1.968-3.265-1.617-6.642-2.174-10.075-.56-3.73,1.755-4.275,5.362-1.319,8.287,2.589,2.561,8.278,3.437,11.452,1.747.728-.387,1.671-.661,1.344-1.839l.059.206.673-.871c.985-.981.4-2.224.558-3.343Zm20.018,14.314.027-.042c-1.2-.171-1.269.586-1.194,1.459-.58,2.17,1.16,1.727,2.259,2-1.578,1.945-.882,3,1.286,3.771,2.039.729,3.973,1.751,5.962,2.623,3.1,1.359,4.9.293,5.146-3.15a8.835,8.835,0,0,1,.146-1.638,8.663,8.663,0,0,0-3.339-6.576c-1.364-1.183-2.667-1.32-3.748.4l-1.5-.081c1.329-2.591,1.329-2.591-3.709-3.767.713,1.063-.247,1.765-.236,2.673-.542.086-.666.418-.532.9l.034-.056C945.192,1828.244,944.706,1828.622,945.225,1829.407Zm-24.707-35.59c-2.326.283-3.724.384-5.093.635a2.813,2.813,0,0,0-2.4,3.064c.018,1.664,1.193,2.173,2.709,2.21a16.61,16.61,0,0,0,8.985-2.118c1.338-.781,2.678-1.8,2.741-3.4a3.058,3.058,0,0,1,2.1-2.941,10.947,10.947,0,0,0,1.9-1.238c1.686-1.279,2.987-2.911,2.187-5.083-.772-2.1-2.881-2.374-4.8-2.239a42.608,42.608,0,0,0-7,1.056,6.208,6.208,0,0,0-4.9,4.634C916.353,1790.81,917.939,1792.207,920.518,1793.817Zm49.2,34.126a24.6,24.6,0,0,0-2-9.106c-.972-2.162-2.5-3.565-4.94-3.676s-3.8,1.468-4.813,3.387c-.538,1.018-.814,2.006-2.4,1.755a2.536,2.536,0,0,0-2.808,1.936,3.075,3.075,0,0,0,1.125,3.31,4.021,4.021,0,0,0,5,.607c1.871-1.163,2.189-.444,2.319,1.24a4.484,4.484,0,0,0,.491,1.622c1.115,2.191,1.624,5.482,4.919,4.922C969.927,1833.38,969.181,1830.029,969.72,1827.944Zm-37.389.154c-.564-.194-.845-.4-1.029-.339-3.188,1.118-3.169-.579-2.982-3.027a122.548,122.548,0,0,0-.183-20.993,7.712,7.712,0,0,0-.767-3.037c0,8.936-.007,18.021.015,27.106,0,.579-.232,1.623.789,1.428C929.462,1828.989,930.923,1829.131,932.331,1828.1Zm-6.924-1.95c-1.414-1.089-2.37-.513-3.247-.04-.822.441-1.525.744-2.289-.042-1.561-1.606-3.268-1.009-4.981-.308-1.885.77-3.5,2.258-5.779,2-.569-.064-1.463.368-1.333,1.152.145.867,1.02,1.07,1.807.951a14.862,14.862,0,0,0,4.938-2.068c.633-.354,1.414-1.189,2.045-.587C919.9,1830.392,922.4,1827.676,925.407,1826.147Zm7.713-32.381c-1.54-.678-.984,1.043-1.284,1.815-.542,1.391.526,1.205,1.344,1.336,3.539.563,7.167.2,10.682,1.039.423.1,1.04.21,1.243-.3.295-.745-.358-.987-.9-1.125C940.648,1795.626,937.08,1794.75,933.12,1793.767Zm-12.663,10.5c-3.288-.561-6.314.52-9.4,1.164-1.466.306-.469,1.329-.333,2.039.172.887.606,1.276,1.57.792C915,1806.9,917.733,1805.591,920.458,1804.263Zm48.879,34.573a5.051,5.051,0,0,0,3.684-3.908c.2-.685.485-1.529-.472-1.945a1.686,1.686,0,0,0-2.045.52c-.964,1.327-1.129,3.063-2.339,4.365C967.619,1838.454,968.745,1838.733,969.336,1838.836Zm-31.837-4.773c.066-.29.131-.41.094-.465a.307.307,0,0,0-.262-.075c-1.4.225-1.847-.414-1.716-1.749.093-.942-.018-1.9.025-2.85.089-2.005-.782-2-2.2-1.062,2.543.807,1.413,2.872,1.4,4.351C934.826,1834.6,935.614,1834.992,937.5,1834.063Zm27.924-22.425a.775.775,0,0,0-.86-.818,2.828,2.828,0,0,0-2.786,1.919c-.25.6.359.779.819.805A2.884,2.884,0,0,0,965.423,1811.638Zm-20.5,22.3c-1.358-.775-2.193-1.59-3.613-.4C942.4,1834.259,943.229,1834.856,944.924,1833.94Zm39.068-10.577c-.059-.062-.13-.182-.175-.173a1.776,1.776,0,0,0-.374.159c.061.06.131.176.18.168A1.5,1.5,0,0,0,983.992,1823.363Z" transform="translate(8.225 6.86)" fill="#fcdbb4"/>
      <path id="Trazado_205717" data-name="Trazado 205717" d="M951.673,1855.243c2.039-5,4.122-9.987,6.1-15.016.777-1.979,2.192-1.268,3.56-1.151,8.71.745,16.393-1.264,22.13-8.372a16.773,16.773,0,0,0,1.583-2.363c2.243-4.052,1.25-6.747-3.079-8.464-.248-9.261-.377-18.529-.778-27.783-.46-10.573-1.168-21.133-1.01-31.724,15.047,4.066,27.348,11.715,33.918,26.539a26.29,26.29,0,0,1,1.486,18.608,17.394,17.394,0,0,1-11.37,12.168,69.881,69.881,0,0,0-6.909,2.595c-6.31,3.008-7.3,6.668-3.513,12.512,1.082,1.672,2.274,3.273,3.419,4.9,2.133,3.038,1.86,4.743-1.3,6.8-4.862,3.165-10.453,4.369-15.975,5.727-1.171.288-2.352.527-4.369.976l13.245,6.741a65.1,65.1,0,0,1-22.246,2.255C961.191,1859.73,956.048,1858.658,951.673,1855.243Z" transform="translate(25.179 0.839)" fill="#e53935"/>
      <path id="Trazado_205718" data-name="Trazado 205718" d="M942.315,1835c.793,1.4.453,2.955.616,4.442.339,3.09,1.56,4.3,4.644,4.652,3.612.407,8.938-1.248,9.747-5.841a11.152,11.152,0,0,1,1.563-2.978c2.985.239,5.968.61,8.958.674,2.173.047,3,.57,1.781,2.7a4.655,4.655,0,0,0-.307,1.358c-.951.367-.729.934-.22,1.495,2.163,2.39-1.424,5.536,1.047,7.88l-1.608,1.075c-1.275.646-3.082.426-3.552,2.359-1.7,6.99-3.771,13.888-5.083,20.972-.663.769-.516,1.765-.744,2.655-7.309.382-14.62.164-21.932.113l-1.2-2.261a109.18,109.18,0,0,0-6.774-14.337,17.95,17.95,0,0,0-2.8-6.21,12.267,12.267,0,0,0-1.822-4.414c-.919-1.672-.587-2.643,1.033-3.653C931.253,1842.192,936.768,1838.571,942.315,1835Z" transform="translate(15.122 28.075)" fill="#81af1d"/>
      <path id="Trazado_205719" data-name="Trazado 205719" d="M960.266,1866.072c.228-.89.081-1.886.744-2.655,3.83.992,7.678,1.937,11.147,3.948-6.3,2.153-10.337,6.127-10.563,13.157-3.392,2.03-7.083,3.64-9.605,6.881l.022-.048c-.37.026-.6.2-.586.6l.055-.015c-3.608,1.65-6.176,4.574-8.744,7.415a54.137,54.137,0,0,0-6.822,8.726,2.087,2.087,0,0,1-2.821,1.083c-1.426-.466-2.228.351-2.147,1.774.393,6.976-3.509,12.908-4.678,19.5-.229,1.287-.917,1.563-2.017.91-1.048-.622-2.33-.837-3.175-1.817q3.329-18.9,6.664-37.791c1.123-6.346,2.436-12.663,3.333-19.04.382-2.717,1.411-4.118,4.128-4.3a11.141,11.141,0,0,0,1.93-.474l1.2,2.261-3.7.064c-.711.012-1.339.134-1.381,1.042-.049,1.073.652,1.235,1.488,1.229.663,0,1.331.01,1.993-.037,8.86-.62,17.72-1.249,27.3-1.927Z" transform="translate(14.012 38.445)" fill="#4e03c7"/>
      <path id="Trazado_205720" data-name="Trazado 205720" d="M947.435,1967.253c.467,2.726,3.34,3.545,4.518,5.706q-.34,2.6-.677,5.2c-5.348-1.306-10.267-3.771-15.363-5.749-5.622-2.181-11.369-4.085-16.737-6.892.643-3.433,1.3-6.862,1.926-10.3.693-3.81.68-3.812-3.254-3.348-.329-.983-.676-1.961-.987-2.951-2.7-8.543-5.948-16.907-8.285-25.567,4.313-.557,8.622-1.162,12.945-1.641,1.248-.138,1.787-.555,1.986-1.843.5-3.268,1.181-6.51,1.788-9.762,4.645,1.376,4.9,1.411,4.373,5.938-1.5,13.013,1.065,25.215,6.882,36.819a68.915,68.915,0,0,0,8.661,12.967c.558.676,1.04,1.676,2.241,1.44Z" transform="translate(9.451 55.485)" fill="#4e03c7"/>
      <path id="Trazado_205721" data-name="Trazado 205721" d="M950.761,1889.553c.227-7.03,4.261-11,10.563-13.157,6.875-1.1,13.662-.334,21.155,1.418l-23.668-28.7,1.608-1.075c-2.471-2.344,1.117-5.49-1.047-7.88-.509-.561-.732-1.127.22-1.495,4.989,1.861,8.91,5.315,12.735,8.815,8.924,8.168,16.262,17.691,23.1,27.621.695,1.009,1.445,1.979,2.17,2.966a19.149,19.149,0,0,0,2.9,4.6l1.455,2.737-1.078.33q-3.323-.029-6.65-.056c-8.423-.1-16.845-.184-25.266-.315-.972-.015-1.608.128-1.828,1.223-.467,2.323-1.8,3.431-4.3,2.578a13.565,13.565,0,0,0,.884,5.452c.628,2.127.031,2.8-2.058,2.423-.867-4.152-2.531-8.293-.108-12.551-2.592,1.055-2.617,3.279-2.486,5.387.153,2.428.622,4.838.954,7.255l-1.761-.176c-.319-1.367-.747-2.722-.935-4.107-.311-2.311-.785-4.644.2-6.941.259-.6,1.677-1.1.727-1.722s-1.57.61-1.963,1.387a7.63,7.63,0,0,0-.646,4.129,25.739,25.739,0,0,0,1.446,7.163l-1.721.276c-1.637-4.009-3.178-8.023-.809-12.384-2.436,1.116-2.664,3.244-2.4,5.333a70.531,70.531,0,0,0,1.545,6.89c-1.372.356-2.143-.09-2.281-1.579C951.244,1893.45,950.986,1891.5,950.761,1889.553Z" transform="translate(24.846 29.413)" fill="#fcdbb4"/>
      <path id="Trazado_205722" data-name="Trazado 205722" d="M905.665,1920.8l1.578-.176q.326,4.641.651,9.283c.405,5.907.77,11.818,1.235,17.721.106,1.351.2,2.982,2.326,2.742,2.648,6.384,5.154,12.8,4.11,19.938-.139.951.251,1.171,1.032,1.188.849.019,1.7.042,2.547.063,2.656,1.956,5.935,1.88,8.934,2.692,7.694,2.087,15.605,3.307,23.227,5.7-1.119.184-2.232.441-3.358.538q-13.437,1.161-26.878,2.26c-7.638.613-15.283,1.158-22.926,1.734a12.793,12.793,0,0,1,2.237-7.907c3.9-1.9,4.66-5.073,4.657-9.226C905.031,1951.833,905.423,1936.316,905.665,1920.8Z" transform="translate(5.633 59.322)" fill="#b37146"/>
      <path id="Trazado_205723" data-name="Trazado 205723" d="M939.567,1849.194a17.95,17.95,0,0,1,2.8,6.21c-1.029,5.774-3,11.3-4.481,16.955-.718,2.74-1.814,5.409-2.24,8.188-.45,2.935-2.015,3.118-4.392,2.775-8.592-1.238-15.867-5.21-22.68-10.375-2.083-1.578-3.533-3.968-6.157-4.834-2.316-3.987.153-8.442-1.091-12.566-.577,2.546-.075,5.251-1.761,7.479-1.272.042-1.385-1.011-1.758-1.836-.193-.426-.242-1.271-1.018-.715-2.1,1.5-4.622.763-6.883,1.372-.081-1.451-.925-2.781-.674-4.283,2.641.122,5.385-.512,7.9,1.067v-4.517c.124,2.729-1.751,2.221-3.4,2.176-1.795-.049-3.593,0-5.387.011-.618-5.3.023-5.833,5.786-4.825,3.129,1.914,3.133,1.915,4.353-1.361.161-.429.248-.885.37-1.328,3.486-2.194,4.517-1.79,5.942,2.334a5.086,5.086,0,0,1,.51,1.617c-.171,6.452,4.448,9.441,8.935,12.6,3.638,2.558,7.2,5.228,10.748,7.913,1.723,1.3,2.791,1.414,3.808-.908,3.235-7.377,6.664-14.669,10.03-21.989A9.554,9.554,0,0,1,939.567,1849.194Z" transform="translate(1.998 32.627)" fill="#fdddb6"/>
      <path id="Trazado_205724" data-name="Trazado 205724" d="M900.853,1855.545c-.121.443-.209.9-.37,1.328-1.22,3.276-1.224,3.274-4.353,1.361-.554-3.461-1.153-6.916-1.639-10.388-.213-1.514-.666-2.274-2.447-2.226a13.479,13.479,0,0,1-6.058-1.33c-3.225-1.513-4.167-4.168-2.484-7.242,1.6-2.921,4.238-4.8,6.957-6.565.882-.571,1.369-.352,1.366.8,0,1.993.115,3.985.092,5.977-.015,1.281.377,1.728,1.667,1.252a8.843,8.843,0,0,1,2.485-.568c1.727-.1,1.664-1.12,1.38-2.352-.489-2.109-.954-4.222-1.5-6.632,3.706.446,6.785,1.62,8.994,4.446,3.281,4.193,1.361,9.3-4.094,10.591-1.963.464-2.4,1.085-1.848,3.014C899.806,1849.8,899.814,1852.786,900.853,1855.545Z" transform="translate(0 25.869)" fill="#4e03c7"/>
      <path id="Trazado_205725" data-name="Trazado 205725" d="M945.682,1968.977c-7.622-2.393-15.533-3.613-23.227-5.7-3-.812-6.277-.736-8.932-2.693.661-2.743,1.314-5.49,1.982-8.23.236-.97.622-1.8,1.867-1.646,5.368,2.8,11.115,4.709,16.737,6.89,5.1,1.978,10.015,4.443,15.363,5.749.246,2.139.6,4.287-.627,6.277A7.05,7.05,0,0,0,945.682,1968.977Z" transform="translate(11.255 70.295)" fill="#fe6da8"/>
      <path id="Trazado_205726" data-name="Trazado 205726" d="M909.014,1950.868c-2.129.24-2.219-1.391-2.326-2.742-.465-5.9-.83-11.814-1.235-17.721q-.317-4.641-.651-9.283c1.246-2.555,3.157-2.021,5.151-1.108,2.337,8.659,5.589,17.024,8.285,25.567.311.99.658,1.968.987,2.951-.041,1.272-1.02,1.1-1.833,1.2C914.6,1950.1,911.807,1950.49,909.014,1950.868Z" transform="translate(8.073 58.824)" fill="#fe6da8"/>
      <path id="Trazado_205727" data-name="Trazado 205727" d="M951.667,1964.087a7.05,7.05,0,0,1,3.163.647c.229,3.739.227,3.706-3.709,4.042-16.907,1.44-33.812,2.917-50.724,4.316-.953.079-2.582.939-2.82-.692-.175-1.186-1.349-3.041.928-3.781,7.642-.576,15.287-1.121,22.926-1.734q13.443-1.079,26.878-2.26C949.436,1964.528,950.548,1964.271,951.667,1964.087Z" transform="translate(5.27 75.184)" fill="#080f40"/>
      <path id="Trazado_205728" data-name="Trazado 205728" d="M905.059,1920.85c-.242,15.517-.633,31.033-.628,46.549,0,4.152-.758,7.327-4.657,9.226.272-18.023.5-36.047.853-54.07C900.7,1918.946,903.5,1921.236,905.059,1920.85Z" transform="translate(6.238 59.272)" fill="#080f40"/>
      <path id="Trazado_205729" data-name="Trazado 205729" d="M898.51,1860.868c1.686-2.228,1.183-4.933,1.761-7.479,1.244,4.124-1.226,8.579,1.091,12.566a4.39,4.39,0,0,0,2.589,4.714c3.281,1.822,3.056,5.857-.151,7.862a6.778,6.778,0,0,1-7.727-.374,4.315,4.315,0,0,1-.758-6.49c.762-.917,1.568-1.65.894-2.932.905-.493,1.787-1.031,2.72-1.462.744-.345,1.381-.633.988-1.65-.355-.915-.977-.615-1.635-.478-2.218.459-4.444.878-6.668,1.312a1.037,1.037,0,0,1-.543-1.123c2.329-.441,4.664-.844,6.98-1.336,1.751-.371,2.258-1.1.449-2.237Zm1.813,11.846c-.879.229-2.323.338-2.293,1.76.033,1.572,1.484,1.741,2.768,1.748,1.224.007,2.548-.366,2.532-1.7C903.311,1873,901.849,1872.8,900.323,1872.714Z" transform="translate(3.056 34.786)" fill="#4e03c7"/>
      <path id="Trazado_205730" data-name="Trazado 205730" d="M898.953,1859.885c1.808,1.138,1.3,1.866-.449,2.237-2.316.493-4.652.9-6.98,1.336q-.854-2.252-1.709-4.5C892.9,1858.892,896.11,1857.58,898.953,1859.885Z" transform="translate(2.604 36.661)" fill="#fcdbb4"/>
      <path id="Trazado_205731" data-name="Trazado 205731" d="M891.465,1863.356c2.224-.434,4.45-.853,6.668-1.312.658-.136,1.28-.437,1.635.478.393,1.017-.244,1.3-.988,1.65-.934.431-1.815.969-2.72,1.462C893.462,1867.025,891.816,1866.5,891.465,1863.356Z" transform="translate(3.206 37.887)" fill="#fcdbb4"/>
      <path id="Trazado_205732" data-name="Trazado 205732" d="M888.295,1854.526c1.795-.008,3.593-.06,5.387-.011,1.646.045,3.522.553,3.4-2.176v4.517c-2.512-1.579-5.255-.946-7.9-1.067A1.358,1.358,0,0,1,888.295,1854.526Z" transform="translate(2.049 34.403)" fill="#383857"/>
      <path id="Trazado_205733" data-name="Trazado 205733" d="M899.09,1860.492c-2.843-2.305-6.054-.994-9.138-.929-.169-.381-.341-.762-.512-1.142,2.262-.609,4.78.131,6.883-1.372.777-.556.826.289,1.018.715.373.824.486,1.878,1.758,1.836Z" transform="translate(2.467 36.054)" fill="#383857"/>
      <path id="Trazado_205734" data-name="Trazado 205734" d="M940.341,1772.143c-.01-4.571,2.316-7.558,6.567-8.664a8.366,8.366,0,0,1,8.984,3.877,8.52,8.52,0,0,1-1.25,10.227,8.307,8.307,0,0,1-10.43,1.256c-2.652-1.527-3.553-1.1-4.057,1.77-.234,1.324-2.134,2.056-2.411,1.649-1.314-1.93-5.389,1.048-5.158-2.907.105-1.8,3.239-3.453,5.115-3.52C940.088,1775.743,940.853,1774.157,940.341,1772.143Zm13.225-.388a4.544,4.544,0,0,0-4.68-4.893,4.652,4.652,0,0,0-5.127,4.766,5.123,5.123,0,0,0,4.745,5.058A4.844,4.844,0,0,0,953.566,1771.755Z" transform="translate(18.21 1.891)" fill="#4e03c7"/>
      <path id="Trazado_205735" data-name="Trazado 205735" d="M974.114,1807.664a58.043,58.043,0,0,0-6.713,4.244c-1.789,1.428-3.029.871-3.082-1.482-.046-2.012-.728-1.821-2.213-1.368-2.243.685-4.8,1.648-6.662-.512-1.729-2-.977-4.5-.293-6.781.572-1.9,1.318-3.751,1.989-5.624C963.192,1799.4,968.579,1803.641,974.114,1807.664Z" transform="translate(26.168 13.893)" fill="#b57346"/>
      <path id="Trazado_205736" data-name="Trazado 205736" d="M987.182,1895.934c6.594-7.832,16.464-8.415,23.977-1.29,6.149,5.832,9.294,13.323,11.011,21.423,3.178,14.983,2.333,29.6-4.676,43.5a28.176,28.176,0,0,1-8.191,10.067c-6.625,4.979-14.281,4.54-20.4-1.183a36.357,36.357,0,0,0,6.255-10.75,70.165,70.165,0,0,0,2.454-41.333C995.844,1908.718,993.043,1901.528,987.182,1895.934Z" transform="translate(38.138 48.022)" fill="#1db9fd"/>
      <path id="Trazado_205737" data-name="Trazado 205737" d="M992.9,1873.114q3.325.026,6.65.056a78.828,78.828,0,0,0-32.954,28c-14.612,22.009-14.127,44.44-1.792,67.176,2.686,4.949,6.412,9.135,9.907,13.491-.131.12-.258.243-.382.37-11.081-11.212-18.471-24.183-19.708-40.263-2.263-29.426,10.857-50.756,34.67-66.552C990.477,1874.6,991.7,1873.871,992.9,1873.114Z" transform="translate(26.163 41.984)" fill="#1badf0"/>
      <path id="Trazado_205738" data-name="Trazado 205738" d="M974.858,1911.5c3.441-2.28,5.958-5.254,10.1-4.781-3.848,2.1-6.934,5.1-10.528,7.832l5.331,2.3c-1.222,1.455-2.5,1.36-3.911.8-2.722-1.081-5.467-2.1-8.2-3.168-1.7-.663-2.046.081-1.592,1.552a15.4,15.4,0,0,0,.987,2.345c.374.741,1.153,1.475-.045,2.12-1,.536-2,.647-2.742-.471a9.515,9.515,0,0,1-.569-.983c-2.653-5.262-.074-14.4,4.947-17.537,2.875-1.795,4.885-1.024,5.7,2.271a21.476,21.476,0,0,1,.5,3.658C974.924,1908.657,974.858,1909.88,974.858,1911.5Zm-4.447-8.741a13.973,13.973,0,0,0-3.131,4.9c-1.982,4.414-1.673,4.911,2.928,5.5.985.127,1.374-.057,1.365-1.091C971.547,1909.07,971.933,1906.028,970.411,1902.763Z" transform="translate(29.18 52.005)" fill="#080f40" stroke="#080f40" stroke-width="1"/>
      <path id="Trazado_205739" data-name="Trazado 205739" d="M1017.361,1933.293c3.4-2.854,5.277-6.748,8.2-10.285l-5.729-.872c4.538-2.293,9.275.469,13.92-.7.078-1.708-1.028-2.88-2.077-4.095-.43-.5-1.6-.812-.786-1.735a1.871,1.871,0,0,1,2.552-.479,8.178,8.178,0,0,1,3.279,4.176c1.671,4.623,1.051,9.163-.827,13.543a4.448,4.448,0,0,1-4.15,2.995c-1.847-.034-2.8-1.527-3.478-2.995-.865-1.858-1.51-3.819-2.313-5.9C1023.035,1929.06,1022.138,1933.87,1017.361,1933.293Zm15.1.177a19.54,19.54,0,0,0,1.892-9.571c-.018-.561,0-1.055-.927-.9-1.474.244-2.984.269-4.648.4C1029.67,1926.871,1030.032,1930.379,1032.461,1933.47Z" transform="translate(49.151 57.201)" fill="#080f40" stroke="#080f40" stroke-width="1"/>
      <path id="Trazado_205740" data-name="Trazado 205740" d="M974.093,1924.109c2.4-1.335,2.4-1.335,8.736-.359-3.9.656-2.686,2.186-1.694,4.017,2.247,4.147,2.036,8.252-.255,10.33-2.275,2.063-6.5,1.938-10.37-.436a17.789,17.789,0,0,1-8.665-11.792c-.8-3.894.575-6.174,3.874-6.436a11.831,11.831,0,0,0,1.271,10.528,18.7,18.7,0,0,0,8.023,7.427c3.191,1.482,4.386.724,4.319-2.828A12.269,12.269,0,0,0,974.093,1924.109Z" transform="translate(28.809 58.889)" fill="#080f40" stroke="#080f40" stroke-width="1"/>
      <path id="Trazado_205741" data-name="Trazado 205741" d="M1009.512,1901.063c4.3-4.936,6.378-11.277,12.978-14.511-.355,2.26-2.039,2.666-2.3,4.168a21.483,21.483,0,0,0,7.679,1.609c.759.042,1.679.083,2.045-.687.409-.863-.212-1.643-.743-2.3-1.732-2.125-4.16-2.813-6.737-3.257-3.052-.526-6.12-.123-9.171.089-.1-1.3.616-1.567,1.207-1.675,5.77-1.044,11.359-.714,16.442,2.567,1.43.923,2.945,2.023,2.432,4.089-.475,1.918-2.117,2.573-3.835,2.939a16.335,16.335,0,0,1-8.983-.652c-1.99-.717-2.9-.128-3.829,1.477-.9,1.557-2.062,2.958-3.012,4.487C1012.837,1900.77,1011.72,1901.369,1009.512,1901.063Z" transform="translate(46.287 45.949)" fill="#080f40" stroke="#080f40" stroke-width="1"/>
      <path id="Trazado_205742" data-name="Trazado 205742" d="M1035.382,1915.352a44.506,44.506,0,0,1-12.829,2.274c-1.3.016-2.9.161-3.6-1.163-.809-1.549.665-2.563,1.446-3.7.573-.838,1.626-1.312,1.918-2.576-1.735.143-3.382.382-5.03.388-2.087.007-2.82-1.2-2.49-3.194.7-4.245,6.729-9.684,11.834-10.094a16.461,16.461,0,0,0-7.949,7.872c-.541,1.041-1.076,2.184-.259,3.183.7.853,1.856.71,2.933.624,2.178-.173,4.052-1.6,6.541-1.541-.779,1.766-2.386,2.464-3.513,3.6-1.183,1.191-3.042,2.368-2.285,4.157.726,1.716,2.83,1.182,4.377.973,2.719-.368,5.409-.938,8.111-1.422C1034.854,1914.936,1035.117,1915.145,1035.382,1915.352Z" transform="translate(48.189 50.805)" fill="#080f40" stroke="#080f40" stroke-width="1"/>
      <path id="Trazado_205743" data-name="Trazado 205743" d="M993.607,1888.748c-1.563,1.994-2.928,3.647-4.19,5.375a15.288,15.288,0,0,0-2.466,5.076c-1,3.717-1.895,4.087-5.6,2.454-5.274-2.324-9.23-6.591-14.213-9.535,1.411-1.493,2.778-1.437,4.282-.339,3.362,2.461,6.751,4.882,10.124,7.327,1.3.945,2.1,1.093,2.768-.842,1.163-3.367,3.618-5.959,5.942-8.592C991.088,1888.73,992.1,1888.637,993.607,1888.748Z" transform="translate(30.824 47.676)" fill="#080f40" stroke="#080f40" stroke-width="1"/>
      <path id="Trazado_205744" data-name="Trazado 205744" d="M965.843,1893.152c-.089.676-.667.8-1.187,1.021q-10.172,4.318-20.332,8.656c-.711.3-1.353.7-1.865-.352-.6-1.232.24-1.4,1.055-1.748,6.7-2.834,13.4-5.66,20.065-8.568C964.853,1891.6,965.532,1891.772,965.843,1893.152Z" transform="translate(21.741 48.827)" fill="#1badf0"/>
      <path id="Trazado_205745" data-name="Trazado 205745" d="M960.907,1935.5c.093.8-.68.946-1.227,1.237q-9.3,4.949-18.618,9.866c-.733.387-1.521,1.04-2.158-.12s.329-1.473,1.067-1.866c6.286-3.342,12.586-6.656,18.853-10.034C959.972,1933.969,960.558,1934.208,960.907,1935.5Z" transform="translate(20.442 64.3)" fill="#1badf0"/>
      <path id="Trazado_205746" data-name="Trazado 205746" d="M949.6,1892.8c-.783.071-.889-.593-1.091-1.08-.3-.725.214-.969.785-1.2,1.665-.666,3.315-1.369,4.975-2.05q6.55-2.686,13.1-5.362c.655-.266,1.389-.867,1.886.24.4.882.085,1.388-.788,1.744q-9.172,3.753-18.328,7.55A4.964,4.964,0,0,1,949.6,1892.8Z" transform="translate(23.991 45.484)" fill="#1badf0"/>
      <path id="Trazado_205747" data-name="Trazado 205747" d="M938.146,1923.487c-.685.087-.916-.274-1.125-.739-.465-1.04.285-1.318.979-1.653q4.21-2.033,8.418-4.068c2.809-1.351,5.629-2.679,8.428-4.05.8-.393,1.37-.445,1.826.5.437.905-.127,1.189-.74,1.484q-8.55,4.124-17.105,8.232C938.575,1923.316,938.31,1923.416,938.146,1923.487Z" transform="translate(19.779 56.435)" fill="#1badf0"/>
      <path id="Trazado_205748" data-name="Trazado 205748" d="M938.3,1933.635c-.953.139-1.2-.374-1.361-.941-.263-.92.517-1.111,1.069-1.387,2.537-1.273,5.091-2.511,7.641-3.762,2.888-1.418,5.771-2.849,8.672-4.242.783-.375,1.654-1.237,2.335.2.625,1.32-.547,1.4-1.209,1.728-5.336,2.656-10.69,5.277-16.039,7.9C938.989,1933.344,938.552,1933.523,938.3,1933.635Z" transform="translate(19.784 60.082)" fill="#1badf0"/>
      <path id="Trazado_205749" data-name="Trazado 205749" d="M940.507,1912.563c-.757.087-.97-.508-1.174-1.015-.375-.935.427-1.07,1-1.354q6.609-3.282,13.217-6.569c.932-.461,1.877-.9,2.817-1.344.586-.278,1.121-.243,1.439.381.269.528.394,1.132-.274,1.467q-8.37,4.189-16.757,8.348A1.771,1.771,0,0,1,940.507,1912.563Z" transform="translate(20.64 52.567)" fill="#1badf0"/>
      <path id="Trazado_205750" data-name="Trazado 205750" d="M943,1928.818c-.37.781-.489,1.8-1.768,1.065q-7.387-4.269-14.807-8.483c-.613-.349-.818-.737-.408-1.36.307-.467.556-1.1,1.287-.685q7.659,4.361,15.294,8.763C942.8,1928.237,942.873,1928.586,943,1928.818Z" transform="translate(15.738 58.81)" fill="#1badf0"/>
      <path id="Trazado_205751" data-name="Trazado 205751" d="M948.586,1959.094c-.513.045-.713-.433-.947-.819-.409-.67.034-1.074.542-1.366q7.373-4.24,14.756-8.456a.923.923,0,0,1,1.414.373c.344.539.468,1.136-.143,1.487q-7.612,4.384-15.264,8.7A1.548,1.548,0,0,1,948.586,1959.094Z" transform="translate(23.648 69.41)" fill="#1badf0"/>
      <path id="Trazado_205752" data-name="Trazado 205752" d="M958.146,1965.8c-.247-.3-.56-.631-.808-1-.341-.51-.064-.882.362-1.171q6.478-4.4,12.955-8.793c.611-.416,1.01-.247,1.406.314.371.523.6,1.043-.025,1.467q-6.584,4.49-13.2,8.936A3.763,3.763,0,0,1,958.146,1965.8Z" transform="translate(27.19 71.724)" fill="#1badf0"/>
      <path id="Trazado_205753" data-name="Trazado 205753" d="M929.252,1935.761c1.153.4,2.314.789,3.468,1.193q4.93,1.728,9.856,3.471c.729.259,1.439.56,1.044,1.6-.367.976-.97.883-1.789.587-4.249-1.54-8.515-3.037-12.779-4.531-.663-.232-1.3-.392-.916-1.336C928.354,1936.213,928.468,1935.627,929.252,1935.761Z" transform="translate(16.547 64.84)" fill="#1badf0"/>
      <path id="Trazado_205754" data-name="Trazado 205754" d="M942.244,1917.389c-.442,1.211-.966,1.54-1.994.883-3.841-2.449-7.713-4.848-11.583-7.25-.65-.4-.988-.771-.5-1.577.455-.742.912-.848,1.613-.408q5.907,3.71,11.82,7.409C942.014,1916.7,942.345,1917.038,942.244,1917.389Z" transform="translate(16.516 54.999)" fill="#1badf0"/>
      <path id="Trazado_205755" data-name="Trazado 205755" d="M932.634,1899.091c.329.187.663.365.983.565,3.355,2.11,6.715,4.212,10.057,6.344.663.422,1.684.722,1,1.9s-1.4.515-2.106.071q-5.16-3.227-10.308-6.477c-.505-.321-1.353-.55-.831-1.459C931.7,1899.578,931.859,1898.926,932.634,1899.091Z" transform="translate(17.732 51.455)" fill="#1badf0"/>
      <path id="Trazado_205756" data-name="Trazado 205756" d="M937.063,1952.545c.227-1.855.98-2.422,2.993-1.9,3.273.846,6.66,1.252,10,1.843.805.143,1.839.025,1.522,1.4-.287,1.243-1.192.961-2.015.819q-6.261-1.077-12.517-2.177Z" transform="translate(19.84 70.211)" fill="#1badf0"/>
      <path id="Trazado_205757" data-name="Trazado 205757" d="M982.486,1964.869c.007.7-.655.819-1.118,1.043-2.965,1.432-5.947,2.828-8.928,4.227-.74.348-1.5.975-2.128-.209-.665-1.249.34-1.409,1.077-1.764,2.966-1.43,5.959-2.81,8.887-4.316C981.558,1963.19,982.167,1963.522,982.486,1964.869Z" transform="translate(31.902 74.978)" fill="#1badf0"/>
      <path id="Trazado_205758" data-name="Trazado 205758" d="M937,1890.168c.266.037.384.018.452.066,3.32,2.364,6.654,4.709,9.93,7.132.43.318-.087.853-.344,1.231-.411.6-.867.557-1.426.157-3.008-2.155-6.036-4.283-9.044-6.438-.381-.274-.719-.672-.371-1.187A10.808,10.808,0,0,1,937,1890.168Z" transform="translate(19.478 48.208)" fill="#1badf0"/>
      <path id="Trazado_205759" data-name="Trazado 205759" d="M943.891,1881c3.41,1.571,5.749,4.518,8.65,6.743a.754.754,0,0,1,.116,1.216c-.374.41-.816,1.04-1.385.556-2.72-2.315-5.735-4.309-7.96-7.167-.123-.157.041-.538.071-.813l-.055.015c.481.081.607-.186.586-.6Z" transform="translate(22.11 44.845)" fill="#1badf0"/>
      <path id="Trazado_205760" data-name="Trazado 205760" d="M988.651,1874.3l-1.455-2.737c1.627-.707,3.269-1.38,4.876-2.129,1.209-.565,1.959-.5,2.516.946s-.12,1.749-1.234,2.117C991.762,1873.027,990.217,1873.695,988.651,1874.3Z" transform="translate(38.142 40.521)" fill="#1badf0"/>
      <path id="Trazado_205761" data-name="Trazado 205761" d="M955.793,1884.744a25.739,25.739,0,0,1-1.446-7.163,7.63,7.63,0,0,1,.646-4.129c.393-.777,1-2.017,1.963-1.387s-.468,1.121-.727,1.722c-.99,2.3-.516,4.63-.2,6.941.188,1.385.616,2.74.935,4.107C956.514,1885.521,956.135,1885.387,955.793,1884.744Z" transform="translate(26.14 41.538)" fill="#383857"/>
      <path id="Trazado_205762" data-name="Trazado 205762" d="M953.354,1884.66a70.531,70.531,0,0,1-1.545-6.89c-.267-2.088-.04-4.216,2.4-5.333-2.368,4.361-.827,8.375.809,12.384A.981.981,0,0,1,953.354,1884.66Z" transform="translate(25.197 41.737)" fill="#383857"/>
      <path id="Trazado_205763" data-name="Trazado 205763" d="M957.806,1884.884c-.332-2.417-.8-4.826-.954-7.255-.131-2.109-.106-4.332,2.486-5.387-2.423,4.257-.759,8.4.108,12.551A.984.984,0,0,1,957.806,1884.884Z" transform="translate(27.054 41.666)" fill="#383857"/>
      <path id="Trazado_205764" data-name="Trazado 205764" d="M1030.071,1911.087c-.265-.208-.528-.417-.792-.624a17.243,17.243,0,0,1,6.188-1.493C1033.667,1910.493,1031.782,1910.57,1030.071,1911.087Z" transform="translate(53.501 55.07)" fill="#fcdbb4"/>
      <path id="Trazado_205765" data-name="Trazado 205765" d="M929.367,1898.11c-.191-1.071-.717-2.256.37-3.171.348-.293,1.137-.2,1.23.213C931.243,1896.4,930.136,1897.131,929.367,1898.11Z" transform="translate(16.93 49.886)" fill="#670289"/>
      <path id="Trazado_205766" data-name="Trazado 205766" d="M971.007,1954.447c.423.049.654.287.6.71-.018.132-.2.243-.308.365l-.565-.775C970.823,1954.645,970.914,1954.544,971.007,1954.447Z" transform="translate(32.135 71.666)" fill="#1badf0"/>
      <path id="Trazado_205767" data-name="Trazado 205767" d="M970,1954.079l-.588-.519q.192-.182.373-.377.285.289.566.579C970.239,1953.869,970.122,1953.974,970,1954.079Z" transform="translate(31.654 71.205)" fill="#1badf0"/>
      <path id="Trazado_205768" data-name="Trazado 205768" d="M970.424,1954.5c-.191-.191-.384-.384-.576-.575.116-.1.233-.209.349-.315.191.19.381.381.572.571Z" transform="translate(31.811 71.36)" fill="#1badf0"/>
      <path id="Trazado_205769" data-name="Trazado 205769" d="M970.9,1954.9q-.315-.278-.632-.555l.344-.318.561.575C971.083,1954.7,970.992,1954.8,970.9,1954.9Z" transform="translate(31.966 71.513)" fill="#1badf0"/>
      <path id="Trazado_205770" data-name="Trazado 205770" d="M969.57,1953.713c-.191-.193-.382-.386-.575-.577q.184-.189.381-.369l.567.569Q969.762,1953.531,969.57,1953.713Z" transform="translate(31.5 71.053)" fill="#1badf0"/>
      <path id="Trazado_205771" data-name="Trazado 205771" d="M918.429,1792.265c-2.578-1.611-4.164-3.007-3.569-5.423a6.208,6.208,0,0,1,4.9-4.634,42.608,42.608,0,0,1,7-1.056c1.915-.135,4.024.143,4.8,2.239.8,2.172-.5,3.8-2.187,5.083a10.947,10.947,0,0,1-1.9,1.238,3.058,3.058,0,0,0-2.1,2.941c-.063,1.6-1.4,2.622-2.741,3.4a16.61,16.61,0,0,1-8.985,2.118c-1.516-.037-2.692-.546-2.709-2.21a2.813,2.813,0,0,1,2.4-3.064C914.706,1792.649,916.1,1792.548,918.429,1792.265Z" transform="translate(10.313 8.413)" fill="#080f40"/>
      <path id="Trazado_205772" data-name="Trazado 205772" d="M957.047,1817.707c-.539,2.086.207,5.437-3.107,6-3.295.56-3.8-2.731-4.919-4.922a4.484,4.484,0,0,1-.491-1.622c-.13-1.684-.448-2.4-2.319-1.24a4.021,4.021,0,0,1-5-.607,3.075,3.075,0,0,1-1.125-3.31,2.536,2.536,0,0,1,2.808-1.936c1.585.251,1.86-.737,2.4-1.755,1.013-1.919,2.374-3.5,4.813-3.387s3.968,1.514,4.94,3.676A24.6,24.6,0,0,1,957.047,1817.707Z" transform="translate(20.898 17.097)" fill="#080f40"/>
      <path id="Trazado_205773" data-name="Trazado 205773" d="M943.548,1810.383c-1.742,3.373-5.184,3.582-8.218,3.876a10.051,10.051,0,0,1-7.881-2.525,6.144,6.144,0,0,1,.143-9.447,13.416,13.416,0,0,1,16.793-.575c2.309,1.712,2.608,4.068.807,6.358l-.06-.056c.023-4.315-3.7-6.727-7.506-4.829a3.886,3.886,0,0,0,.021,7.283c1.967.983,3.857.591,5.73-.27Z" transform="translate(15.555 14.951)" fill="#fcfdfd"/>
      <path id="Trazado_205774" data-name="Trazado 205774" d="M939.509,1814.457l1.5.081a5.045,5.045,0,0,1,2.6.766c2.32,1.211,3.216,3.431,4.485,5.413a8.835,8.835,0,0,0-.146,1.638c-.247,3.444-2.049,4.51-5.146,3.15-1.989-.872-3.923-1.895-5.962-2.623-2.168-.774-2.864-1.826-1.286-3.771l.076-.082a.949.949,0,0,0,1.047-1.107C936.468,1815.823,938.461,1815.526,939.509,1814.457Z" transform="translate(18.984 20.578)" fill="#eff0f3"/>
      <path id="Trazado_205775" data-name="Trazado 205775" d="M923.273,1810.916c.326,1.178-.617,1.451-1.344,1.839-3.173,1.69-8.863.814-11.452-1.747-2.956-2.925-2.412-6.531,1.319-8.287,3.433-1.615,6.81-1.058,10.075.56.732.362,1.556.854,1.2,1.967a5.321,5.321,0,0,0-4.051-.733c-1.86.538-3.348,1.582-3.247,3.694.106,2.2,1.645,3.236,3.717,3.549A6.118,6.118,0,0,0,923.273,1810.916Z" transform="translate(9.452 15.941)" fill="#fcfdfd"/>
      <path id="Trazado_205776" data-name="Trazado 205776" d="M921.35,1810.22a6.118,6.118,0,0,1-3.781.841c-2.072-.312-3.61-1.344-3.717-3.549-.1-2.112,1.387-3.156,3.247-3.694a5.321,5.321,0,0,1,4.051.733l.108-.075c.278.3.557.6.834.894l-.036-.054.583.9c-.157,1.119.427,2.361-.56,3.343-.381.169-.714.375-.672.871Z" transform="translate(11.374 16.637)" fill="#080f40"/>
      <path id="Trazado_205777" data-name="Trazado 205777" d="M926.41,1821.726c-1.409,1.033-2.869.891-4.158,1.138-1.021.2-.788-.849-.789-1.428-.022-9.085-.015-18.17-.015-27.106a7.712,7.712,0,0,1,.767,3.037,122.548,122.548,0,0,1,.183,20.993c-.187,2.449-.206,4.145,2.982,3.027C925.566,1821.323,925.847,1821.532,926.41,1821.726Z" transform="translate(14.146 13.232)" fill="#383857"/>
      <path id="Trazado_205778" data-name="Trazado 205778" d="M924.726,1813.267c-3,1.529-5.506,4.245-8.839,1.062-.631-.6-1.411.233-2.045.587a14.862,14.862,0,0,1-4.938,2.068c-.787.119-1.662-.084-1.807-.951-.13-.784.764-1.216,1.333-1.152,2.281.254,3.894-1.234,5.779-2,1.713-.7,3.419-1.3,4.981.308.764.786,1.467.483,2.289.042C922.357,1812.754,923.312,1812.178,924.726,1813.267Z" transform="translate(8.906 19.74)" fill="#0e1545"/>
      <path id="Trazado_205779" data-name="Trazado 205779" d="M926.043,1789.291c3.96.983,7.528,1.859,11.088,2.762.541.138,1.193.38.9,1.125-.2.513-.82.4-1.243.3-3.515-.839-7.143-.475-10.682-1.039-.819-.131-1.886.054-1.344-1.336C925.059,1790.333,924.5,1788.612,926.043,1789.291Z" transform="translate(15.302 11.336)" fill="#0e1545"/>
      <path id="Trazado_205780" data-name="Trazado 205780" d="M919.108,1796.981c-2.724,1.328-5.46,2.634-8.166,4-.964.485-1.4.1-1.57-.792-.136-.71-1.133-1.734.333-2.039C912.794,1797.5,915.82,1796.42,919.108,1796.981Z" transform="translate(9.574 14.143)" fill="#0e1545"/>
      <path id="Trazado_205781" data-name="Trazado 205781" d="M939.572,1815.464c-1.048,1.069-3.041,1.366-2.827,3.466l-1.037.035-.58-.938-.572-1.373-.027.042a1.183,1.183,0,0,0,.6-1.481l-.034.056c.86.1.627-.442.532-.9-.011-.908.949-1.609.236-2.673C940.9,1812.873,940.9,1812.873,939.572,1815.464Zm-3.3-.247c.465.51.934.392,1.415.023C937.22,1814.89,936.755,1814.72,936.274,1815.217Z" transform="translate(18.922 19.57)" fill="#fcfdfd"/>
      <path id="Trazado_205782" data-name="Trazado 205782" d="M952.545,1823.873c-.591-.1-1.717-.382-1.172-.968,1.211-1.3,1.376-3.038,2.339-4.365a1.686,1.686,0,0,1,2.045-.52c.957.417.677,1.26.472,1.945A5.051,5.051,0,0,1,952.545,1823.873Z" transform="translate(25.016 21.823)" fill="#0e1545"/>
      <path id="Trazado_205783" data-name="Trazado 205783" d="M946.41,1821.04c-1.269-1.982-2.165-4.2-4.485-5.413a5.045,5.045,0,0,0-2.6-.766c1.081-1.717,2.385-1.581,3.748-.4A8.663,8.663,0,0,1,946.41,1821.04Z" transform="translate(20.671 20.254)" fill="#0e1545"/>
      <path id="Trazado_205784" data-name="Trazado 205784" d="M929.954,1820.592c-1.885.929-2.673.538-2.659-1.85.01-1.479,1.14-3.545-1.4-4.351,1.421-.935,2.292-.943,2.2,1.062-.042.949.068,1.908-.025,2.85-.131,1.335.314,1.974,1.716,1.749a.307.307,0,0,1,.262.075C930.085,1820.182,930.02,1820.3,929.954,1820.592Z" transform="translate(15.77 20.331)" fill="#383857"/>
      <path id="Trazado_205785" data-name="Trazado 205785" d="M950.316,1802.561a2.884,2.884,0,0,1-2.827,1.907c-.46-.026-1.069-.2-.819-.805a2.828,2.828,0,0,1,2.786-1.919A.775.775,0,0,1,950.316,1802.561Z" transform="translate(23.332 15.937)" fill="#0e1545"/>
      <path id="Trazado_205786" data-name="Trazado 205786" d="M962.245,1812.285c-.939,1.616-2.042,3.169-1.83,5.232-.725-2.162-.666-4.107,1.212-5.611Z" transform="translate(28.212 19.647)" fill="#0e1545"/>
      <path id="Trazado_205787" data-name="Trazado 205787" d="M935.47,1816.381q.291.469.58.938c0,.356-.008.714-.011,1.07l-.076.082c-1.1-.277-2.839.167-2.259-2A1.937,1.937,0,0,1,935.47,1816.381Z" transform="translate(18.579 21.216)" fill="#eff0f3"/>
      <path id="Trazado_205788" data-name="Trazado 205788" d="M935.274,1818.949c-1.7.916-2.529.319-3.613-.4C933.081,1817.358,933.916,1818.173,935.274,1818.949Z" transform="translate(17.875 21.852)" fill="#fcfdfd"/>
      <path id="Trazado_205789" data-name="Trazado 205789" d="M935.445,1816.708a1.937,1.937,0,0,0-1.766.086c-.075-.873-.007-1.63,1.194-1.459Q935.157,1816.021,935.445,1816.708Z" transform="translate(18.604 20.889)" fill="#383857"/>
      <path id="Trazado_205790" data-name="Trazado 205790" d="M920.111,1805.161c-.277-.3-.556-.6-.834-.894C920.073,1804.08,920.029,1804.68,920.111,1805.161Z" transform="translate(13.356 16.846)" fill="#fcfdfd"/>
      <path id="Trazado_205791" data-name="Trazado 205791" d="M935.187,1814.275a1.183,1.183,0,0,1-.6,1.481C934.068,1814.971,934.554,1814.593,935.187,1814.275Z" transform="translate(18.863 20.511)" fill="#383857"/>
      <path id="Trazado_205792" data-name="Trazado 205792" d="M940.047,1805.671c.1.524.091,1-.577,1.127l-.068-.07.586-1.114Z" transform="translate(20.7 17.351)" fill="#fcfdfd"/>
      <path id="Trazado_205793" data-name="Trazado 205793" d="M920.445,1805.77l-.583-.9Q920.153,1805.321,920.445,1805.77Z" transform="translate(13.569 17.08)" fill="#fcfdfd"/>
      <path id="Trazado_205794" data-name="Trazado 205794" d="M935.489,1813.655c.094.46.328,1-.532.9C934.822,1814.073,934.947,1813.741,935.489,1813.655Z" transform="translate(19.06 20.285)" fill="#383857"/>
      <path id="Trazado_205795" data-name="Trazado 205795" d="M961.188,1812.051l.6-.543.523.362q-.252.281-.505.561Z" transform="translate(28.651 19.501)" fill="#0e1545"/>
      <path id="Trazado_205796" data-name="Trazado 205796" d="M939.252,1806.922l-.536.6-.172-.186.656-.46Z" transform="translate(20.387 17.812)" fill="#fcfdfd"/>
      <path id="Trazado_205797" data-name="Trazado 205797" d="M939.606,1806.5a.486.486,0,0,1-.53.586l-.052-.045.513-.61Z" transform="translate(20.563 17.649)" fill="#fcfdfd"/>
      <path id="Trazado_205798" data-name="Trazado 205798" d="M961.628,1811.625c.161-.344.379-.628.751-.283.067.063-.145.422-.228.644Z" transform="translate(28.812 19.384)" fill="#0e1545"/>
      <path id="Trazado_205799" data-name="Trazado 205799" d="M963.081,1810.978a1.6,1.6,0,0,1-.373.154c-.049.008-.119-.108-.18-.168a1.776,1.776,0,0,1,.374-.159C962.947,1810.8,963.018,1810.917,963.081,1810.978Z" transform="translate(29.14 19.245)" fill="#0e1545"/>
      <path id="Trazado_205800" data-name="Trazado 205800" d="M919.388,1808.85c-.042-.5.291-.7.672-.871Z" transform="translate(13.395 18.213)" fill="#fcfdfd"/>
      <path id="Trazado_205801" data-name="Trazado 205801" d="M958.968,1846.324l23.668,28.7c-7.494-1.753-14.28-2.52-21.155-1.418-3.47-2.01-7.318-2.955-11.147-3.948,1.312-7.084,3.388-13.982,5.083-20.972C955.886,1846.75,957.693,1846.97,958.968,1846.324Z" transform="translate(24.69 32.207)" fill="#fefefe"/>
      <path id="Trazado_205802" data-name="Trazado 205802" d="M957.011,1865.362l3.763.483c-9.577.679-18.436,1.308-27.3,1.927-.662.046-1.329.033-1.993.037-.835.007-1.537-.156-1.488-1.229.042-.908.67-1.029,1.381-1.042l3.7-.064C942.391,1865.526,949.7,1865.744,957.011,1865.362Z" transform="translate(17.267 39.155)" fill="#0e1545"/>
      <path id="Trazado_205803" data-name="Trazado 205803" d="M943.9,1880.954c.022.411-.1.677-.586.6C943.3,1881.149,943.527,1880.98,943.9,1880.954Z" transform="translate(22.127 44.845)" fill="#020b3f"/>
      <path id="Trazado_205804" data-name="Trazado 205804" d="M907.888,1943.1c2.793-.378,5.584-.763,8.378-1.133.814-.108,1.792.068,1.833-1.2,3.934-.464,3.947-.461,3.254,3.348-.624,3.436-1.283,6.865-1.926,10.3-1.245-.157-1.631.677-1.867,1.647-.667,2.741-1.321,5.487-1.982,8.23-.85-.019-1.7-.042-2.548-.061-.781-.016-1.171-.236-1.032-1.187C913.042,1955.9,910.536,1949.48,907.888,1943.1Z" transform="translate(9.199 66.595)" fill="#fcfdfd"/>
      <path id="Trazado_205805" data-name="Trazado 205805" d="M950.576,1770.791a4.844,4.844,0,0,1-5.063,4.931,5.123,5.123,0,0,1-4.745-5.058,4.652,4.652,0,0,1,5.127-4.766A4.544,4.544,0,0,1,950.576,1770.791Z" transform="translate(21.199 2.855)" fill="#e2872c"/>
      <path id="Trazado_205806" data-name="Trazado 205806" d="M969.48,1902.177c1.522,3.265,1.135,6.307,1.161,9.306.01,1.033-.379,1.218-1.365,1.091-4.6-.59-4.91-1.086-2.928-5.5A13.973,13.973,0,0,1,969.48,1902.177Z" transform="translate(30.112 52.591)" fill="#080f40"/>
      <path id="Trazado_205807" data-name="Trazado 205807" d="M1029.409,1931.289c-2.429-3.092-2.791-6.6-3.683-10.073,1.664-.131,3.174-.156,4.648-.4.924-.153.909.341.927.9A19.54,19.54,0,0,1,1029.409,1931.289Z" transform="translate(52.204 59.382)" fill="#0e1545"/>
      <path id="Trazado_205808" data-name="Trazado 205808" d="M941.925,1808.2l-.513.61-.656.46c-1.873.861-3.763,1.253-5.73.27a3.886,3.886,0,0,1-.021-7.283c3.8-1.9,7.529.514,7.506,4.829Z" transform="translate(18.176 15.884)" fill="#080f40"/>
      <path id="Trazado_205809" data-name="Trazado 205809" d="M935.384,1818.1c0-.356.007-.714.011-1.07l1.037-.035A.95.95,0,0,1,935.384,1818.1Z" transform="translate(19.234 21.504)" fill="#fcdbb4"/>
      <path id="Trazado_205810" data-name="Trazado 205810" d="M935.807,1814.359c.482-.5.946-.328,1.415.023C936.741,1814.75,936.272,1814.869,935.807,1814.359Z" transform="translate(19.388 20.429)" fill="#383857"/>
    </g>
  </g>
</svg>
