<svg xmlns="http://www.w3.org/2000/svg" xmlns:xlink="http://www.w3.org/1999/xlink" width="241.915" height="218.244" viewBox="0 0 241.915 218.244">
  <defs>
    <linearGradient id="linear-gradient" y1="0.5" x2="1" y2="0.5" gradientUnits="objectBoundingBox">
      <stop offset="0" stop-color="#7fae1f"/>
      <stop offset="1" stop-color="#7fae1f"/>
    </linearGradient>
  </defs>
  <g id="Grupo_153129" data-name="Grupo 153129" transform="translate(-216.043 4343.749)">
    <g id="Grupo_152840" data-name="Grupo 152840" transform="translate(-872.042 -6130.556)">
      <path id="Trazado_205811" data-name="Trazado 205811" d="M1132.952,1992.708c-.846,3.11-1.8,6.195-2.5,9.337-.488,2.189-1.552,3.015-3.83,3-11.759-.091-23.518-.035-35.277-.047-2.891,0-3.416-.512-3.222-3.434q1.632-24.551,3.326-49.1,1.343-19.89,2.648-39.784c.871-13.262,1.554-26.538,2.619-39.784,1.488-18.512,18.118-34.156,36.688-34.575,9.991-.225,19.99-.067,29.985-.085,4.3-.008,5.306-1.031,5.307-5.378q0-19.188,0-38.375c0-5.539,2.1-7.674,7.542-7.675q32.883,0,65.767,0c5.183,0,7.378,2.174,7.382,7.327q.015,19.566.006,39.133c0,3.818,1.132,4.958,4.953,4.963,9.239.014,18.479-.033,27.718.014,20.28.105,36.161,13.5,39.1,33.575,1.2,8.215,1.229,16.6,1.789,24.909q1.924,28.577,3.846,57.153,1.6,23.794,3.168,47.59c.2,3.051-.3,3.521-3.386,3.523-11.675.008-23.351-.058-35.025.053-2.424.023-3.463-.872-3.953-3.162-.661-3.082-1.625-6.1-2.459-9.143l-.706.057c0,2.962-.033,5.924.01,8.885.034,2.447-1.035,3.365-3.532,3.354-17.387-.078-34.773-.041-52.16-.041h-90.965c-3.749,0-4.058-.247-4.166-3.942-.081-2.749-.016-5.5-.016-8.255ZM1209,1790.857q-16.252,0-32.507,0c-3.492,0-3.75.255-3.751,3.729q-.008,19.441-.005,38.882c0,5.818-3.026,8.818-8.877,8.826-9.911.015-19.825-.1-29.734.054-16.95.267-31.911,14.028-33.359,30.933-1.126,13.152-1.761,26.346-2.618,39.522q-1.105,17-2.221,33.99-1.727,26.055-3.5,52.106c-.1,1.492.156,2.095,1.819,2.084,10.163-.068,20.327-.052,30.49-.011,1.294.005,1.912-.33,2.242-1.7,1-4.163,2.25-8.265,3.286-12.421.852-3.417,2.416-6.745,2.361-10.286-.13-8.411-.556-16.817-.891-25.223q-.894-22.445-1.828-44.887c-.059-1.431.329-2.678,1.873-2.773,1.736-.107,2.13,1.193,2.192,2.721.435,10.759.949,21.514,1.364,32.274q1.143,29.633,2.16,59.27c.078,2.347.729,3.067,3.161,3.063q68.289-.117,136.579.01c2.529.005,3.289-.683,3.355-3.134.233-8.744.659-17.483.99-26.225q1.133-29.886,2.249-59.774c.073-1.933.236-3.862.3-5.8.048-1.36.59-2.415,2-2.413,1.555,0,2.119,1.123,2.052,2.594-.03.672-.023,1.346-.049,2.019q-.5,12.861-1.013,25.723c-.447,10.842-1.007,21.682-1.331,32.528-.13,4.352-.921,8.765.146,13.074,1.593,6.44,3.467,12.811,5.066,19.249.4,1.627,1.041,2.135,2.689,2.123,9.911-.073,19.824-.088,29.734.008,1.95.019,2.365-.541,2.233-2.433-.983-14.095-1.844-28.2-2.763-42.3q-.993-15.233-2.035-30.462c-1.111-16.276-2.472-32.54-3.3-48.831-1.036-20.42-15.541-34.627-35.963-34.672-8.987-.02-17.975,0-26.963-.005-6.4,0-9.28-2.843-9.282-9.172q0-19.316,0-38.63c0-3.31-.322-3.634-3.59-3.635Q1225.376,1790.85,1209,1790.857Z" fill="#4e03c7"/>
      <path id="Trazado_205812" data-name="Trazado 205812" d="M1209,1790.857q16.38,0,32.759,0c3.268,0,3.589.325,3.59,3.635q.008,19.315,0,38.63c0,6.329,2.879,9.17,9.282,9.172,8.988,0,17.976-.015,26.963.005,20.422.045,34.927,14.252,35.963,34.672.827,16.291,2.188,32.555,3.3,48.831q1.039,15.23,2.035,30.462c.919,14.1,1.78,28.2,2.763,42.3.132,1.892-.283,2.452-2.233,2.433-9.91-.1-19.823-.081-29.734-.008-1.648.012-2.286-.5-2.689-2.123-1.6-6.438-3.473-12.809-5.066-19.249-1.067-4.309-.276-8.722-.146-13.074.324-10.846.884-21.686,1.331-32.528q.53-12.861,1.013-25.723c.026-.673.019-1.347.049-2.019.067-1.471-.5-2.592-2.052-2.594-1.409,0-1.951,1.053-2,2.413-.067,1.933-.23,3.862-.3,5.8q-1.133,29.888-2.249,59.774c-.331,8.742-.757,17.481-.99,26.225-.066,2.451-.826,3.139-3.355,3.134q-68.289-.138-136.579-.01c-2.432,0-3.083-.716-3.161-3.063q-.975-29.638-2.16-59.27c-.415-10.76-.929-21.515-1.364-32.274-.062-1.528-.456-2.828-2.192-2.721-1.544.095-1.932,1.342-1.873,2.773q.93,22.443,1.828,44.887c.335,8.406.761,16.812.891,25.223.055,3.541-1.509,6.869-2.361,10.286-1.036,4.156-2.285,8.258-3.286,12.421-.33,1.373-.948,1.708-2.242,1.7-10.163-.041-20.327-.057-30.49.011-1.663.011-1.922-.592-1.819-2.084q1.8-26.049,3.5-52.106,1.126-16.993,2.221-33.99c.857-13.176,1.492-26.37,2.618-39.522,1.448-16.905,16.409-30.666,33.359-30.933,9.909-.157,19.823-.039,29.734-.054,5.851-.008,8.873-3.008,8.877-8.826q.014-19.44.005-38.882c0-3.474.259-3.728,3.751-3.729Q1192.744,1790.852,1209,1790.857Zm-12.892,50.359c-2.83.254-5.569.117-8.339.581-19.219,3.22-33.636,13.308-42.707,30.525a54.489,54.489,0,0,0-5.113,38.521c4.475,19.571,16.038,33.2,34.341,41.2,6.214,2.717,12.794,3.774,19.466,4.434.9.089,1.767.111,1.674,1.318a27.081,27.081,0,0,0,.491,4.742,39.021,39.021,0,0,0,44.673,34.915,38.432,38.432,0,0,0,25.283-15.079c7.155-9.192,9.3-19.862,7.116-31.174-2.521-13.042-10.042-22.477-22.14-28.036-1.937-.89-1.889-1.825-1.263-3.461,5.836-15.262,5.655-30.579-1.456-45.195C1237.655,1852.977,1219.988,1842.005,1196.1,1841.216Z" fill="#f8cece"/>
      <path id="Trazado_205813" data-name="Trazado 205813" d="M1196.1,1841.216c23.883.789,41.55,11.761,52.026,33.292,7.111,14.616,7.292,29.933,1.456,45.195-.626,1.636-.674,2.571,1.263,3.461,12.1,5.559,19.619,14.994,22.14,28.036,2.187,11.312.039,21.982-7.116,31.174a38.432,38.432,0,0,1-25.283,15.079,39.021,39.021,0,0,1-44.673-34.915,27.081,27.081,0,0,1-.491-4.742c.093-1.207-.775-1.229-1.674-1.318-6.672-.66-13.252-1.717-19.466-4.434-18.3-8.005-29.866-21.63-34.341-41.2a54.489,54.489,0,0,1,5.113-38.521c9.071-17.217,23.488-27.305,42.707-30.525C1190.536,1841.333,1193.275,1841.47,1196.1,1841.216Zm36.569,90.7.063-.584a7.763,7.763,0,0,0,3.759-3.22c2.005-3.692,4.115-7.33,6.024-11.071,1.728-3.387.67-6.7-2.6-8.676-1.436-.868-2.906-1.691-4.411-2.429-1.246-.611-1.942-1.3-1.759-2.888a2.693,2.693,0,0,1,2.434-2.669,40.829,40.829,0,0,0,5.061-1.5,6.192,6.192,0,0,0,4.135-7.614c-1.08-4.228-2.248-8.444-3.627-12.582-1.2-3.6-4.377-5.107-8.036-4.144a37.3,37.3,0,0,0-4.584,1.339c-1.623.661-2.562.147-3.641-1.116-1.138-1.333-.484-2.251.151-3.355.754-1.31,1.481-2.639,2.162-3.989,1.908-3.784.991-7.1-2.69-9.238q-5.223-3.04-10.588-5.833c-3.469-1.815-6.847-.813-8.9,2.549a47.457,47.457,0,0,0-2.421,4.421c-.606,1.283-1.32,1.953-2.882,1.71-1.434-.222-2.263-.735-2.565-2.238a41.622,41.622,0,0,0-1.332-4.594c-1.322-4.07-4.282-5.795-8.361-4.711-3.888,1.032-7.75,2.177-11.584,3.4-3.873,1.234-5.548,4.335-4.577,8.271a45.535,45.535,0,0,0,1.42,4.833c.467,1.269.441,2.158-.807,3-1.09.734-1.914,1.438-3.3.472a35.346,35.346,0,0,0-4.839-2.687c-3.206-1.55-6.563-.731-8.369,2.281-2.288,3.816-4.428,7.732-6.43,11.707a6.223,6.223,0,0,0,2.517,8.316c1.354.838,2.808,1.516,4.166,2.349,1.047.643,2.431.807,2.165,2.839a3.136,3.136,0,0,1-2.882,3.084,41.183,41.183,0,0,0-4.361,1.2,6.379,6.379,0,0,0-4.36,7.966q1.577,5.967,3.412,11.864c1.2,3.858,4.34,5.589,8.257,4.657,1.548-.368,3.069-.861,4.579-1.365,1.352-.45,2.351-.53,3.43.86s.8,2.367.058,3.6c-.777,1.3-1.505,2.625-2.2,3.967-1.878,3.6-1.01,7.052,2.473,9.113,3.539,2.094,7.151,4.074,10.8,5.97,3.488,1.812,6.848.813,8.929-2.53.8-1.281,1.394-2.691,2.209-3.96.609-.948.646-2.437,2.547-2.226,1.94.216,3.009.871,3.292,2.906a24.289,24.289,0,0,0,1.2,4.1c1.318,4.016,4.378,5.629,8.449,4.575,2.057-.533,4.043-1.425,6.446-1.558-.815,2.044-2.182,3.667-1.29,5.909.868,2.18,3.274,2.431,4.644,4.018a5.1,5.1,0,0,1-2.59,1.124c-2.792.894-4,2.742-3.369,5.573a53.789,53.789,0,0,0,1.933,6.517c.838,2.319,2.787,3.18,5.249,2.688,1.026-.2,1.991-1.007,3.149-.462.128.948-.539,1.564-.9,2.286-1.566,3.092-1.061,5,1.9,6.769,1.441.861,2.922,1.656,4.406,2.44,3.273,1.73,5.233,1.158,7.128-1.99.367-.611.475-1.681,1.372-1.6.913.082.789,1.132,1.009,1.815,1.125,3.5,2.988,4.553,6.493,3.61,1.456-.392,2.893-.86,4.335-1.305,3.84-1.187,4.692-2.681,3.829-6.53-.154-.685-.75-1.593.019-2.086.694-.444,1.39.329,2.047.664,2.994,1.525,5.078.956,6.777-1.919.812-1.374,1.548-2.794,2.3-4.2,1.907-3.589,1.387-5.385-2.115-7.466-.558-.331-1.506-.481-1.478-1.2.036-.959,1.128-.811,1.771-1.03,3.826-1.3,4.753-3,3.647-6.872-.369-1.292-.714-2.591-1.1-3.878-1.212-4.015-2.927-4.967-6.931-3.905-.611.162-1.326.8-1.859.157s.2-1.235.49-1.8c1.958-3.82,1.473-5.488-2.249-7.6-.8-.456-1.6-.927-2.41-1.367-5-2.714-5.751-2.536-8.964,2.113-.276.4-.429.984-1.081.815-.484-.125-.524-.609-.607-1.016A6.142,6.142,0,0,0,1232.674,1931.916Z" fill="#f7a6a7"/>
      <path id="Trazado_205814" data-name="Trazado 205814" d="M1232.674,1931.916a6.142,6.142,0,0,1,3.567,4.849c.083.407.123.891.607,1.016.652.169.8-.416,1.081-.815,3.213-4.649,3.967-4.827,8.964-2.113.811.44,1.607.911,2.41,1.367,3.722,2.112,4.207,3.78,2.249,7.6-.287.562-1.018,1.16-.49,1.8s1.248.005,1.859-.157c4-1.062,5.719-.11,6.931,3.905.388,1.287.733,2.586,1.1,3.878,1.106,3.869.179,5.569-3.647,6.872-.643.219-1.735.071-1.771,1.03-.028.719.92.869,1.478,1.2,3.5,2.081,4.022,3.877,2.115,7.466-.749,1.41-1.485,2.83-2.3,4.2-1.7,2.875-3.783,3.444-6.777,1.919-.657-.335-1.353-1.108-2.047-.664-.769.493-.173,1.4-.019,2.086.863,3.849.011,5.343-3.829,6.53-1.442.445-2.879.913-4.335,1.305-3.505.943-5.368-.109-6.493-3.61-.22-.683-.1-1.733-1.009-1.815-.9-.081-1.005.989-1.372,1.6-1.9,3.148-3.855,3.72-7.128,1.99-1.484-.784-2.965-1.579-4.406-2.44-2.957-1.768-3.462-3.677-1.9-6.769.365-.722,1.032-1.338.9-2.286-1.158-.545-2.123.258-3.149.462-2.462.492-4.411-.369-5.249-2.688a53.789,53.789,0,0,1-1.933-6.517c-.633-2.831.577-4.679,3.369-5.573a5.1,5.1,0,0,0,2.59-1.124c-1.37-1.587-3.776-1.838-4.644-4.018-.892-2.242.475-3.865,1.29-5.909-2.4.133-4.389,1.025-6.446,1.558-4.071,1.054-7.131-.559-8.449-4.575a24.289,24.289,0,0,1-1.2-4.1c-.283-2.035-1.352-2.69-3.292-2.906-1.9-.211-1.938,1.278-2.547,2.226-.815,1.269-1.411,2.679-2.209,3.96-2.081,3.343-5.441,4.342-8.929,2.53-3.649-1.9-7.261-3.876-10.8-5.97-3.483-2.061-4.351-5.508-2.473-9.113.7-1.342,1.426-2.67,2.2-3.967.739-1.235,1.017-2.218-.058-3.6s-2.078-1.31-3.43-.86c-1.51.5-3.031,1-4.579,1.365-3.917.932-7.052-.8-8.257-4.657q-1.837-5.891-3.412-11.864a6.379,6.379,0,0,1,4.36-7.966,41.183,41.183,0,0,1,4.361-1.2,3.136,3.136,0,0,0,2.882-3.084c.266-2.032-1.118-2.2-2.165-2.839-1.358-.833-2.812-1.511-4.166-2.349a6.223,6.223,0,0,1-2.517-8.316c2-3.975,4.142-7.891,6.43-11.707,1.806-3.012,5.163-3.831,8.369-2.281a35.346,35.346,0,0,1,4.839,2.687c1.39.966,2.214.262,3.3-.472,1.248-.84,1.274-1.729.807-3a45.535,45.535,0,0,1-1.42-4.833c-.971-3.936.7-7.037,4.577-8.271,3.834-1.221,7.7-2.366,11.584-3.4,4.079-1.084,7.039.641,8.361,4.711a41.622,41.622,0,0,1,1.332,4.594c.3,1.5,1.131,2.016,2.565,2.238,1.562.243,2.276-.427,2.882-1.71a47.457,47.457,0,0,1,2.421-4.421c2.049-3.362,5.427-4.364,8.9-2.549q5.353,2.8,10.588,5.833c3.681,2.142,4.6,5.454,2.69,9.238-.681,1.35-1.408,2.679-2.162,3.989-.635,1.1-1.289,2.022-.151,3.355,1.079,1.263,2.018,1.777,3.641,1.116a37.3,37.3,0,0,1,4.584-1.339c3.659-.963,6.835.544,8.036,4.144,1.379,4.138,2.547,8.354,3.627,12.582a6.192,6.192,0,0,1-4.135,7.614,40.829,40.829,0,0,1-5.061,1.5,2.693,2.693,0,0,0-2.434,2.669c-.183,1.592.513,2.277,1.759,2.888,1.505.738,2.975,1.561,4.411,2.429,3.272,1.978,4.33,5.289,2.6,8.676-1.909,3.741-4.019,7.379-6.024,11.071a7.756,7.756,0,0,1-3.759,3.219c-3.655.762-6.425-1.322-9.294-2.98a2.9,2.9,0,0,0-3.8.184c-1.413,1.135-1.075,2.23-.623,3.544.542,1.577,1.013,3.179,1.515,4.77.358,1.463-.205,2.819-.491,4.207-.18.875.286,1.342,1.059,1.306.917-.044.665-.841.527-1.341a12.842,12.842,0,0,1-.55-4.219C1223.792,1932.428,1228.505,1932.819,1232.674,1931.916Zm-43.129-78.524c-4.162,1.2-8.453,1.991-12.444,3.758-1.363.6-1.547,1.854-1.146,3.228.68,2.33,1.287,4.682,2.01,7,.292.937.576,1.845-.262,2.558-1.781,1.515-3.587,3.006-5.463,4.4a2.386,2.386,0,0,1-2.813-.16c-2.008-1.209-4.077-2.318-6.131-3.451-1.868-1.031-3.3-.764-4.347,1.282-1.219,2.388-2.5,4.752-3.91,7.033-2.883,4.671-2.955,5.875,1.96,8.045,4.671,2.061,6.659,4.55,5.292,9.739-.494,1.877-.994,3.078-2.805,3.6-2.166.626-4.33,1.267-6.512,1.835s-2.8,1.778-2.094,3.939c1.124,3.42,2.108,6.887,3.12,10.343.757,2.582,1.581,3.069,4.177,2.316,1.766-.512,3.543-1,5.277-1.612,2.279-.8,4.165-.833,5.432,1.734a11.05,11.05,0,0,0,2.366,2.906,2.451,2.451,0,0,1,.469,3.377c-1.161,2.041-2.276,4.108-3.43,6.153-1.027,1.819-.933,3.335,1.048,4.451,3.355,1.892,6.654,3.889,10.062,5.679,1.318.692,2.773.694,3.627-1.013.487-.972,1.133-1.864,1.623-2.834,2.708-5.366,2.7-5.37,8.6-4.933a3.234,3.234,0,0,0,.755,0c2.345-.4,3.352.9,3.866,2.953.548,2.191,1.121,4.382,1.83,6.524.4,1.217,1.149,2.469,2.722,2.045,4.115-1.108,8.231-2.24,12.264-3.606a2.5,2.5,0,0,0,1.579-3.654c-.633-1.54-.937-3.213-1.457-4.8-1.256-3.851-1.272-3.846,1.99-6.492a32.2,32.2,0,0,0,2.708-2.229,1.959,1.959,0,0,1,2.694-.315c2.046,1.148,4.142,2.206,6.187,3.356,2.366,1.331,3.868.911,5.162-1.453q2.292-4.192,4.662-8.341c1.647-2.873,1.43-3.811-1.445-5.434q-2.845-1.6-5.737-3.129c-1.155-.6-1.97-1.526-1.654-2.79a22.036,22.036,0,0,0,.347-3.741c.193-2.439.974-4.336,3.8-4.793,1.8-.292,3.518-1.092,5.316-1.436,2.145-.412,2.881-1.723,2.4-3.62q-1.476-5.838-3.289-11.59c-.516-1.648-1.651-2.385-3.537-1.642-1.783.7-3.708,1.029-5.518,1.672-2.655.943-4.691.632-5.92-2.242a5.789,5.789,0,0,0-1.675-1.855,2.922,2.922,0,0,1-.648-4.051c1.2-2.213,2.409-4.42,3.561-6.657.811-1.573.639-2.78-1.149-3.714-3.486-1.821-6.881-3.82-10.3-5.763-1.657-.94-2.872-.5-3.749,1.119-1.162,2.138-2.281,4.3-3.491,6.41-.671,1.172-1.465,2.442-3.109,1.967a12.645,12.645,0,0,0-3.224-.375c-2.789-.078-4.647-1.171-5.14-4.209-.292-1.8-1.081-3.518-1.547-5.3A2.614,2.614,0,0,0,1189.545,1853.392Zm53.679,121.459c-.078-2.838,3.836-5.116,6.459-3.761,3.292,1.7,3.292,1.7,5.018-1.559a6.849,6.849,0,0,1,.478-.886c1.124-1.521.779-2.427-.953-3.254-1.278-.61-2.974-1.05-3.2-2.9-.427-3.425.509-5.057,3.86-5.862,2.294-.552,2.863-1.532,1.828-3.585a3.6,3.6,0,0,1-.355-1.2c-.275-2.583-1.659-2.867-3.817-2.041-1.191.456-2.445,1.084-3.737-.136-2.84-2.682-3.154-3.774-1.116-7.162.954-1.585.659-2.43-.887-3.128a7.929,7.929,0,0,1-1.551-.83c-1.982-1.511-3.318-1.3-4.278,1.2-.483,1.257-1.157,2.639-3.01,2.6-3.718-.076-4.445-.452-5.456-4.069-.549-1.963-1.486-2.442-3.26-1.7a9.488,9.488,0,0,1-.966.28c-3.36,1.008-3.369,1.011-2.41,4.348.329,1.145.7,2.261-.221,3.325-2.464,2.856-3.862,3.209-7.073,1.238-1.6-.986-2.519-1-3.185.87a5.922,5.922,0,0,1-.881,1.522c-1.43,1.9-1.253,3.316,1.133,4.169,2.473.885,2.687,2.779,2.473,5.085-.22,2.358-1.692,3.033-3.618,3.49-.846.2-2.284.2-2.273,1.179a10.917,10.917,0,0,0,1.65,5.718c.733,1.13,2.275.167,3.237-.263,2.71-1.211,3.677.765,5.09,2.305,1.337,1.457.855,2.661.083,4.087-1.686,3.114-1.648,3.135,1.491,4.812a7.018,7.018,0,0,1,.883.481c1.517,1.125,2.439.932,3.394-.9,1.9-3.632,2-3.443,5.878-2.8,2.07.342,2.363,1.768,2.884,3.3.31.913.043,2.6,1.6,2.385a12.841,12.841,0,0,0,5.451-1.685c1.132-.79-.424-2.4-.519-3.68C1243.317,1975.518,1243.26,1975.185,1243.224,1974.851Z" fill="#4e03c7"/>
      <path id="Trazado_205815" data-name="Trazado 205815" d="M1232.674,1931.916c-4.169.9-8.882.512-11.594,4.886l-.545.047c-.5-1.591-.973-3.193-1.515-4.77-.452-1.314-.79-2.409.623-3.544a2.9,2.9,0,0,1,3.8-.184c2.869,1.658,5.639,3.742,9.294,2.98Z" fill="#f1a4a8"/>
      <path id="Trazado_205816" data-name="Trazado 205816" d="M1189.545,1853.392a2.614,2.614,0,0,1,2.966,2.185c.466,1.781,1.255,3.5,1.547,5.3.493,3.038,2.351,4.131,5.14,4.209a12.645,12.645,0,0,1,3.224.375c1.644.475,2.438-.795,3.109-1.967,1.21-2.11,2.329-4.272,3.491-6.41.877-1.615,2.092-2.059,3.749-1.119,3.423,1.943,6.818,3.942,10.3,5.763,1.788.934,1.96,2.141,1.149,3.714-1.152,2.237-2.363,4.444-3.561,6.657a2.922,2.922,0,0,0,.648,4.051,5.789,5.789,0,0,1,1.675,1.855c1.229,2.874,3.265,3.185,5.92,2.242,1.81-.643,3.735-.971,5.518-1.672,1.886-.743,3.021-.006,3.537,1.642q1.8,5.747,3.289,11.59c.479,1.9-.257,3.208-2.4,3.62-1.8.344-3.514,1.144-5.316,1.436-2.831.457-3.612,2.354-3.8,4.793a22.036,22.036,0,0,1-.347,3.741c-.316,1.264.5,2.185,1.654,2.79q2.892,1.518,5.737,3.129c2.875,1.623,3.092,2.561,1.445,5.434q-2.377,4.143-4.662,8.341c-1.294,2.364-2.8,2.784-5.162,1.453-2.045-1.15-4.141-2.208-6.187-3.356a1.959,1.959,0,0,0-2.694.315,32.2,32.2,0,0,1-2.708,2.229c-3.262,2.646-3.246,2.641-1.99,6.492.52,1.592.824,3.265,1.457,4.8a2.5,2.5,0,0,1-1.579,3.654c-4.033,1.366-8.149,2.5-12.264,3.606-1.573.424-2.319-.828-2.722-2.045-.709-2.142-1.282-4.333-1.83-6.524-.514-2.056-1.521-3.349-3.866-2.953a3.234,3.234,0,0,1-.755,0c-5.9-.437-5.9-.433-8.6,4.933-.49.97-1.136,1.862-1.623,2.834-.854,1.707-2.309,1.705-3.627,1.013-3.408-1.79-6.707-3.787-10.062-5.679-1.981-1.116-2.075-2.632-1.048-4.451,1.154-2.045,2.269-4.112,3.43-6.153a2.451,2.451,0,0,0-.469-3.377,11.05,11.05,0,0,1-2.366-2.906c-1.267-2.567-3.153-2.532-5.432-1.734-1.734.608-3.511,1.1-5.277,1.612-2.6.753-3.42.266-4.177-2.316-1.012-3.456-2-6.923-3.12-10.343-.71-2.161-.074-3.376,2.094-3.939s4.346-1.209,6.512-1.835c1.811-.524,2.311-1.725,2.805-3.6,1.367-5.189-.621-7.678-5.292-9.739-4.915-2.17-4.843-3.374-1.96-8.045,1.408-2.281,2.691-4.645,3.91-7.033,1.044-2.046,2.479-2.313,4.347-1.282,2.054,1.133,4.123,2.242,6.131,3.451a2.386,2.386,0,0,0,2.813.16c1.876-1.393,3.682-2.884,5.463-4.4.838-.713.554-1.621.262-2.558-.723-2.317-1.33-4.669-2.01-7-.4-1.374-.217-2.625,1.146-3.228C1181.092,1855.383,1185.383,1854.587,1189.545,1853.392Zm6.729,21.177a24.184,24.184,0,0,0-24.477,23.893,24.228,24.228,0,1,0,48.452.624A23.9,23.9,0,0,0,1196.274,1874.569Z" fill="#e2872c"/>
      <path id="Trazado_205817" data-name="Trazado 205817" d="M1243.221,1974.851c.039.334.1.667.121,1,.095,1.285,1.651,2.89.519,3.68a12.841,12.841,0,0,1-5.451,1.685c-1.555.219-1.288-1.472-1.6-2.385-.521-1.533-.814-2.959-2.884-3.3-3.874-.639-3.981-.828-5.878,2.8-.955,1.83-1.877,2.023-3.394.9a7.018,7.018,0,0,0-.883-.481c-3.139-1.677-3.177-1.7-1.491-4.812.772-1.426,1.254-2.63-.083-4.087-1.413-1.54-2.38-3.516-5.09-2.305-.962.43-2.5,1.393-3.237.263a10.917,10.917,0,0,1-1.65-5.718c-.011-.983,1.427-.978,2.273-1.179,1.926-.457,3.4-1.132,3.618-3.49.214-2.306,0-4.2-2.473-5.085-2.386-.853-2.563-2.272-1.133-4.169a5.922,5.922,0,0,0,.881-1.522c.666-1.866,1.58-1.856,3.185-.87,3.211,1.971,4.609,1.618,7.073-1.238.917-1.064.55-2.18.221-3.325-.959-3.337-.95-3.34,2.41-4.348a9.488,9.488,0,0,0,.966-.28c1.774-.745,2.711-.266,3.26,1.7,1.011,3.617,1.738,3.993,5.456,4.069,1.853.038,2.527-1.344,3.01-2.6.96-2.5,2.3-2.715,4.278-1.2a7.929,7.929,0,0,0,1.551.83c1.546.7,1.841,1.543.887,3.128-2.038,3.388-1.724,4.48,1.116,7.162,1.292,1.22,2.546.592,3.737.136,2.158-.826,3.542-.542,3.817,2.041a3.6,3.6,0,0,0,.355,1.2c1.035,2.053.466,3.033-1.828,3.585-3.351.8-4.287,2.437-3.86,5.862.23,1.845,1.926,2.285,3.2,2.9,1.732.827,2.077,1.733.953,3.254a6.849,6.849,0,0,0-.478.886c-1.726,3.261-1.726,3.261-5.018,1.559C1247.06,1969.735,1243.146,1972.013,1243.221,1974.851Zm4.157-16.094a12.522,12.522,0,0,0-12.85-12.868,12.881,12.881,0,0,0,0,25.76A12.508,12.508,0,0,0,1247.378,1958.757Z" fill="url(#linear-gradient)"/>
      <path id="Trazado_205818" data-name="Trazado 205818" d="M1220.535,1936.849l.545-.047a12.842,12.842,0,0,0,.55,4.219c.138.5.39,1.3-.527,1.341-.773.036-1.239-.431-1.059-1.306C1220.33,1939.668,1220.893,1938.312,1220.535,1936.849Z" fill="#d79aad"/>
      <path id="Trazado_205819" data-name="Trazado 205819" d="M1196.274,1874.569a23.9,23.9,0,0,1,23.975,24.517,24.228,24.228,0,1,1-23.975-24.517Zm-.091,10.2a13.641,13.641,0,0,0-14.157,14.168c.024,8.213,6.139,13.98,14.223,13.931a13.684,13.684,0,0,0,13.846-13.992A13.842,13.842,0,0,0,1196.183,1884.77Z" fill="#e2872c" opacity="0.5" style="isolation: isolate"/>
      <path id="Trazado_205820" data-name="Trazado 205820" d="M1247.378,1958.757a12.508,12.508,0,0,1-12.85,12.892,12.881,12.881,0,0,1,0-25.76A12.522,12.522,0,0,1,1247.378,1958.757Zm-12.782,7.377a7.365,7.365,0,1,0,.31-14.724,7.366,7.366,0,1,0-.31,14.724Z" opacity="0.5" fill="url(#linear-gradient)"/>
      <path id="Trazado_205821" data-name="Trazado 205821" d="M1196.183,1884.77a13.842,13.842,0,0,1,13.912,14.107,13.684,13.684,0,0,1-13.846,13.992c-8.084.049-14.2-5.718-14.223-13.931A13.641,13.641,0,0,1,1196.183,1884.77Z" fill="#f8a7a7"/>
      <path id="Trazado_205822" data-name="Trazado 205822" d="M1234.6,1966.134a7.366,7.366,0,1,1,.31-14.724,7.365,7.365,0,1,1-.31,14.724Z" fill="#f8a7a8"/>
    </g>
  </g>
</svg>
