<svg xmlns="http://www.w3.org/2000/svg" xmlns:xlink="http://www.w3.org/1999/xlink" width="139" height="139.001" viewBox="0 0 139 139.001">
  <defs>
    <clipPath id="clip-path">
      <path id="path5439" d="M0-682.665H139v139H0Z" transform="translate(0 682.665)"/>
    </clipPath>
  </defs>
  <g id="Grupo_153106" data-name="Grupo 153106" transform="translate(-220 9157)">
    <g id="g5433" transform="translate(220 -8474.335)">
      <g id="g5435" transform="translate(0 -682.665)">
        <g id="g5437" transform="translate(0 0)" clip-path="url(#clip-path)">
          <g id="g5443">
            <path id="path5445" d="M-271.832,0a69.5,69.5,0,0,0-69.5,69.5,69.418,69.418,0,0,0,30,57.186h2.373l1.937,2.754a69.138,69.138,0,0,0,13.748,6.184h42.882a69.141,69.141,0,0,0,13.748-6.184l1.937-2.754h2.373a69.418,69.418,0,0,0,30-57.186A69.5,69.5,0,0,0-271.832,0" transform="translate(341.332)" fill="#81af1d"/>
          </g>
          <g id="g5447" transform="translate(104.689 110.099)">
            <path id="path5449" d="M-14.15-.027a2.034,2.034,0,0,0-2.195,1.864l-1.423,17.471q2.208-1.3,4.31-2.754l1.172-14.386A2.036,2.036,0,0,0-14.15-.027" transform="translate(17.768 0.034)" fill="#5000c7"/>
          </g>
          <g id="g5451" transform="translate(84.929 98.878)">
            <path id="path5453" d="M-90.783-59.821a2.024,2.024,0,0,1-.952-.238L-112.91-71.28a2.036,2.036,0,0,1-.846-2.753A2.036,2.036,0,0,1-111-74.878l21.176,11.222a2.036,2.036,0,0,1,.846,2.752,2.035,2.035,0,0,1-1.8,1.083" transform="translate(113.993 75.115)" fill="#6700ff"/>
          </g>
          <g id="g5455" transform="translate(28.823 110.099)">
            <path id="path5457" d="M-15.9-7.318A2.035,2.035,0,0,0-18.1-9.182,2.036,2.036,0,0,0-19.96-6.988L-18.788,7.4q2.1,1.454,4.31,2.754Z" transform="translate(19.967 9.189)" fill="#5000c7"/>
          </g>
          <g id="g5459" transform="translate(28.822 98.878)">
            <path id="path5461" d="M-7.972-59.821a2.035,2.035,0,0,1-1.8-1.083,2.036,2.036,0,0,1,.846-2.752L12.249-74.878A2.036,2.036,0,0,1,15-74.032a2.036,2.036,0,0,1-.846,2.753L-7.021-60.058a2.024,2.024,0,0,1-.952.238" transform="translate(10.01 75.115)" fill="#6700ff"/>
          </g>
          <g id="g5463" transform="translate(123.345 111.419)">
            <path id="path5465" d="M-53.264-51.324a2.027,2.027,0,0,1-1.252-.432L-66.1-60.805a2.036,2.036,0,0,1-.351-2.858,2.036,2.036,0,0,1,2.858-.351l11.583,9.049a2.036,2.036,0,0,1,.351,2.858,2.033,2.033,0,0,1-1.606.783" transform="translate(66.883 64.446)" fill="#26005e"/>
          </g>
          <g id="g5467" transform="translate(113.209 77.805)">
            <path id="path5469" d="M-47.605-147.4a2.037,2.037,0,0,1-1.949-1.449l-10.135-33.614A2.036,2.036,0,0,1-58.327-185a2.036,2.036,0,0,1,2.537,1.362l10.135,33.614a2.036,2.036,0,0,1-1.362,2.537,2.042,2.042,0,0,1-.589.087" transform="translate(59.776 185.091)" fill="#5000c7"/>
          </g>
          <g id="g5471" transform="translate(86.377 77.806)">
            <path id="path5473" d="M-7.971-64.579a2.036,2.036,0,0,1-1.849-1.18,2.037,2.037,0,0,1,.991-2.7L18-80.9a2.036,2.036,0,0,1,2.7.991,2.036,2.036,0,0,1-.991,2.7L-7.116-64.768a2.029,2.029,0,0,1-.855.189" transform="translate(10.009 81.09)" fill="#6700ff"/>
          </g>
          <g id="g5475" transform="translate(0 112.777)">
            <path id="path5477" d="M-7.97-51.324a2.033,2.033,0,0,1-1.606-.783,2.036,2.036,0,0,1,.351-2.858L2.358-64.014a2.036,2.036,0,0,1,2.858.351,2.036,2.036,0,0,1-.351,2.858l-11.583,9.05a2.029,2.029,0,0,1-1.252.432" transform="translate(10.008 64.446)" fill="#26005e"/>
          </g>
          <g id="g5479" transform="translate(11.583 79.163)">
            <path id="path5481" d="M-7.969-147.4a2.042,2.042,0,0,1-.589-.087,2.036,2.036,0,0,1-1.362-2.537L.216-183.642A2.036,2.036,0,0,1,2.753-185a2.036,2.036,0,0,1,1.362,2.537L-6.02-148.853A2.037,2.037,0,0,1-7.969-147.4" transform="translate(10.007 185.091)" fill="#5000c7"/>
          </g>
          <g id="g5483" transform="translate(21.718 79.163)">
            <path id="path5485" d="M-112.906-64.579a2.029,2.029,0,0,1-.855-.189l-26.832-12.438a2.036,2.036,0,0,1-.991-2.7,2.036,2.036,0,0,1,2.7-.991l26.832,12.438a2.037,2.037,0,0,1,.991,2.7,2.037,2.037,0,0,1-1.849,1.18" transform="translate(141.773 81.09)" fill="#6700ff"/>
          </g>
          <g id="g5487" transform="translate(11.266 27.013)">
            <path id="path5489" d="M-87.95-63.359a2.026,2.026,0,0,1-1.037-.285L-109.438-75.77a2.036,2.036,0,0,1-.713-2.79,2.036,2.036,0,0,1,2.79-.713l20.452,12.126a2.036,2.036,0,0,1,.713,2.79,2.035,2.035,0,0,1-1.753,1" transform="translate(110.436 79.558)" fill="#26005e"/>
          </g>
          <g id="g5491" transform="translate(31.718 39.139)">
            <path id="path5493" d="M-37.476-97.34a2.037,2.037,0,0,1-1.915-1.343L-46.936-119.5a2.036,2.036,0,0,1,1.22-2.608,2.036,2.036,0,0,1,2.608,1.22l7.545,20.814a2.036,2.036,0,0,1-1.22,2.608,2.032,2.032,0,0,1-.694.122" transform="translate(47.058 122.227)" fill="#5000c7"/>
          </g>
          <g id="g5495" transform="translate(39.263 59.953)">
            <path id="path5497" d="M-50.049-25.33a2.043,2.043,0,0,1-.446-.049l-10.758-2.4A2.036,2.036,0,0,1-62.8-30.214a2.036,2.036,0,0,1,2.431-1.543l10.758,2.4a2.036,2.036,0,0,1,1.543,2.431,2.037,2.037,0,0,1-1.985,1.593" transform="translate(62.845 31.806)" fill="#6700ff"/>
          </g>
          <g id="g5499" transform="translate(103.209 27.012)">
            <path id="path5501" d="M-7.973-63.359a2.034,2.034,0,0,1-1.753-1,2.036,2.036,0,0,1,.713-2.79L11.439-79.273a2.036,2.036,0,0,1,2.79.713,2.036,2.036,0,0,1-.713,2.79L-6.936-63.644a2.026,2.026,0,0,1-1.037.285" transform="translate(10.011 79.558)" fill="#26005e"/>
          </g>
          <g id="g5503" transform="translate(95.664 39.138)">
            <path id="path5505" d="M-7.965-97.341a2.033,2.033,0,0,1-.694-.122,2.036,2.036,0,0,1-1.22-2.608l7.545-20.814a2.036,2.036,0,0,1,2.608-1.22,2.036,2.036,0,0,1,1.22,2.608L-6.051-98.683a2.037,2.037,0,0,1-1.915,1.343" transform="translate(10.002 122.228)" fill="#5000c7"/>
          </g>
          <g id="g5507" transform="translate(84.907 59.953)">
            <path id="path5509" d="M-7.958-25.331a2.036,2.036,0,0,1-1.985-1.593A2.036,2.036,0,0,1-8.4-29.354l10.758-2.4a2.036,2.036,0,0,1,2.431,1.543,2.036,2.036,0,0,1-1.543,2.431l-10.758,2.4a2.041,2.041,0,0,1-.446.049" transform="translate(9.992 31.807)" fill="#6700ff"/>
          </g>
          <g id="g5511" transform="translate(44.116)">
            <path id="path5513" d="M-155.914,0c-2.172,0,1.267,5.5-2.873,7.6s-2.692,3.937,1.436,3.19,4.672,4.344.328,5.633.681,3.869,3.021,5.7,5.055,17.036-16.392,22.6c-21.447-5.565-18.732-20.769-16.392-22.6s7.365-4.412,3.022-5.7-3.8-6.38.328-5.633S-177.859,9.706-182,7.6s-.7-7.6-2.873-7.6-10.9,7.194-10.9,24.162,10.316,25.927,10.316,25.927h30.135s10.316-8.959,10.316-25.927S-153.742,0-155.914,0" transform="translate(195.777)" fill="#6700ff"/>
          </g>
          <g id="g5515" transform="translate(58.37 27.012)">
            <path id="path5517" d="M-9.176-2.148C-11.416.831-13.7,6.681-7.594,15.187l7.338-4.15S-5.7,7.259-6.737-1.5a1.358,1.358,0,0,0-2.438-.644" transform="translate(11.522 2.697)" fill="#6700ff"/>
          </g>
          <g id="g5519" transform="translate(69.365 27.012)">
            <path id="path5521" d="M-34.889-2.148c2.24,2.979,4.529,8.829-1.582,17.335l-7.338-4.15s5.445-3.778,6.482-12.54a1.358,1.358,0,0,1,2.438-.644" transform="translate(43.809 2.697)" fill="#6700ff"/>
          </g>
          <g id="g5523" transform="translate(47.432 35.668)">
            <path id="path5525" d="M-145.722,0c-2.55,3.565-7.187,6.983-15.189,9.059-8-2.076-12.639-5.495-15.189-9.059a15.12,15.12,0,0,0-6.88,4.264,31.5,31.5,0,0,0,7,10.157h30.135a31.492,31.492,0,0,0,7-10.157A15.119,15.119,0,0,0-145.722,0" transform="translate(182.98)" fill="#26005e"/>
          </g>
          <g id="g5527" transform="translate(69.364 32.22)">
            <path id="path5529" d="M-43.474-11.133h-2.517a.909.909,0,0,1-.776-.431,9.087,9.087,0,0,0-2.2-2.416,17.014,17.014,0,0,1-5.625,8.527l7.339,4.15c2.743-3.818,3.79-7.1,3.912-9.826-.045,0-.09,0-.136,0" transform="translate(54.589 13.98)" fill="#26005e"/>
          </g>
          <g id="g5531" transform="translate(58.385 32.22)">
            <path id="path5533" d="M0-11.147C.122-8.419,1.17-5.138,3.912-1.321l7.339-4.15A17.013,17.013,0,0,1,5.625-14a9.089,9.089,0,0,0-2.2,2.416.908.908,0,0,1-.775.43H.136c-.046,0-.09,0-.136,0" transform="translate(0 13.997)" fill="#26005e"/>
          </g>
          <g id="g5535" transform="translate(47.496 34.443)">
            <path id="path5537" d="M-129.008-18.368h-2.517a4.986,4.986,0,0,1-4.231-2.348h0a4.986,4.986,0,0,0-8.462,0h0a4.986,4.986,0,0,1-4.231,2.348h-2.517A11.025,11.025,0,0,0-161.992-7.343h0A11.025,11.025,0,0,0-150.967,3.682h21.959A11.025,11.025,0,0,0-117.983-7.343h0a11.025,11.025,0,0,0-11.025-11.025" transform="translate(161.992 23.064)" fill="#6700ff"/>
          </g>
          <g id="g5539" transform="translate(47.496 34.444)">
            <path id="path5541" d="M-43.122-104.606h21.959a11,11,0,0,0,3.82-.68c-12.009-4.92-15.07-16.8-11.037-24.352a4.987,4.987,0,0,0-7.993.634h0a4.986,4.986,0,0,1-4.231,2.348h-2.517a11.025,11.025,0,0,0-11.025,11.025,11.025,11.025,0,0,0,11.025,11.025" transform="translate(54.147 131.351)" fill="#5000c7"/>
          </g>
          <g id="g5543" transform="translate(48.522 58.474)">
            <path id="path5545" d="M-148.419-15.332a2.722,2.722,0,0,0-1.685-1.72,46.537,46.537,0,0,0-15.284-2.2,46.54,46.54,0,0,0-15.284,2.2,2.722,2.722,0,0,0-1.685,1.72l-3.874,11.86A2.715,2.715,0,0,0-183.649.086h36.523a2.715,2.715,0,0,0,2.581-3.558Z" transform="translate(186.366 19.252)" fill="#6700ff"/>
          </g>
          <g id="g5547" transform="translate(48.522 58.614)">
            <path id="path5549" d="M-43.006-61.171l4.769-14.3a2.708,2.708,0,0,1,.973-1.338,42.1,42.1,0,0,0-11.043,2.06,2.721,2.721,0,0,0-1.684,1.72l-3.874,11.86a2.715,2.715,0,0,0,2.581,3.558h10.859a2.715,2.715,0,0,1-2.581-3.558" transform="translate(54.002 76.81)" fill="#5000c7"/>
          </g>
          <g id="g5551" transform="translate(44.116 77.812)">
            <path id="path5553" d="M-166.71,0h-34.479a8.144,8.144,0,0,0-8.145,8.145V44.221a25.265,25.265,0,0,0,3.943,13.592,69.444,69.444,0,0,0,21.441,3.376,69.444,69.444,0,0,0,21.441-3.376,25.265,25.265,0,0,0,3.943-13.592V8.145A8.144,8.144,0,0,0-166.71,0" transform="translate(209.333)" fill="#6700ff"/>
          </g>
          <g id="g5555" transform="translate(67.464 77.812)">
            <path id="path5557" d="M0-239.2c.677.02,1.355.033,2.036.033s1.36-.013,2.036-.033v-61.156H0Z" transform="translate(0 300.351)" fill="#26005e"/>
          </g>
          <g id="g5559" transform="translate(44.116 77.812)">
            <path id="path5561" d="M-42.474-172.959v-36.083a8.143,8.143,0,0,1,7.889-8.138h-10.6a8.144,8.144,0,0,0-8.145,8.145v36.076a25.265,25.265,0,0,0,3.943,13.592A69.222,69.222,0,0,0-36.417-156.5a25.282,25.282,0,0,1-6.056-16.454" transform="translate(53.333 217.179)" fill="#5000c7"/>
          </g>
        </g>
      </g>
    </g>
  </g>
</svg>
