<svg xmlns="http://www.w3.org/2000/svg" width="292.02" height="298" viewBox="0 0 292.02 298">
  <g id="Grupo_153125" data-name="Grupo 153125" transform="translate(-143.49 5480.812)">
    <g id="Grupo_152820" data-name="Grupo 152820" transform="translate(-1245.572 -6842.39)">
      <path id="Trazado_205255" data-name="Trazado 205255" d="M1690.679,1517.275c-12.632,13.293-25.874,25.982-38.744,39.038-.817.828-1.64,1.653-2.488,2.45-2.954,2.777-5.6,2.8-8.468-.054q-17.564-17.5-35.079-35.054c-1.292-1.29-2.626-2.541-3.874-3.872-2.713-2.9-2.693-5.658.141-8.508q11.869-11.931,23.8-23.8c5-4.992,9.975-10,14.993-14.972,2.853-2.825,5.589-2.859,8.456,0,12.589,12.566,25.118,25.192,37.732,37.734,1.284,1.276,2.373,2.675,3.529,4.04Zm-6.253-1.76a2.991,2.991,0,0,0-.976-1.662q-18.148-18.155-36.271-36.335c-1.454-1.463-2.525-1.376-3.939.056-7.063,7.151-14.194,14.235-21.3,21.346-4.933,4.939-9.844,9.9-14.8,14.813-1.241,1.23-1.836,2.269-.158,3.663,1.515,1.259,2.866,2.719,4.264,4.116q16.079,16.076,32.134,32.177c1.392,1.4,2.5,1.243,3.784-.1,2.072-2.156,4.249-4.21,6.341-6.349,4.957-5.07,9.679-10.392,14.889-15.183,5.012-4.608,9.652-9.575,14.585-14.251A4,4,0,0,0,1684.426,1515.515Z" transform="translate(-9.597 -4.949)" fill="#b63e38"/>
      <path id="Trazado_205256" data-name="Trazado 205256" d="M1642.258,1669.47c-3.588-5.354-8.656-9.322-13.1-13.864-8.942-9.143-18.071-18.1-27.1-27.164-2.769-2.779-2.781-5.731-.02-8.5q19.178-19.207,38.406-38.365c3.575-3.561,6.066-3.393,9.74.294q16.534,16.591,33.13,33.12c2.486,2.488,4.909,5.034,7.361,7.554v3.495c-1.888,1.939-3.755,3.9-5.667,5.812q-17.384,17.417-34.783,34.819a10.327,10.327,0,0,1-3.975,2.8Zm42.157-45.324a3.888,3.888,0,0,0-1.372-2.081q-17.824-17.8-35.616-35.623c-1.608-1.622-2.763-1.7-4.336-.088-4.5,4.609-9.071,9.153-13.626,13.708-7.358,7.358-14.687,14.746-22.123,22.024-1.652,1.618-1.6,2.7-.01,4.282q17.941,17.808,35.758,35.741c1.642,1.653,2.864,1.49,4.362-.094,2.227-2.353,4.57-4.6,6.864-6.886q14.3-14.269,28.59-28.541A4.054,4.054,0,0,0,1684.415,1624.147Z" transform="translate(-9.595 -9.891)" fill="#b63e38"/>
      <path id="Trazado_205257" data-name="Trazado 205257" d="M1435.994,1361.579c5.776,4.511,10.466,10.136,15.624,15.279q13.022,12.982,25.855,26.154c2.943,3.011,2.83,5.631-.2,8.624-5.05,4.992-10.2,9.886-15.241,14.884-7.773,7.7-15.488,15.46-23.24,23.183-3.369,3.356-5.992,3.353-9.385-.067q-13.4-13.509-26.765-27.06-5.5-5.555-11.017-11.09c-3.284-3.3-3.387-5.985-.142-9.2q19.508-19.353,39.084-38.639c.754-.744,1.617-1.378,2.43-2.063Zm37.567,45.565c-.08-1.02-.867-1.574-1.5-2.215q-10.138-10.3-20.293-20.591c-4.936-5-9.914-9.967-14.795-15.024-1.532-1.587-2.693-1.948-4.6-.371-1.485,1.227-2.571,2.729-3.9,4.045q-15.765,15.625-31.541,31.242c-2.335,2.309-2.413,2.691-.122,5.007q17.7,17.9,35.428,35.787c1.414,1.435,2.481,1.283,3.775-.008,3.147-3.136,6.334-6.231,9.5-9.349q13.41-13.208,26.805-26.43A3.238,3.238,0,0,0,1473.561,1407.144Z" transform="translate(-0.002 0)" fill="#b63e38"/>
      <path id="Trazado_205258" data-name="Trazado 205258" d="M1541.623,1361.579c4.173,4.112,8.368,8.2,12.515,12.34q14.284,14.255,28.524,28.553c3.162,3.177,3.179,5.874.034,9.03q-19.176,19.236-38.411,38.415c-3.017,3.008-5.908,3.026-8.9.037q-19.32-19.27-38.567-38.616c-3.067-3.085-2.978-5.823.046-8.833q7.063-7.033,14.116-14.074,11.944-11.938,23.885-23.881c1.041-1.039,2.177-1.983,3.268-2.971Zm-1.895,84.546a3.916,3.916,0,0,0,2.339-1.488q10.015-10.005,20.034-20c5.034-5.024,9.993-10.128,15.145-15.028,2.141-2.036,2.439-2.684.429-4.7q-17.865-17.906-35.722-35.82c-1.608-1.624-2.75-1.647-4.318-.037-4.115,4.224-8.338,8.343-12.506,12.516q-11.689,11.7-23.375,23.4c-1.416,1.411-1.456,2.646.031,4.015,1.313,1.208,2.533,2.518,3.8,3.78q15.994,15.976,31.994,31.947A3.632,3.632,0,0,0,1539.728,1446.125Z" transform="translate(-4.799 0)" fill="#b63e38"/>
      <path id="Trazado_205259" data-name="Trazado 205259" d="M1432,1669.478q-8.928-9.026-17.862-18.048c-7.673-7.7-15.408-15.348-23.053-23.08-2.883-2.916-2.645-5.594.591-8.831q18.059-18.063,36.167-36.076c1.532-1.518,2.151-4.057,5-4.231,2.118-.129,3.927.075,5.488,1.638q19.561,19.581,39.136,39.148c2.938,2.951,2.838,5.669-.165,8.664-7.353,7.335-14.839,14.54-22.081,21.982-4.733,4.863-9.636,9.553-14.361,14.413a22.032,22.032,0,0,0-3.869,4.42Zm2.4-6.073a4.07,4.07,0,0,0,2.279-1.5c2.771-2.754,5.6-5.456,8.277-8.294,6.132-6.492,12.8-12.435,18.743-19.152a82.789,82.789,0,0,1,8.234-7.747c1.8-1.534,1.977-2.97.146-4.744-4.214-4.081-8.294-8.3-12.44-12.451-7.688-7.7-15.41-15.365-23.059-23.1-1.539-1.557-2.761-1.846-4.326-.075-1.482,1.676-3.162,3.177-4.748,4.762-10.254,10.251-20.478,20.533-30.787,30.729-1.732,1.713-1.895,3.04-.135,4.762,5.265,5.155,10.472,10.37,15.694,15.57q10.051,10.008,20.089,20.029A2.956,2.956,0,0,0,1434.4,1663.406Z" transform="translate(-0.001 -9.899)" fill="#b63e38"/>
      <path id="Trazado_205260" data-name="Trazado 205260" d="M1537.629,1669.47l-32.22-32.243c-2.761-2.763-5.533-5.514-8.284-8.287-3.513-3.54-3.432-6.1.261-9.78q15.43-15.388,30.852-30.785c2.47-2.465,4.9-4.974,7.419-7.382,2.728-2.6,5.494-2.69,8.123-.031q9.425,9.534,18.884,19.035c6.386,6.387,12.672,12.9,19.34,19.005,3.441,3.148,3.5,7.121.163,10.357-12.211,11.848-24.13,24-36.147,36.046a14.535,14.535,0,0,0-3.4,4.065Zm2.266-84.418c-1.207,0-1.812.869-2.5,1.561q-8.775,8.773-17.53,17.567-8.85,8.866-17.706,17.726c-2.034,2.042-2.049,2.651-.009,4.7,4.454,4.484,8.942,8.934,13.412,13.4q10.983,10.982,21.953,21.976c1.432,1.439,2.5,1.936,4.291.132,3.686-3.705,7.391-7.394,11.075-11.1,8.312-8.367,16.72-16.639,25.1-24.942,1.216-1.206,1.376-2.271.048-3.6q-18.19-18.131-36.32-36.324C1541.179,1585.631,1540.686,1585.027,1539.895,1585.052Z" transform="translate(-4.799 -9.891)" fill="#b63e38"/>
      <path id="Trazado_205261" data-name="Trazado 205261" d="M1690.678,1408.5c-4.984,5.521-10.533,10.491-15.681,15.828-8.293,8.6-16.854,16.918-25.221,25.434-3.413,3.474-6.65,2.924-9.808-.788-2.979-3.5-6.576-6.475-9.845-9.736q-13.761-13.723-27.473-27.5c-3.526-3.535-3.528-6.091-.044-9.568q14.113-14.086,28.229-28.171,6.217-6.207,12.422-12.423h3a25.055,25.055,0,0,1,3.909,2.928c11.045,11.077,22.153,22.09,33.182,33.183,2.6,2.619,5.594,4.923,7.335,8.313Zm-45.238,37.666a3.36,3.36,0,0,0,1.964-1.487c3.149-4.438,7.349-7.939,11.243-11.576,8.373-7.82,16.21-16.166,24.507-24.049,1.374-1.3,1.7-2.468.18-3.985q-17.838-17.767-35.607-35.6c-2.4-2.4-2.806-2.446-5.175.081-5.18,5.526-10.88,10.522-16.085,16.029-6.052,6.4-12.41,12.513-18.635,18.75-2.54,2.546-2.547,2.654-.078,5.127q7.289,7.3,14.59,14.594,10.407,10.382,20.827,20.751A3.473,3.473,0,0,0,1645.44,1446.166Z" transform="translate(-9.596 0)" fill="#b63e38"/>
      <path id="Trazado_205262" data-name="Trazado 205262" d="M1479.449,1515.568a4.748,4.748,0,0,1-1.632,3.963q-11.9,11.938-23.823,23.857-7.378,7.385-14.758,14.764c-3.546,3.55-5.955,3.676-9.563.171-5.536-5.378-10.966-10.864-16.423-16.324q-10.943-10.95-21.848-21.937c-3.108-3.142-3.127-5.673-.012-8.822,7.3-7.381,14.664-14.7,22-22.044q7.65-7.66,15.3-15.324c.529-.528,1.058-1.058,1.611-1.558,2.886-2.607,5.507-2.544,8.277.223q18.308,18.292,36.605,36.594c1,1,2.016,1.976,2.969,3.013A4.284,4.284,0,0,1,1479.449,1515.568Zm-5.957-.3c0-.831-.839-1.339-1.473-1.973q-17.612-17.631-35.233-35.25c-2.3-2.295-2.515-2.32-4.782-.058q-17.708,17.681-35.379,35.4c-1.98,1.983-1.957,2.63.1,4.684q16.319,16.276,32.648,32.542c5.716,5.688,4.4,5.377,9.784.1.119-.116.241-.229.359-.346q16.139-16.12,32.264-32.251C1472.518,1517.378,1473.541,1516.767,1473.492,1515.268Z" transform="translate(0 -4.951)" fill="#b63e38"/>
      <path id="Trazado_205263" data-name="Trazado 205263" d="M1539.555,1560.756c-1.947.077-3.248-1.226-4.552-2.531q-16.394-16.414-32.79-32.826c-1.7-1.706-3.419-3.4-5.1-5.125-3.382-3.466-3.391-6.012,0-9.407q9.062-9.079,18.158-18.126c6.662-6.657,13.3-13.344,19.989-19.971,3.233-3.2,5.789-3.208,8.988,0,10.846,10.885,21.9,21.564,32.541,32.654,1.88,1.959,3.945,3.786,5.88,5.717,3.19,3.184,3.209,5.776-.006,9q-19.181,19.243-38.427,38.421A6.023,6.023,0,0,1,1539.555,1560.756Zm.168-84.38c-1.008.091-1.577.86-2.212,1.494q-17.665,17.665-35.312,35.348c-2.151,2.155-2.152,2.638.063,4.87,4.253,4.285,8.54,8.536,12.808,12.807q11.176,11.182,22.341,22.375c1.392,1.4,2.6,2.1,4.374.317,10.162-10.232,20.429-20.361,30.585-30.6,1.322-1.332,2.183-3.155,3.777-4.235,3.63-2.46,3.674-3.217.462-6.292-8.522-8.159-16.5-16.865-25.177-24.881-3.44-3.177-6.465-6.843-9.828-10.143C1541.07,1476.912,1540.592,1476.31,1539.723,1476.376Z" transform="translate(-4.8 -4.949)" fill="#b63e38"/>
      <path id="Trazado_205264" data-name="Trazado 205264" d="M1684.709,1515.8a4,4,0,0,1-1.446,2.294c-4.933,4.676-9.573,9.643-14.585,14.251-5.211,4.792-9.932,10.113-14.889,15.183-2.091,2.139-4.269,4.193-6.341,6.349-1.287,1.339-2.392,1.494-3.784.1q-16.034-16.12-32.134-32.177c-1.4-1.4-2.749-2.857-4.264-4.116-1.677-1.394-1.083-2.433.158-3.663,4.955-4.915,9.866-9.874,14.8-14.813,7.1-7.111,14.235-14.194,21.3-21.346,1.415-1.433,2.486-1.52,3.939-.056q18.1,18.206,36.271,36.335A2.991,2.991,0,0,1,1684.709,1515.8Zm-39.348-26.5c-4.932.1-8.407,4.467-7.569,9.608,1.229,7.542,3.277,14.9,5.107,22.307.356,1.44.759,2.842,2.568,2.845,1.779,0,2.329-1.312,2.631-2.795.674-3.315,1.34-6.682,2.257-9.883a117.051,117.051,0,0,0,2.94-13.021A7.857,7.857,0,0,0,1645.361,1489.3Zm-.227,49.752a5.987,5.987,0,0,0,6.205-5.97,5.788,5.788,0,0,0-5.832-5.607c-3.3.025-6.135,2.628-5.815,5.85C1640.038,1536.8,1641.221,1539.215,1645.134,1539.056Z" transform="translate(-9.88 -5.239)" fill="#fdfdfd"/>
      <path id="Trazado_205265" data-name="Trazado 205265" d="M1684.707,1624.441a4.054,4.054,0,0,1-1.509,2.443q-14.289,14.276-28.59,28.541c-2.294,2.29-4.637,4.533-6.864,6.886-1.5,1.583-2.72,1.747-4.362.094q-17.815-17.933-35.758-35.741c-1.593-1.582-1.642-2.664.01-4.282,7.436-7.278,14.764-14.666,22.123-22.024,4.556-4.555,9.126-9.1,13.626-13.708,1.573-1.611,2.728-1.534,4.336.088q17.738,17.881,35.616,35.623A3.888,3.888,0,0,1,1684.707,1624.441Zm-58.317,11.8a32.082,32.082,0,0,0,6.362-2.126c7.887-2.932,15.659-6.161,23.58-9.015,2.262-.815,5.473-1.28,6.1-4.164.57-2.61,2.336-3.108,4.245-3.82.7-.26,1.4-.526,2.084-.823a1.844,1.844,0,0,0,1.1-2.642,1.8,1.8,0,0,0-2.491-.986c-1.406.508-2.808,1.027-4.193,1.587a1.9,1.9,0,0,1-2.227-.119c-1.871-1.462-3.95-1.371-6.126-.519-6.643,2.6-13.317,5.126-19.979,7.681-3.559,1.365-7.151,2.653-10.666,4.124a5.422,5.422,0,0,0-3.332,6.26A5.814,5.814,0,0,0,1626.391,1636.237Z" transform="translate(-9.888 -10.186)" fill="#fdfdfd"/>
      <path id="Trazado_205266" data-name="Trazado 205266" d="M1473.847,1407.447a3.233,3.233,0,0,1-1.243,2.094q-13.387,13.231-26.805,26.43c-3.165,3.117-6.352,6.213-9.5,9.349-1.294,1.29-2.361,1.442-3.775.008q-17.669-17.938-35.428-35.787c-2.291-2.317-2.213-2.7.122-5.007q15.782-15.61,31.541-31.242c1.328-1.316,2.414-2.819,3.9-4.045,1.912-1.577,3.073-1.216,4.6.371,4.88,5.057,9.859,10.02,14.795,15.024q10.153,10.29,20.293,20.591C1472.981,1405.873,1473.768,1406.427,1473.847,1407.447Zm-44.08-8.1a4.005,4.005,0,0,1-1.58-2.419c-.848-2.227-.671-4.578-.774-6.9-.068-1.553-.127-3.148-1.587-3.807-1.227,4.527-5.611,8.472-2.25,13.889-1.888-.46-2.326-1.9-3.5-2.382-1.073-.446-1.914-.82-1.7,1.04.232,2.024-.524,3.929-1.228,5.791-2.133,5.643-1.2,11.121,2.609,14.692,1.788,1.675,3.829,2.712,6.552,2.058-5.632-4.395-5.254-5.723-4.148-9.929.233-.885.436-1.2,1.5-.66,2.289,1.157,3.073.64,3.318-2,.123-1.326.022-2.672.022-4.27,1.911,1.374,2.238,3.279,3.145,4.825.923,1.575,1.668,3.391,4.109,3.566-2.1-5.053.247-9.676.189-14.867,3.307,2.718,3.021,6.031,3.162,9.388,2.735-1.759.969-4.841,2.507-6.809,1.567,4.643,1.613,5.268.747,9.994,1.763.142,2.264-1.421,3.222-2.333.472-.45.888-1.144,1.636-.911s.385,1.01.42,1.519a19.939,19.939,0,0,0,.954,3.562c.694,2.705.6,5.285-1.545,7.4-.529.522-1.117.983-1.88,1.648,4.94.24,8.912-3.426,9.637-8.581a20.173,20.173,0,0,0-1.852-11c-1.1-2.533-2.533-5.016-.981-7.99-2.459.2-3.338,1.919-4.451,3.327-.4.51-.954.888-1.482.594-.559-.312,0-.845.1-1.291a6.374,6.374,0,0,0-.931-5.716,8.04,8.04,0,0,1-1.875-8.209c-3.4,2.074-3.995,5.084-4.419,8.277a10.788,10.788,0,0,1-.661-7.7c.7-2.45,1.554-4.894.369-7.781a19.4,19.4,0,0,1-3.761,6.156c-4.359,5.263-5.9,11.009-3.319,17.559A3.536,3.536,0,0,0,1429.767,1399.346Zm5.024,23.782v-.024q-7.847,0-15.7,0c-.964,0-1.975-.236-1.928,1.433.04,1.465.559,1.773,1.907,1.767,10.38-.047,20.761-.028,31.142-.023,1.013,0,1.974.169,1.955-1.437-.017-1.467-.567-1.774-1.934-1.752C1445.089,1423.176,1439.939,1423.128,1434.791,1423.128Z" transform="translate(-0.289 -0.303)" fill="#fdfdfd"/>
      <path id="Trazado_205267" data-name="Trazado 205267" d="M1540.02,1446.424a3.632,3.632,0,0,1-2.152-1.418q-16-15.968-31.994-31.947c-1.264-1.262-2.484-2.571-3.8-3.78-1.486-1.369-1.446-2.6-.031-4.015q11.712-11.676,23.375-23.4c4.168-4.172,8.391-8.292,12.506-12.516,1.568-1.61,2.711-1.586,4.318.037q17.8,17.971,35.722,35.82c2.01,2.016,1.712,2.664-.429,4.7-5.152,4.9-10.111,10-15.145,15.028q-10.02,10-20.034,20A3.916,3.916,0,0,1,1540.02,1446.424Zm1.958-70.818c-2.857,4.775-8.075,7.808-7.685,14.093-1.147-2.106.7-4.9-2.113-6.352-.491,3.607-3.391,6.393-2.861,10.265-1.188-1.592-2.1-3.307-4.377-3.578a11.281,11.281,0,0,1-.667,5.684c-.543,1.847-.986,3.724-1.56,5.561-.86,2.757.065,8.181,1.88,10.62.8-9.148,5.721-14.78,13.914-15.8a14.7,14.7,0,0,1,12.125,4c3.4,3.077,4.846,7.09,5.278,11.587a21.513,21.513,0,0,0-.9-17.623,24.322,24.322,0,0,1-2.257-7.621c-2.008.4-2.291,2.263-3.477,3.613,1.156-3.942-5.3-5.014-2.8-9.406-2.688.794-3.5,2.78-4.289,5.111C1540.956,1382.219,1543.964,1379.108,1541.978,1375.606Zm-10.555,47.3c-2.162,0-3.987-.033-5.811.012-1.047.027-2.4-.553-2.485,1.435-.087,2.064,1.33,1.491,2.347,1.494,9.719.032,19.438.024,29.155.026.5,0,1,.018,1.495-.024,1.4-.118.771-1.2.835-1.9.071-.772-.074-1.2-1.188-1.123a27.325,27.325,0,0,1-6.87-.132c6.7-7.257,6.312-14.939,1.133-20.4a13.825,13.825,0,0,0-19.137-.645C1524.819,1407.216,1524.922,1415.285,1531.423,1422.909Z" transform="translate(-5.091 -0.299)" fill="#fdfdfd"/>
      <path id="Trazado_205268" data-name="Trazado 205268" d="M1434.7,1663.689a2.956,2.956,0,0,1-2.033-1.216q-10.041-10.017-20.089-20.029c-5.222-5.2-10.429-10.415-15.694-15.57-1.759-1.722-1.6-3.049.135-4.762,10.309-10.2,20.532-20.478,30.787-30.729,1.585-1.585,3.265-3.086,4.748-4.762,1.564-1.771,2.787-1.481,4.326.075,7.649,7.738,15.37,15.4,23.059,23.1,4.146,4.151,8.226,8.37,12.44,12.451,1.831,1.774,1.651,3.21-.146,4.744a82.789,82.789,0,0,0-8.234,7.747c-5.939,6.717-12.611,12.661-18.743,19.152-2.681,2.838-5.507,5.54-8.277,8.294A4.07,4.07,0,0,1,1434.7,1663.689Zm-1.7-58.11-.558-.465c.125-.893,2.005-1.605.407-2.65s-1.568.86-2.193,1.467c-1.085,1.052-1.543,2.678-3.244,3.689.725-2.675,1.332-5.03,2.016-7.362.219-.745.315-1.231-.622-1.5-.877-.248-1.241.1-1.409.875a4.829,4.829,0,0,1-.92,2.378c-.731-.855-1.471-1.626-2.1-2.483-.489-.668-.88-.553-1.406-.1-.482.415-.858.764-.277,1.412.663.743,1.175,1.632,1.889,2.317,1.321,1.267,1.594,2.563.3,4.257-.932-1.544-1.835-3.01-2.708-4.493-.394-.67-.784-.974-1.579-.479s-.641.974-.262,1.617c.325.551.861,1.029.76,1.84a12.8,12.8,0,0,1-1.474.093c-.87-.041-1.4.115-1.375,1.2.02,1.022.618,1,1.3,1.016a10.393,10.393,0,0,0,1.492.008c2-.256,2.76.784,2.695,2.6-.031.818.289,1.7-.316,2.654a12.709,12.709,0,0,0-.9-2.174c-.484-.74-.02-2.493-1.8-1.954-1.934.585-.056,1.772-.344,2.63-.04.117-.178.2-.326.361a3.1,3.1,0,0,0-.732-.64c-.9-.38-1.083-2.551-2.591-1.268-1.629,1.387.411,1.925.967,2.6.719.878.793,1.342-.208,1.869-.772.407-1.092.9-.551,1.769.634,1.019,1.319.523,1.811.027,1.176-1.189,1.971-.653,2.81.385.52.643,1.222,1.148,1.7,1.816.964,1.341.626,2.96.32,4.323-.261,1.157-1.716.553-2.617.561-5.572.052-11.144.017-16.715.022-.894,0-1.971-.183-1.934,1.245.037,1.409,1.146.912,1.855.917,5.322.032,10.646-.052,15.966.067,1.169.026,3.117-.938,3.448.69.4,1.948-1.859,1.238-2.9,1.779-.615.321-1.573.23-1.063,1.432.8,1.891,3.788-.623,4.161,2.1.012.092.582.195.856.132.175-.039.342-.356.41-.579.61-2.015,2.115-1.936,3.774-1.745.728.084,1.827.969,2.136-.653.3-1.565-.889-1.283-1.7-1.417-.695-.117-1.074-.423-.967-1.146.1-.68.661-.643,1.152-.645,1.769-.01,3.538,0,5.635,0-.941,1.34-1.68,2.241-2.25,3.238-.9,1.57-1.688,2.871-3.99,2.212-1.437-.411-2.041.473-.972,1.843.778,1,1.237,1.483-.421,2.54-1.277.815-3.147-.259-3.851,1.583-.912,2.385-2.9,2.6-5.081,2.387a4.046,4.046,0,0,0-1.97.1c-.875.4-2.116,1.121-1.852,2.033a2.485,2.485,0,0,0,2.361,1.938c9.891-.062,19.783-.071,29.676-.095,1.912,0,3.826.031,5.738-.007a4.047,4.047,0,0,0,3.5-2.657c.533-1.173-1.135-2.236-1.908-2.422-1.8-.433-2.463-1.862-3.5-2.966-.994-1.053-1.409-2.153-.2-3.447a5.881,5.881,0,0,0,1.478-3.877c.075-1.677.925-2.5,2.72-2.452,3.407.088,6.818.029,10.227.04.764,0,1.479.119,1.481-1.068,0-1.162-.674-1.116-1.46-1.112-2.993.015-5.99-.047-8.98.045-1.417.044-2.033-.277-1.479-1.769a7.577,7.577,0,0,0,.341-1.453c.094-.584.113-1.14-.533-1.508s-1.038-.074-1.542.305a9.292,9.292,0,0,1-2.33,1.387c-1.163.417-2.05.316-1.417-1.363.614-1.626-.1-2.214-1.692-1.816a10.868,10.868,0,0,1-4.186.19,6.3,6.3,0,0,0-4.86,1.524c-.849.674-1.436,1.269-.516,2.409.989,1.226,0,1.936-1.035,1.99-2.668.14-5.348.047-8.273.047.718-1.4,1.208-2.451,1.775-3.455,1.381-2.443,1.871-5.98,6.1-5,.66.154.8-.414.793-.961-.012-.609-.051-1.147-.906-1.174-.614-.02-1.3.26-1.825-.213-.373-1.324,2.265-2.615.3-3.6-2.038-1.017-1.433,2.07-2.8,2.428-.379-.012-.333-.316-.318-.529.08-1.093-.707-.929-1.342-.915-.927.019-.663.765-.72,1.292-.231,2.139.554,4.437-.874,6.4-.242-1.854-.188-3.681-.257-5.5a3.445,3.445,0,0,1,2.6-3.739,20.818,20.818,0,0,0,2.793-1.045c.672-.344,2.036-.1,1.6-1.64S1433.755,1605.671,1433,1605.579Z" transform="translate(-0.299 -10.182)" fill="#fdfdfd"/>
      <path id="Trazado_205269" data-name="Trazado 205269" d="M1540.184,1585.34c.791-.025,1.284.579,1.807,1.1q18.156,18.166,36.32,36.324c1.329,1.325,1.168,2.39-.048,3.6-8.377,8.3-16.785,16.575-25.1,24.942-3.684,3.71-7.389,7.4-11.075,11.1-1.795,1.8-2.859,1.307-4.291-.132q-10.956-11.009-21.953-21.976c-4.47-4.468-8.958-8.918-13.412-13.4-2.041-2.054-2.026-2.663.009-4.7q8.843-8.873,17.706-17.726,8.767-8.782,17.53-17.567C1538.373,1586.208,1538.978,1585.34,1540.184,1585.34Zm-22.28,49.634c.274,1.218-.677,3.065.949,4.663q9.959,9.786,19.73,19.766c1.145,1.166,1.829,1.21,2.985.035,6.589-6.7,13.243-13.333,19.892-19.973a3.063,3.063,0,0,0,1.182-2.346c-.07-1.994-.064-3.99-.138-5.983a4.333,4.333,0,0,0-3.214-4.235,123.783,123.783,0,0,0-12.316-3.98c-1.221-.3-1.494-.8-1.619-1.979-.347-3.28,2.911-5.418,2.565-8.642,3.138-2.645,1.728-6.306,2.046-9.548a6.616,6.616,0,0,0-1.96-4.973c-2.759-3.1-8.549-4.094-12.726-2.206-3.759,1.7-5.735,5.273-5.137,9.842.315,2.414.089,4.792,1.963,7.151,1.189,1.5,1.713,4.134,2.583,6.257,1,2.452.043,3.653-2.551,4.469-3.536,1.113-7.017,2.4-10.564,3.477a4.737,4.737,0,0,0-3.666,4.966C1517.89,1632.65,1517.9,1633.565,1517.9,1634.974Z" transform="translate(-5.088 -10.179)" fill="#fdfdfd"/>
      <path id="Trazado_205270" data-name="Trazado 205270" d="M1645.722,1446.455a3.473,3.473,0,0,1-2.269-1.368q-10.412-10.378-20.827-20.751-7.306-7.286-14.59-14.594c-2.468-2.472-2.462-2.581.078-5.127,6.224-6.238,12.583-12.349,18.635-18.75,5.206-5.507,10.905-10.5,16.085-16.029,2.369-2.528,2.776-2.481,5.175-.081q17.805,17.8,35.607,35.6c1.522,1.517,1.193,2.68-.18,3.985-8.3,7.883-16.134,16.229-24.507,24.049-3.894,3.638-8.094,7.138-11.243,11.576A3.36,3.36,0,0,1,1645.722,1446.455Zm13.5-40.647c-.109-1.021.113-2.431-.356-2.719-1.585-.973-.714-1.592-.034-2.462a11.728,11.728,0,0,0-1.7-15.757c-5.131-4.393-15.947-4.9-21.882-1.036a11.378,11.378,0,0,0-2.576,17.023c.434.535.54,1.416.3,1.518-1.71.713-.684,2.3-1.22,3.413-1.849-.089-2.724-1.107-3.069-2.881a3.022,3.022,0,0,0-3.665-2.572,3.171,3.171,0,0,0-3,3.376c-.018.721.135,1.353-.692,1.908a3.157,3.157,0,0,0-.923,4.771c1.232,1.868,3.031,1.806,4.845.875.688-.352,1.3-.709,2.093-.331,2.546,1.212,5.172,2.277,7.632,3.642,1.957,1.086,1.814,1.97-.142,2.969-1.147.585-2.178.988-3.486.231-1.693-.98-3.462-.88-4.637.848a3.283,3.283,0,0,0,.849,4.828,1.592,1.592,0,0,1,.752,1.6,3.2,3.2,0,0,0,2.947,3.658c2.163.329,3.444-.862,3.895-2.948a2.5,2.5,0,0,1,1.451-2.131c2.465-1.033,4.672-2.761,7.688-1.92a9.949,9.949,0,0,0,3.956-.11c2.721-.4,6.855,1.992,7.745,4.6a3.251,3.251,0,0,0,3.787,2.483,3.069,3.069,0,0,0,2.916-3.171,2.768,2.768,0,0,1,1.12-2.449,3.124,3.124,0,0,0,.7-4.268c-.92-1.579-2.612-2.268-4.059-1.385-2.392,1.461-4.04.246-5.9-.826a4.2,4.2,0,0,1,2.54-2.627c1.6-.691,3.188-1.417,4.734-2.22,1.524-.791,2.9-1.3,4.641-.294a2.9,2.9,0,0,0,4.122-1.114,3.2,3.2,0,0,0-.53-4.489,2.549,2.549,0,0,1-1.114-2.233,3.074,3.074,0,0,0-3.023-3.317,2.985,2.985,0,0,0-3.626,2.611A3.157,3.157,0,0,1,1659.22,1405.809Z" transform="translate(-9.878 -0.29)" fill="#fdfdfd"/>
      <path id="Trazado_205271" data-name="Trazado 205271" d="M1473.783,1515.549c.049,1.5-.974,2.11-1.708,2.845q-16.112,16.146-32.264,32.251c-.118.117-.24.23-.359.346-5.385,5.278-4.068,5.59-9.784-.1q-16.339-16.256-32.648-32.542c-2.061-2.054-2.084-2.7-.1-4.684q17.679-17.709,35.379-35.4c2.267-2.262,2.486-2.236,4.782.058q17.624,17.616,35.233,35.25C1472.944,1514.21,1473.783,1514.718,1473.783,1515.549Zm-41.379,6.25c-.956-.024-1.7.3-1.646,1.376.057,1.052.9,1.306,1.79,1.311,3.063.016,6.127.007,9.19.007a53.092,53.092,0,0,1-6.723.463c-1.144.07-3.148-.848-3.136,1.25.011,1.94,2.029,1.1,3.189,1.431-1.126,2.483-.836,2.94,1.99,2.951,4.821.021,9.66-.238,14.459.085a8.932,8.932,0,0,0,8.368-3.526,82.4,82.4,0,0,1,6.023-6.127,24.074,24.074,0,0,0-2.953.017,6.3,6.3,0,0,1-6.087-2.4c-2.1-2.348-4.5-4.427-6.789-6.6-.992-.941-2.065-2.487-3.5-1-1.3,1.344.089,2.4,1.062,3.281.958.872,1.982,1.671,3.482,2.925-2.959.549-5.227.307-6.434,2.562-.254.474-1.013.193-1.592-.063-3.066-1.354-6.337-1.166-9.56-1.034-1.749.072-2.524.891-.934,2.431Zm-26.163,1.694c3.6,4.711,7.268,8.544,13.653,7.127a12.868,12.868,0,0,1,2.727-.029c4.1,0,4.1,0,4.076-3.975-.022-3.439-.2-3.987-3.357-2.987a14.723,14.723,0,0,1-8.882,0C1411.991,1522.964,1409.2,1523.493,1406.241,1523.493Zm17.982-28.9c-.068,2.894,1.605,4.179,4.081,3.772,3.682-.6,7.356-1.264,11.028-1.931,1.208-.22,2.279-.6,3.5.362.725.571,2.064.5,1.749-1.21-.39-2.121-.813-4.236-1.174-6.362-.253-1.49-1.464-1.376-1.859-.617-.9,1.728-2.458,1.511-3.828,1.777-3.419.665-6.868,1.182-10.3,1.786C1425.646,1492.485,1424.271,1493.254,1424.223,1494.6Zm9.7,16.465c1.938.125,3.274-.611,3.588-2.611s-.7-3.167-2.6-3.552c-2.431-.494-4.928-.724-7.313-1.376-2.612-.714-5.67.037-7.821-2.38-.35-.393-1.388-.418-1.535.787-.221,1.806-.668,3.583-.9,5.388-.087.676-.758,1.524.014,2.06a1.7,1.7,0,0,0,2.24-.426c.589-.585,1.241-.189,1.872-.077Zm-15.087,6.154c-.639,1.432-1.112,2.35-1.458,3.313a1.428,1.428,0,0,0,.62,1.72,1.349,1.349,0,0,0,1.607.026,1.4,1.4,0,0,0,.659-1.7C1419.935,1519.609,1419.474,1518.686,1418.84,1517.215Zm-2.077-6.053c-.561,1.231-.915,1.965-1.233,2.716a1.648,1.648,0,0,0,.4,2.2,1.314,1.314,0,0,0,1.6.052,1.566,1.566,0,0,0,.569-2.144C1417.767,1513.182,1417.358,1512.407,1416.763,1511.161Zm26.162-.018c-.5,1.414-2.272,2.532-.964,4.237a1.243,1.243,0,0,0,1.982.04C1445.222,1513.767,1443.624,1512.54,1442.925,1511.143Zm1.754-12.982c-.353,1.451-2.382,2.627-.755,4.25a1.243,1.243,0,0,0,1.807-.117C1447.02,1500.619,1445.383,1499.5,1444.68,1498.161Zm-3.263,6.757c-.436,1.061-.863,1.949-1.161,2.878a1.323,1.323,0,0,0,.648,1.687,1.448,1.448,0,0,0,1.633-.105,1.375,1.375,0,0,0,.475-1.745C1442.577,1506.733,1442.435,1505.657,1441.417,1504.918Z" transform="translate(-0.291 -5.232)" fill="#fdfdfd"/>
      <path id="Trazado_205272" data-name="Trazado 205272" d="M1540.01,1476.662c.869-.066,1.347.536,1.882,1.062,3.363,3.3,6.387,6.966,9.828,10.143,8.677,8.016,16.655,16.722,25.177,24.881,3.212,3.075,3.168,3.832-.462,6.292-1.594,1.08-2.455,2.9-3.777,4.235-10.156,10.237-20.424,20.365-30.585,30.6-1.769,1.781-2.982,1.08-4.374-.317q-11.156-11.2-22.341-22.375c-4.269-4.271-8.555-8.522-12.808-12.807-2.215-2.232-2.215-2.715-.063-4.87q17.646-17.684,35.312-35.348C1538.433,1477.522,1539,1476.752,1540.01,1476.662Zm5.694,50.535-1.517-.947c-2.547-1.623-3.55-1.387-4.584,1.079-1.206-.846-1.7-1.679-.227-2.816,1.008-.779.193-1.188-.517-1.5-.461-.2-1.4,1.034-1.387-.332.009-.6.711-1.118,1.615-1.192,1.056-.087,2.411-.5,2.441-1.681.031-1.271.77-1.068,1.405-1.147,5.763-.725,11.531-1.412,17.3-2.12,4.818-.592,9.634-1.2,14.968-1.862-2.127-2.089-3.781-3.829-5.571-5.416-.694-.615-.939-1.975-2.317-1.654.579-.595-.12-.82-.379-1.074-.345-.341-.694-1.037-1.354-.412-.4.379-1,.789-.66,1.4.374.67.99.143,1.509.064a6.647,6.647,0,0,1,.947-.015c.092.757-.387.9-1,1.1-3.291,1.112-6.6,2.192-9.817,3.5-1.517.615-1.781.2-1.879-1.2-.062-.91-.242-1.961-1.434-2.046l10.9-5.4-2.676-2.446c-.415-.38-.723-.843-1.451-.381-3.625,2.3-6.485,5.615-10.593,7.4-1.177.513-2.584,2.479-3.951,3.767a1.42,1.42,0,0,0,1.613.093c1.176-.6,2.334-1.437,3.268.372.081.158.777.1,1.141-.01a.809.809,0,0,1,1.141.607c.224.745-.537.8-.891.893-5.189,1.369-9.837,4.748-15.536,4.213a1.435,1.435,0,0,0-1.471.64c-.57.787-1.2.059-1.753-.15s-.59-.779-.49-1.269c.129-.634.786-1.187,1.213-1.036,3.972,1.395,2.652-1.437,2.645-3.225,1.846.817,3.686,1.36,5.481-.125q7.169-5.758,14.335-11.519c3.3-2.663,3.285-2.678-.1-5.426-4.886,5.544-10.181,10.727-14.814,16.507-.262-.066-.812.229-.71-.312.416-2.2.614-4.361,2.35-6.213,2.6-2.771,4.809-5.9,7.176-8.886,3.392-4.276,3.354-4.241-.583-7.968-1.138-1.077-1.534-1.013-2.138.462-2.7,6.581-5.5,13.119-8.287,19.663-.308.725-.376,1.933-1.306,1.913-1.715-.037-1.249,1.085-1.342,1.971-1.428-.052-.882-.914-.7-1.658,2.172-8.694,4.183-17.431,6.59-26.058.777-2.788-.246-4.077-2.461-5.523-.676,4.208-1.326,8.167-1.943,12.131-.636,4.08-1.237,8.166-1.862,12.247-.166,1.085-.293,2.209-1.911,1.839-.681-.156-1.4.627-1.317.84.475,1.207-.72,2.329-.073,3.473.183.324.469.351.838.231.482-.157,1.168-1.2,1.416.189.237,1.325-1.08,2-1.39,3.112-.547-.422-1.245,1.1-1.927-.334a15.394,15.394,0,0,1-1.183-2.865c-1.387-5.625-2.764-11.252-4.158-16.93-1.444.6-1.656,1.486-1.23,2.808,1.466,4.55,2.83,9.133,4.273,13.69.6,1.893,1.446,3.694-.883,5.174-.655.415-.841,1.567-1.243,2.382-.122-.092-.243-.185-.364-.279-.094-.7.146-1.662-.856-1.779a1.549,1.549,0,0,0-1.445.812c-.824,1.573.531,2.527,1.307,3.869l-18.094-.786c2.53,3.142,2.531,3.151,5.843,2.841,3.885-.364,7.777-.665,11.646-1.152a8.132,8.132,0,0,1,4.461,1.016c-4.007.566-6.912,3.576-10.794,4.636-.126-.739-.037-1.533-.388-1.982-.631-.806-1.477-1.655-2.679-1.117-.426.19-1.318.473-.924,1.187.945,1.707,1.112,3.747,2.938,5.119,1.309.984,1.905,1.022,2.993-.054,1.53-1.515,3.216-2.871,4.831-4.3,1.425-1.262,2.782-1.875,4.53-.332a5.139,5.139,0,0,0,4.456,1.144c1.586-.334,2.4.416,3.312,1.489q5.4,6.353,10.946,12.586c.428.483.715,1.773,1.84.768,1.063-.949-.026-1.467-.481-1.986-3.039-3.462-6.126-6.882-9.393-10.534,2.517.755,2.13-1.4,2.89-2.35a2.262,2.262,0,0,0,1.414,1.09c1.671,1.879,4.227,2.725,5.679,4.86-.506.305-.951-.068-1.415-.146-.911-.153-1.955-1.043-2.695-.062-.929,1.233.536,1.877,1.087,2.664,1.244,1.774,4.706,1.629,4.058,5.2.747-1.115,1.634-1.46,2.047-2.658.853-2.477-1.725-2.584-2.161-4.038,1.28-.483,1.861.678,2.536,1.263,1.444,1.254,2.491,1.33,3.45-.651Zm21.084-2.068a74.443,74.443,0,0,1-8.078-1.163c-3.486-.887-7.681.658-10.281-3.6-1.278-2.094-3.467-.5-5.2.577-.693.429-2,.08-1.833,1.436.143,1.147,1.149,1.554,2.168,1.691a5.911,5.911,0,0,1,3.474,1.727,1.474,1.474,0,0,0,2.613-.988c-.075-1.216.53-.681.933-.585a2.233,2.233,0,0,1,1.653,1.987c.069,1.313-1.815.427-2.122,1.31,1.947,2.982,5.612,2.911,8.152,4.83.712.537,1.5.61,1.858-.244.4-.955-.647-.872-1.147-1.1-1.609-.724-3.242-1.4-4.653-2,1.629-4.912,4.877-2.55,7.554-1.763C1564.1,1527.9,1565.51,1527.422,1566.789,1525.13Zm-8.115-4.848v.537a60.936,60.936,0,0,1,8.446.932c3.171.781,4.576-.942,6.278-3.328Zm-39.542-3.036.123-.574c-3.59-1.012-7.2-1.976-10.765-3.057-1.635-.5-2.845-.3-3.667,1.682Zm5.95,11.893-.539-.4q-1.5,1.783-3,3.566c-.326.387-.7.8-.121,1.24.475.359.751-.089.968-.4C1523.3,1531.815,1524.187,1530.473,1525.081,1529.139Zm31.062-7.841c-1.039-1.785-2.362-1.086-3.581-.748a.462.462,0,0,0-.1.8,2.922,2.922,0,0,0,3.219.277C1555.819,1521.54,1555.947,1521.437,1556.143,1521.3Zm-30.593,10.568-.486-.272c-.618.946-1.226,1.9-1.857,2.834a.663.663,0,0,0,.173,1.045c.548.325.681-.214.832-.546C1524.678,1533.915,1525.107,1532.887,1525.55,1531.866Zm.072-3.4-.132-.471a2,2,0,0,0-.518.256c-.052.046.049.26.079.4Z" transform="translate(-5.087 -5.235)" fill="#fdfdfd"/>
      <path id="Trazado_205273" data-name="Trazado 205273" d="M1646.859,1489.9a7.857,7.857,0,0,1,7.933,9.062,117.051,117.051,0,0,1-2.94,13.021c-.917,3.2-1.584,6.568-2.257,9.883-.3,1.482-.851,2.8-2.631,2.795-1.809,0-2.212-1.405-2.568-2.845-1.83-7.407-3.877-14.764-5.107-22.307C1638.452,1494.37,1641.927,1490,1646.859,1489.9Z" transform="translate(-11.378 -5.838)" fill="#2f2d2b"/>
      <path id="Trazado_205274" data-name="Trazado 205274" d="M1646.728,1541.474c-3.913.158-5.1-2.252-5.442-5.726-.32-3.222,2.515-5.825,5.815-5.85a5.788,5.788,0,0,1,5.832,5.607A5.987,5.987,0,0,1,1646.728,1541.474Z" transform="translate(-11.473 -7.657)" fill="#2f2d2b"/>
      <path id="Trazado_205275" data-name="Trazado 205275" d="M1627.071,1637.524a5.812,5.812,0,0,1-5.538-4.561,5.422,5.422,0,0,1,3.332-6.26c3.514-1.472,7.106-2.76,10.666-4.124,6.662-2.555,13.336-5.079,19.979-7.681,2.176-.851,4.255-.943,6.126.519a1.9,1.9,0,0,0,2.227.119c1.385-.56,2.787-1.08,4.193-1.587a1.8,1.8,0,0,1,2.491.986,1.844,1.844,0,0,1-1.1,2.642c-.685.3-1.384.562-2.084.823-1.909.712-3.675,1.21-4.245,3.82-.63,2.884-3.841,3.349-6.1,4.164-7.922,2.854-15.693,6.083-23.58,9.015A32,32,0,0,1,1627.071,1637.524Z" transform="translate(-10.569 -11.473)" fill="#2f2d2b"/>
      <path id="Trazado_205276" data-name="Trazado 205276" d="M1431.026,1399.417c-2.577-6.55-1.04-12.3,3.319-17.559a19.4,19.4,0,0,0,3.761-6.156c1.185,2.887.333,5.331-.369,7.781a10.788,10.788,0,0,0,.661,7.7c.425-3.194,1.022-6.2,4.419-8.277a8.04,8.04,0,0,0,1.875,8.209,6.374,6.374,0,0,1,.931,5.716c-.106.447-.661.979-.1,1.291.529.294,1.079-.084,1.482-.594,1.113-1.409,1.992-3.131,4.451-3.327-1.552,2.974-.121,5.457.981,7.99a20.173,20.173,0,0,1,1.852,11c-.724,5.155-4.7,8.822-9.637,8.581.763-.664,1.351-1.125,1.88-1.648,2.149-2.119,2.239-4.7,1.545-7.4a19.939,19.939,0,0,1-.954-3.562c-.035-.509.318-1.29-.42-1.519s-1.164.462-1.636.911c-.958.912-1.459,2.475-3.222,2.333.866-4.726.82-5.351-.747-9.994-1.538,1.968.228,5.05-2.507,6.809-.141-3.357.145-6.67-3.162-9.388.058,5.192-2.291,9.814-.189,14.867-2.442-.175-3.186-1.991-4.109-3.566-.907-1.546-1.234-3.451-3.145-4.825,0,1.6.1,2.944-.022,4.27-.245,2.644-1.029,3.161-3.318,2-1.061-.536-1.265-.225-1.5.66-1.105,4.206-1.483,5.534,4.148,9.929-2.723.654-4.764-.383-6.552-2.058-3.812-3.571-4.742-9.049-2.609-14.692.7-1.862,1.46-3.767,1.228-5.791-.213-1.86.628-1.486,1.7-1.04,1.171.486,1.609,1.922,3.5,2.382-3.361-5.417,1.023-9.362,2.25-13.889,1.46.66,1.52,2.255,1.587,3.807.1,2.32-.074,4.671.774,6.9a4.005,4.005,0,0,0,1.58,2.419c.052.2.03.514.363.353C1431.17,1400.012,1431.058,1399.633,1431.026,1399.417Z" transform="translate(-1.271 -0.642)" fill="#2f2d2b"/>
      <path id="Trazado_205277" data-name="Trazado 205277" d="M1435.827,1425.743c5.149,0,10.3.048,15.446-.032,1.367-.021,1.917.285,1.934,1.752.019,1.606-.942,1.438-1.955,1.438-10.38,0-20.761-.024-31.142.023-1.348.007-1.867-.3-1.907-1.767-.047-1.668.964-1.431,1.928-1.433q7.848-.016,15.7,0Z" transform="translate(-1.326 -2.917)" fill="#2f2d2b"/>
      <path id="Trazado_205278" data-name="Trazado 205278" d="M1543,1375.961c1.986,3.5-1.021,6.613.215,10.151.786-2.332,1.6-4.317,4.289-5.111-2.5,4.392,3.954,5.464,2.8,9.406,1.186-1.35,1.469-3.215,3.477-3.613a24.322,24.322,0,0,0,2.257,7.621,21.513,21.513,0,0,1,.9,17.623c-.432-4.5-1.879-8.509-5.278-11.587a14.7,14.7,0,0,0-12.125-4c-8.193,1.024-13.111,6.656-13.914,15.8-1.815-2.439-2.74-7.863-1.88-10.62.574-1.837,1.017-3.714,1.56-5.561a11.281,11.281,0,0,0,.667-5.684c2.273.27,3.189,1.985,4.377,3.578-.53-3.871,2.37-6.658,2.861-10.265,2.816,1.449.966,4.246,2.113,6.352C1534.923,1383.769,1540.142,1380.736,1543,1375.961Zm7.259,15.141.158-.167a1.419,1.419,0,0,0-.294-.148c-.033-.009-.1.094-.145.146Z" transform="translate(-6.112 -0.654)" fill="#2f2d2b"/>
      <path id="Trazado_205279" data-name="Trazado 205279" d="M1532.478,1424.337c-6.5-7.625-6.6-15.693-.525-21.264a13.825,13.825,0,0,1,19.137.645c5.179,5.464,5.564,13.146-1.133,20.4a27.325,27.325,0,0,0,6.87.132c1.115-.075,1.259.351,1.188,1.123-.064.7.564,1.784-.835,1.9-.5.042-1,.024-1.495.024-9.718,0-19.437.006-29.155-.026-1.017,0-2.434.57-2.347-1.494.083-1.987,1.438-1.408,2.485-1.435C1528.491,1424.3,1530.316,1424.337,1532.478,1424.337Zm-2.47-11.051a11.081,11.081,0,0,0,11.163,11.051c5.751-.013,11.028-4.3,11.08-11.433.043-5.881-5.161-10.792-11.176-10.752A11.123,11.123,0,0,0,1530.008,1413.286Z" transform="translate(-6.147 -1.727)" fill="#2f2d2b"/>
      <path id="Trazado_205280" data-name="Trazado 205280" d="M1433.321,1606.211c.753.093,1.762-.992,2.2.553s-.925,1.3-1.6,1.64a20.818,20.818,0,0,1-2.793,1.045,3.445,3.445,0,0,0-2.6,3.739c.069,1.822.014,3.649.257,5.5,1.429-1.962.643-4.26.874-6.4.057-.528-.207-1.273.72-1.292.635-.013,1.422-.177,1.342.915-.015.213-.061.516.314.528,1.375-.357.77-3.444,2.808-2.427,1.966.981-.672,2.273-.3,3.6.523.473,1.211.193,1.825.213.855.027.893.565.906,1.174.01.547-.134,1.115-.793.961-4.226-.981-4.715,2.555-6.1,5-.567,1-1.058,2.052-1.775,3.455,2.925,0,5.6.094,8.273-.047,1.039-.054,2.024-.765,1.035-1.99-.92-1.141-.334-1.735.516-2.409a6.3,6.3,0,0,1,4.86-1.524,10.868,10.868,0,0,0,4.186-.19c1.6-.4,2.306.19,1.692,1.816-.634,1.679.253,1.78,1.417,1.363a9.292,9.292,0,0,0,2.33-1.387c.5-.379.9-.672,1.542-.305s.626.924.533,1.508a7.577,7.577,0,0,1-.341,1.453c-.555,1.492.062,1.813,1.479,1.769,2.99-.092,5.987-.03,8.98-.045.786,0,1.464-.05,1.46,1.112,0,1.188-.718,1.071-1.481,1.068-3.409-.011-6.82.048-10.227-.04-1.8-.046-2.645.775-2.72,2.452a5.881,5.881,0,0,1-1.478,3.877c-1.206,1.293-.79,2.394.2,3.447,1.041,1.1,1.7,2.532,3.5,2.966.773.185,2.441,1.249,1.908,2.422a4.047,4.047,0,0,1-3.5,2.657c-1.912.037-3.826,0-5.738.007-9.893.024-19.784.032-29.676.095a2.485,2.485,0,0,1-2.361-1.938c-.264-.912.976-1.63,1.852-2.033a4.046,4.046,0,0,1,1.97-.1c2.185.215,4.168,0,5.081-2.387.7-1.841,2.574-.767,3.851-1.583,1.658-1.057,1.2-1.543.421-2.54-1.069-1.37-.466-2.255.972-1.843,2.3.66,3.092-.641,3.99-2.212.57-1,1.309-1.9,2.25-3.238-2.1,0-3.867-.006-5.635,0-.492,0-1.051-.035-1.152.645-.107.723.272,1.029.967,1.146.81.135,2-.148,1.7,1.417-.309,1.622-1.408.737-2.136.653-1.659-.191-3.164-.27-3.774,1.745-.068.223-.235.54-.41.579-.274.063-.844-.04-.856-.132-.372-2.727-3.36-.213-4.161-2.1-.51-1.2.449-1.111,1.063-1.432,1.039-.541,3.294.169,2.9-1.779-.33-1.628-2.278-.664-3.448-.69-5.32-.118-10.644-.034-15.966-.067-.708,0-1.817.492-1.855-.917-.037-1.428,1.039-1.244,1.934-1.245,5.572,0,11.144.031,16.715-.022.9-.009,2.357.6,2.617-.561.306-1.363.644-2.982-.32-4.323-.48-.668-1.182-1.173-1.7-1.816-.839-1.038-1.634-1.574-2.81-.385-.492.5-1.177.993-1.811-.027-.541-.869-.221-1.362.551-1.769,1-.527.927-.991.208-1.869-.556-.679-2.6-1.217-.967-2.6,1.508-1.284,1.689.888,2.591,1.268a3.1,3.1,0,0,1,.732.64c.148-.159.285-.243.326-.361.287-.858-1.59-2.045.344-2.63,1.778-.539,1.314,1.214,1.8,1.954a12.709,12.709,0,0,1,.9,2.174c.605-.958.285-1.836.316-2.654.066-1.812-.7-2.851-2.695-2.6a10.393,10.393,0,0,1-1.492-.008c-.684-.012-1.283.007-1.3-1.016-.021-1.086.505-1.243,1.375-1.2a12.8,12.8,0,0,0,1.474-.093c.1-.811-.435-1.29-.76-1.84-.379-.643-.533-1.122.262-1.617s1.185-.191,1.579.479c.872,1.483,1.775,2.948,2.708,4.493,1.294-1.694,1.021-2.99-.3-4.257-.714-.684-1.226-1.574-1.889-2.317-.581-.648-.205-1,.277-1.412.526-.453.917-.569,1.406.1.625.856,1.365,1.627,2.1,2.483a4.829,4.829,0,0,0,.92-2.378c.168-.777.532-1.123,1.409-.875.937.264.841.75.622,1.5-.684,2.332-1.291,4.688-2.016,7.362,1.7-1.011,2.158-2.637,3.244-3.689.625-.607.58-2.52,2.193-1.467s-.282,1.756-.407,2.65c-.076.2-.275.511-.208.587C1432.82,1606.636,1433.092,1606.45,1433.321,1606.211Zm19.556,16.893c-.364-.663-.847-.243-1.284-.132-3.361.86-4.035.463-4.8-2.934a3.8,3.8,0,0,0-2.485,4.38,4.034,4.034,0,0,0,3.49,3.438c1.927.381,3.155-.651,3.955-2.3.392-.8.742-1.63,1.106-2.446l-.166-.428-.185.21Zm-10.343-.877a33.843,33.843,0,0,0-8.132,8.993c-.266.391-1.075,1.261-.427,1.352,1.313.183.726,2.359,2.445,1.9,3.982-1.074,7.907-2.24,11.5-4.7C1443.757,1628.479,1442.606,1626.906,1442.534,1622.227Zm5.852,9.882c-2.4,1.2-5.046,1.835-7.238,3.416C1443.872,1635.036,1446.428,1634.186,1448.386,1632.109Zm-17.933,2.012c.913,1.015,1.276,2.1,2.315,2.712C1433.67,1634.72,1432.968,1633.9,1430.452,1634.121Z" transform="translate(-0.618 -10.815)" fill="#2f2d2b"/>
      <path id="Trazado_205281" data-name="Trazado 205281" d="M1518.712,1635.416c0-1.41-.014-2.324,0-3.239a4.737,4.737,0,0,1,3.666-4.966c3.548-1.073,7.028-2.364,10.564-3.477,2.594-.816,3.555-2.017,2.551-4.469-.87-2.123-1.394-4.759-2.583-6.257-1.875-2.359-1.648-4.737-1.963-7.151-.6-4.569,1.378-8.143,5.137-9.842,4.177-1.888,9.967-.892,12.726,2.206a6.616,6.616,0,0,1,1.96,4.973c-.319,3.242,1.092,6.9-2.046,9.548.346,3.224-2.911,5.363-2.565,8.642.125,1.184.4,1.679,1.619,1.979a123.783,123.783,0,0,1,12.316,3.98,4.333,4.333,0,0,1,3.214,4.235c.074,1.993.069,3.989.138,5.983a3.063,3.063,0,0,1-1.182,2.346c-6.649,6.64-13.3,13.274-19.892,19.973-1.156,1.175-1.839,1.131-2.985-.035q-9.783-9.964-19.73-19.766C1518.036,1638.481,1518.986,1636.634,1518.712,1635.416Zm21.429,8.74c1.947.1,2.281-2.006,2.171-2.693-.388-2.4.93-2.329,2.474-2.295.867,1.771,3.631.227,4.249,2.433a2.059,2.059,0,0,0,.62-.268c.392-.362-.048-.436-.226-.665-1.236-1.584-2.891-1.725-4.687-1.448-.682-1.054,1.162-1.1.811-1.654-1.116-1.762-.139-2.6,1.128-3.6.609-.477.137-1.579-.156-1.96-.463-.6-.983.133-1.268.614-.688,1.164-1.4.72-2.261.187a3.257,3.257,0,0,1-1.318-3.6c.266-1.789-.7-3.041-1.316-5.054-.25,3.633,0,6.757-2.017,9.421-.413.545-.87,1.141-1.139.35-.977-2.87-4.229-1.264-5.645-3.16.945.839,1.5,1.914,2.788,2.537.979.475,3.4,1.473,2.235,3.516a12.9,12.9,0,0,1-3.477,3.392c-.386.3-.978.307-.619.914.323.548.791.306,1.262,0a20.288,20.288,0,0,1,2.267-1.441c1.268-.605,3-.506,3.147.251.274,1.429,2.736,2.477.941,4.278l.081.071Z" transform="translate(-5.897 -10.622)" fill="#2f2d2b"/>
      <path id="Trazado_205282" data-name="Trazado 205282" d="M1659.864,1406.442a3.157,3.157,0,0,0,3.088-2.9,2.985,2.985,0,0,1,3.626-2.611,3.074,3.074,0,0,1,3.023,3.317,2.549,2.549,0,0,0,1.114,2.233,3.2,3.2,0,0,1,.53,4.489,2.9,2.9,0,0,1-4.122,1.114c-1.742-1.006-3.116-.5-4.641.294-1.546.8-3.135,1.529-4.734,2.22a4.2,4.2,0,0,0-2.54,2.627c1.856,1.072,3.5,2.287,5.9.826,1.447-.883,3.139-.194,4.059,1.385a3.124,3.124,0,0,1-.7,4.268,2.768,2.768,0,0,0-1.12,2.449,3.069,3.069,0,0,1-2.916,3.171,3.251,3.251,0,0,1-3.787-2.483c-.889-2.611-5.023-5.006-7.745-4.6a9.949,9.949,0,0,1-3.956.11c-3.015-.841-5.223.888-7.688,1.92a2.5,2.5,0,0,0-1.451,2.131c-.451,2.087-1.732,3.278-3.895,2.948a3.2,3.2,0,0,1-2.947-3.658,1.592,1.592,0,0,0-.752-1.6,3.283,3.283,0,0,1-.849-4.828c1.175-1.728,2.944-1.828,4.637-.848,1.308.757,2.339.354,3.486-.231,1.956-1,2.1-1.882.142-2.969-2.461-1.365-5.087-2.43-7.632-3.642-.8-.378-1.405-.021-2.093.331-1.815.931-3.613.993-4.845-.875a3.157,3.157,0,0,1,.923-4.771c.827-.556.674-1.187.692-1.908a3.171,3.171,0,0,1,3-3.376,3.022,3.022,0,0,1,3.665,2.572c.344,1.774,1.22,2.792,3.069,2.881.536-1.112-.491-2.7,1.22-3.413.245-.1.138-.983-.3-1.518a11.378,11.378,0,0,1,2.576-17.023c5.935-3.869,16.751-3.357,21.882,1.036a11.728,11.728,0,0,1,1.7,15.757c-.68.87-1.551,1.489.034,2.462C1659.976,1404.01,1659.755,1405.42,1659.864,1406.442Zm-21.336,8.162c-.983-1.339-.678-3.12-1.6-5.166-.2,2.439-.529,4.229,1.2,5.534,1.857,3.5,4.3,6.059,8.709,5.776,3.984-.257,5.778-3.176,7.662-6.034,1.3-1.383,1.178-2.961.712-5.334-.493,2.125-.819,3.535-1.144,4.943A10.789,10.789,0,0,1,1638.527,1414.6Zm20.04-15.921c2.777-5.2,1.083-10.891-4.086-13.282a18.617,18.617,0,0,0-17.289.341,9.477,9.477,0,0,0-3.44,13.336c0-1.276,0-2.243,0-3.21a.79.79,0,0,1,.915-.893c.46.009.88.16.84.672-.229,2.942.831,6.008-.6,8.819-1.126,2.219-.664,3.3,1.854,3.536,2.015.188,3.84.625,4.319,2.976.211,1.032,1.021,1.25,1.808,1.438a13.474,13.474,0,0,0,6.421.043c.739-.183,1.648-.378,1.789-1.159.533-2.961,2.747-3.133,5.063-3.326a1.986,1.986,0,0,0,1.629-3.022c-2.087-2.914-.573-6.134-1.01-9.174-.094-.652.4-.808.968-.8.661.016.825.4.818.976C1658.559,1396.866,1658.567,1397.775,1658.567,1398.682Zm-1.173,14.139,3.03-1.413c2.422-1.128,4.742-2.888,7.559-.814.69.508,1.475-.044,1.884-.7a1.445,1.445,0,0,0-.459-2.169c-1.555-.661-2.242-1.429-1.575-3.183.328-.863-.3-1.612-1.194-1.871a1.383,1.383,0,0,0-1.9,1.1c-.27,3.382-3.02,4.108-5.39,5.088C1657.5,1409.622,1656.676,1410.615,1657.394,1412.821Zm-22.272-1.573c.37-1.567-.954-1.733-1.859-2.174-2.478-1.21-5.435-1.809-5.784-5.4-.081-.842-1.06-1.255-1.992-.864a1.48,1.48,0,0,0-1,1.977c.542,1.448.295,2.3-1.322,2.808a1.462,1.462,0,0,0-.726,2.278,1.5,1.5,0,0,0,2.327.583c1.845-1.38,3.559-.789,5.327.155,1.168.624,2.408,1.114,3.594,1.707C1634.92,1412.939,1635.353,1412.548,1635.122,1411.248Zm5.083,9.621c-.953-1.712-2.017-2.378-3.783-1.222s-3.617,1.561-5.547.184a1.356,1.356,0,0,0-2.106.579,1.519,1.519,0,0,0,.672,2.319c1.262.5,2.055,1.029,1.442,2.527a1.56,1.56,0,0,0,1.16,2.306,1.609,1.609,0,0,0,2.05-1.608c.117-2.137,1.528-2.969,3.195-3.686C1638.267,1421.848,1639.211,1421.35,1640.2,1420.87Zm11.889.017c2.812,1.368,6.133,1.944,6.511,5.81.073.75,1.063,1.018,1.856.752a1.435,1.435,0,0,0,1.1-1.916c-.57-1.445-.294-2.277,1.221-2.834a1.543,1.543,0,0,0,.814-2.279,1.413,1.413,0,0,0-2.277-.595c-1.842,1.327-3.6.948-5.3-.162C1654.338,1418.568,1653.134,1418.95,1652.094,1420.887Z" transform="translate(-10.522 -0.923)" fill="#2f2d2b"/>
      <path id="Trazado_205283" data-name="Trazado 205283" d="M1434.287,1522.744c-1.589-1.541-.814-2.36.934-2.431,3.223-.132,6.495-.32,9.56,1.034.579.256,1.338.537,1.592.063,1.208-2.255,3.475-2.013,6.434-2.562-1.5-1.253-2.525-2.052-3.482-2.925-.974-.885-2.359-1.937-1.062-3.281,1.433-1.483,2.507.063,3.5,1,2.29,2.175,4.692,4.254,6.789,6.6a6.3,6.3,0,0,0,6.087,2.4,24.074,24.074,0,0,1,2.953-.017,82.4,82.4,0,0,0-6.023,6.127,8.932,8.932,0,0,1-8.368,3.526c-4.8-.323-9.638-.064-14.459-.085-2.826-.011-3.116-.469-1.99-2.951-1.16-.327-3.178.51-3.189-1.431-.011-2.1,1.993-1.181,3.136-1.25a53.092,53.092,0,0,0,6.723-.463c-3.063,0-6.127.01-9.19-.007-.89,0-1.732-.259-1.79-1.311-.058-1.073.69-1.4,1.64-1.377h9.6l.007-.665Z" transform="translate(-1.973 -6.844)" fill="#2f2d2b"/>
      <path id="Trazado_205284" data-name="Trazado 205284" d="M1406.755,1525.714c2.963,0,5.75-.53,8.216.134a14.723,14.723,0,0,0,8.882,0c3.161-1,3.335-.453,3.357,2.987.025,3.975.025,3.975-4.076,3.975a12.868,12.868,0,0,0-2.727.029C1414.023,1534.258,1410.354,1530.426,1406.755,1525.714Z" transform="translate(-0.805 -7.453)" fill="#2f2d2b"/>
      <path id="Trazado_205285" data-name="Trazado 205285" d="M1425.594,1495.143c.049-1.342,1.423-2.11,3.2-2.422,3.432-.6,6.88-1.121,10.3-1.786,1.371-.266,2.933-.05,3.828-1.777.394-.76,1.605-.873,1.859.617.361,2.126.784,4.241,1.174,6.362.315,1.71-1.023,1.781-1.749,1.21-1.22-.959-2.292-.581-3.5-.362-3.672.667-7.346,1.328-11.028,1.931C1427.2,1499.322,1425.526,1498.037,1425.594,1495.143Zm18.78.064c-.228-1.25-.411-2.3-.615-3.344-.073-.372-.03-.679-.722-.528-4.206.917-8.436,1.723-12.658,2.566l-.024.538Z" transform="translate(-1.662 -5.779)" fill="#2f2d2b"/>
      <path id="Trazado_205286" data-name="Trazado 205286" d="M1434.954,1512.22l-12.453-2.186c-.631-.112-1.283-.508-1.872.077a1.7,1.7,0,0,1-2.24.426c-.772-.536-.1-1.384-.014-2.06.232-1.8.679-3.582.9-5.388.147-1.205,1.184-1.181,1.535-.787,2.151,2.417,5.21,1.666,7.821,2.38,2.385.652,4.882.883,7.313,1.376,1.894.385,2.911,1.559,2.6,3.552S1436.892,1512.345,1434.954,1512.22Zm-14.508-7.584c-.195,1-.426,1.973-.547,2.957-.037.3-.4.722.537.88,5.094.857,10.228.757,15.351.923.509.017,1.292.327,1.376-.548a1.331,1.331,0,0,0-1-1.29,10.408,10.408,0,0,0-1.689-.375C1429.826,1506.335,1425.176,1505.493,1420.446,1504.635Z" transform="translate(-1.317 -6.391)" fill="#2f2d2b"/>
      <path id="Trazado_205287" data-name="Trazado 205287" d="M1419.881,1519.151c.634,1.471,1.095,2.394,1.427,3.361a1.4,1.4,0,0,1-.659,1.7,1.349,1.349,0,0,1-1.607-.026,1.428,1.428,0,0,1-.62-1.72C1418.769,1521.5,1419.242,1520.583,1419.881,1519.151Z" transform="translate(-1.332 -7.168)" fill="#2f2d2b"/>
      <path id="Trazado_205288" data-name="Trazado 205288" d="M1417.709,1512.809c.595,1.246,1,2.021,1.338,2.827a1.566,1.566,0,0,1-.569,2.144,1.314,1.314,0,0,1-1.6-.052,1.648,1.648,0,0,1-.4-2.2C1416.793,1514.774,1417.147,1514.04,1417.709,1512.809Z" transform="translate(-1.236 -6.88)" fill="#2f2d2b"/>
      <path id="Trazado_205289" data-name="Trazado 205289" d="M1445.12,1512.79c.7,1.4,2.3,2.624,1.017,4.277a1.243,1.243,0,0,1-1.982-.04C1442.848,1515.322,1444.623,1514.2,1445.12,1512.79Z" transform="translate(-2.485 -6.879)" fill="#2f2d2b"/>
      <path id="Trazado_205290" data-name="Trazado 205290" d="M1434.365,1523.255h9.4l-.007.665h-9.6C1434.231,1523.7,1434.3,1523.477,1434.365,1523.255Z" transform="translate(-2.052 -7.355)" fill="#b63e38"/>
      <path id="Trazado_205291" data-name="Trazado 205291" d="M1446.96,1499.189c.7,1.344,2.34,2.458,1.052,4.133a1.243,1.243,0,0,1-1.807.117C1444.579,1501.816,1446.607,1500.64,1446.96,1499.189Z" transform="translate(-2.571 -6.26)" fill="#2f2d2b"/>
      <path id="Trazado_205292" data-name="Trazado 205292" d="M1443.549,1506.268c1.017.74,1.16,1.816,1.6,2.715a1.375,1.375,0,0,1-.475,1.745,1.448,1.448,0,0,1-1.633.105,1.323,1.323,0,0,1-.648-1.687C1442.686,1508.217,1443.112,1507.329,1443.549,1506.268Z" transform="translate(-2.422 -6.582)" fill="#2f2d2b"/>
      <path id="Trazado_205293" data-name="Trazado 205293" d="M1527.592,1517.958c.4-.814.588-1.966,1.243-2.382,2.329-1.48,1.483-3.281.883-5.174-1.443-4.557-2.807-9.14-4.273-13.69-.426-1.322-.214-2.213,1.23-2.808,1.394,5.678,2.771,11.305,4.158,16.93a15.394,15.394,0,0,0,1.183,2.865c.683,1.438,1.38-.088,1.927.334.31-1.108,1.626-1.787,1.39-3.112-.247-1.389-.933-.346-1.416-.189-.369.12-.655.093-.838-.231-.647-1.144.548-2.267.073-3.473-.084-.213.637-1,1.317-.84,1.618.369,1.745-.754,1.911-1.839.625-4.082,1.227-8.167,1.862-12.247.618-3.964,1.268-7.923,1.943-12.131,2.214,1.446,3.238,2.735,2.461,5.523-2.407,8.627-4.418,17.364-6.59,26.058-.186.744-.732,1.606.7,1.658l-.063-.069c.01,1.791,1.329,4.622-2.643,3.227-.428-.151-1.084.4-1.213,1.036-.1.491-.07,1.059.49,1.269s1.183.937,1.753.15a1.435,1.435,0,0,1,1.471-.64c5.7.534,10.348-2.844,15.536-4.213.353-.093,1.115-.148.891-.893a.809.809,0,0,0-1.141-.607c-.364.112-1.059.168-1.141.01-.935-1.809-2.092-.973-3.268-.372a1.42,1.42,0,0,1-1.613-.093c1.367-1.289,2.774-3.255,3.951-3.767,4.108-1.787,6.968-5.1,10.593-7.4.728-.462,1.036,0,1.451.381l2.676,2.446-10.9,5.4c1.191.085,1.372,1.137,1.434,2.046.1,1.4.362,1.817,1.879,1.2,3.217-1.3,6.526-2.383,9.817-3.5.61-.207,1.089-.347,1-1.1l-.064.038c1.378-.321,1.624,1.039,2.318,1.654,1.79,1.587,3.444,3.327,5.571,5.416-5.334.664-10.15,1.27-14.968,1.862-5.765.708-11.533,1.395-17.3,2.12-.635.079-1.375-.123-1.405,1.147-.03,1.185-1.385,1.594-2.441,1.681-.9.074-1.606.589-1.615,1.192-.018,1.366.926.132,1.387.332.71.309,1.525.719.517,1.5-1.471,1.137-.978,1.97.228,2.816,1.034-2.466,2.037-2.7,4.584-1.079l-.351.371c-.761.951-.373,3.1-2.89,2.35,3.267,3.652,6.354,7.072,9.393,10.534.455.519,1.544,1.037.481,1.986-1.125,1-1.413-.286-1.84-.768q-5.526-6.247-10.946-12.586c-.912-1.073-1.726-1.823-3.312-1.489a5.139,5.139,0,0,1-4.456-1.144c-1.748-1.542-3.105-.93-4.53.332-1.615,1.429-3.3,2.785-4.831,4.3-1.088,1.077-1.685,1.038-2.993.054-1.826-1.371-1.993-3.412-2.938-5.119-.394-.713.5-1,.924-1.187,1.2-.538,2.048.311,2.679,1.117.351.449.262,1.243.388,1.982,3.881-1.06,6.786-4.07,10.794-4.636a8.132,8.132,0,0,0-4.461-1.016c-3.869.487-7.761.788-11.646,1.152-3.311.31-3.312.3-5.843-2.841l18.094.786c-.776-1.341-2.13-2.3-1.307-3.869a1.549,1.549,0,0,1,1.445-.812c1,.117.762,1.081.856,1.779-1.38.605-.687,1.808-.771,2.781a1.247,1.247,0,0,0,.643.089c1.364-.514.225-1.576.485-2.342A.824.824,0,0,0,1527.592,1517.958Z" transform="translate(-5.417 -5.386)" fill="#2f2d2b"/>
      <path id="Trazado_205294" data-name="Trazado 205294" d="M1538.112,1513.615c.093-.886-.373-2.008,1.342-1.971.93.02,1-1.187,1.306-1.913,2.787-6.544,5.591-13.082,8.287-19.663.6-1.475,1-1.539,2.138-.462,3.937,3.727,3.975,3.692.583,7.968-2.367,2.984-4.58,6.115-7.176,8.886-1.736,1.852-1.934,4.017-2.35,6.213-.1.541.449.246.71.312l.579.437c-1.794,1.485-3.635.942-5.482.124Z" transform="translate(-6.778 -5.791)" fill="#2f2d2b"/>
      <path id="Trazado_205295" data-name="Trazado 205295" d="M1568.719,1527.164c-1.279,2.292-2.687,2.77-4.907,2.117-2.677-.787-5.924-3.149-7.554,1.763,1.412.6,3.044,1.273,4.653,2,.5.224,1.548.141,1.147,1.1-.36.854-1.146.782-1.858.244-2.541-1.919-6.205-1.848-8.152-4.83.307-.883,2.191,0,2.122-1.31a2.233,2.233,0,0,0-1.653-1.987c-.4-.1-1.008-.631-.933.585a1.474,1.474,0,0,1-2.613.988,5.911,5.911,0,0,0-3.474-1.727c-1.019-.137-2.025-.544-2.168-1.691-.169-1.355,1.14-1.007,1.833-1.436,1.73-1.074,3.919-2.671,5.2-.577,2.6,4.26,6.8,2.716,10.281,3.6A74.443,74.443,0,0,0,1568.719,1527.164Z" transform="translate(-7.017 -7.27)" fill="#2f2d2b"/>
      <path id="Trazado_205296" data-name="Trazado 205296" d="M1543.186,1513.348c4.633-5.781,9.928-10.964,14.814-16.507,3.386,2.747,3.4,2.762.1,5.426q-7.152,5.778-14.335,11.519Z" transform="translate(-7.011 -6.153)" fill="#2f2d2b"/>
      <path id="Trazado_205297" data-name="Trazado 205297" d="M1554.027,1536.166c.436,1.455,3.014,1.562,2.161,4.038-.412,1.2-1.3,1.543-2.047,2.658.648-3.572-2.814-3.427-4.058-5.2-.552-.787-2.016-1.431-1.087-2.664.74-.981,1.783-.091,2.695.062.464.078.909.451,1.415.146l-.055-.066c-.093.779.459.929,1.032,1.059Z" transform="translate(-7.262 -7.869)" fill="#2f2d2b"/>
      <path id="Trazado_205298" data-name="Trazado 205298" d="M1561.428,1522.272l14.725-1.858c-1.7,2.385-3.107,4.108-6.278,3.328a60.936,60.936,0,0,0-8.446-.932Z" transform="translate(-7.841 -7.226)" fill="#2f2d2b"/>
      <path id="Trazado_205299" data-name="Trazado 205299" d="M1547.819,1529.6l12.133,6.948c-.958,1.981-2.005,1.905-3.45.651-.675-.585-1.256-1.746-2.536-1.263l.055.032c.386-1.064-.435-.953-1.032-1.059l.055.066c-1.453-2.135-4.008-2.981-5.679-4.86Z" transform="translate(-7.202 -7.644)" fill="#2f2d2b"/>
      <path id="Trazado_205300" data-name="Trazado 205300" d="M1519.319,1519l-14.309-1.949c.822-1.986,2.032-2.177,3.667-1.682,3.57,1.082,7.175,2.046,10.765,3.057Z" transform="translate(-5.275 -6.985)" fill="#2f2d2b"/>
      <path id="Trazado_205301" data-name="Trazado 205301" d="M1526.046,1531.621c-.894,1.334-1.777,2.676-2.69,4-.217.314-.493.762-.968.4-.577-.435-.2-.853.121-1.24q1.5-1.784,3-3.566Z" transform="translate(-6.052 -7.717)" fill="#2f2d2b"/>
      <path id="Trazado_205302" data-name="Trazado 205302" d="M1558.593,1523.369c-.2.139-.324.242-.462.328a2.922,2.922,0,0,1-3.219-.277.462.462,0,0,1,.1-.8C1556.23,1522.283,1557.554,1521.584,1558.593,1523.369Z" transform="translate(-7.536 -7.307)" fill="#2f2d2b"/>
      <path id="Trazado_205303" data-name="Trazado 205303" d="M1526.606,1534.484c-.443,1.021-.872,2.049-1.337,3.061-.152.332-.284.871-.832.546a.663.663,0,0,1-.173-1.045c.631-.936,1.239-1.888,1.857-2.834Z" transform="translate(-6.143 -7.854)" fill="#2f2d2b"/>
      <path id="Trazado_205304" data-name="Trazado 205304" d="M1570.42,1508.966a6.647,6.647,0,0,0-.947.015c-.519.079-1.135.606-1.509-.064-.341-.61.259-1.02.66-1.4.661-.624,1.009.072,1.354.412.259.254.958.479.379,1.074Z" transform="translate(-8.134 -6.628)" fill="#2f2d2b"/>
      <path id="Trazado_205305" data-name="Trazado 205305" d="M1547.3,1530.075a2.262,2.262,0,0,1-1.414-1.09l.351-.371,1.517.946Z" transform="translate(-7.134 -7.599)" fill="#2f2d2b"/>
      <path id="Trazado_205306" data-name="Trazado 205306" d="M1526.769,1530.917l-.571.181c-.031-.137-.131-.351-.079-.4a2,2,0,0,1,.518-.256Z" transform="translate(-6.234 -7.682)" fill="#2f2d2b"/>
      <path id="Trazado_205307" data-name="Trazado 205307" d="M1431.681,1400.547c.033.217.144.6.086.622-.333.16-.31-.155-.363-.353A3.536,3.536,0,0,1,1431.681,1400.547Z" transform="translate(-1.926 -1.773)" fill="#fdfdfd"/>
      <path id="Trazado_205308" data-name="Trazado 205308" d="M1551.524,1391.809l-.282-.169c.049-.052.112-.155.145-.146a1.419,1.419,0,0,1,.294.148Z" transform="translate(-7.378 -1.361)" fill="#fdfdfd"/>
      <path id="Trazado_205309" data-name="Trazado 205309" d="M1530.286,1413.41a11.123,11.123,0,0,1,11.067-11.133c6.015-.04,11.219,4.871,11.176,10.752-.052,7.132-5.329,11.42-11.08,11.433A11.081,11.081,0,0,1,1530.286,1413.41Z" transform="translate(-6.425 -1.851)" fill="#fdfdfd"/>
      <path id="Trazado_205310" data-name="Trazado 205310" d="M1444.015,1623.319c.073,4.679,1.224,6.252,5.384,7.539-3.591,2.462-7.516,3.628-11.5,4.7-1.719.463-1.133-1.712-2.445-1.9-.648-.091.16-.96.427-1.352A33.843,33.843,0,0,1,1444.015,1623.319Z" transform="translate(-2.099 -11.907)" fill="#fdfdfd"/>
      <path id="Trazado_205311" data-name="Trazado 205311" d="M1454.844,1624.1c-.369.816-.719,1.642-1.111,2.447-.8,1.646-2.028,2.678-3.955,2.3a4.034,4.034,0,0,1-3.49-3.438,3.8,3.8,0,0,1,2.485-4.38c.768,3.4,1.442,3.794,4.8,2.934.437-.112.92-.532,1.284.132Zm-4.1,3.745a1.375,1.375,0,0,0,1.26-1.562,1.256,1.256,0,0,0-1.38-1.147,1.222,1.222,0,0,0-1.251,1.266C1449.36,1627.294,1449.923,1627.715,1450.749,1627.846Z" transform="translate(-2.601 -11.803)" fill="#fdfdfd"/>
      <path id="Trazado_205312" data-name="Trazado 205312" d="M1450.221,1633.672c-1.958,2.077-4.514,2.927-7.238,3.416C1445.175,1635.506,1447.821,1634.875,1450.221,1633.672Z" transform="translate(-2.453 -12.378)" fill="#fdfdfd"/>
      <path id="Trazado_205313" data-name="Trazado 205313" d="M1431.778,1635.778c2.516-.222,3.218.6,2.315,2.712C1433.054,1637.883,1432.691,1636.793,1431.778,1635.778Z" transform="translate(-1.943 -12.472)" fill="#fdfdfd"/>
      <path id="Trazado_205314" data-name="Trazado 205314" d="M1434.746,1606.518c-.228.239-.5.425-.766.122-.067-.076.132-.385.208-.587Z" transform="translate(-2.043 -11.122)" fill="#fdfdfd"/>
      <path id="Trazado_205315" data-name="Trazado 205315" d="M1455.253,1624.218l-.371-.208.185-.21c.055.142.111.284.168.427Z" transform="translate(-2.994 -11.929)" fill="#fdfdfd"/>
      <path id="Trazado_205316" data-name="Trazado 205316" d="M1545.4,1640.552c-1.547-.031-2.865-.1-2.477,2.3.111.686-.223,2.79-2.171,2.693l-.041.064c1.8-1.809-.663-2.857-.937-4.286-.146-.757-1.879-.856-3.147-.251a20.288,20.288,0,0,0-2.267,1.441c-.471.3-.939.547-1.262,0-.359-.607.233-.614.619-.914a12.9,12.9,0,0,0,3.477-3.392c1.163-2.044-1.256-3.041-2.235-3.516-1.288-.623-1.843-1.7-2.788-2.537,1.416,1.9,4.668.289,5.645,3.16.269.79.725.195,1.139-.35,2.016-2.664,1.767-5.788,2.017-9.421.616,2.013,1.583,3.265,1.316,5.054a3.257,3.257,0,0,0,1.318,3.6c.866.533,1.573.976,2.261-.187.285-.481.8-1.215,1.268-.614.293.381.765,1.482.156,1.96-1.268.995-2.244,1.837-1.128,3.6.351.554-1.493.6-.811,1.654Z" transform="translate(-6.511 -12.008)" fill="#fdfdfd"/>
      <path id="Trazado_205317" data-name="Trazado 205317" d="M1545.982,1641.319c1.8-.277,3.452-.136,4.688,1.448.178.229.619.3.226.665a2.059,2.059,0,0,1-.62.268c-.618-2.206-3.382-.662-4.248-2.434Z" transform="translate(-7.139 -12.721)" fill="#fdfdfd"/>
      <path id="Trazado_205318" data-name="Trazado 205318" d="M1541.162,1646.5l.044.127-.083-.067Z" transform="translate(-6.918 -12.962)" fill="#fdfdfd"/>
      <path id="Trazado_205319" data-name="Trazado 205319" d="M1659.138,1398.757c0-.908-.009-1.816,0-2.724.007-.572-.156-.96-.818-.976-.569-.013-1.062.143-.968.8.437,3.04-1.077,6.26,1.01,9.174a1.986,1.986,0,0,1-1.629,3.022c-2.316.194-4.53.365-5.063,3.326-.14.781-1.05.975-1.789,1.159a13.474,13.474,0,0,1-6.421-.043c-.787-.187-1.6-.406-1.808-1.437-.479-2.351-2.3-2.788-4.319-2.976-2.518-.235-2.98-1.317-1.854-3.536,1.428-2.811.367-5.877.6-8.819.04-.512-.38-.663-.84-.672a.79.79,0,0,0-.915.893c0,.967,0,1.934,0,3.21a9.477,9.477,0,0,1,3.44-13.336,18.617,18.617,0,0,1,17.289-.341C1660.221,1387.866,1661.915,1393.562,1659.138,1398.757Zm-19.732,6.02c2.3-.077,4.352-.344,5.511-2.491,1-1.861.451-4-1.206-4.329a6.566,6.566,0,0,0-4.611.551c-2.12,1.2-2,3.313-1.88,5.286C1637.319,1405.361,1638.752,1404.511,1639.406,1404.778Zm14.551-.047c1.168-.023,2.482.474,2.423-1.674-.1-3.571-1.373-5.1-4.828-5.228-1.833-.065-3.357.214-3.4,2.549C1648.1,1403.038,1650.127,1404.574,1653.957,1404.731Zm-9.738,2.982c-.044,1.1.26,2.543,1.143,2.072,1.316-.7,3.509,1.5,4-1.259.179-1.017-1.946-5.116-2.452-4.838C1645.319,1404.559,1644.793,1406.261,1644.219,1407.713Z" transform="translate(-11.092 -0.998)" fill="#fdfdfd"/>
      <path id="Trazado_205320" data-name="Trazado 205320" d="M1659.148,1413.81c-.718-2.206.111-3.2,1.956-3.962,2.37-.979,5.12-1.706,5.39-5.088a1.383,1.383,0,0,1,1.9-1.1c.9.259,1.522,1.008,1.194,1.871-.667,1.754.02,2.523,1.575,3.183a1.445,1.445,0,0,1,.459,2.169c-.409.653-1.194,1.2-1.884.7-2.817-2.074-5.137-.314-7.559.814Z" transform="translate(-12.275 -1.911)" fill="#fdfdfd"/>
      <path id="Trazado_205321" data-name="Trazado 205321" d="M1635.208,1412.24c.231,1.3-.2,1.69-1.439,1.072-1.186-.593-2.425-1.082-3.594-1.707-1.768-.944-3.482-1.535-5.327-.155a1.5,1.5,0,0,1-2.327-.583,1.462,1.462,0,0,1,.726-2.278c1.617-.512,1.864-1.36,1.322-2.808a1.48,1.48,0,0,1,1-1.977c.932-.391,1.911.022,1.992.864.349,3.588,3.306,4.186,5.784,5.4C1634.254,1410.507,1635.578,1410.672,1635.208,1412.24Z" transform="translate(-10.608 -1.914)" fill="#fdfdfd"/>
      <path id="Trazado_205322" data-name="Trazado 205322" d="M1640.593,1422.643c-.994.48-1.938.978-2.916,1.4-1.667.718-3.077,1.549-3.195,3.686a1.609,1.609,0,0,1-2.05,1.608,1.56,1.56,0,0,1-1.16-2.306c.613-1.5-.18-2.028-1.442-2.527a1.519,1.519,0,0,1-.672-2.319,1.356,1.356,0,0,1,2.106-.579c1.93,1.376,3.786.97,5.547-.184S1639.64,1420.931,1640.593,1422.643Z" transform="translate(-10.91 -2.696)" fill="#fdfdfd"/>
      <path id="Trazado_205323" data-name="Trazado 205323" d="M1653.607,1422.66c1.04-1.937,2.244-2.319,3.922-1.224,1.7,1.11,3.455,1.489,5.3.162a1.413,1.413,0,0,1,2.277.595,1.543,1.543,0,0,1-.814,2.279c-1.515.557-1.791,1.389-1.221,2.834a1.435,1.435,0,0,1-1.1,1.916c-.792.265-1.782,0-1.856-.752C1659.74,1424.6,1656.419,1424.028,1653.607,1422.66Z" transform="translate(-12.035 -2.696)" fill="#fdfdfd"/>
      <path id="Trazado_205324" data-name="Trazado 205324" d="M1639.375,1416.151a10.789,10.789,0,0,0,15.542-.281l.432.39c-1.884,2.859-3.678,5.778-7.662,6.034-4.412.283-6.851-2.276-8.709-5.776Z" transform="translate(-11.369 -2.47)" fill="#fdfdfd"/>
      <path id="Trazado_205325" data-name="Trazado 205325" d="M1655.677,1415.634c.325-1.409.652-2.819,1.144-4.943.466,2.373.589,3.951-.712,5.334Z" transform="translate(-12.129 -2.234)" fill="#fdfdfd"/>
      <path id="Trazado_205326" data-name="Trazado 205326" d="M1638.914,1416.286c-1.731-1.3-1.4-3.1-1.2-5.534.92,2.046.615,3.827,1.6,5.166Z" transform="translate(-11.304 -2.237)" fill="#fdfdfd"/>
      <path id="Trazado_205327" data-name="Trazado 205327" d="M1444.6,1495.335l-14.018-.767.024-.538c4.222-.843,8.452-1.648,12.658-2.566.692-.151.649.156.722.528C1444.189,1493.035,1444.373,1494.084,1444.6,1495.335Z" transform="translate(-1.889 -5.907)" fill="#fdfdfd"/>
      <path id="Trazado_205328" data-name="Trazado 205328" d="M1420.531,1504.758c4.729.858,9.38,1.7,14.03,2.548a10.408,10.408,0,0,1,1.689.375,1.331,1.331,0,0,1,1,1.29c-.084.875-.868.565-1.376.548-5.124-.166-10.257-.066-15.351-.923-.942-.158-.575-.582-.537-.88C1420.105,1506.731,1420.336,1505.76,1420.531,1504.758Z" transform="translate(-1.402 -6.514)" fill="#fdfdfd"/>
      <path id="Trazado_205329" data-name="Trazado 205329" d="M1528.46,1519.755a.824.824,0,0,1-.008.248c-.26.766.879,1.829-.485,2.342a1.247,1.247,0,0,1-.643-.089c.084-.973-.609-2.175.771-2.781C1528.217,1519.569,1528.338,1519.663,1528.46,1519.755Z" transform="translate(-6.285 -7.183)" fill="#fdfdfd"/>
      <path id="Trazado_205330" data-name="Trazado 205330" d="M1553.258,1535.168c.6.106,1.417-.006,1.032,1.059C1553.717,1536.1,1553.165,1535.947,1553.258,1535.168Z" transform="translate(-7.469 -7.897)" fill="#fdfdfd"/>
      <path id="Trazado_205331" data-name="Trazado 205331" d="M1450.9,1628.042c-.826-.131-1.389-.552-1.372-1.443a1.222,1.222,0,0,1,1.251-1.266,1.256,1.256,0,0,1,1.38,1.147A1.375,1.375,0,0,1,1450.9,1628.042Z" transform="translate(-2.751 -11.999)" fill="#2f2d2b"/>
      <path id="Trazado_205332" data-name="Trazado 205332" d="M1639.61,1405.458c-.654-.266-2.088.583-2.186-.983-.123-1.973-.24-4.083,1.88-5.286a6.566,6.566,0,0,1,4.611-.551c1.656.328,2.21,2.467,1.206,4.329C1643.963,1405.114,1641.907,1405.38,1639.61,1405.458Z" transform="translate(-11.296 -1.678)" fill="#2f2d2b"/>
      <path id="Trazado_205333" data-name="Trazado 205333" d="M1654.684,1405.413c-3.83-.156-5.857-1.692-5.806-4.353.045-2.336,1.569-2.614,3.4-2.549,3.454.123,4.73,1.657,4.828,5.228C1657.166,1405.887,1655.853,1405.39,1654.684,1405.413Z" transform="translate(-11.82 -1.68)" fill="#2f2d2b"/>
      <path id="Trazado_205334" data-name="Trazado 205334" d="M1644.759,1408.673c.574-1.452,1.1-3.154,2.689-4.025.506-.278,2.631,3.822,2.452,4.838-.489,2.758-2.681.558-4,1.259C1645.018,1411.216,1644.715,1409.775,1644.759,1408.673Z" transform="translate(-11.632 -1.959)" fill="#2f2d2b"/>
    </g>
  </g>
</svg>
