<svg xmlns="http://www.w3.org/2000/svg" width="265.923" height="300.19" viewBox="0 0 265.923 300.19">
  <g id="Grupo_153127" data-name="Grupo 153127" transform="translate(-173.748 4913.375)">
    <g id="Grupo_152836" data-name="Grupo 152836" transform="translate(-299.329 -6596.89)">
      <g id="Grupo_152835" data-name="Grupo 152835">
        <path id="Trazado_205676" data-name="Trazado 205676" d="M500.643,1729.357l4.209-5.573,2.673-3.968s4.338-4.082,4.593-4.082,6.51-1.659,6.51-1.659l2.931-2.169,2.02-3.949-.489-4.216-5.07-2.939-4.544-1.692s-3.91.038-4.42.038-4.588,1.139-4.588,1.139l-4.6,2.178-3.317,3.317-4.083,6.124-1.786,3.828-.32,4.461v4.571l1,4.183,2.131,2.35,5.134-.4Z" fill="#e2872c"/>
        <path id="Trazado_205677" data-name="Trazado 205677" d="M500.733,1759.909l-5.967-6.92s-1.277-5.134.51-5.629,3.8-2.906,3.8-2.906l4.623.369,6.124,3.573,5.332,3.786s4.62,1.827,5.9,2.082a37.381,37.381,0,0,1,4.962,2.042s-.244,4.083-.434,4.593-3.762,3.317-4.528,3.317a74.967,74.967,0,0,0-7.573,0c-1.1.255-8.624-2.3-8.624-2.3Z" fill="#81af1d"/>
        <circle id="Elipse_4882" data-name="Elipse 4882" cx="10.462" cy="10.462" r="10.462" transform="translate(534.573 1725.685)" fill="#5000c7"/>
        <circle id="Elipse_4883" data-name="Elipse 4883" cx="4.593" cy="4.593" r="4.593" transform="translate(535.083 1756.306)" fill="#e2872c"/>
        <circle id="Elipse_4884" data-name="Elipse 4884" cx="4.593" cy="4.593" r="4.593" transform="translate(529.98 1695.065)" fill="#e53935"/>
        <g id="Grupo_152832" data-name="Grupo 152832">
          <path id="Trazado_205678" data-name="Trazado 205678" d="M647.683,1920.141l-3.531-25.338,2.127-7.326s9.09-10.11,8.7-10.641,8.149-5.313,9.516-6.337,8.54-3.416,9.223-3.416,11.273-1.708,11.273-1.708l18.633,5.7,10.061,5.226,6.331,9.776,2.04,7.5-.855,16.543-2.624,8.576-4.018-1.638-3.311-16.5-2.123-7.8-5.5.824-8.9.658-9.223.683-8.54-.341-7.475-1.824-5.059-.209-5.2-1.932-2.127,4.186-.639,5.927-3.758,8.2-1.3,6.109-1.636,5.1Z" fill="#e2872c"/>
          <path id="Trazado_205679" data-name="Trazado 205679" d="M643.7,1916.446c-1.565-7.343-1.637-14.648-1.542-21.945.07-5.4,2.326-10.1,5.452-14.37a37.679,37.679,0,0,1,21.887-14.412,52.531,52.531,0,0,1,31,1.157c9.382,3.317,16.647,9.242,21.125,18.285a23.12,23.12,0,0,1,2.492,10.864c-.123,6.274-.107,12.552-1.269,18.754-.094.5-.211,1-.339,1.6,2.67,1.267,3.252,3.747,3.49,6.356a28.427,28.427,0,0,1-2.144,14.519,15.437,15.437,0,0,1-2.017,3.244c-1.539,1.926-2.7,2.4-5.911,2.745-.368,2.222-.64,4.464-1.126,6.66a27.453,27.453,0,0,1-7.947,14.062c-1.855,1.783-2.153,3.571-1.163,5.664a41.368,41.368,0,0,0,3.087,5.389c.839,1.247,1.038,2.348.153,3.188a2.007,2.007,0,0,1-3.2-.465c-1.532-2.069-2.873-4.28-4.287-6.421a1.693,1.693,0,0,0-.281.31,16.469,16.469,0,0,1-11.605,6.757,46.967,46.967,0,0,1-14.035-.189,15.994,15.994,0,0,1-10.152-6.171c-.255-.328-.53-.641-.581-.7-1.452,2.176-2.829,4.415-4.391,6.517a1.962,1.962,0,0,1-3.112.357,2.106,2.106,0,0,1,.106-3.073c.167-.194.347-.377.513-.572a14.757,14.757,0,0,0,3.2-7.149,2.347,2.347,0,0,0-.716-2.276,35.228,35.228,0,0,1-6.8-9.083,32.82,32.82,0,0,1-3.032-11.3c-.049-.5-.109-1.006-.169-1.565-4.053.174-6.28-2.241-7.807-5.454a27.984,27.984,0,0,1-2.151-16.5C640.74,1919.19,641.563,1917.362,643.7,1916.446Zm7.714,3.42c3.1,3.62,6.184,7.16,9.192,10.76a1.6,1.6,0,0,0,2.076.566c3.394-1.26,6.79-2.518,10.213-3.7,4.9-1.687,9.9-2.718,15.068-1.452,2.684.657,5.332,1.485,7.957,2.355s5.194,1.923,7.817,2.806a1.761,1.761,0,0,0,1.537-.278c3.054-3.452,6.042-6.962,9.02-10.479.2-.231.347-.77.217-.965-2.278-3.439-2.922-7.418-3.82-11.315-.929-4.026-1.879-8.047-2.808-12.073-.258-1.12-.851-1.474-2.023-1.243a110.082,110.082,0,0,1-17.412,1.861,59.316,59.316,0,0,1-16.533-1.223c-3.348-.831-6.675-1.749-10-2.669a1.642,1.642,0,0,0-2.225,1.1,26.956,26.956,0,0,0-1.141,2.98c-.993,3.7-1.915,7.425-2.867,11.139C654.646,1912.073,653.891,1916.21,651.413,1919.866Zm66.062-2.826.611-.046a22.72,22.72,0,0,0,.866-3.687c.408-5.87.716-11.747,1.042-17.622a15.944,15.944,0,0,0-1.4-7.225c-3.33-7.762-9.124-13.112-16.71-16.515-9.869-4.427-20.148-4.893-30.566-2.416a34.341,34.341,0,0,0-20.807,13.687c-2.378,3.351-4.268,7.013-4.231,11.2.052,5.841.4,11.683.771,17.515a35.476,35.476,0,0,0,1.065,5.126l.541.005a37.045,37.045,0,0,0,1.361-3.658c1.248-4.784,2.317-9.616,3.656-14.373a49.658,49.658,0,0,1,2.9-7.748,4.609,4.609,0,0,1,5.579-2.558,32.734,32.734,0,0,1,4.224,1.008c10.737,3.855,21.741,3.281,32.784,2.044,2.625-.294,5.231-.761,7.851-1.1a3.458,3.458,0,0,1,3.763,2.081,19.034,19.034,0,0,1,1.521,3.915c1.174,4.891,2.185,9.82,3.362,14.71C716.126,1913.3,716.863,1915.155,717.475,1917.04Zm-54.813,26.343a2.22,2.22,0,0,0,.394.02q3.45-.684,6.9-1.376c1.536-.307,2.632.287,2.872,1.558.223,1.184-.531,2.122-2.033,2.441-2.377.5-4.754,1.014-7.147,1.432-.788.137-1.124.39-1.043,1.213a18.058,18.058,0,0,1,.05,2.3,6.526,6.526,0,0,0,2.917,5.794c1.836,1.3,3.825,2.375,5.705,3.612.571.377,1.265.891,1.429,1.474a2.187,2.187,0,0,1-.513,1.916,2.6,2.6,0,0,1-2.171.422c-1.815-.727-3.523-1.722-5.273-2.613l-.3.142c1.109,2.234,2.067,4.561,3.362,6.681a12.209,12.209,0,0,0,8.79,5.817,40.743,40.743,0,0,0,12.25.129c6.4-.884,12.1-6.835,12.528-12.7-1.722.867-3.48,1.829-5.3,2.641a1.872,1.872,0,0,1-2.524-1.1,1.917,1.917,0,0,1,.837-2.539,9.694,9.694,0,0,1,1.152-.553,18.618,18.618,0,0,0,6.822-5.068,4.058,4.058,0,0,0,.919-1.777c.211-1.516.214-3.06.333-4.591.056-.712-.143-1.04-.928-1.177-2.435-.426-4.853-.954-7.272-1.464a3.127,3.127,0,0,1-1.182-.435,1.854,1.854,0,0,1-.7-2.368,2.017,2.017,0,0,1,2.508-1.239c2.488.492,4.974.993,7.57,1.513,0-2.557.019-4.944-.025-7.33a1.083,1.083,0,0,0-.545-.819c-4.123-1.5-8.245-3.007-12.4-4.414a21.8,21.8,0,0,0-14.2-.233c-4.6,1.537-9.162,3.207-13.77,4.83Zm-4.148.834c0-3.365.02-6.377-.027-9.389a2.017,2.017,0,0,0-.579-1.079c-3.375-3.962-6.736-7.937-10.183-11.836a13.047,13.047,0,0,0-2.591-1.772,10.063,10.063,0,0,0-.453.976,7.179,7.179,0,0,0-.265,1.116,25.038,25.038,0,0,0,1.187,12.1,14.181,14.181,0,0,0,2.119,3.748c.957,1.243,1.654,1.23,2.994.424,1.793-1.079,2.431-.959,3.775.711C655.761,1940.793,657.029,1942.372,658.514,1944.217Zm62.728-24.245a15.283,15.283,0,0,0-2.691,1.878c-3.468,3.94-6.861,7.946-10.268,11.94a1.845,1.845,0,0,0-.545.963c-.042,3.043-.025,6.088-.025,9.468,1.5-1.87,2.781-3.457,4.056-5.046,1.341-1.67,1.961-1.807,3.752-.613a1.92,1.92,0,0,0,2.837-.323,12.658,12.658,0,0,0,1.906-2.995,24.787,24.787,0,0,0,1.617-12.423A27.947,27.947,0,0,0,721.242,1919.972Zm-66.263,26.8a24.438,24.438,0,0,0,4.254,10.661C659.066,1953.14,658.628,1949.272,654.979,1946.772Zm56.269-.009c-3.644,2.533-4.114,6.39-4.246,10.687A25.011,25.011,0,0,0,711.248,1946.763Z"/>
        </g>
        <path id="Trazado_205680" data-name="Trazado 205680" d="M563.569,1833.6c3.111.83,6.213,1.892,9.4,2.466,11.881,2.14,28.336-5.1,30.862-22.225a24.111,24.111,0,0,0-19.981-27.419c-12.886-2.189-25.036,5.16-29.76,17.984-1.019,2.766-1.612,5.69-2.348,8.349-2.446-5.236-2.293-17.9,5.464-26.849a33.578,33.578,0,0,1,25.406-12.086c-5.648-11.214-6.169-22.357.28-33.33,3.988-6.785,11.931-12.283,18.065-13-1.814,1.769-3.859,3.521-5.62,5.522-7.745,8.8-9.5,21.219-4.146,30.93,5.092,9.239,13.011,13.961,23.687,13.508,10.608-.45,21.17-10.273,22.582-20.747,1.619-12.007-2.326-21.672-12.026-28.965-.2-.149-.383-.318-.649-.541,15.913,2.357,30.631,24.107,18.637,46.286,13.714,1.024,24.223,7,30.017,19.856a25.029,25.029,0,0,1,.617,19.952c-.64-2.624-1.052-5.135-1.868-7.508-3.281-9.542-9.395-16.317-19.4-18.958-13.844-3.652-28.176,5.323-30.682,18.92-2.81,15.248,7.881,26.9,19.619,29.766a31,31,0,0,0,19.031-1.639,4.54,4.54,0,0,1,1.431-.387c-7.258,7.279-16.04,10.308-26.188,8.722-10.082-1.576-17.647-7.159-23.186-15.793-6.883,10.441-16.353,16.339-29,16.159A27.463,27.463,0,0,1,563.569,1833.6Zm49.513-35.657c4.045.025,6.817-2.768,6.886-6.938a6.831,6.831,0,0,0-13.653-.118C606.3,1795.026,609.069,1797.915,613.082,1797.94Z"/>
        <path id="Trazado_205681" data-name="Trazado 205681" d="M647.03,1790.648c.665,9.778-5.077,23.175-16.887,29.5a16.264,16.264,0,0,1-2.724-7.165,1.468,1.468,0,0,1,.595-1.082,24.8,24.8,0,0,0,10.534-17.517c.231-1.77.938-2.431,2.48-2.686C643.027,1791.366,645.021,1791,647.03,1790.648Z"/>
        <path id="Trazado_205682" data-name="Trazado 205682" d="M630.324,1762.278c-1.727,1.92-3.341,3.766-5.035,5.536a1.434,1.434,0,0,1-1.3.172,24.624,24.624,0,0,0-21.715.026,1.467,1.467,0,0,1-1.239-.094,15.01,15.01,0,0,1-4.81-5.672C603.821,1756.415,619.892,1755.251,630.324,1762.278Z"/>
        <path id="Trazado_205683" data-name="Trazado 205683" d="M596.968,1820.583c-11.5-6.24-17.687-18.785-17.25-29.6a17.408,17.408,0,0,1,7.648,1.381c.233.093.393.616.42.952a24.191,24.191,0,0,0,10.807,18.654c.71.5.975.96.7,1.769C598.521,1815.973,597.771,1818.211,596.968,1820.583Z"/>
        <path id="Trazado_205684" data-name="Trazado 205684" d="M568,1730.932a47.462,47.462,0,1,1-47.341-47.417A47.5,47.5,0,0,1,568,1730.932Zm-77.636,32.352a44.2,44.2,0,0,0,63.009-2.648c16.947-18.613,13.992-45.168-.4-59.834ZM488.083,1761l6.367-6.4c-.153-.331-.349-.725-.517-1.131a6.687,6.687,0,0,1-.454-1.252c-.146-.761-.389-1.22-1.331-1.19a1.405,1.405,0,0,1-1.392-1.52c.061-.776.469-1.423,1.277-1.417.9.006,1.11-.442,1.371-1.173a5.135,5.135,0,0,1,1.3-2.068,21.133,21.133,0,0,1,2.842-1.831c.122-1.848.5-2.5,1.546-2.517.982-.013,1.312.516,1.642,2.631a22.143,22.143,0,0,1,3.121.812,1.535,1.535,0,0,0,1.951-.492q21.182-21.187,42.4-42.338c.856-.854,1.748-1.671,2.624-2.507A44.266,44.266,0,0,0,488.083,1761Zm8.592-8.929,5.467-5.454a7.691,7.691,0,0,0-4.055-.267,2.519,2.519,0,0,0-2.04,2.234A6.247,6.247,0,0,0,496.675,1752.068Z"/>
        <path id="Trazado_205685" data-name="Trazado 205685" d="M557.4,1738.762l-2.507,6c.467.444,1.168,1.079,1.835,1.75.836.841.891,1.641.2,2.337s-1.507.648-2.347-.154c-.667-.637-1.322-1.286-1.985-1.927-.018-.018-.059-.014-.011.167l-6.028,2.488c0,.716.014,1.694,0,2.673-.019,1.072-.591,1.692-1.525,1.694s-1.509-.62-1.529-1.69c-.017-.979,0-1.958,0-2.674l-6.287-2.608c-.444.481-1.066,1.2-1.737,1.869a1.514,1.514,0,0,1-2.347.167c-.694-.694-.631-1.476.2-2.335.331-.344.666-.686,1.015-1.012.326-.3.673-.584.849-.735l-2.637-6.249c-.594,0-1.536.007-2.478,0-1.188-.011-1.9-.6-1.877-1.556.019-.921.7-1.485,1.839-1.5.92-.009,1.841,0,2.54,0l2.628-6.352c-.431-.375-1.17-.968-1.848-1.624a1.56,1.56,0,0,1-.247-2.352c.661-.687,1.577-.607,2.432.222.616.6,1.222,1.211,1.836,1.813.04.04.112.048-.091-.034l6.213-2.58c0-.674-.009-1.62,0-2.566.014-1.121.6-1.8,1.533-1.8s1.506.687,1.525,1.812c.014.891.018,1.781.027,2.671,0,.03.018.06-.038-.117l6.294,2.608c.456-.49,1.083-1.207,1.757-1.876a1.542,1.542,0,1,1,2.17,2.145c-.67.676-1.382,1.309-2.03,1.919.581,1.087,1.16,2.005,1.574,2.992.4.957.632,1.985.979,3.12.882,0,1.861-.012,2.839,0,1.087.016,1.707.566,1.725,1.494.019.961-.626,1.536-1.76,1.557-.924.017-1.847.022-2.771.04-.052,0-.1.067-.155.1Zm-21.552-1.736a9.183,9.183,0,1,0,9.152-9.195A9.206,9.206,0,0,0,535.852,1737.026Z"/>
        <path id="Trazado_205686" data-name="Trazado 205686" d="M501.378,1761.665c-.684-.5-1.311-.931-1.917-1.393a1.547,1.547,0,1,1,1.837-2.432,24.766,24.766,0,0,0,11.288,4.849,17.8,17.8,0,0,0,8.787-.5,8.054,8.054,0,0,0,2.9-1.74,2.231,2.231,0,0,0-.593-3.911,26.417,26.417,0,0,0-4.524-1.752c-3.411-1.005-6.724-2.166-9.544-4.433-.937-.754-1.223-1.567-.676-2.348s1.42-.853,2.432-.169c.417.282.829.573,1.234.854,1.309-1.413,1.851-1.608,2.7-1,.786.562.826,1.168.1,2.668l5.477,1.757c.96-1.7,1.455-2.017,2.425-1.592.929.407,1.083.995.659,2.531a20.928,20.928,0,0,1,2.674,1.921,2.012,2.012,0,0,0,2.1.767,1.389,1.389,0,0,1,1.851,1.27,1.444,1.444,0,0,1-1.41,1.693c-.785.086-1.038.417-1.2,1.146a6.369,6.369,0,0,1-2.865,3.907c-.6.405-1.255.735-1.882,1.1.256,1.543.04,2.174-.845,2.478-.909.313-1.383-.006-2.262-1.453h-6.657c-.049.4-.079.706-.128,1.012a1.367,1.367,0,0,1-1.522,1.263c-.853-.014-1.528-.475-1.432-1.317.156-1.38-.6-1.646-1.681-1.941-1.528-.416-3-1.044-4.531-1.594-1,1.009-1.552,1.191-2.354.69C500.884,1763.407,500.973,1762.59,501.378,1761.665Z"/>
        <path id="Trazado_205687" data-name="Trazado 205687" d="M539.7,1755.335a5.346,5.346,0,1,1-5.378,5.322A5.363,5.363,0,0,1,539.7,1755.335Zm-2.312,5.334a2.29,2.29,0,1,0,2.324-2.273A2.314,2.314,0,0,0,537.387,1760.669Z"/>
        <path id="Trazado_205688" data-name="Trazado 205688" d="M552.68,1711.022a3.053,3.053,0,1,1-3.049,3.035A3.078,3.078,0,0,1,552.68,1711.022Z"/>
        <path id="Trazado_205689" data-name="Trazado 205689" d="M506.756,1753.43a1.9,1.9,0,1,1-1.9,1.858A1.927,1.927,0,0,1,506.756,1753.43Z"/>
        <path id="Trazado_205690" data-name="Trazado 205690" d="M515.954,1759.909a1.521,1.521,0,1,1,1.514-1.53A1.537,1.537,0,0,1,515.954,1759.909Z"/>
        <path id="Trazado_205691" data-name="Trazado 205691" d="M507.16,1697.9c1.416-.2,2.7-.459,4-.554,1.263-.092,2.539-.02,3.918-.02.254-.7.534-1.5.841-2.294a1.529,1.529,0,0,1,2-1.1,1.551,1.551,0,0,1,.869,2.124c-.222.693-.481,1.375-.751,2.138.3.137.579.27.862.39a12.141,12.141,0,0,1,4.629,3.291,1.276,1.276,0,0,0,.942.314c.467-.031.916-.264,1.385-.341a1.426,1.426,0,0,1,1.751,1.082,1.313,1.313,0,0,1-.975,1.784c-1.4.22-1.559.975-1.553,2.208a6.969,6.969,0,0,1-2.472,5.1c-.389.372-.8.717-1.267,1.127.584,1.046,2,2.062.414,3.316-.859.679-1.4.368-3.093-1.663l-7.428,3.559c.772,1.014,2.382,1.864.934,3.207-1.539,1.429-2.278-.492-3.482-1.139l-3.991,6.4c.445.392.887.751,1.292,1.148a1.419,1.419,0,0,1,.114,2.123,1.44,1.44,0,0,1-2.054.205c-.411-.3-.786-.643-1.186-.975a26.069,26.069,0,0,1-2.44,1.83,26.675,26.675,0,0,1-2.852,1.27c0,.4.025.962-.005,1.522a1.522,1.522,0,0,1-3.043.01c-.031-.534-.005-1.072-.005-1.65-3.822-.651-5.388-3.254-5.916-6.689-2.221.291-2.9.118-3.057-.9-.346-2.239,1.654-1.773,2.543-2.188l1.682-7.615c-.487-.19-1.132-.426-1.766-.691a1.532,1.532,0,1,1,1.1-2.844c.683.241,1.358.5,1.928.717l4.441-6.871c-.309-.276-.752-.632-1.146-1.035a1.53,1.53,0,1,1,2.16-2.146,10.539,10.539,0,0,1,.9,1.1l6.79-4.416c-.134-.4-.329-1-.523-1.588-.387-1.183-.1-1.933.855-2.264.916-.316,1.629.136,2.047,1.3C506.756,1696.749,506.954,1697.315,507.16,1697.9Zm-15.8,24.584c.166,1.259.25,2.535.515,3.772.458,2.148,1.651,3.04,3.847,3.1,2.625.074,4.376-1.387,5.768-3.35,1.139-1.606,2.181-3.288,3.16-5a13.85,13.85,0,0,1,6.22-5.856c2.358-1.114,4.732-2.214,7-3.5a12.562,12.562,0,0,0,3.285-2.7,3.813,3.813,0,0,0-.256-5.366,11.065,11.065,0,0,0-3.471-2.268c-4.795-1.916-9.423-1.008-13.775,1.377-5.115,2.8-8.288,7.324-10.488,12.589A19.5,19.5,0,0,0,491.36,1722.48Z"/>
        <path id="Trazado_205692" data-name="Trazado 205692" d="M529.728,1699.548a5.355,5.355,0,1,1,5.344,5.357A5.364,5.364,0,0,1,529.728,1699.548Zm3.066.034a2.29,2.29,0,1,0,2.289-2.308A2.313,2.313,0,0,0,532.794,1699.582Z"/>
        <path id="Trazado_205693" data-name="Trazado 205693" d="M485.289,1737a3.053,3.053,0,1,1-3.023,3.062A3.078,3.078,0,0,1,485.289,1737Z"/>
        <path id="Trazado_205694" data-name="Trazado 205694" d="M539.471,1734.209a3.065,3.065,0,1,1-3.066-3.088A3.1,3.1,0,0,1,539.471,1734.209Z"/>
        <path id="Trazado_205695" data-name="Trazado 205695" d="M540.439,1738.9a1.9,1.9,0,1,1,1.909-1.852A1.923,1.923,0,0,1,540.439,1738.9Z"/>
        <path id="Trazado_205696" data-name="Trazado 205696" d="M539.47,1722.879a2.039,2.039,0,1,1-2.089-1.985A2.064,2.064,0,0,1,539.47,1722.879Z"/>
        <path id="Trazado_205697" data-name="Trazado 205697" d="M516.7,1704.914a2.286,2.286,0,1,1-2.277,2.321A2.306,2.306,0,0,1,516.7,1704.914Z"/>
        <path id="Trazado_205698" data-name="Trazado 205698" d="M499.111,1710.179a2.29,2.29,0,1,1,2.238,2.362A2.315,2.315,0,0,1,499.111,1710.179Z"/>
        <path id="Trazado_205699" data-name="Trazado 205699" d="M497.563,1722.614a2.291,2.291,0,1,1-2.175-2.418A2.314,2.314,0,0,1,497.563,1722.614Z"/>
        <path id="Trazado_205700" data-name="Trazado 205700" d="M508.243,1704.915a1.521,1.521,0,1,1-1.476,1.566A1.537,1.537,0,0,1,508.243,1704.915Z"/>
        <path id="Trazado_205701" data-name="Trazado 205701" d="M502.192,1720.18a1.521,1.521,0,1,1,1.5-1.547A1.538,1.538,0,0,1,502.192,1720.18Z"/>
        <g id="Grupo_152833" data-name="Grupo 152833">
          <path id="Trazado_205702" data-name="Trazado 205702" d="M532.413,1983.695q-10.679,0-21.356,0c-3,0-3.853-1.218-3.089-4.133,2.018-7.693,4.055-15.383,5.924-23.113a15.915,15.915,0,0,0-1.779-11.859c-1.7-2.993-3.6-5.877-5.489-8.764a63.177,63.177,0,0,1-9.362-21.535c-2.9-13.748,1.464-25.01,11.89-34.1,9.413-8.2,20.469-11.773,32.88-11.222,6.779.3,13.386,1.534,19.48,4.651,8.436,4.315,13.548,11.436,16.58,20.215a58.66,58.66,0,0,1,3,17.942,4.328,4.328,0,0,0,.636,2.12c2.485,3.921,5.046,7.794,7.566,11.692,1.673,2.587,1.956,5.18.148,7.878a8.934,8.934,0,0,0-.866,2.516c-1.965,6.876-3.9,13.766-7.173,20.17a44.006,44.006,0,0,1-3.295,5.3,10.333,10.333,0,0,1-8.759,4.452c-2.3.034-4.6-.035-6.9.015-2.939.064-4.382,1.041-4.8,3.91a76.816,76.816,0,0,0-.422,8.638c-.024.761.137,1.527.166,2.293.07,1.889-.833,2.882-2.722,2.914-2.3.04-4.6.012-6.906.012Zm7.683-61.016c3.389,1.666,6.641,3.329,9.958,4.852a5.647,5.647,0,0,0,2.912.489,52.5,52.5,0,0,0,17.264-5.209c2.781-1.411,5.428-3.086,8.18-4.668a15.039,15.039,0,0,0-.918-1.464,8.136,8.136,0,0,1-1.546-4.965,91.358,91.358,0,0,0-1.54-12.382,32.591,32.591,0,0,0-8.29-16.149,1.319,1.319,0,0,0-1.661-.453,72.654,72.654,0,0,0-6.806,2.83,16.21,16.21,0,0,0-8.885,12.916,89.74,89.74,0,0,1-1.545,9.309A32.546,32.546,0,0,1,540.1,1922.679Zm13.94,42.412c-2.585-.676-5.07-1.255-7.51-1.981a9.1,9.1,0,0,1-5.916-5.031c-2.32-4.832-4.932-9.524-7.332-14.319a2.041,2.041,0,0,0-2.254-1.327,8.748,8.748,0,0,1-7.368-3.13,2.077,2.077,0,0,0-.425-.284c-1.644,1.495-3.221,2.991-4.873,4.4a1.394,1.394,0,0,0-.412,1.866,18.72,18.72,0,0,1,1.069,10.921c-1.512,6.937-3.331,13.808-5.024,20.706-.136.553-.283,1.1-.436,1.7h38.573C551.9,1973.929,551.781,1969.331,554.036,1965.091Zm-6.144-32.941c-.688-.348-1.291-.653-1.893-.96-5.633-2.878-11.573-5.2-16.6-9.184-1.416-1.125-2.616-.954-3.563.618a5.19,5.19,0,0,0-.709,2.981c.214,2.194.81,4.347,1.11,6.536.729,5.318,2.757,5.532,6.534,5.289a3.927,3.927,0,0,1,4.26,2.619c1.734,3.639,3.68,7.178,5.694,11.058C544.489,1944.637,546.17,1938.468,547.892,1932.15Z"/>
          <path id="Trazado_205703" data-name="Trazado 205703" d="M545.958,1953.166l5.263-20.987s25.823-4.291,28.556-8.39,9.3,3.438,7.726,5.818-2.26,7.5-2.26,7.5-4.783,33.136-22.888,24.937Z" fill="#81af1d"/>
        </g>
        <g id="Grupo_152834" data-name="Grupo 152834">
          <circle id="Elipse_4885" data-name="Elipse 4885" cx="21.111" cy="21.111" r="21.111" transform="translate(672.31 1709.658)" fill="#e53935"/>
          <circle id="Elipse_4886" data-name="Elipse 4886" cx="3.321" cy="3.321" r="3.321" transform="translate(690.1 1701.119)" fill="#e53935"/>
          <circle id="Elipse_4887" data-name="Elipse 4887" cx="3.321" cy="3.321" r="3.321" transform="translate(671.598 1708.472)" fill="#e53935"/>
          <circle id="Elipse_4888" data-name="Elipse 4888" cx="3.321" cy="3.321" r="3.321" transform="translate(664.482 1726.974)" fill="#e53935"/>
          <circle id="Elipse_4889" data-name="Elipse 4889" cx="3.321" cy="3.321" r="3.321" transform="translate(690.337 1754.49)" fill="#e53935"/>
          <circle id="Elipse_4890" data-name="Elipse 4890" cx="3.321" cy="3.321" r="3.321" transform="translate(709.314 1746.425)" fill="#e53935"/>
          <circle id="Elipse_4891" data-name="Elipse 4891" cx="3.321" cy="3.321" r="3.321" transform="translate(717.141 1727.449)" fill="#e53935"/>
          <path id="Trazado_205704" data-name="Trazado 205704" d="M648.115,1728.728c.237-1.9.391-3.815.724-5.7a45.061,45.061,0,0,1,12.3-24.014,2.961,2.961,0,0,1,.259-.242.914.914,0,0,1,.2-.081l1.87,1.953c-8.658,8.989-12.99,19.76-12.437,32.317a41.632,41.632,0,0,0,9.467,24.752,42.578,42.578,0,0,0,63.3,3.173,42.166,42.166,0,0,0,10.1-16.288,42.611,42.611,0,0,0,1.943-19.212c.507-.076.967-.149,1.429-.212.432-.058.866-.1,1.543-.186.06,2.755.283,5.442.147,8.111a44.148,44.148,0,0,1-10.94,27.392A44.664,44.664,0,0,1,700,1775.8c-1.428.211-2.868.343-4.3.511h-4.261a4.581,4.581,0,0,0-.685-.142,40.651,40.651,0,0,1-12.283-2.519q-24.557-9.4-29.651-35.229c-.352-1.789-.476-3.622-.705-5.434Z"/>
          <path id="Trazado_205705" data-name="Trazado 205705" d="M653.738,1730.824a39.727,39.727,0,0,1,29.735-38.407c13.556-3.4,25.758-.4,36.439,8.648,1.147.971,1.169,1.689.12,2.738q-26.731,26.738-53.468,53.47c-1.106,1.105-1.785,1.071-2.8-.087a39.552,39.552,0,0,1-9.724-21.938C653.868,1733.782,653.835,1732.3,653.738,1730.824Zm11.463,23.6,51.92-51.919c-12.555-11.005-33.935-12.305-48.575,1.213A36.793,36.793,0,0,0,665.2,1754.428Z"/>
          <path id="Trazado_205706" data-name="Trazado 205706" d="M685.639,1750.687l1.02-2.564c1.444.355,2.856.639,4.219,1.077a1.947,1.947,0,0,1,.937,1.07c.466,1.115.806,2.281,1.225,3.417a1.547,1.547,0,0,1-.642,2,1.8,1.8,0,0,0-.812,2.219,2.087,2.087,0,0,0,1.988,1.36,2.052,2.052,0,0,0,2.008-1.453,1.75,1.75,0,0,0-.777-2.081,1.6,1.6,0,0,1-.68-2.136c.406-1.077.781-2.166,1.14-3.26a1.7,1.7,0,0,1,1.425-1.279,19.925,19.925,0,0,0,7.649-3.139,2.227,2.227,0,0,1,1.717-.084,29.016,29.016,0,0,1,3.042,1.434c1.151.562,1.292.8,1.162,2.072a1.858,1.858,0,0,0,.969,2.016,1.916,1.916,0,0,0,2.3-.316,1.972,1.972,0,0,0,.652-2.237,1.848,1.848,0,0,0-2.094-1.25c-1.333.114-1.557-.009-2.137-1.2a28.02,28.02,0,0,1-1.427-3.045,2.222,2.222,0,0,1,.123-1.714,19.994,19.994,0,0,0,3.128-7.655,1.636,1.636,0,0,1,1.206-1.38c1.094-.358,2.183-.734,3.261-1.137a1.621,1.621,0,0,1,2.146.657,1.79,1.79,0,0,0,2.16.783,2.117,2.117,0,0,0,.023-3.992,1.858,1.858,0,0,0-2.179.746c-.739.94-1.074,1.044-2.206.657-1.09-.372-2.2-.7-3.251-1.163a2.051,2.051,0,0,1-1.057-1.052c-.427-1.311-.7-2.673-1.05-4.092l2.563-1.033c.325,1.084.649,2.105.937,3.136a2.051,2.051,0,0,0,2.637.943,4.709,4.709,0,0,1,5.546-.364,5.027,5.027,0,0,1,2.236,5.052,4.871,4.871,0,0,1-4.053,4.047,4.612,4.612,0,0,1-3.659-.982,1.957,1.957,0,0,0-2.72.98,22.106,22.106,0,0,1-2.644,6.355,2.032,2.032,0,0,0,1.255,2.615,4.734,4.734,0,0,1,4.221,4.875,5.1,5.1,0,0,1-4.863,4.854,4.731,4.731,0,0,1-4.864-4.235,2.078,2.078,0,0,0-2.548-1.285,22.052,22.052,0,0,1-6.518,2.7,2.133,2.133,0,0,0-.946,2.659,4.66,4.66,0,0,1,.366,5.537,5.028,5.028,0,0,1-5.063,2.213,4.862,4.862,0,0,1-4.034-4.064,4.588,4.588,0,0,1,1.017-3.648,2.09,2.09,0,0,0-.946-2.708C687.735,1751.332,686.732,1751.014,685.639,1750.687Z"/>
          <path id="Trazado_205707" data-name="Trazado 205707" d="M738.262,1722.047l-2.777.532c-3.762-15.512-12.745-26.571-27.857-31.864-15.087-5.284-28.979-2.254-41.618,7.5l-1.834-2.174c13.8-10.637,28.938-13.768,45.325-7.666C725.118,1694.192,734.381,1705.845,738.262,1722.047Z"/>
          <path id="Trazado_205708" data-name="Trazado 205708" d="M707.842,1729.438h2.72v2.8h-2.72Z"/>
          <path id="Trazado_205709" data-name="Trazado 205709" d="M676.712,1738.848l-2.49,1.189c-.483-1.485-.965-2.891-1.393-4.314a2.055,2.055,0,0,0-2.757-.964,4.673,4.673,0,0,1-6.478-.563,5.014,5.014,0,0,1,.034-6.715,4.665,4.665,0,0,1,6.413-.545,2,2,0,0,0,2.788-.994,21.932,21.932,0,0,1,2.657-6.351,2.029,2.029,0,0,0-1.22-2.568,4.742,4.742,0,0,1-4.274-4.835,5.085,5.085,0,0,1,4.9-4.907,4.738,4.738,0,0,1,4.843,4.265,2.02,2.02,0,0,0,2.561,1.234,21.854,21.854,0,0,1,6.437-2.677,2,2,0,0,0,.963-2.677,4.687,4.687,0,0,1-.36-5.472,5.016,5.016,0,0,1,5.032-2.284,4.878,4.878,0,0,1,4.062,3.933,4.637,4.637,0,0,1-.983,3.825,2.03,2.03,0,0,0,.964,2.686c1.409.419,2.8.891,4.324,1.379L701.564,1714c-1.817-.494-3.586-.924-5.314-1.48a1.949,1.949,0,0,1-.946-1.063c-.457-1.086-.782-2.228-1.193-3.335a1.583,1.583,0,0,1,.656-2.069,1.805,1.805,0,0,0,.782-2.236,2.12,2.12,0,0,0-4.02.183,1.866,1.866,0,0,0,.774,2.022c.953.757,1.062,1.09.685,2.2-.371,1.09-.768,2.172-1.132,3.264a1.574,1.574,0,0,1-1.319,1.155,19.957,19.957,0,0,0-7.734,3.168,2.075,2.075,0,0,1-1.637.137c-1.185-.443-2.3-1.07-3.443-1.626a1.589,1.589,0,0,1-.849-1.853,1.892,1.892,0,0,0-1.632-2.318,2.183,2.183,0,0,0-2.345,1.729,1.825,1.825,0,0,0,1.967,2.294,2.069,2.069,0,0,1,2.509,1.517c.361.9.833,1.762,1.267,2.635a1.66,1.66,0,0,1-.115,1.834,18.28,18.28,0,0,0-3.143,7.546,1.692,1.692,0,0,1-1.251,1.448c-1.124.362-2.239.756-3.346,1.168a1.582,1.582,0,0,1-2.066-.664,1.763,1.763,0,0,0-2.15-.792,2,2,0,0,0-1.395,1.868,2.09,2.09,0,0,0,1.232,2.075,1.852,1.852,0,0,0,2.279-.665c.788-.995,1.079-1.083,2.272-.671,1.088.376,2.2.7,3.249,1.167a2.057,2.057,0,0,1,1.058,1.054C675.81,1735.362,676.228,1737.077,676.712,1738.848Z"/>
          <path id="Trazado_205710" data-name="Trazado 205710" d="M693.52,1718.033h-2.726v-2.742h2.726Z"/>
          <path id="Trazado_205711" data-name="Trazado 205711" d="M680.744,1730.908v2.726H678v-2.726Z"/>
          <circle id="Elipse_4892" data-name="Elipse 4892" cx="3.321" cy="3.321" r="3.321" transform="translate(680.375 1720.333)" fill="#81af1d"/>
          <ellipse id="Elipse_4893" data-name="Elipse 4893" cx="5.812" cy="3.321" rx="5.812" ry="3.321" transform="translate(693.658 1734.565)" fill="#81af1d"/>
          <path id="Trazado_205712" data-name="Trazado 205712" d="M676.829,1751l2.04,2.007-7.386,7.361c12.846,10.183,34.357,10.782,48.5-3.725,14.233-14.6,12.779-35.668,3.175-47.742l-23.321,23.35a7.827,7.827,0,0,1,1.038.2,13.943,13.943,0,0,1,2.482.905,5.052,5.052,0,0,1,0,9.212,8.213,8.213,0,0,1-8.379-.082,5.817,5.817,0,0,1-2.538-2.868q-5.355,5.381-10.683,10.737l-2.02-2.2c.056-.059.269-.292.492-.516q20.81-20.811,41.619-41.619c1.171-1.171,1.882-1.137,2.893.146a38.9,38.9,0,0,1,8.549,26.594,39.593,39.593,0,0,1-31.877,37.069,38.745,38.745,0,0,1-32.7-7.924c-1.066-.837-1.112-1.632-.162-2.589C671.327,1756.519,674.1,1753.733,676.829,1751Zm22.727-15.875a5.482,5.482,0,0,0-3.719,1.17,2.062,2.062,0,0,0-.037,3.3,5.55,5.55,0,0,0,6.928-.026,2.038,2.038,0,0,0-.03-3.237A4.871,4.871,0,0,0,699.556,1735.122Z"/>
          <path id="Trazado_205713" data-name="Trazado 205713" d="M683.646,1719.5a4.256,4.256,0,1,1-4.276,4.283A4.273,4.273,0,0,1,683.646,1719.5Zm.011,5.672a1.416,1.416,0,1,0-1.446-1.36A1.433,1.433,0,0,0,683.657,1725.17Z"/>
        </g>
      </g>
    </g>
  </g>
</svg>
